<svg width="174" height="174" viewBox="0 0 174 174" fill="none" xmlns="http://www.w3.org/2000/svg">
<g clip-path="url(#clip0_4_4770)">
<g clip-path="url(#clip1_4_4770)">
<path d="M93.7227 26.0016C92.4042 23.7256 89.8247 22.3018 86.9947 22.3018C84.1133 22.3018 81.5328 23.8034 80.1893 26.1228L14.4504 139.624C13.0396 142.06 12.8307 145.128 14.34 147.734C15.7807 150.221 18.3756 151.698 21.0625 151.698H152.927C155.614 151.698 158.209 150.221 159.649 147.734C161.159 145.128 160.95 142.06 159.539 139.624L93.7227 26.0016Z" fill="white" stroke="black" stroke-width="0.719" stroke-miterlimit="2" stroke-linecap="round" stroke-linejoin="round"/>
<path d="M86.992 24.7549C85.0379 24.7549 83.3406 25.7766 82.4861 27.2518L16.749 140.751C15.7649 142.45 15.6342 144.476 16.6382 146.209C17.6153 147.896 19.3466 148.844 21.0554 148.844H152.923C154.632 148.844 156.363 147.896 157.34 146.209C158.344 144.476 158.214 142.45 157.229 140.751L91.4147 27.1303C90.6073 25.7365 88.9268 24.7549 86.992 24.7549ZM137.344 134.702H36.6348L86.9865 47.7686L137.344 134.702Z" fill="#DD2414"/>
<path fill-rule="evenodd" clip-rule="evenodd" d="M92.9104 124.517C93.0644 124.517 93.1791 124.634 93.4511 124.735C93.746 125.059 93.9951 125.392 94.2867 125.833C93.9951 125.833 93.6051 125.833 93.1791 125.833C93.0644 125.51 92.7793 125.176 92.4844 124.735C92.6384 124.735 92.7793 124.634 92.9104 124.517Z" fill="black"/>
<path fill-rule="evenodd" clip-rule="evenodd" d="M94.3672 127.087C94.9112 127.087 95.4519 127.201 96.1663 127.302C96.1663 127.534 96.1663 127.858 96.1663 128.191C95.7403 128.077 95.3372 127.858 94.7703 127.626C94.6392 127.534 94.4852 127.302 94.3672 127.087Z" fill="black"/>
<path fill-rule="evenodd" clip-rule="evenodd" d="M96.1604 125.986C96.298 125.777 96.5471 125.447 96.842 125.12C97.3991 125.12 97.9398 125.12 98.4838 125.12C98.4838 125.215 98.3658 125.329 98.2347 125.545C97.9398 125.545 97.5138 125.545 97.1271 125.662C97.1271 125.986 97.1271 126.319 97.1271 126.76C96.842 126.76 96.5471 126.76 96.1604 126.645C96.0031 126.528 95.872 126.436 95.7344 126.205C95.872 126.205 96.0031 126.103 96.1604 125.986Z" fill="black"/>
<path fill-rule="evenodd" clip-rule="evenodd" d="M98.8713 127.55C99.009 127.55 99.1171 127.648 99.412 127.765C99.7004 128.089 99.9691 128.422 100.241 128.863C99.9691 128.863 99.5431 128.863 99.1171 128.863C99.009 128.54 98.7402 128.206 98.4453 127.765C98.5829 127.765 98.7402 127.648 98.8713 127.55Z" fill="black"/>
<path fill-rule="evenodd" clip-rule="evenodd" d="M100.32 130.125C100.861 130.125 101.428 130.22 102.1 130.334C102.1 130.55 102.1 130.876 102.1 131.209C101.674 131.108 101.287 130.876 100.73 130.667C100.576 130.55 100.458 130.334 100.32 130.125Z" fill="black"/>
<path fill-rule="evenodd" clip-rule="evenodd" d="M102.098 129.02C102.255 128.789 102.511 128.462 102.796 128.168C103.363 128.168 103.904 128.168 104.461 128.168C104.461 128.269 104.33 128.361 104.176 128.58C103.904 128.58 103.478 128.58 103.068 128.694C103.068 129.02 103.068 129.35 103.068 129.791C102.796 129.791 102.511 129.791 102.098 129.677C101.967 129.559 101.829 129.468 101.672 129.236C101.829 129.236 101.967 129.135 102.098 129.02Z" fill="black"/>
<path fill-rule="evenodd" clip-rule="evenodd" d="M99.5432 124.039C99.6841 124.039 99.8381 124.153 100.087 124.248C100.382 124.578 100.651 124.905 100.939 125.352C100.651 125.352 100.225 125.352 99.8381 125.352C99.6841 125.019 99.4121 124.696 99.1172 124.248C99.2745 124.248 99.4121 124.153 99.5432 124.039Z" fill="black"/>
<path fill-rule="evenodd" clip-rule="evenodd" d="M101 126.606C101.541 126.606 102.098 126.721 102.796 126.822C102.796 127.054 102.796 127.381 102.796 127.704C102.393 127.59 101.967 127.381 101.426 127.149C101.285 127.054 101.131 126.822 101 126.606Z" fill="black"/>
<path fill-rule="evenodd" clip-rule="evenodd" d="M93.137 128.038C93.2746 128.038 93.4057 128.13 93.7006 128.247C93.9497 128.58 94.2446 128.904 94.5133 129.351C94.2446 129.351 93.8186 129.351 93.4057 129.351C93.2746 129.021 92.9797 128.695 92.7109 128.247C92.8486 128.247 92.9797 128.13 93.137 128.038Z" fill="black"/>
<path fill-rule="evenodd" clip-rule="evenodd" d="M94.5938 130.604C95.1508 130.604 95.6948 130.706 96.3765 130.82C96.3765 131.029 96.3765 131.362 96.3765 131.689C95.9635 131.594 95.5375 131.362 94.9968 131.147C94.8657 131.029 94.7248 130.82 94.5938 130.604Z" fill="black"/>
<path fill-rule="evenodd" clip-rule="evenodd" d="M96.3817 129.523C96.5127 129.314 96.8077 128.981 97.0534 128.654C97.6368 128.654 98.1775 128.654 98.7444 128.654C98.7444 128.749 98.5871 128.863 98.4495 129.082C98.1775 129.082 97.7744 129.082 97.3484 129.196C97.3484 129.523 97.3484 129.83 97.3484 130.281C97.0535 130.281 96.8077 130.281 96.3817 130.163C96.2407 130.049 96.126 129.948 95.9688 129.739C96.126 129.739 96.2407 129.637 96.3817 129.523Z" fill="black"/>
<path fill-rule="evenodd" clip-rule="evenodd" d="M107.93 126.669C108.572 126.669 109.231 126.783 110.043 126.901C110.043 127.11 110.043 127.433 110.043 127.766C109.555 127.649 109.077 127.433 108.418 127.224C108.264 127.11 108.084 126.901 107.93 126.669Z" fill="black"/>
<path fill-rule="evenodd" clip-rule="evenodd" d="M110.043 125.561C110.213 125.352 110.548 125.019 110.895 124.695C111.531 124.695 112.189 124.695 112.848 124.695C112.848 124.81 112.694 124.904 112.524 125.136C112.189 125.136 111.711 125.136 111.223 125.238C111.223 125.561 111.223 125.894 111.223 126.335C110.895 126.335 110.548 126.335 110.043 126.244C109.889 126.126 109.735 126.008 109.555 125.793C109.735 125.793 109.889 125.678 110.043 125.561Z" fill="black"/>
<path fill-rule="evenodd" clip-rule="evenodd" d="M105.669 127.24C105.823 127.24 106 127.341 106.328 127.456C106.659 127.782 106.964 128.116 107.295 128.557C106.964 128.557 106.482 128.557 106 128.557C105.823 128.23 105.499 127.897 105.188 127.456C105.345 127.456 105.499 127.341 105.669 127.24Z" fill="black"/>
<path fill-rule="evenodd" clip-rule="evenodd" d="M107.383 129.83C108.038 129.83 108.697 129.948 109.513 130.049C109.513 130.281 109.513 130.588 109.513 130.914C109.008 130.797 108.526 130.588 107.868 130.372C107.714 130.281 107.537 130.049 107.383 129.83Z" fill="black"/>
<path fill-rule="evenodd" clip-rule="evenodd" d="M109.52 128.733C109.674 128.517 110.009 128.191 110.333 127.857C110.992 127.857 111.65 127.857 112.293 127.857C112.293 127.959 112.139 128.076 111.958 128.285C111.65 128.285 111.146 128.285 110.664 128.4C110.664 128.733 110.664 129.056 110.664 129.507C110.333 129.507 110.009 129.507 109.52 129.389C109.35 129.275 109.193 129.174 109.016 128.942C109.193 128.942 109.35 128.85 109.52 128.733Z" fill="black"/>
<path fill-rule="evenodd" clip-rule="evenodd" d="M112.832 125.895C112.989 125.895 113.16 126.009 113.491 126.126C113.815 126.45 114.149 126.783 114.461 127.224C114.149 127.224 113.645 127.224 113.16 127.224C112.989 126.901 112.678 126.567 112.344 126.126C112.501 126.126 112.678 126.009 112.832 125.895Z" fill="black"/>
<path fill-rule="evenodd" clip-rule="evenodd" d="M114.531 128.501C115.183 128.501 115.865 128.592 116.678 128.71C116.678 128.926 116.678 129.252 116.678 129.582C116.189 129.484 115.672 129.252 115.013 129.043C114.859 128.926 114.702 128.71 114.531 128.501Z" fill="black"/>
<path fill-rule="evenodd" clip-rule="evenodd" d="M116.684 127.394C116.838 127.162 117.165 126.838 117.496 126.512C118.155 126.512 118.814 126.512 119.449 126.512C119.449 126.629 119.295 126.744 119.138 126.953C118.814 126.953 118.309 126.953 117.824 127.07C117.824 127.394 117.824 127.727 117.824 128.168C117.496 128.168 117.165 128.168 116.684 128.053C116.49 127.936 116.349 127.822 116.195 127.612C116.349 127.612 116.49 127.495 116.684 127.394Z" fill="black"/>
<path fill-rule="evenodd" clip-rule="evenodd" d="M113.505 128.824C113.659 128.824 113.839 128.925 114.164 129.043C114.495 129.366 114.823 129.7 115.131 130.141C114.823 130.141 114.318 130.141 113.839 130.141C113.659 129.814 113.351 129.484 113.023 129.043C113.181 129.043 113.351 128.925 113.505 128.824Z" fill="black"/>
<path fill-rule="evenodd" clip-rule="evenodd" d="M115.227 131.418C115.885 131.418 116.541 131.516 117.357 131.634C117.357 131.843 117.357 132.166 117.357 132.499C116.875 132.398 116.37 132.166 115.715 131.957C115.558 131.843 115.404 131.634 115.227 131.418Z" fill="black"/>
<path fill-rule="evenodd" clip-rule="evenodd" d="M117.357 130.317C117.511 130.102 117.845 129.755 118.169 129.429C118.828 129.429 119.487 129.429 120.129 129.429C120.129 129.546 119.975 129.661 119.795 129.87C119.487 129.87 118.982 129.87 118.504 129.987C118.504 130.317 118.504 130.644 118.504 131.091C118.169 131.091 117.845 131.091 117.357 130.977C117.186 130.859 117.029 130.758 116.875 130.526C117.029 130.526 117.186 130.435 117.357 130.317Z" fill="black"/>
<path fill-rule="evenodd" clip-rule="evenodd" d="M51.1016 123.942V128.037V128.114H91.151V123.942L51.1016 123.942Z" fill="black"/>
<path fill-rule="evenodd" clip-rule="evenodd" d="M82.5402 97.4547C89.9529 97.9741 96.8084 98.9409 103.887 100.293C105.204 103.419 106.119 106.15 106.289 109.452C100.62 108.423 97.2476 107.904 92.5844 107.247C87.8982 106.591 83.0809 106.15 78.3194 105.777C79.2894 102.318 80.5085 100.718 82.5402 97.4547ZM73.1155 107.61C76.848 101.802 80.0628 95.018 83.0646 95.0736C86.0794 95.1716 90.2478 95.6746 93.8395 96.1547C97.4802 96.6414 101.678 97.4319 104.664 98.0133C107.606 98.5914 108.766 104.268 110.975 112.637C111.827 115.939 109.697 119.205 108.743 121.446C108.55 123.187 108.226 124.516 107.721 126.182L102.415 125.483L102.183 120.891L79.5385 117.873L78.3587 122.338L73.3252 121.678C73.2499 118.957 73.2105 117.543 73.2859 115.825C72.7649 113.45 71.6212 109.968 73.1155 107.61Z" fill="black"/>
</g>
</g>
<defs>
<clipPath id="clip0_4_4770">
<rect width="174" height="174" fill="white"/>
</clipPath>
<clipPath id="clip1_4_4770">
<rect width="148" height="130" fill="white" transform="translate(13 22)"/>
</clipPath>
</defs>
</svg>
