<svg width="174" height="174" viewBox="0 0 174 174" fill="none" xmlns="http://www.w3.org/2000/svg">
<g clip-path="url(#clip0_4_4911)">
<g clip-path="url(#clip1_4_4911)">
<path d="M93.7314 25.9671C92.4123 23.6898 89.8315 22.2651 87.0001 22.2651C84.1172 22.2651 81.5354 23.7677 80.1913 26.0883L14.4198 139.654C13.0082 142.091 12.7992 145.161 14.3092 147.768C15.7507 150.257 18.3468 151.735 21.0351 151.735H152.965C155.653 151.735 158.249 150.257 159.691 147.768C161.201 145.161 160.992 142.091 159.58 139.654L93.7314 25.9671Z" fill="white" stroke="black" stroke-width="0.359678" stroke-miterlimit="2" stroke-linecap="round" stroke-linejoin="round"/>
<path d="M87.0039 24.7202C85.0488 24.7202 83.3507 25.7425 82.4957 27.2186L16.726 140.782C15.7414 142.482 15.6106 144.509 16.6151 146.243C17.5927 147.931 19.3248 148.88 21.0345 148.88H152.968C154.677 148.88 156.409 147.931 157.387 146.243C158.392 144.509 158.261 142.482 157.276 140.782L91.4288 27.097C90.621 25.7024 88.9396 24.7202 87.0039 24.7202ZM137.381 134.73H36.6216L86.9983 47.747L137.381 134.73Z" fill="#DD2414"/>
<path fill-rule="evenodd" clip-rule="evenodd" d="M59.5088 97.0182V98.0772H66.4986L60.5247 104.048L66.2439 109.763H62.8152L61.1411 111.289H57.1021L53.6999 119.171V126.802H64.8032V126.83C64.8032 127.89 65.4377 128.795 66.3479 129.196H51.3359V129.968H122.46V129.196H106.441C107.326 128.785 107.941 127.897 107.941 126.854V126.802H121.236V119.75L118.036 111.288H75.3939L73.7229 109.763H68.887L74.6083 104.047L68.6343 98.077H105.603V97.0181L59.5088 97.0182ZM67.5665 98.7125L72.9057 104.047L67.5665 109.382L62.2273 104.047L67.5665 98.7125ZM57.8826 112.804H62.5696C62.6838 112.804 62.7755 112.895 62.7755 113.009V119.77C62.7755 119.884 62.6838 119.976 62.5696 119.976H55.0306C54.9164 119.976 54.7805 119.875 54.8248 119.77L57.6768 113.009C57.7212 112.904 57.7684 112.804 57.8826 112.804ZM64.0074 112.804H69.7154C69.9081 112.804 70.0629 112.958 70.0629 113.151V124.57C70.0629 124.763 69.9081 124.918 69.7154 124.918H64.0074C63.8147 124.918 63.6599 124.763 63.6599 124.57V113.151C63.6599 112.958 63.8147 112.804 64.0074 112.804ZM71.3141 112.804H77.7405C77.8545 112.804 77.9463 112.895 77.9463 113.009V119.77C77.9463 119.884 77.8546 119.976 77.7405 119.976H71.3141C71.2 119.976 71.1083 119.884 71.1083 119.77V113.009C71.1083 112.896 71.2 112.804 71.3141 112.804ZM79.8497 112.804H86.2771C86.3913 112.804 86.4829 112.895 86.4829 113.009V119.77C86.4829 119.884 86.3913 119.976 86.2771 119.976H79.8497C79.7355 119.976 79.6439 119.884 79.6439 119.77V113.009C79.6439 112.896 79.7356 112.804 79.8497 112.804ZM88.2375 112.804H94.6649C94.7791 112.804 94.8708 112.895 94.8708 113.009V119.77C94.8708 119.884 94.7791 119.976 94.6649 119.976H88.2375C88.1234 119.976 88.0317 119.884 88.0317 119.77V113.009C88.0317 112.896 88.1234 112.804 88.2375 112.804ZM97.0105 112.804H102.719C102.911 112.804 103.066 112.958 103.066 113.151V124.57C103.066 124.763 102.911 124.918 102.719 124.918H97.0105C96.8179 124.918 96.6631 124.763 96.6631 124.57V113.151C96.6631 112.958 96.8179 112.804 97.0105 112.804ZM104.825 112.804H110.532C110.724 112.804 110.88 112.958 110.88 113.151V124.57C110.88 124.763 110.724 124.918 110.532 124.918H104.825C104.632 124.918 104.476 124.763 104.476 124.57V113.151C104.476 112.958 104.632 112.804 104.825 112.804ZM112.34 112.804H116.679C116.793 112.804 116.846 112.902 116.885 113.009L119.32 119.77C119.359 119.878 119.228 119.976 119.114 119.976H112.34C112.226 119.976 112.135 119.884 112.135 119.77V113.009C112.135 112.896 112.226 112.804 112.34 112.804ZM69.9824 126.802H71.0461V126.83C71.0461 127.89 71.68 128.795 72.5898 129.196H68.4387C69.3485 128.795 69.9824 127.89 69.9824 126.83V126.802ZM76.2254 126.802H96.5174V126.854C96.5174 127.897 97.1323 128.785 98.0172 129.196H74.6807C75.5908 128.796 76.2254 127.891 76.2254 126.83V126.802ZM101.698 126.802H102.76V126.854C102.76 127.897 103.375 128.785 104.26 129.196H100.198C101.083 128.785 101.698 127.897 101.698 126.854V126.802Z" fill="black"/>
</g>
</g>
<defs>
<clipPath id="clip0_4_4911">
<rect width="174" height="174" fill="white"/>
</clipPath>
<clipPath id="clip1_4_4911">
<rect width="148" height="130" fill="white" transform="translate(13 22)"/>
</clipPath>
</defs>
</svg>
