<svg width="310" height="160" viewBox="0 0 310 160" fill="none" xmlns="http://www.w3.org/2000/svg">
<g clip-path="url(#clip0_4_3091)">
<path d="M0 0H310V160H0V0Z" fill="white"/>
<g clip-path="url(#clip1_4_3091)">
<path d="M161.679 19.0016C160.37 16.7256 157.808 15.3018 154.997 15.3018C152.135 15.3018 149.572 16.8034 148.237 19.1228L82.9427 132.624C81.5413 135.06 81.3338 138.128 82.8329 140.734C84.2639 143.221 86.8413 144.698 89.51 144.698H220.483C223.152 144.698 225.73 143.221 227.161 140.734C228.66 138.128 228.452 135.06 227.051 132.624L161.679 19.0016Z" fill="white" stroke="black" stroke-width="0.719" stroke-miterlimit="2" stroke-linecap="round" stroke-linejoin="round"/>
<path d="M155.004 17.7559C153.063 17.7559 151.377 18.7776 150.529 20.2528L85.2358 133.752C84.2583 135.451 84.1285 137.477 85.1257 139.21C86.0962 140.897 87.8158 141.845 89.5131 141.845H220.49C222.187 141.845 223.907 140.897 224.877 139.21C225.874 137.477 225.744 135.451 224.767 133.752L159.397 20.1313C158.595 18.7374 156.926 17.7559 155.004 17.7559ZM205.016 127.703H104.987L154.999 40.7696L205.016 127.703Z" fill="#DD2414"/>
<path fill-rule="evenodd" clip-rule="evenodd" d="M146.194 71.2559C146.187 71.2557 146.179 71.2574 146.172 71.2606C146.164 71.2638 146.158 71.2686 146.153 71.2746L140.02 78.7576C140.012 78.7672 140.008 78.7795 140.007 78.7922L139.969 101.531C139.969 110.429 149.526 115.255 155.677 111.695L166.879 105.171C168.14 104.438 169.401 105.347 169.476 106.407V123.025C169.476 123.035 169.479 123.045 169.484 123.053C169.489 123.062 169.497 123.069 169.506 123.073C169.515 123.078 169.525 123.08 169.535 123.079C169.545 123.078 169.554 123.074 169.562 123.068L175.636 118.406L181.741 123.068C181.749 123.075 181.759 123.079 181.769 123.08C181.779 123.081 181.789 123.079 181.798 123.074C181.808 123.07 181.815 123.063 181.821 123.054C181.826 123.045 181.829 123.035 181.829 123.025V101.277C181.829 96.3269 179.516 92.8855 176.399 91.152C173.283 89.4185 169.365 89.3904 166.156 91.247L154.471 98.036V98.0375C153.909 98.3781 153.377 98.3475 152.986 98.0836C152.594 97.8196 152.341 97.3156 152.36 96.6912V96.6898V78.831C152.36 78.8185 152.356 78.8063 152.348 78.7965L146.236 71.276C146.231 71.2698 146.225 71.2647 146.218 71.2612C146.21 71.2578 146.202 71.2559 146.194 71.2559Z" fill="black"/>
</g>
</g>
<defs>
<clipPath id="clip0_4_3091">
<path d="M0 0H310V160H0V0Z" fill="white"/>
</clipPath>
<clipPath id="clip1_4_3091">
<rect width="147" height="130" fill="white" transform="translate(81.5 15)"/>
</clipPath>
</defs>
</svg>
