<svg width="310" height="160" viewBox="0 0 310 160" fill="none" xmlns="http://www.w3.org/2000/svg">
<g clip-path="url(#clip0_4_3234)">
<path d="M0 0H310V160H0V0Z" fill="white"/>
<g clip-path="url(#clip1_4_3234)">
<path fill-rule="evenodd" clip-rule="evenodd" d="M86.1717 88.1442L86.1443 88.2503L82.1562 102.651L96.6632 106.336L223.809 32.8238L227.852 18.3552L213.32 14.6309L86.1717 88.1442ZM86.6284 88.5002L213.399 15.2048L227.186 18.7417L223.351 32.4678L96.5828 105.762L82.8191 102.267L86.6284 88.5002Z" fill="black"/>
<path fill-rule="evenodd" clip-rule="evenodd" d="M86.3985 88.3211L82.4844 102.458L96.6189 106.049L223.576 32.645L227.516 18.548L213.356 14.9175L86.3985 88.3211Z" fill="#DC291B"/>
<path d="M96.7794 82.3202L86.3984 88.3223L96.6183 106.049L106.999 100.047L96.7794 82.3202Z" fill="white"/>
<path d="M117.545 70.3163L107.164 76.3184L117.384 94.0449L127.765 88.0429L117.545 70.3163Z" fill="white"/>
<path d="M107.162 76.3183L96.7812 82.3203L107.001 100.047L117.382 94.0448L107.162 76.3183Z" fill="#DC291B"/>
<path d="M127.928 64.3139L117.547 70.3159L127.767 88.0424L138.148 82.0404L127.928 64.3139Z" fill="#DC291B"/>
<path d="M202.978 20.9195L213.359 14.9175L223.579 32.644L213.198 38.646L202.978 20.9195Z" fill="white"/>
<path d="M182.221 32.9234L192.602 26.9214L202.821 44.6479L192.44 50.6499L182.221 32.9234Z" fill="white"/>
<path d="M192.596 26.9215L202.977 20.9194L213.196 38.646L202.815 44.648L192.596 26.9215Z" fill="#DC291B"/>
<path d="M171.838 38.9254L182.219 32.9233L192.439 50.6499L182.058 56.6519L171.838 38.9254Z" fill="#DC291B"/>
<path fill-rule="evenodd" clip-rule="evenodd" d="M223.837 88.1442L223.864 88.2503L227.852 102.651L213.345 106.336L86.1993 32.8238L82.1562 18.3552L96.6881 14.6309L223.837 88.1442ZM223.38 88.5002L96.6097 15.2048L82.8219 18.7417L86.6571 32.4678L213.426 105.762L227.189 102.267L223.38 88.5002Z" fill="black"/>
<path fill-rule="evenodd" clip-rule="evenodd" d="M223.602 88.3211L227.516 102.458L213.382 106.049L86.4243 32.645L82.4844 18.548L96.6448 14.9175L223.602 88.3211Z" fill="#DC291B"/>
<path d="M213.221 82.3202L223.602 88.3223L213.382 106.049L203.001 100.047L213.221 82.3202Z" fill="white"/>
<path d="M192.463 70.3163L202.844 76.3184L192.624 94.0449L182.243 88.0429L192.463 70.3163Z" fill="white"/>
<path d="M202.846 76.3183L213.227 82.3203L203.007 100.047L192.626 94.0448L202.846 76.3183Z" fill="#DC291B"/>
<path d="M182.08 64.3139L192.461 70.3159L182.241 88.0424L171.86 82.0404L182.08 64.3139Z" fill="#DC291B"/>
<path d="M107.029 20.9195L96.6484 14.9175L86.4286 32.644L96.8096 38.646L107.029 20.9195Z" fill="white"/>
<path d="M127.787 32.9234L117.406 26.9214L107.186 44.6479L117.567 50.6499L127.787 32.9234Z" fill="white"/>
<path d="M117.404 26.9215L107.023 20.9194L96.8036 38.646L107.185 44.648L117.404 26.9215Z" fill="#DC291B"/>
<path d="M138.17 38.9254L127.789 32.9233L117.569 50.6499L127.95 56.6519L138.17 38.9254Z" fill="#DC291B"/>
<path d="M138.166 38.9253L182.078 64.314L171.858 82.0405L127.947 56.6518L138.166 38.9253Z" fill="white"/>
<path fill-rule="evenodd" clip-rule="evenodd" d="M155.017 87.38L154.747 87.5357L153.96 87.9904L153.046 88.519L86.1763 127.185L86.148 127.292L82.1557 141.688L96.661 145.368L175.717 99.6532L175.182 99.3436L96.5811 144.794L82.8203 141.304L86.6333 127.541L155.282 87.8454L156.985 88.8277L157.12 88.5949L155.279 87.5325L155.017 87.38Z" fill="black"/>
<path fill-rule="evenodd" clip-rule="evenodd" d="M155.008 87.6912L86.3996 127.363L82.4828 141.496L96.6143 145.08L175.443 99.499L155.008 87.6912Z" fill="#DC291B"/>
<path d="M96.7794 121.353L86.3984 127.355L96.6183 145.082L106.999 139.079L96.7794 121.353Z" fill="white"/>
<path d="M117.545 109.349L107.164 115.351L117.384 133.078L127.765 127.076L117.545 109.349Z" fill="white"/>
<path d="M107.162 115.351L96.7812 121.353L107.001 139.08L117.382 133.078L107.162 115.351Z" fill="#DC291B"/>
<path d="M127.928 103.347L117.547 109.349L127.767 127.076L138.148 121.074L127.928 103.347Z" fill="#DC291B"/>
<path fill-rule="evenodd" clip-rule="evenodd" d="M155.271 87.5366L154.736 87.8462L223.382 127.541L227.196 141.304L213.435 144.793L134.837 99.3436L134.768 99.3845L134.3 99.6532L213.357 145.367L227.86 141.688L223.868 127.292L223.839 127.185L155.271 87.5366Z" fill="black"/>
<path fill-rule="evenodd" clip-rule="evenodd" d="M155.001 87.691L134.566 99.498L213.394 145.08L227.525 141.496L223.606 127.363L155.001 87.691Z" fill="#DC291B"/>
<path d="M213.225 121.353L223.609 127.358L213.393 145.081L203.009 139.076L213.225 121.353Z" fill="white"/>
<path d="M192.459 109.349L202.844 115.354L192.628 133.077L182.243 127.072L192.459 109.349Z" fill="white"/>
<path d="M202.842 115.351L213.227 121.356L203.01 139.079L192.626 133.074L202.842 115.351Z" fill="#DC291B"/>
<path d="M182.076 103.347L192.461 109.352L182.245 127.075L171.86 121.07L182.076 103.347Z" fill="#DC291B"/>
<path fill-rule="evenodd" clip-rule="evenodd" d="M155.008 87.6904L134.568 99.5086L127.93 103.347L138.15 121.073L155.008 111.327L171.866 121.073L182.085 103.347L175.449 99.5086L155.008 87.6904Z" fill="white"/>
<path d="M171.834 38.9253L127.922 64.314L138.142 82.0405L182.053 56.6518L171.834 38.9253Z" fill="white"/>
</g>
</g>
<defs>
<clipPath id="clip0_4_3234">
<path d="M0 0H310V160H0V0Z" fill="white"/>
</clipPath>
<clipPath id="clip1_4_3234">
<rect width="146" height="131" fill="white" transform="translate(82 14.5)"/>
</clipPath>
</defs>
</svg>
