<svg width="174" height="174" viewBox="0 0 174 174" fill="none" xmlns="http://www.w3.org/2000/svg">
<g clip-path="url(#clip0_4_3453)">
<g clip-path="url(#clip1_4_3453)">
<path d="M93.7227 26.0016C92.4042 23.7256 89.8247 22.3018 86.9947 22.3018C84.1133 22.3018 81.5328 23.8034 80.1893 26.1228L14.4504 139.624C13.0396 142.06 12.8307 145.128 14.34 147.734C15.7807 150.221 18.3756 151.698 21.0625 151.698H152.927C155.614 151.698 158.209 150.221 159.649 147.734C161.159 145.128 160.95 142.06 159.539 139.624L93.7227 26.0016Z" fill="white" stroke="black" stroke-width="0.719" stroke-miterlimit="2" stroke-linecap="round" stroke-linejoin="round"/>
<path d="M86.992 24.7549C85.0379 24.7549 83.3406 25.7766 82.4861 27.2518L16.749 140.751C15.7649 142.45 15.6342 144.476 16.6382 146.209C17.6153 147.896 19.3466 148.844 21.0554 148.844H152.923C154.632 148.844 156.363 147.896 157.34 146.209C158.344 144.476 158.214 142.45 157.229 140.751L91.4147 27.1303C90.6073 25.7365 88.9268 24.7549 86.992 24.7549ZM137.344 134.702H36.6348L86.9865 47.7686L137.344 134.702Z" fill="#DD2414"/>
<path fill-rule="evenodd" clip-rule="evenodd" d="M79.9108 82.162C79.9179 82.1601 79.9252 82.1597 79.9324 82.1607C79.9396 82.1617 79.9465 82.1641 79.9527 82.1678L84.103 84.5277C91.1643 88.6101 96.2863 92.5225 99.6425 97.3051C102.999 102.088 104.586 107.74 104.586 115.288V130.183C104.586 130.193 104.583 130.203 104.578 130.211C104.572 130.22 104.565 130.227 104.556 130.231C104.547 130.236 104.537 130.238 104.527 130.237C104.517 130.236 104.507 130.232 104.499 130.226L98.3655 125.59L92.2332 130.226C92.2251 130.232 92.2156 130.236 92.2056 130.237C92.1956 130.238 92.1855 130.236 92.1766 130.231C92.1676 130.227 92.16 130.22 92.1547 130.211C92.1494 130.203 92.1466 130.193 92.1465 130.183V117.587C92.1465 110.17 90.4981 105.711 87.6842 102.427C84.8703 99.1425 80.8821 97.0308 76.1982 94.3318L73.4448 92.7292C73.4382 92.7254 73.4324 92.7202 73.428 92.714C73.4235 92.7078 73.4204 92.7007 73.4189 92.6932L71.6723 84.5867C71.6694 84.5734 71.6717 84.5595 71.6787 84.5477C71.6856 84.536 71.6968 84.5273 71.7099 84.5234L79.9108 82.162Z" fill="black"/>
</g>
</g>
<defs>
<clipPath id="clip0_4_3453">
<rect width="174" height="174" fill="white"/>
</clipPath>
<clipPath id="clip1_4_3453">
<rect width="148" height="130" fill="white" transform="translate(13 22)"/>
</clipPath>
</defs>
</svg>
