<svg width="174" height="174" viewBox="0 0 174 174" fill="none" xmlns="http://www.w3.org/2000/svg">
<g clip-path="url(#clip0_4_4814)">
<g clip-path="url(#clip1_4_4814)">
<path d="M93.7227 26.0021C92.4042 23.7261 89.8247 22.3022 86.9947 22.3022C84.1133 22.3022 81.5328 23.8039 80.1893 26.1232L14.4504 139.624C13.0396 142.06 12.8307 145.129 14.34 147.734C15.7807 150.222 18.3756 151.698 21.0625 151.698H152.927C155.614 151.698 158.209 150.222 159.649 147.734C161.159 145.129 160.95 142.06 159.539 139.624L93.7227 26.0021Z" fill="white" stroke="black" stroke-width="0.719" stroke-miterlimit="2" stroke-linecap="round" stroke-linejoin="round"/>
<path d="M86.992 24.7563C85.0379 24.7563 83.3406 25.7781 82.4861 27.2533L16.749 140.753C15.7649 142.452 15.6342 144.477 16.6382 146.211C17.6153 147.898 19.3466 148.846 21.0554 148.846H152.923C154.632 148.846 156.363 147.898 157.34 146.211C158.344 144.477 158.214 142.452 157.229 140.753L91.4147 27.1317C90.6073 25.7379 88.9268 24.7563 86.992 24.7563ZM137.344 134.704H36.6348L86.9865 47.7701L137.344 134.704Z" fill="#DD2414"/>
<path d="M86.972 86.7704C92.0608 86.7704 96.1861 82.6586 96.1861 77.5864C96.1861 72.5142 92.0608 68.4023 86.972 68.4023C81.8831 68.4023 77.7578 72.5142 77.7578 77.5864C77.7578 82.6586 81.8831 86.7704 86.972 86.7704Z" fill="black" stroke="#131414" stroke-width="1.46885" stroke-linecap="square"/>
<path d="M86.9695 85.8568C91.5521 85.8568 95.2671 82.154 95.2671 77.5864C95.2671 73.0187 91.5521 69.3159 86.9695 69.3159C82.3868 69.3159 78.6719 73.0187 78.6719 77.5864C78.6719 82.154 82.3868 85.8568 86.9695 85.8568Z" fill="#DD2414" stroke="#131414" stroke-width="1.32274" stroke-linecap="square"/>
<path d="M86.972 129.096C92.0608 129.096 96.1861 124.984 96.1861 119.912C96.1861 114.839 92.0608 110.728 86.972 110.728C81.8831 110.728 77.7578 114.839 77.7578 119.912C77.7578 124.984 81.8831 129.096 86.972 129.096Z" fill="black" stroke="#131414" stroke-width="1.46885" stroke-linecap="square"/>
<path d="M86.9695 128.182C91.5521 128.182 95.2671 124.479 95.2671 119.912C95.2671 115.344 91.5521 111.641 86.9695 111.641C82.3868 111.641 78.6719 115.344 78.6719 119.912C78.6719 124.479 82.3868 128.182 86.9695 128.182Z" fill="#009539" stroke="#131414" stroke-width="1.32274" stroke-linecap="square"/>
<path d="M86.972 107.933C92.0608 107.933 96.1861 103.821 96.1861 98.749C96.1861 93.6768 92.0608 89.5649 86.972 89.5649C81.8831 89.5649 77.7578 93.6768 77.7578 98.749C77.7578 103.821 81.8831 107.933 86.972 107.933Z" fill="black" stroke="#131414" stroke-width="1.46885" stroke-linecap="square"/>
<path d="M86.9695 107.019C91.5521 107.019 95.2671 103.317 95.2671 98.749C95.2671 94.1813 91.5521 90.4785 86.9695 90.4785C82.3868 90.4785 78.6719 94.1813 78.6719 98.749C78.6719 103.317 82.3868 107.019 86.9695 107.019Z" fill="#FFE51A" stroke="#131414" stroke-width="1.32274" stroke-linecap="square"/>
</g>
</g>
<defs>
<clipPath id="clip0_4_4814">
<rect width="174" height="174" fill="white"/>
</clipPath>
<clipPath id="clip1_4_4814">
<rect width="148" height="130" fill="white" transform="translate(13 22)"/>
</clipPath>
</defs>
</svg>
