<svg width="174" height="174" viewBox="0 0 174 174" fill="none" xmlns="http://www.w3.org/2000/svg">
<g clip-path="url(#clip0_4_3462)">
<path d="M80.3207 26.0016C81.6303 23.7256 84.1924 22.3018 87.0033 22.3018C89.8652 22.3018 92.4283 23.8034 93.7626 26.1228L159.057 139.624C160.459 142.06 160.666 145.128 159.167 147.734C157.736 150.221 155.159 151.698 152.49 151.698H21.5165C18.8478 151.698 16.2705 150.221 14.8395 147.734C13.3404 145.128 13.5477 142.06 14.9492 139.624L80.3207 26.0016Z" fill="white" stroke="black" stroke-width="0.719" stroke-miterlimit="2" stroke-linecap="round" stroke-linejoin="round"/>
<path d="M87.0037 24.7549C88.9446 24.7549 90.6304 25.7766 91.4791 27.2518L156.772 140.751C157.75 142.45 157.879 144.476 156.882 146.209C155.912 147.896 154.192 148.844 152.495 148.844H21.5181C19.8208 148.844 18.1013 147.896 17.1308 146.209C16.1335 144.476 16.2634 142.45 17.2409 140.751L82.6108 27.1303C83.4128 25.7365 85.082 24.7549 87.0037 24.7549ZM36.9922 134.702H137.021L87.0092 47.7686L36.9922 134.702Z" fill="#DD2414"/>
<path fill-rule="evenodd" clip-rule="evenodd" d="M95.8133 78.2549C95.8212 78.2548 95.829 78.2564 95.8362 78.2596C95.8434 78.2629 95.8498 78.2676 95.8549 78.2736L101.987 85.7566C101.996 85.7663 102 85.7785 102 85.7912L102.039 108.53C102.039 117.428 92.4822 122.254 86.3305 118.694L75.1287 112.17C73.8674 111.437 72.6065 112.346 72.5317 113.406V130.024C72.5317 130.034 72.5288 130.044 72.5236 130.052C72.5183 130.061 72.5108 130.068 72.5019 130.072C72.493 130.077 72.483 130.079 72.4731 130.078C72.4631 130.077 72.4536 130.073 72.4456 130.067L66.372 125.405L60.2667 130.067C60.2588 130.074 60.2491 130.078 60.2389 130.079C60.2288 130.08 60.2185 130.078 60.2093 130.073C60.2002 130.069 60.1925 130.062 60.1871 130.053C60.1818 130.044 60.1791 130.034 60.1792 130.024V108.276C60.1792 103.326 62.4922 99.8846 65.6086 98.151C68.7251 96.4175 72.6431 96.3894 75.8519 98.2461L87.5372 105.035C87.5372 105.036 87.5372 105.036 87.5372 105.037C88.0992 105.377 88.6309 105.347 89.0223 105.083C89.4136 104.819 89.6668 104.315 89.6478 103.69C89.6478 103.69 89.6478 103.689 89.6478 103.689V85.8301C89.6476 85.8175 89.6516 85.8053 89.6593 85.7955L95.7717 78.275C95.7767 78.2688 95.7831 78.2638 95.7903 78.2603C95.7975 78.2568 95.8053 78.2549 95.8133 78.2549Z" fill="black"/>
</g>
<defs>
<clipPath id="clip0_4_3462">
<rect width="147" height="130" fill="white" transform="translate(13.5 22)"/>
</clipPath>
</defs>
</svg>
