<svg width="174" height="174" viewBox="0 0 174 174" fill="none" xmlns="http://www.w3.org/2000/svg">
<g clip-path="url(#clip0_4_3638)">
<g clip-path="url(#clip1_4_3638)">
<path d="M93.7305 26.0021C92.412 23.7261 89.8325 22.3022 87.0025 22.3022C84.1211 22.3022 81.5406 23.8039 80.1972 26.1232L14.4583 139.624C13.0474 142.06 12.8385 145.129 14.3478 147.734C15.7885 150.222 18.3834 151.698 21.0703 151.698H152.935C155.622 151.698 158.216 150.222 159.657 147.734C161.167 145.129 160.958 142.06 159.547 139.624L93.7305 26.0021Z" fill="white" stroke="black" stroke-width="0.719" stroke-miterlimit="2" stroke-linecap="round" stroke-linejoin="round"/>
<path d="M86.9998 24.7554C85.0457 24.7554 83.3484 25.7771 82.4939 27.2523L16.7568 140.752C15.7727 142.451 15.642 144.476 16.646 146.21C17.6231 147.897 19.3544 148.845 21.0632 148.845H152.931C154.64 148.845 156.371 147.897 157.348 146.21C158.352 144.476 158.221 142.451 157.237 140.752L91.4225 27.1308C90.6151 25.737 88.9346 24.7554 86.9998 24.7554ZM137.351 134.703H36.6426L86.9943 47.7691L137.351 134.703Z" fill="#DD2414"/>
<path fill-rule="evenodd" clip-rule="evenodd" d="M87.0193 74.2715C87.0115 74.2716 87.0037 74.2735 86.9966 74.2769C86.9895 74.2803 86.9833 74.2853 86.9783 74.2913L78.739 84.1178C78.7309 84.1276 78.7265 84.1399 78.7266 84.1526V129.78C78.7268 129.794 78.7326 129.808 78.7429 129.818C78.7532 129.828 78.767 129.833 78.7814 129.833H78.7976C78.8056 129.834 78.8136 129.833 78.8212 129.83L87.0194 126.093L95.1913 129.83C95.1985 129.833 95.2062 129.834 95.2138 129.833H95.2312C95.2454 129.833 95.2589 129.827 95.2689 129.817C95.2789 129.807 95.2846 129.794 95.2848 129.78V116.758H106.608C106.623 116.759 106.637 116.753 106.647 116.743C106.657 116.733 106.663 116.719 106.663 116.705V108.84C106.663 108.826 106.657 108.813 106.647 108.803C106.637 108.792 106.623 108.787 106.608 108.787H95.2848V84.1526C95.2852 84.14 95.2812 84.1277 95.2736 84.1178L87.0617 74.2913C87.0566 74.2851 87.0501 74.28 87.0428 74.2766C87.0354 74.2732 87.0274 74.2714 87.0193 74.2715Z" fill="black"/>
</g>
</g>
<defs>
<clipPath id="clip0_4_3638">
<rect width="174" height="174" fill="white"/>
</clipPath>
<clipPath id="clip1_4_3638">
<rect width="148" height="130" fill="white" transform="translate(13 22)"/>
</clipPath>
</defs>
</svg>
