<svg width="174" height="174" viewBox="0 0 174 174" fill="none" xmlns="http://www.w3.org/2000/svg">
<g clip-path="url(#clip0_4_3427)">
<g clip-path="url(#clip1_4_3427)">
<path d="M23.9868 91.0239L83.0583 150.095C85.2827 152.32 88.8892 152.32 91.1135 150.095L150.185 91.0239C152.409 88.7995 152.409 85.1931 150.185 82.9687L91.1135 23.8971C88.8892 21.6727 85.2827 21.6727 83.0583 23.8971L23.9868 82.9687C21.7624 85.193 21.7624 88.7995 23.9868 91.0239Z" fill="white" fill-opacity="0.969697" stroke="black" stroke-width="0.548021" stroke-miterlimit="10" stroke-linecap="square"/>
<path d="M25.3293 89.6809L84.4009 148.752C85.8838 150.235 88.2881 150.235 89.771 148.752L148.843 89.6809C150.325 88.1979 150.325 85.7937 148.843 84.3107L89.771 25.2392C88.2881 23.7562 85.8838 23.7562 84.4009 25.2392L25.3293 84.3107C23.8464 85.7937 23.8464 88.1979 25.3293 89.6809Z" fill="black" fill-opacity="0.89899"/>
<path d="M26.75 86.9955C26.75 87.3191 26.874 87.6426 27.1219 87.8906L86.1934 146.962C86.6893 147.458 87.4876 147.458 87.9835 146.962L147.055 87.8906C147.551 87.3947 147.551 86.5964 147.055 86.1005L87.9835 27.0289C87.4876 26.5331 86.6893 26.5331 86.1934 27.0289L27.1219 86.1005C26.874 86.3484 26.75 86.672 26.75 86.9955Z" fill="white"/>
<path d="M86.7212 45.2461L44.8906 87.0767L86.7212 128.907L128.552 87.0767L86.7212 45.2461Z" fill="black"/>
<path d="M86.7183 48.8271L48.4688 87.0766L86.7183 125.326L124.968 87.0767L86.7183 48.8271Z" fill="#FFF500"/>
<path fill-rule="evenodd" clip-rule="evenodd" d="M114.105 50.2764L50.2656 114.259L59.9603 123.77L123.247 60.7035L114.105 50.2764Z" fill="black"/>
</g>
</g>
<defs>
<clipPath id="clip0_4_3427">
<rect width="174" height="174" fill="white"/>
</clipPath>
<clipPath id="clip1_4_3427">
<rect width="130" height="130" fill="white" transform="translate(22 22)"/>
</clipPath>
</defs>
</svg>
