<svg width="174" height="174" viewBox="0 0 174 174" fill="none" xmlns="http://www.w3.org/2000/svg">
<g clip-path="url(#clip0_4_3854)">
<g clip-path="url(#clip1_4_3854)">
<path d="M80.2695 26.0016C81.588 23.7256 84.1675 22.3018 86.9975 22.3018C89.8789 22.3018 92.4594 23.8034 93.8028 26.1228L159.542 139.624C160.953 142.06 161.162 145.128 159.652 147.734C158.211 150.221 155.617 151.698 152.93 151.698H21.0653C18.3784 151.698 15.7835 150.221 14.3428 147.734C12.8335 145.128 13.0423 142.06 14.4533 139.624L80.2695 26.0016Z" fill="white" stroke="black" stroke-width="0.719" stroke-miterlimit="2" stroke-linecap="round" stroke-linejoin="round"/>
<path d="M87.0002 24.7549C88.9543 24.7549 90.6516 25.7766 91.5061 27.2518L157.243 140.751C158.227 142.45 158.358 144.476 157.354 146.209C156.377 147.896 154.646 148.844 152.937 148.844H21.0692C19.3603 148.844 17.6291 147.896 16.652 146.209C15.6479 144.476 15.7787 142.45 16.7628 140.751L82.5775 27.1303C83.3849 25.7365 85.0654 24.7549 87.0002 24.7549ZM36.6485 134.702H137.357L87.0057 47.7686L36.6485 134.702Z" fill="#DD2414"/>
<path fill-rule="evenodd" clip-rule="evenodd" d="M94.0892 82.162C94.0822 82.1601 94.0748 82.1597 94.0676 82.1607C94.0605 82.1617 94.0535 82.1641 94.0473 82.1678L89.897 84.5277C82.8357 88.6101 77.7137 92.5225 74.3575 97.3051C71.0013 102.088 69.4141 107.74 69.4141 115.288V130.183C69.4141 130.193 69.417 130.203 69.4223 130.211C69.4276 130.22 69.4351 130.227 69.4441 130.231C69.4531 130.236 69.4631 130.238 69.4731 130.237C69.4831 130.236 69.4927 130.232 69.5007 130.226L75.6345 125.59L81.7668 130.226C81.7749 130.232 81.7844 130.236 81.7944 130.237C81.8044 130.238 81.8145 130.236 81.8234 130.231C81.8324 130.227 81.84 130.22 81.8453 130.211C81.8506 130.203 81.8534 130.193 81.8535 130.183V117.587C81.8535 110.17 83.5019 105.711 86.3158 102.427C89.1297 99.1425 93.1179 97.0309 97.8018 94.3318L100.555 92.7292C100.562 92.7254 100.568 92.7202 100.572 92.714C100.577 92.7078 100.58 92.7007 100.581 92.6932L102.328 84.5868C102.331 84.5734 102.328 84.5595 102.321 84.5477C102.314 84.536 102.303 84.5273 102.29 84.5234L94.0892 82.162Z" fill="black"/>
</g>
</g>
<defs>
<clipPath id="clip0_4_3854">
<rect width="174" height="174" fill="white"/>
</clipPath>
<clipPath id="clip1_4_3854">
<rect width="148" height="130" fill="white" transform="translate(13 22)"/>
</clipPath>
</defs>
</svg>
