<svg width="131" height="131" viewBox="0 0 131 131" fill="none" xmlns="http://www.w3.org/2000/svg">
<path d="M1.95602 69.556L61.444 129.044C63.6841 131.284 67.3159 131.284 69.556 129.044L129.044 69.556C131.284 67.3159 131.284 63.6841 129.044 61.444L69.556 1.95602C67.3159 -0.284045 63.6841 -0.28405 61.444 1.95602L1.95602 61.444C-0.284042 63.6841 -0.284042 67.3159 1.95602 69.556Z" fill="white" fill-opacity="0.969697" stroke="black" stroke-width="0.548021" stroke-miterlimit="10" stroke-linecap="square"/>
<path d="M3.30803 68.2035L62.796 127.691C64.2894 129.185 66.7106 129.185 68.204 127.691L127.692 68.2035C129.185 66.7101 129.185 64.2889 127.692 62.7955L68.204 3.30755C66.7106 1.81417 64.2894 1.81417 62.796 3.30755L3.30803 62.7955C1.81465 64.2889 1.81465 66.7101 3.30803 68.2035Z" fill="black" fill-opacity="0.89899"/>
<path d="M4.73874 65.4993C4.73874 65.8251 4.8636 66.1509 5.11327 66.4006L64.6012 125.889C65.1006 126.388 65.9045 126.388 66.4039 125.889L125.892 66.4006C126.391 65.9013 126.391 65.0973 125.892 64.5979L66.4039 5.10992C65.9045 4.61058 65.1006 4.61058 64.6012 5.10992L5.11327 64.5979C4.8636 64.8476 4.73874 65.1734 4.73874 65.4993Z" fill="white"/>
</svg>
