<svg width="174" height="174" viewBox="0 0 174 174" fill="none" xmlns="http://www.w3.org/2000/svg">
<g clip-path="url(#clip0_4_4306)">
<g clip-path="url(#clip1_4_4306)">
<path d="M93.7227 26.0016C92.4042 23.7256 89.8247 22.3018 86.9947 22.3018C84.1133 22.3018 81.5328 23.8034 80.1893 26.1228L14.4504 139.624C13.0396 142.06 12.8307 145.128 14.34 147.734C15.7807 150.221 18.3756 151.698 21.0625 151.698H152.927C155.614 151.698 158.209 150.221 159.649 147.734C161.159 145.128 160.95 142.06 159.539 139.624L93.7227 26.0016Z" fill="#FFE51A" stroke="black" stroke-width="0.719" stroke-miterlimit="2" stroke-linecap="round" stroke-linejoin="round"/>
<path d="M86.992 24.7549C85.0379 24.7549 83.3406 25.7766 82.4861 27.2518L16.749 140.751C15.7649 142.45 15.6342 144.476 16.6382 146.209C17.6153 147.896 19.3466 148.844 21.0554 148.844H152.923C154.632 148.844 156.363 147.896 157.34 146.209C158.344 144.476 158.214 142.45 157.229 140.751L91.4147 27.1303C90.6073 25.7365 88.9268 24.7549 86.992 24.7549ZM137.344 134.702H36.6348L86.9865 47.7686L137.344 134.702Z" fill="#DD2414"/>
<path fill-rule="evenodd" clip-rule="evenodd" d="M88.8013 82.8058C88.6038 82.8072 88.4193 82.8184 88.2466 82.8389C87.5557 82.9209 87.0546 83.1551 86.698 83.5214C85.9883 84.2505 85.8599 85.4824 85.8587 87.0419C85.7674 87.2377 85.553 87.4447 85.3011 87.6078C85.0563 87.7663 84.7799 87.878 84.5542 87.9188C84.3488 87.7207 84.2057 87.5031 84.0241 87.2795C83.8354 87.0473 83.6003 86.8126 83.205 86.6042C83.2045 86.6042 83.204 86.6042 83.2035 86.6042C82.4375 86.2265 81.0294 86.106 79.3479 86.2025C77.6664 86.2989 75.7148 86.6157 73.8816 87.1312C72.0484 87.6467 70.3339 88.3606 69.1231 89.2536C67.9123 90.1466 67.2004 91.2281 67.4083 92.4659V97.4522L65.6286 101.382C65.6236 101.393 65.6225 101.405 65.6253 101.417C65.6282 101.428 65.635 101.439 65.6445 101.446L67.9269 103.3C67.467 105.335 67.3359 107.224 67.4401 108.66C67.4925 109.383 67.6027 109.99 67.7623 110.448C67.9133 110.882 68.1154 111.159 68.3574 111.289V113.963C68.1368 113.983 67.9495 114.073 67.8287 114.232C67.6954 114.408 67.6208 114.638 67.5932 114.866C67.5657 115.094 67.5842 115.322 67.6467 115.498C67.678 115.586 67.7206 115.662 67.7767 115.718C67.8172 115.759 67.8738 115.77 67.9284 115.783C67.9236 117.796 67.3538 120.249 67.1671 122.276C67.0733 123.293 67.0763 124.205 67.3029 124.903C67.5229 125.582 67.9774 126.046 68.733 126.201L68.3632 127.499C68.1397 127.602 67.9824 127.735 67.8894 127.894C67.791 128.062 67.7503 128.252 67.7233 128.45C67.6716 128.828 67.6509 129.234 67.4314 129.61C66.2513 129.181 65.3332 128.285 64.9352 126.571C64.9327 126.559 64.9262 126.548 64.9168 126.54C64.9073 126.532 64.8955 126.528 64.8832 126.528C63.0612 126.528 62.1633 126.093 61.4927 125.54C60.8221 124.987 60.3768 124.303 59.4818 123.825C59.4738 123.821 59.4649 123.819 59.4558 123.819C58.5569 123.819 57.9627 124.271 57.4334 124.833C56.9041 125.395 56.4321 126.068 55.7635 126.538C55.7552 126.543 55.7487 126.551 55.7447 126.561C55.5422 127.03 55.1013 127.937 54.6612 128.725C54.4412 129.119 54.2202 129.483 54.0314 129.747C53.937 129.879 53.8502 129.985 53.7771 130.057C53.7041 130.128 53.6436 130.159 53.6226 130.159C53.6146 130.159 53.6068 130.16 53.5995 130.164C53.5923 130.167 53.5859 130.172 53.5807 130.178L51.1783 132.902C51.1712 132.91 51.1665 132.919 51.1648 132.93C51.1631 132.94 51.1645 132.951 51.1687 132.96C51.173 132.97 51.1801 132.978 51.1889 132.984C51.1978 132.99 51.2082 132.993 51.2188 132.993L125.376 132.862C125.385 132.861 125.395 132.859 125.403 132.854C125.411 132.849 125.418 132.842 125.423 132.834C125.427 132.826 125.43 132.816 125.43 132.807C125.429 132.797 125.427 132.788 125.422 132.779L122.976 128.697C122.707 127.691 121.69 125.872 120.331 123.99C118.967 122.102 117.263 120.16 115.633 118.955C115.626 118.95 115.618 118.946 115.609 118.945C114.049 118.709 113.107 118.339 112.527 117.916C111.948 117.492 111.728 117.017 111.611 116.551C111.495 116.084 111.489 115.627 111.333 115.249C111.177 114.871 110.859 114.582 110.163 114.477C110.157 114.476 110.152 114.476 110.147 114.477L107.457 114.889C107.443 114.891 107.43 114.899 107.422 114.911C105.858 116.93 104.216 117.788 102.58 117.602C100.944 117.415 99.2979 116.176 97.7448 113.959C97.7385 113.95 97.7294 113.943 97.7188 113.939C95.2141 113.06 92.7123 112.451 90.9624 111.724C90.0875 111.361 89.4011 110.968 88.9978 110.505C88.5945 110.041 88.467 109.514 88.7002 108.846C88.7028 108.839 88.7038 108.831 88.7034 108.824C88.7029 108.817 88.7009 108.809 88.6975 108.803C88.6942 108.796 88.6894 108.79 88.6837 108.786C88.6779 108.781 88.6713 108.777 88.6641 108.775L87.3221 108.384L87.3062 106.821C87.3062 106.813 87.3042 106.805 87.3004 106.797C86.0813 104.462 85.7041 102.829 85.7706 101.58C85.8371 100.332 86.3454 99.4644 86.9132 98.6559C87.4811 97.8474 88.1105 97.0997 88.3997 96.0987C88.6858 95.1085 88.624 93.867 87.8595 92.0987L88.6222 91.6999C89.8562 91.8707 90.7387 91.7848 91.4146 91.3687C92.0875 90.9545 92.549 90.2164 92.9661 89.1168C93.8342 89.1122 94.5521 88.9688 94.9596 88.5811C95.1667 88.3842 95.2914 88.1244 95.3092 87.8007C95.3271 87.4771 95.2415 87.0903 95.0362 86.6301C95.0346 86.6271 95.0326 86.6242 95.0304 86.6215C93.9749 85.0643 92.3598 83.7039 90.9581 83.065C90.9548 83.0637 90.9515 83.0627 90.948 83.0621C90.1018 82.8846 89.3938 82.8016 88.8013 82.8058ZM82.2718 99.3831C81.4608 101.415 82.2811 102.753 82.7051 104.008C81.392 103.973 80.1383 103.209 79.7177 101.422L82.2718 99.3831ZM76.047 110.019L80.5469 114.012L79.6007 123.042L77.3009 126.553C77.294 126.564 77.291 126.577 77.2926 126.59C77.2942 126.602 77.3002 126.614 77.3096 126.623L79.228 128.378C79.2362 128.385 79.2466 128.39 79.2577 128.392C79.2688 128.393 79.2801 128.392 79.2901 128.386L80.0644 127.998L81.3068 129.641H76.0268L72.5641 126.98L73.8584 125.668C73.8666 125.659 73.8717 125.648 73.8729 125.636L76.047 110.019ZM87.8522 112.699L96.3017 115.798C97.1143 118.991 99.3773 120.354 101.53 120.785L98.8788 123.409C98.8736 123.414 98.8694 123.42 98.8666 123.427C98.8638 123.433 98.8623 123.44 98.8623 123.448C98.8623 123.455 98.8638 123.462 98.8666 123.469C98.8694 123.475 98.8736 123.481 98.8788 123.487L100.186 124.804C99.3558 125.193 98.7174 125.526 98.2995 125.859C97.8764 126.197 97.6586 126.547 97.6495 126.959C97.6544 126.955 97.6575 126.951 97.6625 126.947L97.6466 126.985C97.6466 126.976 97.6493 126.968 97.6495 126.959C97.1777 127.427 96.8714 127.803 96.5429 128.028C96.211 128.255 95.8549 128.339 95.2428 128.224C95.2348 128.222 95.2267 128.223 95.2189 128.225C95.2112 128.227 95.204 128.231 95.198 128.237C93.9788 129.254 93.2472 129.728 92.4923 129.789C91.7374 129.85 90.9366 129.499 89.58 128.834C89.568 128.828 89.5541 128.826 89.541 128.83L88.1975 129.214C87.3444 129.214 86.0933 128.55 85.3083 127.72C84.9156 127.304 84.6398 126.849 84.5788 126.424C84.5191 126.008 84.6649 125.622 85.1061 125.298L86.8381 126.221C86.8448 126.225 86.8521 126.227 86.8597 126.228C86.8673 126.228 86.875 126.227 86.8822 126.225C86.8894 126.222 86.8961 126.219 86.9017 126.213C86.9072 126.208 86.9117 126.202 86.9147 126.195C88.2523 123.077 88.2501 116.769 87.8522 112.699Z" fill="black"/>
</g>
</g>
<defs>
<clipPath id="clip0_4_4306">
<rect width="174" height="174" fill="white"/>
</clipPath>
<clipPath id="clip1_4_4306">
<rect width="148" height="130" fill="white" transform="translate(13 22)"/>
</clipPath>
</defs>
</svg>
