<svg width="174" height="174" viewBox="0 0 174 174" fill="none" xmlns="http://www.w3.org/2000/svg">
<g clip-path="url(#clip0_4_4018)">
<g clip-path="url(#clip1_4_4018)">
<path d="M132.99 41.0666C145.173 53.264 152.011 69.8013 152 87.0404C151.989 104.279 145.131 120.808 132.933 132.99C120.736 145.173 104.199 152.011 86.9596 152C69.7205 151.989 53.1918 145.131 41.0095 132.933C34.9774 126.894 30.194 119.725 26.9324 111.837C23.6707 103.949 21.9947 95.4955 22 86.9595C22.0053 78.4236 23.6918 69.9723 26.9633 62.0882C30.2347 54.204 35.0271 47.0415 41.0666 41.0094C53.2641 28.8272 69.8014 21.9893 87.0404 22C104.279 22.0108 120.808 28.8691 132.99 41.0666Z" fill="black"/>
<path d="M132.72 41.3375C138.716 47.3414 143.472 54.4676 146.714 62.3093C149.956 70.151 151.622 78.5545 151.617 87.04C151.612 95.5256 149.935 103.927 146.683 111.765C143.431 119.602 138.667 126.723 132.663 132.719C120.538 144.829 104.098 151.627 86.9605 151.616C69.8231 151.606 53.3919 144.788 41.2815 132.662C29.1711 120.537 22.3735 104.097 22.3842 86.9596C22.3949 69.8222 29.2129 53.391 41.3383 41.2806C53.4638 29.1702 69.9035 22.3726 87.0409 22.3833C104.178 22.394 120.609 29.212 132.72 41.3375Z" fill="white"/>
<path d="M131.331 42.7202C137.146 48.5424 141.757 55.4528 144.901 63.057C148.046 70.6613 149.661 78.8103 149.656 87.039C149.651 95.2676 148.025 103.415 144.872 111.015C141.718 118.615 137.098 125.52 131.276 131.335C119.518 143.079 103.576 149.67 86.9572 149.66C70.3388 149.65 54.4051 143.038 42.6614 131.28C30.9176 119.521 24.3258 103.579 24.3361 86.961C24.3464 70.3425 30.958 54.4088 42.7163 42.665C48.5384 36.8501 55.4489 32.2389 63.0531 29.0947C70.6573 25.9504 78.8064 24.3347 87.035 24.3399C95.2636 24.345 103.411 25.9708 111.011 29.1244C118.611 32.2781 125.516 36.8981 131.331 42.7202Z" fill="#008FDE"/>
<path d="M87.4527 41.0348C78.0427 41.0593 68.8688 43.9821 61.1789 49.4056L57.9076 44.1117C57.7326 43.7918 57.4622 43.6878 57.2044 43.7241C56.9466 43.7604 56.7009 43.9375 56.5742 44.18L50.4416 72.9216L77.4162 63.8947C77.9281 63.4684 77.9184 63.0348 77.4204 62.6614L70.6588 58.5915C75.7696 55.5298 81.6157 53.9126 87.5734 53.9125C92.2846 53.9124 96.941 54.9236 101.228 56.8778C105.515 58.8319 109.332 61.6836 112.422 65.24L122.143 56.795C118.122 52.1667 113.213 48.393 107.706 45.6975C102.199 43.002 96.2077 41.4397 90.0861 41.1031C89.2093 41.0551 88.3307 41.0323 87.4527 41.0348ZM118.023 61.5353L112.452 89.4323C112.491 89.9598 113.054 90.4353 113.61 90.0012L120.336 86.1716L120.48 86.1327C120.485 86.3643 120.488 86.596 120.488 86.8277C120.488 94.4643 117.833 101.863 112.977 107.757C108.121 113.651 101.367 117.674 93.8716 119.135L96.3359 131.775C102.294 130.613 107.961 128.279 113.008 124.908C118.056 121.536 122.383 117.195 125.737 112.137C131.5 103.447 134.124 93.0516 133.177 82.6682L133.203 82.6613L139.212 82.3562C139.798 82.2154 139.974 81.8337 139.682 81.2595L118.023 61.5353ZM44.1099 72.4045C40.5709 83.0692 41.0764 94.6629 45.5303 104.979C49.9842 115.295 58.0756 123.614 68.2645 128.352L68.2457 128.425L65.2996 134.121C64.9314 134.722 65.4695 135.228 65.9981 135.207L93.8739 126.109L72.4759 107.358C71.8723 107.133 71.5126 107.351 71.4392 107.949L71.365 115.476C66.2935 112.607 62.0745 108.443 59.1389 103.41C56.2034 98.3768 54.6566 92.6545 54.6565 86.8277C54.6568 83.3044 55.2227 79.8041 56.3327 76.4603L44.1099 72.4045Z" fill="white"/>
</g>
</g>
<defs>
<clipPath id="clip0_4_4018">
<rect width="174" height="174" fill="white"/>
</clipPath>
<clipPath id="clip1_4_4018">
<rect width="130" height="130" fill="white" transform="translate(22 22)"/>
</clipPath>
</defs>
</svg>
