<svg width="310" height="160" viewBox="0 0 310 160" fill="none" xmlns="http://www.w3.org/2000/svg">
<g clip-path="url(#clip0_4_3076)">
<g clip-path="url(#clip1_4_3076)">
<path d="M148.27 19.0016C149.588 16.7256 152.168 15.3018 154.998 15.3018C157.879 15.3018 160.459 16.8034 161.803 19.1228L227.542 132.624C228.953 135.06 229.162 138.128 227.652 140.734C226.211 143.221 223.617 144.698 220.93 144.698H89.0653C86.3784 144.698 83.7835 143.221 82.3428 140.734C80.8335 138.128 81.0423 135.06 82.4533 132.624L148.27 19.0016Z" fill="white" stroke="black" stroke-width="0.719" stroke-miterlimit="2" stroke-linecap="round" stroke-linejoin="round"/>
<path d="M154.992 17.7559C156.946 17.7559 158.644 18.7776 159.498 20.2528L225.235 133.752C226.219 135.451 226.35 137.477 225.346 139.21C224.369 140.897 222.638 141.845 220.929 141.845H89.0614C87.3525 141.845 85.6213 140.897 84.6441 139.21C83.6401 137.477 83.7709 135.451 84.755 133.752L150.57 20.1313C151.377 18.7374 153.058 17.7559 154.992 17.7559ZM104.641 127.703H205.35L154.998 40.7696L104.641 127.703Z" fill="#DD2414"/>
<path fill-rule="evenodd" clip-rule="evenodd" d="M162.089 75.162C162.082 75.1601 162.075 75.1597 162.068 75.1607C162.06 75.1617 162.054 75.1641 162.047 75.1678L157.897 77.5277C150.836 81.6101 145.714 85.5225 142.357 90.3051C139.001 95.0878 137.414 100.74 137.414 108.288V123.183C137.414 123.193 137.417 123.203 137.422 123.211C137.428 123.22 137.435 123.227 137.444 123.231C137.453 123.236 137.463 123.238 137.473 123.237C137.483 123.236 137.493 123.232 137.501 123.226L143.634 118.59L149.767 123.226C149.775 123.232 149.784 123.236 149.794 123.237C149.804 123.238 149.814 123.236 149.823 123.231C149.832 123.227 149.84 123.22 149.845 123.211C149.851 123.203 149.853 123.193 149.853 123.183V110.587C149.853 103.17 151.502 98.711 154.316 95.4268C157.13 92.1425 161.118 90.0309 165.802 87.3318L168.555 85.7292C168.562 85.7254 168.568 85.7202 168.572 85.714C168.577 85.7078 168.58 85.7007 168.581 85.6932L170.328 77.5868C170.331 77.5734 170.328 77.5595 170.321 77.5477C170.314 77.536 170.303 77.5273 170.29 77.5234L162.089 75.162Z" fill="black"/>
</g>
</g>
<defs>
<clipPath id="clip0_4_3076">
<path d="M0 0H310V160H0V0Z" fill="white"/>
</clipPath>
<clipPath id="clip1_4_3076">
<rect width="148" height="130" fill="white" transform="translate(81 15)"/>
</clipPath>
</defs>
</svg>
