<svg width="310" height="160" viewBox="0 0 310 160" fill="none" xmlns="http://www.w3.org/2000/svg">
<g clip-path="url(#clip0_4_3043)">
<path d="M0 0H310V160H0V0Z" fill="white"/>
<g clip-path="url(#clip1_4_3043)">
<path fill-rule="evenodd" clip-rule="evenodd" d="M115.96 15.1417C110.802 15.1417 106.641 19.3337 106.641 24.5296V135.47C106.641 140.666 110.802 144.858 115.96 144.858H194.04C199.198 144.858 203.359 140.666 203.359 135.47V24.5296C203.359 19.3337 199.198 15.1417 194.04 15.1417H115.96ZM115.96 15.726H194.04C198.887 15.726 202.779 19.6474 202.779 24.5296V135.47C202.779 140.353 198.887 144.274 194.04 144.274H115.96C111.114 144.274 107.221 140.353 107.221 135.47V24.5296C107.221 19.6474 111.114 15.726 115.96 15.726Z" fill="black"/>
<path fill-rule="evenodd" clip-rule="evenodd" d="M115.959 15.4337H194.039C199.041 15.4337 203.068 19.4904 203.068 24.5295V135.47C203.068 140.509 199.041 144.566 194.039 144.566H115.959C110.957 144.566 106.93 140.509 106.93 135.47V24.5295C106.93 19.4904 110.957 15.4337 115.959 15.4337Z" fill="white"/>
<path fill-rule="evenodd" clip-rule="evenodd" d="M115.9 17.586H194.107C197.89 17.586 200.936 20.6544 200.936 24.4659V135.534C200.936 139.346 197.89 142.414 194.107 142.414H115.9C112.116 142.414 109.07 139.346 109.07 135.534V24.4659C109.07 20.6544 112.116 17.586 115.9 17.586Z" fill="#0070FD"/>
<path fill-rule="evenodd" clip-rule="evenodd" d="M118.469 27.3282H191.534V100.933H118.469V27.3282Z" fill="white"/>
<path d="M154.726 35.8702C139.287 35.8702 126.758 48.5094 126.758 64.1063C126.758 79.6866 139.287 92.3237 154.726 92.3237C162.677 92.3237 169.842 88.9994 174.947 83.6255L175.132 83.8254C176.491 85.289 178.761 85.366 180.214 83.9941L182.187 82.1173L181.041 80.8697L183.229 78.8232C183.475 78.6205 183.475 78.2376 183.249 78.0098C183.034 77.7765 182.678 77.7619 182.433 77.9785L180.244 80.0063L177.518 77.0683L179.712 75.0323C179.957 74.8352 180.048 74.2189 179.724 74.2189C179.404 74.2189 179.142 73.9738 178.916 74.1876L176.708 76.2237L175.544 74.9906L173.57 76.8704C172.128 78.2368 172.049 80.5308 173.416 81.9944L173.876 82.486C169.063 87.5822 162.267 90.7677 154.727 90.7677C140.146 90.7677 128.322 78.8227 128.322 64.1062C128.322 49.3897 140.146 37.4594 154.727 37.4594C168.88 37.4594 180.429 48.6815 181.121 62.7815H176.402L176.326 62.0473L176.065 59.5019C175.141 58.2022 173.877 56.9533 172.724 55.7745C170.695 53.7015 168.755 52.0336 167.794 52.0336H154.193C153.685 52.0336 153.466 52.1156 153.051 52.2648C152.651 52.4087 152.264 52.6153 151.838 52.872C151.937 52.8841 147.721 56.8532 145.365 59.0718L137.588 59.7321C137.302 59.7597 136.84 60.5093 136.606 60.9818C135.801 62.6117 135.107 66.2308 135.107 66.2308L134.326 66.6141V68.9792L135.107 69.4302L135.259 70.1384H137.606C137.477 69.6981 137.407 69.2334 137.407 68.7532C137.407 66.0272 139.63 63.7886 142.336 63.7886C145.042 63.7886 147.263 66.0272 147.263 68.7532C147.263 69.2335 147.193 69.698 147.064 70.1384H164.358C164.23 69.6981 164.16 69.2334 164.16 68.7532C164.16 66.0272 166.382 63.7886 169.088 63.7886C171.794 63.7886 174.016 66.0272 174.016 68.7532C174.016 69.2334 173.946 69.6981 173.818 70.1384H174.128H175.77L177.67 68.2304V65.3872L176.568 64.5509L176.525 64.0969H176.533L176.523 63.9844H182.696C182.649 48.4653 170.138 35.8702 154.727 35.8702H154.726ZM155.052 53.1647H166.388C167.631 53.1647 169.032 54.5512 169.892 55.4664C170.818 56.4517 171.675 57.5163 171.812 59.0407H147.773C147.773 59.0407 152.349 53.1647 155.052 53.1647ZM142.334 65.1041C140.334 65.1038 138.712 66.7378 138.712 68.7534C138.712 70.7689 140.334 72.4029 142.334 72.4027C144.335 72.4023 145.956 70.7685 145.956 68.7534C145.956 66.7382 144.335 65.1044 142.334 65.1041ZM169.087 65.1041C167.086 65.1044 165.465 66.7382 165.465 68.7534C165.465 70.7681 167.087 72.4013 169.087 72.4016C171.087 72.4019 172.709 70.7685 172.709 68.7534C172.709 66.7378 171.087 65.1038 169.087 65.1041Z" fill="#00943C"/>
</g>
</g>
<defs>
<clipPath id="clip0_4_3043">
<path d="M0 0H310V160H0V0Z" fill="white"/>
</clipPath>
<clipPath id="clip1_4_3043">
<rect width="97" height="130" fill="white" transform="translate(106.5 15)"/>
</clipPath>
</defs>
</svg>
