<svg width="174" height="174" viewBox="0 0 174 174" fill="none" xmlns="http://www.w3.org/2000/svg">
<g clip-path="url(#clip0_4_4185)">
<g clip-path="url(#clip1_4_4185)">
<path d="M93.3824 25.6999C92.0728 23.4238 89.5107 22 86.6998 22C83.8379 22 81.2748 23.5017 79.9405 25.821L14.6458 139.322C13.2444 141.758 13.0369 144.826 14.5361 147.432C15.967 149.919 18.5444 151.396 21.2131 151.396H152.187C154.855 151.396 157.433 149.919 158.864 147.432C160.363 144.826 160.155 141.758 158.754 139.322L93.3824 25.6999Z" fill="white" stroke="black" stroke-width="0.719" stroke-miterlimit="2" stroke-linecap="round" stroke-linejoin="round"/>
<path d="M86.6994 24.4531C84.7585 24.4531 83.0727 25.4748 82.224 26.9501L16.9311 140.45C15.9536 142.149 15.8238 144.174 16.821 145.907C17.7915 147.594 19.5111 148.542 21.2084 148.542H152.185C153.882 148.542 155.602 147.594 156.572 145.907C157.57 144.174 157.44 142.149 156.462 140.45L91.0923 26.8285C90.2903 25.4347 88.6211 24.4531 86.6994 24.4531ZM136.711 134.401H36.6825L86.694 47.4669L136.711 134.401Z" fill="#DD2414"/>
<path fill-rule="evenodd" clip-rule="evenodd" d="M94.4153 124.213C94.5683 124.213 94.6822 124.33 94.9524 124.432C95.2453 124.755 95.4927 125.088 95.7824 125.529C95.4927 125.529 95.1054 125.529 94.6822 125.529C94.5683 125.206 94.2851 124.873 93.9922 124.432C94.1452 124.432 94.2851 124.33 94.4153 124.213Z" fill="black"/>
<path fill-rule="evenodd" clip-rule="evenodd" d="M95.8594 126.784C96.3997 126.784 96.9367 126.898 97.6463 127C97.6463 127.232 97.6463 127.555 97.6463 127.888C97.2232 127.774 96.8228 127.555 96.2597 127.323C96.1295 127.232 95.9765 127 95.8594 126.784Z" fill="black"/>
<path fill-rule="evenodd" clip-rule="evenodd" d="M97.6497 125.684C97.7864 125.475 98.0338 125.145 98.3267 124.818C98.88 124.818 99.4171 124.818 99.9574 124.818C99.9574 124.913 99.8402 125.027 99.71 125.243C99.4171 125.243 98.994 125.243 98.6099 125.361C98.6099 125.684 98.6099 126.017 98.6099 126.458C98.3267 126.458 98.0338 126.458 97.6497 126.344C97.4935 126.226 97.3633 126.135 97.2266 125.903C97.3633 125.903 97.4935 125.802 97.6497 125.684Z" fill="black"/>
<path fill-rule="evenodd" clip-rule="evenodd" d="M100.337 127.248C100.474 127.248 100.581 127.346 100.874 127.464C101.161 127.787 101.428 128.12 101.698 128.561C101.428 128.561 101.004 128.561 100.581 128.561C100.474 128.238 100.207 127.905 99.9141 127.464C100.051 127.464 100.207 127.346 100.337 127.248Z" fill="black"/>
<path fill-rule="evenodd" clip-rule="evenodd" d="M101.781 129.822C102.318 129.822 102.881 129.917 103.549 130.031C103.549 130.247 103.549 130.574 103.549 130.907C103.126 130.805 102.741 130.574 102.188 130.364C102.035 130.247 101.918 130.031 101.781 129.822Z" fill="black"/>
<path fill-rule="evenodd" clip-rule="evenodd" d="M103.548 128.718C103.704 128.486 103.958 128.159 104.241 127.865C104.805 127.865 105.342 127.865 105.895 127.865C105.895 127.966 105.765 128.058 105.612 128.277C105.342 128.277 104.918 128.277 104.512 128.391C104.512 128.718 104.512 129.048 104.512 129.489C104.241 129.489 103.958 129.489 103.548 129.374C103.418 129.257 103.281 129.165 103.125 128.933C103.281 128.933 103.418 128.832 103.548 128.718Z" fill="black"/>
<path fill-rule="evenodd" clip-rule="evenodd" d="M101.009 123.737C101.149 123.737 101.302 123.852 101.549 123.946C101.842 124.276 102.109 124.603 102.396 125.05C102.109 125.05 101.686 125.05 101.302 125.05C101.149 124.717 100.879 124.394 100.586 123.946C100.742 123.946 100.879 123.852 101.009 123.737Z" fill="black"/>
<path fill-rule="evenodd" clip-rule="evenodd" d="M102.453 126.304C102.99 126.304 103.544 126.418 104.237 126.519C104.237 126.751 104.237 127.078 104.237 127.401C103.836 127.287 103.413 127.078 102.876 126.846C102.736 126.751 102.583 126.519 102.453 126.304Z" fill="black"/>
<path fill-rule="evenodd" clip-rule="evenodd" d="M94.6419 127.735C94.7786 127.735 94.9088 127.827 95.2017 127.944C95.4491 128.278 95.742 128.601 96.0089 129.048C95.742 129.048 95.3189 129.048 94.9088 129.048C94.7786 128.719 94.4857 128.392 94.2188 127.944C94.3555 127.944 94.4857 127.827 94.6419 127.735Z" fill="black"/>
<path fill-rule="evenodd" clip-rule="evenodd" d="M96.0938 130.302C96.6471 130.302 97.1874 130.403 97.8644 130.517C97.8644 130.726 97.8644 131.06 97.8644 131.386C97.4543 131.291 97.0312 131.06 96.4941 130.844C96.3639 130.726 96.2239 130.517 96.0938 130.302Z" fill="black"/>
<path fill-rule="evenodd" clip-rule="evenodd" d="M97.8632 129.22C97.9934 129.011 98.2864 128.678 98.5305 128.352C99.1099 128.352 99.6469 128.352 100.21 128.352C100.21 128.446 100.054 128.561 99.9171 128.779C99.6469 128.779 99.2466 128.779 98.8234 128.894C98.8234 129.22 98.8234 129.527 98.8234 129.978C98.5305 129.978 98.2864 129.978 97.8632 129.861C97.7233 129.746 97.6094 129.645 97.4531 129.436C97.6094 129.436 97.7233 129.335 97.8632 129.22Z" fill="black"/>
<path fill-rule="evenodd" clip-rule="evenodd" d="M109.336 126.366C109.974 126.366 110.628 126.481 111.435 126.598C111.435 126.807 111.435 127.131 111.435 127.464C110.95 127.346 110.475 127.131 109.821 126.921C109.668 126.807 109.489 126.598 109.336 126.366Z" fill="black"/>
<path fill-rule="evenodd" clip-rule="evenodd" d="M111.43 125.258C111.6 125.049 111.932 124.716 112.277 124.393C112.908 124.393 113.562 124.393 114.216 124.393C114.216 124.507 114.063 124.602 113.894 124.834C113.562 124.834 113.087 124.834 112.602 124.935C112.602 125.258 112.602 125.591 112.602 126.032C112.277 126.032 111.932 126.032 111.43 125.941C111.277 125.823 111.124 125.706 110.945 125.49C111.124 125.49 111.277 125.376 111.43 125.258Z" fill="black"/>
<path fill-rule="evenodd" clip-rule="evenodd" d="M107.088 126.938C107.241 126.938 107.417 127.039 107.742 127.153C108.071 127.48 108.374 127.813 108.702 128.254C108.374 128.254 107.895 128.254 107.417 128.254C107.241 127.927 106.919 127.594 106.609 127.153C106.766 127.153 106.919 127.039 107.088 126.938Z" fill="black"/>
<path fill-rule="evenodd" clip-rule="evenodd" d="M108.797 129.528C109.448 129.528 110.102 129.646 110.913 129.747C110.913 129.979 110.913 130.286 110.913 130.613C110.411 130.495 109.933 130.286 109.279 130.07C109.126 129.979 108.95 129.747 108.797 129.528Z" fill="black"/>
<path fill-rule="evenodd" clip-rule="evenodd" d="M110.908 128.43C111.06 128.214 111.392 127.888 111.715 127.555C112.369 127.555 113.023 127.555 113.661 127.555C113.661 127.656 113.508 127.774 113.329 127.983C113.023 127.983 112.522 127.983 112.043 128.097C112.043 128.43 112.043 128.753 112.043 129.204C111.715 129.204 111.392 129.204 110.908 129.087C110.738 128.972 110.582 128.871 110.406 128.639C110.582 128.639 110.738 128.548 110.908 128.43Z" fill="black"/>
<path fill-rule="evenodd" clip-rule="evenodd" d="M114.204 125.592C114.36 125.592 114.529 125.706 114.858 125.824C115.18 126.147 115.512 126.48 115.821 126.921C115.512 126.921 115.011 126.921 114.529 126.921C114.36 126.598 114.051 126.265 113.719 125.824C113.875 125.824 114.051 125.706 114.204 125.592Z" fill="black"/>
<path fill-rule="evenodd" clip-rule="evenodd" d="M115.891 128.198C116.538 128.198 117.215 128.29 118.023 128.407C118.023 128.623 118.023 128.949 118.023 129.279C117.538 129.181 117.023 128.949 116.369 128.74C116.216 128.623 116.06 128.407 115.891 128.198Z" fill="black"/>
<path fill-rule="evenodd" clip-rule="evenodd" d="M118.024 127.091C118.177 126.859 118.503 126.536 118.831 126.209C119.485 126.209 120.14 126.209 120.771 126.209C120.771 126.327 120.618 126.441 120.462 126.65C120.14 126.65 119.638 126.65 119.157 126.768C119.157 127.091 119.157 127.424 119.157 127.865C118.831 127.865 118.503 127.865 118.024 127.751C117.832 127.633 117.692 127.519 117.539 127.31C117.692 127.31 117.832 127.192 118.024 127.091Z" fill="black"/>
<path fill-rule="evenodd" clip-rule="evenodd" d="M114.877 128.522C115.03 128.522 115.209 128.624 115.531 128.741C115.86 129.065 116.185 129.398 116.491 129.839C116.185 129.839 115.684 129.839 115.209 129.839C115.03 129.512 114.724 129.182 114.398 128.741C114.555 128.741 114.724 128.624 114.877 128.522Z" fill="black"/>
<path fill-rule="evenodd" clip-rule="evenodd" d="M116.586 131.115C117.24 131.115 117.891 131.213 118.702 131.331C118.702 131.54 118.702 131.863 118.702 132.196C118.223 132.095 117.722 131.863 117.071 131.654C116.915 131.54 116.762 131.331 116.586 131.115Z" fill="black"/>
<path fill-rule="evenodd" clip-rule="evenodd" d="M118.697 130.014C118.85 129.799 119.182 129.453 119.504 129.126C120.159 129.126 120.813 129.126 121.451 129.126C121.451 129.244 121.298 129.358 121.119 129.567C120.813 129.567 120.312 129.567 119.836 129.685C119.836 130.014 119.836 130.341 119.836 130.789C119.504 130.789 119.182 130.789 118.697 130.674C118.528 130.557 118.372 130.455 118.219 130.223C118.372 130.223 118.528 130.132 118.697 130.014Z" fill="black"/>
<path fill-rule="evenodd" clip-rule="evenodd" d="M52.8906 123.641V127.735V127.813H92.6695V123.641L52.8906 123.641Z" fill="black"/>
<path fill-rule="evenodd" clip-rule="evenodd" d="M84.1122 97.152C91.4748 97.6713 98.284 98.6382 105.315 99.9904C106.623 103.116 107.531 105.847 107.7 109.149C102.069 108.12 98.7201 107.601 94.0884 106.944C89.4339 106.288 84.6492 105.847 79.9199 105.475C80.8833 102.016 82.0942 100.415 84.1122 97.152ZM74.7511 107.307C78.4584 101.499 81.6515 94.7153 84.633 94.7708C87.6275 94.8688 91.7677 95.3718 95.3351 95.852C98.9512 96.3387 103.121 97.1291 106.086 97.7105C109.009 98.2887 110.161 103.966 112.355 112.334C113.201 115.636 111.085 118.902 110.138 121.143C109.946 122.884 109.624 124.213 109.123 125.879L103.853 125.18L103.622 120.588L81.1307 117.57L79.9589 122.035L74.9594 121.375C74.8846 118.654 74.8455 117.24 74.9204 115.522C74.4028 113.147 73.2669 109.665 74.7511 107.307Z" fill="black"/>
</g>
</g>
<defs>
<clipPath id="clip0_4_4185">
<rect width="174" height="174" fill="white"/>
</clipPath>
<clipPath id="clip1_4_4185">
<rect width="147" height="130" fill="white" transform="translate(13.5 22)"/>
</clipPath>
</defs>
</svg>
