<svg width="174" height="174" viewBox="0 0 174 174" fill="none" xmlns="http://www.w3.org/2000/svg">
<g clip-path="url(#clip0_4_4006)">
<g clip-path="url(#clip1_4_4006)">
<path d="M93.7305 26.0021C92.412 23.7261 89.8325 22.3022 87.0025 22.3022C84.1211 22.3022 81.5406 23.8039 80.1972 26.1232L14.4583 139.624C13.0474 142.06 12.8385 145.129 14.3478 147.734C15.7885 150.222 18.3834 151.698 21.0703 151.698H152.935C155.622 151.698 158.216 150.222 159.657 147.734C161.167 145.129 160.958 142.06 159.547 139.624L93.7305 26.0021Z" fill="white" stroke="black" stroke-width="0.719" stroke-miterlimit="2" stroke-linecap="round" stroke-linejoin="round"/>
<path d="M86.9998 24.7554C85.0457 24.7554 83.3484 25.7771 82.4939 27.2523L16.7568 140.752C15.7727 142.451 15.642 144.476 16.646 146.21C17.6231 147.897 19.3544 148.845 21.0632 148.845H152.931C154.64 148.845 156.371 147.897 157.348 146.21C158.352 144.476 158.221 142.451 157.237 140.752L91.4225 27.1308C90.6151 25.737 88.9346 24.7554 86.9998 24.7554ZM137.351 134.703H36.6426L86.9943 47.7691L137.351 134.703Z" fill="#DD2414"/>
<path fill-rule="evenodd" clip-rule="evenodd" d="M86.9859 74.2144C86.9781 74.2142 86.9703 74.2158 86.9631 74.219C86.9559 74.2221 86.9495 74.2268 86.9443 74.2327L78.7102 84.0783C78.7016 84.0881 78.6968 84.1007 78.6968 84.1137V108.772H67.3808C67.3668 108.772 67.3534 108.778 67.3436 108.788C67.3338 108.798 67.3282 108.811 67.3281 108.825V116.698C67.3279 116.712 67.3333 116.726 67.3432 116.736C67.3531 116.747 67.3666 116.753 67.3808 116.753H78.6968V129.788C78.6968 129.795 78.6983 129.802 78.7011 129.808C78.7039 129.815 78.708 129.821 78.7131 129.826C78.7183 129.831 78.7243 129.835 78.731 129.838C78.7376 129.84 78.7447 129.841 78.7519 129.841H78.7715C78.7792 129.841 78.7867 129.839 78.7936 129.835L86.9872 126.077L95.1563 129.835C95.1631 129.839 95.1706 129.841 95.1783 129.841H95.1954C95.2096 129.841 95.2233 129.836 95.2333 129.826C95.2434 129.815 95.2491 129.802 95.2492 129.788V84.1138C95.2495 84.1009 95.2452 84.0883 95.237 84.0783L87.0276 74.2327C87.0224 74.2269 87.016 74.2222 87.0088 74.219C87.0016 74.2159 86.9938 74.2142 86.9859 74.2144Z" fill="black"/>
</g>
</g>
<defs>
<clipPath id="clip0_4_4006">
<rect width="174" height="174" fill="white"/>
</clipPath>
<clipPath id="clip1_4_4006">
<rect width="148" height="130" fill="white" transform="translate(13 22)"/>
</clipPath>
</defs>
</svg>
