<svg width="174" height="174" viewBox="0 0 174 174" fill="none" xmlns="http://www.w3.org/2000/svg">
<g clip-path="url(#clip0_4_4448)">
<g clip-path="url(#clip1_4_4448)">
<path d="M93.7305 26.0021C92.412 23.7261 89.8325 22.3022 87.0025 22.3022C84.1211 22.3022 81.5406 23.8039 80.1972 26.1232L14.4583 139.624C13.0474 142.06 12.8385 145.129 14.3478 147.734C15.7885 150.222 18.3834 151.698 21.0703 151.698H152.935C155.622 151.698 158.216 150.222 159.657 147.734C161.167 145.129 160.958 142.06 159.547 139.624L93.7305 26.0021Z" fill="white" stroke="black" stroke-width="0.719" stroke-miterlimit="2" stroke-linecap="round" stroke-linejoin="round"/>
<path d="M86.9998 24.7554C85.0457 24.7554 83.3484 25.7771 82.4939 27.2523L16.7568 140.752C15.7727 142.451 15.642 144.476 16.646 146.21C17.6231 147.897 19.3544 148.845 21.0632 148.845H152.931C154.64 148.845 156.371 147.897 157.348 146.21C158.352 144.476 158.221 142.451 157.237 140.752L91.4225 27.1308C90.6151 25.737 88.9346 24.7554 86.9998 24.7554ZM137.351 134.703H36.6426L86.9943 47.7691L137.351 134.703Z" fill="#DD2414"/>
<path fill-rule="evenodd" clip-rule="evenodd" d="M90.414 76.5288C85.8025 76.5292 85.834 77.2841 84.2612 78.7985C83.2151 79.8058 82.9722 81.4346 82.4323 82.7971C82.1067 83.6188 82.1613 84.6386 81.5835 85.3085C81.2281 85.7205 80.5962 85.7741 80.1294 86.0545C79.3999 86.4928 78.5623 86.8445 78.0348 87.5123C77.2512 88.5043 76.838 89.7525 76.838 91.108C76.838 91.5553 74.9216 92.2194 73.1216 92.9601C71.3884 93.6733 69.7689 94.4729 69.7689 94.4729L67.4073 99.9475C65.8968 99.9724 64.6879 101.19 64.6879 102.702V108.434H63.7814C62.58 108.434 61.6121 109.401 61.6121 110.601V117.004H61.3953C61.1893 116.444 60.5507 116.057 59.8935 116.057C59.8935 116.057 59.7734 117.24 59.7734 117.844C59.7734 118.447 59.8935 119.633 59.8935 119.633C60.5507 119.633 61.1893 119.245 61.3953 118.685H61.6121V118.962C61.6121 120.163 62.58 121.129 63.7814 121.129H66.3795C65.6259 121.43 64.9798 121.949 64.5244 122.618C64.069 123.288 63.8252 124.078 63.8243 124.888C63.8243 125.962 64.2527 126.993 65.0151 127.753C65.7775 128.513 66.8116 128.94 67.8899 128.94C68.9681 128.94 70.0022 128.513 70.7646 127.753C71.5271 126.993 71.9554 125.962 71.9554 124.888C71.9555 124.08 71.7133 123.29 71.2599 122.621C70.8066 121.951 70.1628 121.432 69.4112 121.129H77.3623C76.6087 121.43 75.9626 121.949 75.5072 122.618C75.0518 123.288 74.808 124.078 74.8071 124.888C74.8071 125.962 75.2355 126.993 75.9979 127.753C76.7603 128.513 77.7944 128.94 78.8727 128.94C79.9509 128.94 80.985 128.513 81.7474 127.753C82.5099 126.993 82.9382 125.962 82.9382 124.888C82.9383 124.08 82.6961 123.29 82.2427 122.621C81.7894 121.951 81.1456 121.432 80.394 121.129H88.3439C87.5902 121.43 86.9441 121.949 86.4887 122.618C86.0333 123.288 85.7895 124.078 85.7887 124.888C85.7887 125.962 86.217 126.993 86.9795 127.753C87.7419 128.513 88.776 128.94 89.8542 128.94C90.9325 128.94 91.9666 128.513 92.729 127.753C93.4914 126.993 93.9198 125.962 93.9198 124.888C93.9199 124.08 93.6779 123.291 93.2248 122.621C92.7717 121.951 92.1282 121.432 91.3768 121.129H96.4517H97.2773H99.3267C98.573 121.43 97.9269 121.949 97.4715 122.618C97.0161 123.288 96.7723 124.078 96.7714 124.888C96.7715 125.962 97.1998 126.993 97.9622 127.753C98.7247 128.513 99.7588 128.94 100.837 128.94C101.915 128.94 102.949 128.513 103.712 127.753C104.474 126.993 104.903 125.962 104.903 124.888C104.903 124.08 104.661 123.291 104.208 122.621C103.754 121.951 103.111 121.432 102.36 121.129H113.362V115.386H110.083V112.396L111.68 112.067V110.34H110.083H108.543L108.465 115.386H105.233V114.361V113.403V108.445H102.794V104.5C102.794 104.039 103.168 103.666 103.631 103.666H110.997V100.342H98.7301L98.2671 108.434H94.0521V107.637C94.0521 106.326 92.9934 105.271 91.6782 105.271C90.363 105.271 89.3042 106.326 89.3042 107.637V108.434H82.9701V108.338C82.9701 105.891 80.9934 103.92 78.5383 103.92C76.0831 103.92 74.1064 105.891 74.1064 108.338V108.434H70.2197V102.702C70.2197 101.637 69.6197 100.719 68.7375 100.259C69.3715 99.7825 70.756 98.8091 71.6896 98.6485C72.6539 98.4826 73.587 98.8066 74.6111 99.0758C76.6076 99.6006 78.6921 100.381 80.214 100.166C82.0696 99.904 83.5719 98.2549 83.9047 98.2223C85.6543 98.0515 84.7368 96.5412 85.3024 94.54C85.7621 92.9136 87.3918 90.9408 88.6464 90.2594C89.0152 90.0591 89.4475 90.2977 89.9057 90.2826C91.284 90.2374 92.8238 90.4125 94.0313 89.7308C96.232 88.4882 98.7641 87.8448 98.7644 83.819C98.7649 79.7927 95.0261 76.5286 90.414 76.5288Z" fill="black"/>
<path d="M113.365 128.69H57.6328V130.391H113.365V128.69Z" fill="black"/>
</g>
</g>
<defs>
<clipPath id="clip0_4_4448">
<rect width="174" height="174" fill="white"/>
</clipPath>
<clipPath id="clip1_4_4448">
<rect width="148" height="130" fill="white" transform="translate(13 22)"/>
</clipPath>
</defs>
</svg>
