<svg width="174" height="174" viewBox="0 0 174 174" fill="none" xmlns="http://www.w3.org/2000/svg">
<g clip-path="url(#clip0_4_4733)">
<g clip-path="url(#clip1_4_4733)">
<path d="M93.7227 26.0016C92.4042 23.7256 89.8247 22.3018 86.9947 22.3018C84.1133 22.3018 81.5328 23.8034 80.1893 26.1228L14.4504 139.624C13.0396 142.06 12.8307 145.128 14.34 147.734C15.7807 150.221 18.3756 151.698 21.0625 151.698H152.927C155.614 151.698 158.209 150.221 159.649 147.734C161.159 145.128 160.95 142.06 159.539 139.624L93.7227 26.0016Z" fill="white" stroke="black" stroke-width="0.719" stroke-miterlimit="2" stroke-linecap="round" stroke-linejoin="round"/>
<path d="M86.992 24.7549C85.0379 24.7549 83.3406 25.7766 82.4861 27.2518L16.749 140.751C15.7649 142.45 15.6342 144.476 16.6382 146.209C17.6153 147.896 19.3466 148.844 21.0554 148.844H152.923C154.632 148.844 156.363 147.896 157.34 146.209C158.344 144.476 158.214 142.45 157.229 140.751L91.4147 27.1303C90.6073 25.7365 88.9268 24.7549 86.992 24.7549ZM137.344 134.702H36.6348L86.9865 47.7686L137.344 134.702Z" fill="#DD2414"/>
<path fill-rule="evenodd" clip-rule="evenodd" d="M102.868 84.627L102.83 84.649C101.8 85.268 101.786 85.2807 100.972 86.2874L100.956 86.3082L100.961 86.3339C101.152 87.1308 101.153 87.9215 101.153 88.5405V88.6089L101.221 88.5942C102.029 88.4031 102.627 88.4024 103.245 88.4024H103.289L103.298 88.3584C103.495 87.3225 103.495 86.3204 103.495 85.3136V85.2916L103.478 85.2758C103.284 85.0854 103.091 84.8679 102.898 84.6587L102.868 84.627ZM97.2402 89.6706L97.1728 89.6865C96.3678 89.8776 95.7945 89.8783 95.1735 89.8783H95.1502L95.1343 89.893C94.7254 90.2973 94.5151 90.5134 94.3215 90.7226L94.3019 90.7434L94.3095 90.7727C94.5007 91.5416 94.5007 92.1534 94.5007 92.7496V92.7887L94.5363 92.801C95.1648 93.0202 95.7932 93.0185 96.1789 93.0185H96.1924L96.2046 93.0129C96.5985 92.7951 96.8146 92.595 97.0308 92.3861L97.043 92.3739L97.046 92.3555C97.2398 91.3436 97.2396 90.5509 97.2396 89.7396L97.2402 89.6706ZM60.6123 96.0974L59.2713 98.4116H62.5982C62.9971 98.4116 63.4515 98.4999 63.824 98.6486C64.1965 98.7973 64.4824 99.0083 64.5608 99.2253C65.086 100.583 65.8171 101.798 66.4167 103.416C67.054 105.158 67.7538 107.067 68.5251 109.117C68.6643 109.494 68.5791 109.829 68.3241 110.079C68.0689 110.329 67.6376 110.491 67.086 110.491H52.2902L48.7818 116.547H60.6638C60.8841 116.547 61.09 116.741 61.0733 116.952V116.954L60.936 120.862V120.864C60.936 121.104 60.7298 121.273 60.5094 121.273H45.8827L43.61 124.978H50.3068L63.3987 124.994L63.8436 129.765L71.0626 129.764L71.7086 124.339C73.1357 121.897 75.0711 119.868 75.8494 117.148L75.8501 117.142L75.8526 117.136C75.9199 115.225 75.5043 113.821 74.8168 112.494C74.1293 111.167 73.1707 109.916 72.1457 108.299C70.6876 106.097 69.3668 103.359 68.2635 101.085C67.7118 99.9489 67.2148 98.9294 66.7802 98.1494C66.3457 97.3695 65.9829 96.83 65.661 96.6466L65.6604 96.6444C65.1695 96.3949 65.011 96.2631 64.4315 96.1947C63.8519 96.1263 62.8514 96.1178 60.6449 96.0982L60.6123 96.0974ZM106.335 100.545L106.267 100.563C105.465 100.776 104.656 100.776 103.865 100.776H103.824L103.813 100.815C103.581 101.603 103.385 102.227 103.385 102.819V102.84L103.401 102.857C103.826 103.283 104.211 103.684 104.617 104.072L104.641 104.094L104.672 104.085C105.281 103.895 105.855 103.895 106.476 103.895H106.541L106.53 103.832C106.334 102.621 106.335 101.619 106.335 100.616L106.335 100.545ZM110.283 109.023L110.268 109.039C109.884 109.448 109.67 109.64 109.459 109.85L109.436 109.871L109.444 109.902C109.651 110.691 109.651 111.491 109.651 112.094V112.163L109.719 112.146C110.509 111.953 111.317 111.952 112.128 111.952H112.182V109.867L112.169 109.852C112.071 109.746 111.97 109.646 111.895 109.551C111.82 109.457 111.774 109.37 111.774 109.292V109.254L111.737 109.241C111.132 109.023 110.736 109.023 110.308 109.023L110.283 109.023ZM106.276 111.218C106.141 111.206 105.97 111.212 105.795 111.226C105.621 111.241 105.444 111.265 105.303 111.293C105.232 111.307 105.17 111.324 105.12 111.34C105.071 111.356 105.035 111.367 105.005 111.396L105.004 111.397C104.66 111.683 104.534 112 104.446 112.312C104.358 112.625 104.305 112.933 104.108 113.223L104.098 113.237V113.24C104.02 113.354 103.89 113.527 103.803 113.693C103.758 113.779 103.724 113.861 103.717 113.939C103.714 113.977 103.716 114.016 103.733 114.051C103.749 114.085 103.78 114.112 103.817 114.128C104.067 114.272 104.409 114.284 104.761 114.266C105.114 114.248 105.478 114.195 105.763 114.195C106.041 114.195 106.354 114.117 106.519 114.052H106.521L106.524 114.05C106.559 114.032 106.618 114.007 106.663 113.94C106.709 113.873 106.74 113.771 106.755 113.598C106.785 113.251 106.746 112.607 106.553 111.347V111.346C106.542 111.292 106.496 111.266 106.449 111.249C106.402 111.233 106.343 111.223 106.276 111.218ZM68.8279 112.898C70.8713 112.898 72.4692 114.532 72.3951 116.568C72.3177 118.611 70.6001 120.27 68.557 120.27C66.5177 120.27 64.92 118.615 64.9739 116.573C65.0713 114.537 66.7883 112.898 68.8279 112.898ZM114.328 114.669L114.311 114.685C113.904 115.091 113.684 115.487 113.49 115.913L113.482 115.93L113.488 115.947C113.678 116.731 113.68 117.538 113.68 118.157V118.225L113.744 118.211C114.768 118.004 115.567 118.004 116.381 118.004H116.434V114.89L116.393 114.879C115.572 114.669 114.949 114.669 114.35 114.669L114.328 114.669ZM119.373 123.13L119.355 123.155C118.952 123.776 118.759 124.162 118.528 124.548L118.515 124.571L118.523 124.595C118.751 125.204 118.752 125.792 118.752 126.216V126.245L118.777 126.261C119.372 126.649 119.977 127.036 120.382 127.269L120.394 127.276H121.443L121.46 127.252C121.872 126.633 122.278 126.028 122.474 125.421L122.482 125.395L122.467 125.373C121.871 124.544 121.265 123.77 120.841 123.154L120.827 123.131L119.373 123.13ZM41.7578 129.966V133.225H130.703V129.966H41.8105H41.7578Z" fill="black"/>
<path fill-rule="evenodd" clip-rule="evenodd" d="M101.933 91.6826L74.1797 127.748L74.4102 128.32L112.502 122.304L112.178 120.455L76.9587 127.216L102.594 116.097L101.882 114.543L77.221 126.299L101.119 109.111L100.142 107.807L76.3997 126.043L104.558 93.8196L101.933 91.6826Z" fill="black"/>
</g>
</g>
<defs>
<clipPath id="clip0_4_4733">
<rect width="174" height="174" fill="white"/>
</clipPath>
<clipPath id="clip1_4_4733">
<rect width="148" height="130" fill="white" transform="translate(13 22)"/>
</clipPath>
</defs>
</svg>
