<svg width="130" height="130" viewBox="0 0 130 130" fill="none" xmlns="http://www.w3.org/2000/svg">
<g clip-path="url(#clip0_4_3420)">
<path d="M1.98676 69.0239L61.0583 128.095C63.2827 130.32 66.8892 130.32 69.1135 128.095L128.185 69.0239C130.409 66.7995 130.409 63.1931 128.185 60.9687L69.1135 1.8971C66.8892 -0.327284 63.2827 -0.327289 61.0583 1.8971L1.98677 60.9687C-0.23762 63.193 -0.23762 66.7995 1.98676 69.0239Z" fill="white" fill-opacity="0.969697" stroke="black" stroke-width="0.548021" stroke-miterlimit="10" stroke-linecap="square"/>
<path d="M3.32931 67.6809L62.4009 126.752C63.8838 128.235 66.2881 128.235 67.771 126.752L126.843 67.6809C128.325 66.1979 128.325 63.7937 126.843 62.3107L67.771 3.23917C66.2881 1.75625 63.8838 1.75625 62.4009 3.23917L3.32931 62.3107C1.84638 63.7937 1.84638 66.1979 3.32931 67.6809Z" fill="black" fill-opacity="0.89899"/>
<path d="M4.75 64.9955C4.75 65.3191 4.87399 65.6426 5.12191 65.8906L64.1934 124.962C64.6893 125.458 65.4876 125.458 65.9835 124.962L125.055 65.8906C125.551 65.3947 125.551 64.5964 125.055 64.1005L65.9835 5.02892C65.4876 4.53308 64.6893 4.53308 64.1934 5.02892L5.12191 64.1005C4.87399 64.3484 4.75 64.672 4.75 64.9955Z" fill="white"/>
<path d="M64.7212 23.2461L22.8906 65.0767L64.7212 106.907L106.552 65.0767L64.7212 23.2461Z" fill="black"/>
<path d="M64.7183 26.8271L26.4688 65.0766L64.7183 103.326L102.968 65.0767L64.7183 26.8271Z" fill="#FFF500"/>
</g>
<defs>
<clipPath id="clip0_4_3420">
<rect width="130" height="130" fill="white"/>
</clipPath>
</defs>
</svg>
