<svg width="174" height="174" viewBox="0 0 174 174" fill="none" xmlns="http://www.w3.org/2000/svg">
<g clip-path="url(#clip0_4_4830)">
<g clip-path="url(#clip1_4_4830)">
<path d="M93.7227 147.998C92.4042 150.274 89.8247 151.698 86.9947 151.698C84.1133 151.698 81.5328 150.197 80.1893 147.877L14.4504 34.3761C13.0396 31.9402 12.8307 28.8718 14.34 26.2662C15.7807 23.7789 18.3756 22.302 21.0625 22.302L152.927 22.302C155.614 22.302 158.209 23.7789 159.649 26.2662C161.159 28.8718 160.95 31.9402 159.539 34.3761L93.7227 147.998Z" fill="white" stroke="black" stroke-width="0.719" stroke-miterlimit="2" stroke-linecap="round" stroke-linejoin="round"/>
<path d="M86.992 149.244C85.0379 149.244 83.3406 148.222 82.4861 146.747L16.749 33.2477C15.7649 31.5485 15.6342 29.5231 16.6382 27.7898C17.6153 26.1028 19.3466 25.1548 21.0554 25.1548L152.923 25.1548C154.632 25.1548 156.363 26.1029 157.34 27.7898C158.344 29.5231 158.214 31.5487 157.229 33.2477L91.4147 146.869C90.6073 148.263 88.9268 149.244 86.992 149.244ZM137.344 39.2965L36.6348 39.2965L86.9865 126.23L137.344 39.2965Z" fill="#DD2414"/>
</g>
</g>
<defs>
<clipPath id="clip0_4_4830">
<rect width="174" height="174" fill="white"/>
</clipPath>
<clipPath id="clip1_4_4830">
<rect width="148" height="130" fill="white" transform="translate(13 22)"/>
</clipPath>
</defs>
</svg>
