<svg width="149" height="131" viewBox="0 0 149 131" fill="none" xmlns="http://www.w3.org/2000/svg">
<path d="M81.268 4.08362C79.9416 1.79398 77.3467 0.361646 74.4998 0.361646C71.6012 0.361646 69.0053 1.87231 67.6538 4.20548L1.52199 118.385C0.102677 120.835 -0.107475 123.922 1.41086 126.543C2.8602 129.046 5.47058 130.531 8.17352 130.531H140.826C143.529 130.531 146.139 129.046 147.589 126.543C149.107 123.922 148.897 120.835 147.478 118.385L81.268 4.08362Z" fill="white" stroke="black" stroke-width="0.719" stroke-miterlimit="2" stroke-linecap="round" stroke-linejoin="round"/>
<path d="M74.4971 2.82943C72.5313 2.82943 70.8239 3.85726 69.9643 5.34129L3.83432 119.519C2.8443 121.228 2.71279 123.266 3.72281 125.01C4.70579 126.707 6.44736 127.66 8.16641 127.66H140.822C142.541 127.66 144.283 126.707 145.266 125.01C146.276 123.266 146.144 121.228 145.154 119.519L78.9463 5.21902C78.134 3.81689 76.4434 2.82943 74.4971 2.82943ZM125.15 113.434H23.8389L74.4915 25.9807L125.15 113.434Z" fill="#DD2414"/>
<path fill-rule="evenodd" clip-rule="evenodd" d="M67.3736 60.5797C67.3807 60.5778 67.388 60.5773 67.3953 60.5783C67.4025 60.5793 67.4095 60.5817 67.4158 60.5855L71.5909 62.9595C78.6943 67.0663 83.847 71.0021 87.2233 75.8133C90.5995 80.6245 92.1962 86.3102 92.1962 93.9033V108.888C92.1961 108.898 92.1933 108.908 92.1879 108.916C92.1826 108.925 92.175 108.932 92.166 108.936C92.157 108.941 92.1469 108.943 92.1368 108.942C92.1267 108.941 92.1171 108.937 92.109 108.931L85.9386 104.267L79.7696 108.931C79.7615 108.937 79.7519 108.941 79.7419 108.942C79.7318 108.943 79.7217 108.941 79.7127 108.936C79.7036 108.932 79.696 108.925 79.6907 108.916C79.6854 108.908 79.6825 108.898 79.6825 108.888V96.2165C79.6825 88.7549 78.0242 84.2694 75.1934 80.9655C72.3627 77.6616 68.3507 75.5374 63.6388 72.8222L60.8689 71.21C60.8623 71.2062 60.8565 71.201 60.852 71.1947C60.8475 71.1885 60.8444 71.1814 60.8428 71.1738L59.0859 63.0189C59.083 63.0055 59.0852 62.9915 59.0923 62.9796C59.0993 62.9678 59.1105 62.9591 59.1237 62.9552L67.3736 60.5797Z" fill="black"/>
</svg>
