<svg width="174" height="174" viewBox="0 0 174 174" fill="none" xmlns="http://www.w3.org/2000/svg">
<g clip-path="url(#clip0_4_3560)">
<g clip-path="url(#clip1_4_3560)">
<path d="M93.7305 26.0016C92.412 23.7256 89.8325 22.3018 87.0025 22.3018C84.1211 22.3018 81.5406 23.8034 80.1972 26.1228L14.4583 139.624C13.0474 142.06 12.8385 145.128 14.3478 147.734C15.7885 150.221 18.3834 151.698 21.0703 151.698H152.935C155.622 151.698 158.216 150.221 159.657 147.734C161.167 145.128 160.958 142.06 159.547 139.624L93.7305 26.0016Z" fill="white" stroke="black" stroke-width="0.719" stroke-miterlimit="2" stroke-linecap="round" stroke-linejoin="round"/>
<path d="M86.9998 24.7559C85.0457 24.7559 83.3484 25.7776 82.4939 27.2528L16.7568 140.752C15.7727 142.451 15.642 144.477 16.646 146.21C17.6231 147.897 19.3544 148.845 21.0632 148.845H152.931C154.64 148.845 156.371 147.897 157.348 146.21C158.352 144.477 158.221 142.451 157.237 140.752L91.4225 27.1313C90.6151 25.7374 88.9346 24.7559 86.9998 24.7559ZM137.351 134.703H36.6426L86.9943 47.7696L137.351 134.703Z" fill="#DD2414"/>
<path fill-rule="evenodd" clip-rule="evenodd" d="M111.544 93.3398L40.4219 132.805H134.354L111.544 93.3398Z" fill="black" stroke="#1B1C1C" stroke-width="0.209747" stroke-miterlimit="10"/>
<path fill-rule="evenodd" clip-rule="evenodd" d="M97.1016 88.7895C97.7441 88.4417 98.4419 88.2499 99.13 88.2499C99.8506 88.2499 100.526 88.4417 101.129 88.7895C101.726 89.1568 102.215 89.6411 102.564 90.2814C102.929 90.8989 103.066 91.5392 103.043 92.2153C103.027 92.8946 102.834 93.5317 102.486 94.133C102.097 94.7343 101.595 95.2153 100.953 95.5664C100.294 95.9336 99.6191 96.1059 98.9213 96.1254C98.2234 96.1254 97.5647 95.9727 96.9842 95.6249C96.3875 95.2933 95.9244 94.809 95.5755 94.1915C95.2266 93.5707 95.0701 92.9141 95.0864 92.1958C95.0864 91.5002 95.282 90.8209 95.6538 90.2229C96.0027 89.6021 96.5049 89.1178 97.1016 88.7895ZM83.5882 92.121C83.2164 91.5002 83.0469 90.8047 83.0469 90.0864C83.0632 89.3713 83.2425 88.7147 83.6045 88.1134C83.9762 87.5121 84.4817 87.0083 85.1404 86.6605C85.773 86.2932 86.4318 86.1177 87.1296 86.1372C87.8275 86.1372 88.4862 86.3322 89.0666 86.6995C89.6862 87.0473 90.1525 87.5316 90.5014 88.1524C90.8504 88.7895 91.0428 89.4493 91.0036 90.1449C91.0036 90.8599 90.8112 91.5197 90.4623 92.121C90.1134 92.7191 89.634 93.2034 88.9884 93.5512C88.3688 93.9185 87.697 94.094 86.9763 94.094C86.2785 94.094 85.6198 93.9185 85.0002 93.5512C84.3806 93.2229 83.9143 92.7386 83.5882 92.121ZM92.0895 100.5L92.4515 82.5586L93.9646 81.7266L93.5765 99.6683L92.0895 100.5ZM98.2234 90.8599C97.8386 91.0939 97.5647 91.4222 97.4734 91.8675C97.3332 92.2738 97.3952 92.6801 97.6038 93.0669C97.8386 93.4732 98.1712 93.7072 98.6115 93.8405C99.0386 93.9575 99.4658 93.8795 99.8506 93.6682C100.255 93.4537 100.526 93.1254 100.643 92.6996C100.757 92.2738 100.718 91.887 100.487 91.5002C100.278 91.0744 99.9452 90.8047 99.5017 90.6682C99.0941 90.5511 98.6669 90.6097 98.2854 90.8209L98.2234 90.8599ZM88.447 89.2933C88.2155 88.8675 87.8894 88.6367 87.4622 88.5197C87.0774 88.4027 86.6502 88.4807 86.2622 88.6952C85.835 88.926 85.5806 89.2543 85.4632 89.6606C85.3328 90.1059 85.3719 90.5316 85.6035 90.9184C85.8122 91.3052 86.1448 91.5782 86.6111 91.6952C87.0513 91.8285 87.4622 91.7701 87.8894 91.5392C88.2775 91.3052 88.5253 91.0159 88.6655 90.5706C88.7568 90.1253 88.7177 89.7386 88.509 89.3323L88.447 89.2933Z" fill="black"/>
<path fill-rule="evenodd" clip-rule="evenodd" d="M62.6641 98.8362L65.3152 97.3248L73.5426 111.707L70.8719 113.219L65.025 102.938L63.5543 103.79L62.7423 102.36L62.6641 98.8362ZM78.2482 95.6996C77.8993 95.0821 77.358 94.6758 76.6601 94.4808C75.9819 94.289 75.3231 94.3638 74.684 94.7343C74.0677 95.0821 73.6601 95.6054 73.4644 96.301C73.2916 96.9965 73.3503 97.6563 73.7187 98.2544L76.9895 104.024C77.3384 104.641 77.8797 105.031 78.5776 105.243C79.2526 105.438 79.9113 105.34 80.5309 104.992C81.1701 104.641 81.5777 104.121 81.7701 103.403C81.9494 102.727 81.8875 102.067 81.519 101.449L78.2482 95.6996ZM74.3383 105.551L71.2404 100.114C70.4447 98.7387 70.2719 97.3248 70.6991 95.7972C71.0839 94.289 71.9937 93.1449 73.3307 92.3713C74.2601 91.848 75.2286 91.5978 76.2916 91.6368C77.3384 91.6758 78.2874 91.9455 79.1776 92.5078C79.5265 92.7191 79.8755 93.0084 80.2211 93.3399C80.4755 93.6097 80.707 93.8795 80.8994 94.172L84.0169 99.6098C84.806 100.965 84.9854 102.399 84.5354 103.907C84.1115 105.418 83.244 106.559 81.8875 107.332C80.7657 107.973 79.5461 108.204 78.2678 108.031C76.9895 107.856 75.884 107.274 75.0133 106.367C74.7427 106.094 74.5307 105.805 74.3546 105.516L74.3383 105.551Z" fill="black"/>
</g>
</g>
<defs>
<clipPath id="clip0_4_3560">
<rect width="174" height="174" fill="white"/>
</clipPath>
<clipPath id="clip1_4_3560">
<rect width="148" height="130" fill="white" transform="translate(13 22)"/>
</clipPath>
</defs>
</svg>
