<svg width="174" height="174" viewBox="0 0 174 174" fill="none" xmlns="http://www.w3.org/2000/svg">
<g clip-path="url(#clip0_4_3720)">
<g clip-path="url(#clip1_4_3720)">
<path d="M93.6871 147.998C92.3775 150.274 89.8154 151.698 87.0045 151.698C84.1426 151.698 81.5795 150.197 80.2452 147.877L14.9505 34.3761C13.5491 31.9402 13.3416 28.8718 14.8407 26.2662C16.2717 23.7789 18.8491 22.302 21.5178 22.302L152.491 22.302C155.16 22.302 157.737 23.7789 159.168 26.2662C160.667 28.8718 160.46 31.9402 159.059 34.3761L93.6871 147.998Z" fill="white" stroke="black" stroke-width="0.719" stroke-miterlimit="2" stroke-linecap="round" stroke-linejoin="round"/>
<path d="M87.0041 149.245C85.0632 149.245 83.3774 148.223 82.5287 146.748L17.2358 33.2487C16.2583 31.5495 16.1285 29.5241 17.1257 27.7908C18.0962 26.1038 19.8158 25.1557 21.5131 25.1557L152.49 25.1557C154.187 25.1558 155.907 26.1039 156.877 27.7908C157.874 29.5241 157.744 31.5497 156.767 33.2487L91.397 146.87C90.595 148.264 88.9258 149.245 87.0041 149.245ZM137.016 39.2975L36.9872 39.2975L86.9987 126.231L137.016 39.2975Z" fill="#DD2414"/>
</g>
</g>
<defs>
<clipPath id="clip0_4_3720">
<rect width="174" height="174" fill="white"/>
</clipPath>
<clipPath id="clip1_4_3720">
<rect width="147" height="130" fill="white" transform="translate(13.5 22)"/>
</clipPath>
</defs>
</svg>
