<svg width="174" height="174" viewBox="0 0 174 174" fill="none" xmlns="http://www.w3.org/2000/svg">
<g clip-path="url(#clip0_4_4802)">
<g clip-path="url(#clip1_4_4802)">
<path d="M93.7305 26.0016C92.412 23.7256 89.8325 22.3018 87.0025 22.3018C84.1211 22.3018 81.5406 23.8034 80.1972 26.1228L14.4583 139.624C13.0474 142.06 12.8385 145.128 14.3478 147.734C15.7885 150.221 18.3834 151.698 21.0703 151.698H152.935C155.622 151.698 158.216 150.221 159.657 147.734C161.167 145.128 160.958 142.06 159.547 139.624L93.7305 26.0016Z" fill="white" stroke="black" stroke-width="0.719" stroke-miterlimit="2" stroke-linecap="round" stroke-linejoin="round"/>
<path d="M86.9998 24.7559C85.0457 24.7559 83.3484 25.7776 82.4939 27.2528L16.7568 140.752C15.7727 142.451 15.642 144.477 16.646 146.21C17.6231 147.897 19.3544 148.845 21.0632 148.845H152.931C154.64 148.845 156.371 147.897 157.348 146.21C158.352 144.477 158.221 142.451 157.237 140.752L91.4225 27.1313C90.6151 25.7374 88.9346 24.7559 86.9998 24.7559ZM137.351 134.703H36.6426L86.9943 47.7696L137.351 134.703Z" fill="#DD2414"/>
<path fill-rule="evenodd" clip-rule="evenodd" d="M74.5536 88.5303L66.6719 96.3838L79.1155 108.818L66.7267 121.183L66.6719 121.237L74.5536 129.091L87.0184 116.691L99.4595 129.091L107.34 121.237L94.8752 108.818L107.34 96.3838L99.4595 88.5303L87.0184 100.946L74.5536 88.5303Z" fill="black"/>
</g>
</g>
<defs>
<clipPath id="clip0_4_4802">
<rect width="174" height="174" fill="white"/>
</clipPath>
<clipPath id="clip1_4_4802">
<rect width="148" height="130" fill="white" transform="translate(13 22)"/>
</clipPath>
</defs>
</svg>
