<svg width="174" height="174" viewBox="0 0 174 174" fill="none" xmlns="http://www.w3.org/2000/svg">
<g clip-path="url(#clip0_4_4161)">
<g clip-path="url(#clip1_4_4161)">
<path fill-rule="evenodd" clip-rule="evenodd" d="M70.2492 22.1855C64.9632 22.1855 60.6953 26.4289 60.6953 31.6844V142.318C60.6953 147.573 64.9632 151.817 70.2492 151.817H103.76C109.046 151.817 113.314 147.573 113.314 142.318V31.6844C113.314 26.4289 109.046 22.1855 103.76 22.1855H70.2492ZM70.2492 22.9583H103.76C108.629 22.9583 112.537 26.8439 112.537 31.6844V142.318C112.537 147.158 108.629 151.044 103.76 151.044H70.2492C65.3806 151.044 61.4726 147.158 61.4726 142.318V31.6844C61.4726 26.8439 65.3806 22.9583 70.2492 22.9583Z" fill="black"/>
<path fill-rule="evenodd" clip-rule="evenodd" d="M70.2507 22.5718H103.763C108.841 22.5718 112.928 26.6357 112.928 31.6838V142.317C112.928 147.365 108.841 151.429 103.763 151.429H70.2507C65.1734 151.429 61.0859 147.365 61.0859 142.317V31.6838C61.0859 26.6357 65.1734 22.5718 70.2507 22.5718Z" fill="white"/>
<path fill-rule="evenodd" clip-rule="evenodd" d="M108.445 70.2803L65.5625 91.5399V104.035L108.445 82.7752L108.445 70.2803Z" fill="#DC291B"/>
<path fill-rule="evenodd" clip-rule="evenodd" d="M70.2694 24.4131C66.2075 24.4131 62.9375 27.6642 62.9375 31.7027V142.299C62.9375 146.338 66.2075 149.589 70.2694 149.589H103.744C107.806 149.589 111.077 146.338 111.077 142.299V31.7027C111.077 27.6642 107.806 24.4131 103.744 24.4131H70.2694ZM70.3063 27.1743H103.707C106.251 27.1743 108.299 29.2105 108.299 31.7397V142.262C108.299 144.791 106.251 146.828 103.707 146.828H70.3063C67.7625 146.828 65.7148 144.791 65.7148 142.262V31.7397C65.7148 29.2105 67.7625 27.1743 70.3063 27.1743Z" fill="black"/>
</g>
</g>
<defs>
<clipPath id="clip0_4_4161">
<rect width="174" height="174" fill="white"/>
</clipPath>
<clipPath id="clip1_4_4161">
<rect width="53" height="130" fill="white" transform="translate(60.5 22)"/>
</clipPath>
</defs>
</svg>
