<svg width="150" height="75" viewBox="0 0 150 75" fill="none" xmlns="http://www.w3.org/2000/svg">
<path fill-rule="evenodd" clip-rule="evenodd" d="M8.09495 0C3.62152 0 0 3.61647 0 8.08246V66.7939C0 71.2599 3.62152 74.8754 8.09495 74.8754H141.904C146.377 74.8754 150 71.2599 150 66.7939V8.08246C150 3.61647 146.377 4.94766e-09 141.904 0H8.09495ZM8.09495 1.32099H141.904C145.667 1.32099 148.677 4.32546 148.677 8.08246V66.7939C148.677 70.5509 145.667 73.5544 141.904 73.5544H8.09495C4.33169 73.5544 1.32318 70.5509 1.32318 66.7939V8.08246C1.32318 4.32546 4.33169 1.32099 8.09495 1.32099Z" fill="black"/>
</svg>
