<svg width="310" height="160" viewBox="0 0 310 160" fill="none" xmlns="http://www.w3.org/2000/svg">
<g clip-path="url(#clip0_4_3136)">
<g clip-path="url(#clip1_4_3136)">
<path d="M161.723 19.0016C160.404 16.7256 157.825 15.3018 154.995 15.3018C152.113 15.3018 149.533 16.8034 148.189 19.1228L82.4504 132.624C81.0396 135.06 80.8307 138.128 82.34 140.734C83.7807 143.221 86.3756 144.698 89.0625 144.698H220.927C223.614 144.698 226.209 143.221 227.649 140.734C229.159 138.128 228.95 135.06 227.539 132.624L161.723 19.0016Z" fill="white" stroke="black" stroke-width="0.719" stroke-miterlimit="2" stroke-linecap="round" stroke-linejoin="round"/>
<path d="M155 17.7559C153.046 17.7559 151.348 18.7776 150.494 20.2528L84.7568 133.752C83.7727 135.451 83.642 137.477 84.646 139.21C85.6231 140.897 87.3544 141.845 89.0632 141.845H220.931C222.64 141.845 224.371 140.897 225.348 139.21C226.352 137.477 226.221 135.451 225.237 133.752L159.423 20.1313C158.615 18.7374 156.935 17.7559 155 17.7559ZM205.351 127.703H104.643L154.994 40.7696L205.351 127.703Z" fill="#DD2414"/>
<path fill-rule="evenodd" clip-rule="evenodd" d="M144.336 77.125C144.329 77.1249 144.322 77.1263 144.315 77.129C144.308 77.1317 144.302 77.1358 144.297 77.1408C144.292 77.1459 144.288 77.152 144.285 77.1587C144.282 77.1654 144.281 77.1725 144.281 77.1797V91.5799L140.726 98.0838C140.721 98.0917 140.719 98.1006 140.719 98.1097V121.112C140.719 121.126 140.725 121.14 140.735 121.15C140.745 121.16 140.759 121.165 140.774 121.165H147.877C147.891 121.165 147.905 121.16 147.915 121.15C147.925 121.14 147.931 121.126 147.932 121.112V98.1226L151.543 91.6202C151.548 91.6119 151.55 91.6024 151.55 91.5928V77.1797C151.55 77.1725 151.549 77.1654 151.546 77.1587C151.544 77.152 151.54 77.1459 151.534 77.1408C151.529 77.1358 151.523 77.1317 151.517 77.129C151.51 77.1263 151.503 77.1249 151.495 77.125H144.336Z" fill="black"/>
<path fill-rule="evenodd" clip-rule="evenodd" d="M158.522 77.125C158.508 77.1252 158.494 77.1311 158.484 77.1414C158.474 77.1516 158.469 77.1654 158.469 77.1797V91.5928C158.469 91.6018 158.47 91.6107 158.475 91.6187L162.064 98.1226V121.112C162.065 121.126 162.07 121.139 162.08 121.149C162.09 121.159 162.104 121.165 162.118 121.165H169.222C169.236 121.165 169.25 121.159 169.26 121.149C169.27 121.139 169.276 121.126 169.276 121.112V98.1097C169.276 98.1007 169.274 98.0918 169.27 98.0838L165.721 91.577V77.1797C165.721 77.1654 165.715 77.1516 165.705 77.1414C165.695 77.1311 165.682 77.1252 165.667 77.125H158.522Z" fill="black"/>
</g>
</g>
<defs>
<clipPath id="clip0_4_3136">
<path d="M0 0H310V160H0V0Z" fill="white"/>
</clipPath>
<clipPath id="clip1_4_3136">
<rect width="148" height="130" fill="white" transform="translate(81 15)"/>
</clipPath>
</defs>
</svg>
