<svg width="310" height="160" viewBox="0 0 310 160" fill="none" xmlns="http://www.w3.org/2000/svg">
<g clip-path="url(#clip0_4_3356)">
<g clip-path="url(#clip1_4_3356)">
<path d="M161.731 18.9671C160.412 16.6898 157.831 15.2651 155 15.2651C152.117 15.2651 149.535 16.7677 148.191 19.0883L82.4198 132.654C81.0082 135.091 80.7992 138.161 82.3092 140.768C83.7507 143.257 86.3468 144.735 89.0351 144.735H220.965C223.653 144.735 226.249 143.257 227.691 140.768C229.201 138.161 228.992 135.091 227.58 132.654L161.731 18.9671Z" fill="white" stroke="black" stroke-width="0.359678" stroke-miterlimit="2" stroke-linecap="round" stroke-linejoin="round"/>
<path d="M155.004 17.7202C153.049 17.7202 151.351 18.7425 150.496 20.2186L84.726 133.782C83.7414 135.482 83.6106 137.509 84.6151 139.243C85.5927 140.931 87.3248 141.88 89.0345 141.88H220.968C222.677 141.88 224.409 140.931 225.387 139.243C226.392 137.509 226.261 135.482 225.276 133.782L159.429 20.097C158.621 18.7024 156.94 17.7202 155.004 17.7202ZM205.381 127.73H104.622L154.998 40.747L205.381 127.73Z" fill="#DD2414"/>
<path fill-rule="evenodd" clip-rule="evenodd" d="M154.782 104.797C155.154 104.797 155.425 105.47 155.425 106.282C155.425 107.094 155.154 107.752 154.782 107.752C154.433 107.752 154.123 107.094 154.123 106.282C154.123 105.47 154.433 104.797 154.782 104.797ZM137.363 101.587C138.931 101.587 140.421 101.912 141.757 102.531V102.516L141.931 101.858L142.125 101.162L142.26 100.52L142.125 100.296L141.912 99.8472L141.776 99.3444L141.699 98.8417L141.66 98.3235L141.699 97.7588L141.776 97.2561L141.912 96.7533L142.125 96.3125L142.396 95.8639L142.782 95.5003L143.286 95.191L143.499 95.1523L143.615 94.7114L143.789 93.9766L143.983 93.2186L144.138 92.5999V91.6176H145.357C145.551 91.3082 145.667 90.9756 145.88 90.6894L149.054 90.7668C153.62 88.2763 155.192 86.6133 157.013 79.2732C157.222 77.3783 157.958 77.3937 158.733 77.1617C159.469 75.1198 157.129 76.7208 156.509 74.9651C156.548 73.7275 156.006 73.2016 154.859 73.3408V72.5828C157.183 71.1519 154.573 70.3243 157.609 67.9111H160.607L162.699 70.1696L161.886 70.8271C162.8 73.3408 160.786 73.9209 162.234 75.2899C164.814 79.25 166.441 82.4599 167.285 88.1757C167.982 90.4419 166.301 89.8 167.06 91.2695C166.882 91.8264 168.679 94.4562 166.34 95.6164C165.526 96.1191 164.248 96.5832 162.931 97.0473V98.3776L164.969 102.299C166.169 101.858 167.502 101.587 168.857 101.587C174.838 101.587 179.734 106.453 179.734 112.424C179.734 118.395 174.838 123.267 168.857 123.267C163.938 123.267 159.794 120.019 158.446 115.572C156.819 115.827 155.169 115.827 153.527 115.301C149.306 118.882 147.873 115.301 152.016 113.53L151.939 112.795L150.196 111.689C150.1 110.413 150.003 109.121 149.926 107.868L144.544 101.41L144.428 101.433L144.331 101.719L144.157 102.415L143.983 103.096L143.809 103.714C146.499 105.679 148.241 108.873 148.241 112.424C148.241 118.395 143.344 123.267 137.363 123.267C131.382 123.267 126.484 118.395 126.484 112.424C126.484 106.453 131.382 101.587 137.363 101.587ZM137.363 104.31C138.66 104.31 139.879 104.604 140.964 105.145L140.809 105.563L140.596 106.104L140.383 106.646L140.131 107.149L139.898 107.675L139.627 108.115L139.357 108.564L139.086 108.989L138.776 109.376L138.466 109.763L138.156 110.088L137.808 110.413L137.44 110.683L137.111 110.939L135.776 111.596L137.712 113.53L138.466 112.772L138.853 112.524L139.318 112.114L139.763 111.712L140.17 111.263L140.576 110.799L140.944 110.32L141.273 109.802L141.602 109.276L141.912 108.719L142.202 108.154L142.473 107.574L142.705 106.955L142.899 106.476C144.505 107.984 145.532 110.088 145.532 112.424C145.532 116.91 141.854 120.576 137.363 120.576C132.872 120.576 129.214 116.91 129.214 112.424C129.214 107.945 132.872 104.31 137.363 104.31ZM158.214 110.281C158.771 107.381 160.53 104.89 162.931 103.343L161.653 100.891L159.871 104.465C159.871 105.524 159.105 106.607 158.252 107.69L156.974 110.242L158.214 110.281ZM168.857 104.31C173.351 104.31 177.007 107.945 177.007 112.424C177.007 116.91 173.351 120.576 168.857 120.576C165.255 120.576 162.157 118.201 161.095 114.961C163.396 114.28 165.643 113.39 167.773 113.143L168.021 114.125L169.167 112.988C170.267 112.617 170.965 111.209 169.284 110.606L166.247 104.72C167.06 104.465 167.928 104.31 168.857 104.31ZM160.979 110.32C161.483 108.463 162.621 106.862 164.194 105.78L166.595 110.436L160.979 110.32ZM146.422 93.0253C150.699 93.0639 154.007 93.9148 156.587 89.6839C156.703 89.4751 157.261 89.9547 157.4 89.7226L156.254 93.0872C154.766 94.4948 152.845 94.8429 151.226 95.7092C150.916 95.8639 150.661 96.1732 150.452 96.5986L145.86 96.6605L145.687 96.3125L145.609 96.1964L145.687 95.9644L145.86 95.2296L146.034 94.5181L146.209 93.7601L146.364 93.1645L146.422 93.0253ZM149.867 98.9036C149.693 100.311 149.674 102.09 149.732 104.063L145.976 99.561L146.035 99.3444L146.093 98.9577L149.867 98.9036ZM158.485 102.067L157.826 101.162C157.129 100.195 157.633 99.445 158.717 98.7643L160.143 98.7489L158.485 102.067Z" fill="#131414" stroke="black" stroke-width="0.0733394" stroke-miterlimit="10" stroke-linejoin="round"/>
</g>
</g>
<defs>
<clipPath id="clip0_4_3356">
<path d="M0 0H310V160H0V0Z" fill="white"/>
</clipPath>
<clipPath id="clip1_4_3356">
<rect width="148" height="130" fill="white" transform="translate(81 15)"/>
</clipPath>
</defs>
</svg>
