<svg width="174" height="174" viewBox="0 0 174 174" fill="none" xmlns="http://www.w3.org/2000/svg">
<g clip-path="url(#clip0_4_4436)">
<g clip-path="url(#clip1_4_4436)">
<path fill-rule="evenodd" clip-rule="evenodd" d="M47.9601 22.1421C42.8023 22.1421 38.6406 26.3341 38.6406 31.53V142.471C38.6406 147.667 42.8023 151.859 47.9601 151.859H126.04C131.198 151.859 135.359 147.667 135.359 142.471V31.53C135.359 26.3341 131.198 22.1421 126.04 22.1421H47.9601ZM47.9601 22.7264H126.04C130.887 22.7264 134.779 26.6478 134.779 31.53V142.471C134.779 147.353 130.887 151.274 126.04 151.274H47.9601C43.1137 151.274 39.2211 147.353 39.2211 142.471V31.53C39.2211 26.6478 43.1137 22.7264 47.9601 22.7264Z" fill="black"/>
<path fill-rule="evenodd" clip-rule="evenodd" d="M47.9588 22.4341H126.039C131.041 22.4341 135.068 26.4908 135.068 31.5299V142.471C135.068 147.51 131.041 151.566 126.039 151.566H47.9588C42.9567 151.566 38.9297 147.51 38.9297 142.471V31.5299C38.9297 26.4908 42.9567 22.4341 47.9588 22.4341Z" fill="white"/>
<path fill-rule="evenodd" clip-rule="evenodd" d="M47.8997 24.5864H126.107C129.89 24.5864 132.936 27.6548 132.936 31.4663V142.534C132.936 146.346 129.89 149.414 126.107 149.414H47.8997C44.1162 149.414 41.0703 146.346 41.0703 142.534V31.4663C41.0703 27.6548 44.1162 24.5864 47.8997 24.5864Z" fill="#0070FD"/>
<path fill-rule="evenodd" clip-rule="evenodd" d="M50.4688 34.3281H123.534V107.933H50.4688V34.3281Z" fill="white"/>
<path fill-rule="evenodd" clip-rule="evenodd" d="M82.9836 48.2164C82.5723 48.2455 82.1899 48.3745 81.902 48.6219L81.8808 48.6413V48.6694C81.8808 48.701 81.8579 48.7763 81.8114 48.8693C81.7651 48.9625 81.6978 49.0753 81.613 49.2002C81.4436 49.4499 81.2082 49.7463 80.9523 50.0288C80.6964 50.3113 80.4192 50.58 80.1654 50.7768C79.9117 50.9737 79.6771 51.0932 79.5345 51.0932H79.5326L79.5307 51.0951C79.335 51.1082 79.1923 51.1317 79.0886 51.165C78.985 51.1982 78.9123 51.2427 78.8835 51.3144C78.8545 51.3862 78.8837 51.4616 78.9297 51.5259C78.9758 51.5903 79.0425 51.6534 79.1233 51.72C79.2849 51.8533 79.5005 51.9974 79.6935 52.145C79.8784 52.2863 80.0337 52.4306 80.1057 52.5554C79.9574 52.9201 79.7703 53.2298 79.679 53.5916C79.5872 53.9559 79.6139 54.3829 79.86 54.948C79.7437 55.7296 79.8414 56.2038 80.0671 56.5043C80.2927 56.8049 80.635 56.9187 80.9782 57.0059C81.3214 57.0932 81.668 57.1565 81.9221 57.331C82.1734 57.5035 82.3441 57.7845 82.3478 58.3372C82.331 58.3541 81.8818 58.782 81.2055 59.9148C80.5186 61.0654 79.615 62.9208 78.738 65.7286C77.3455 66.9235 73.7725 68.2253 69.3339 68.7926H69.33H69.3281C69.1391 68.8322 68.8708 68.7966 68.572 68.7519C68.2732 68.7081 67.9429 68.6593 67.6185 68.6889C67.2941 68.7184 66.9722 68.8282 66.7064 69.1003C66.4406 69.3724 66.2317 69.8026 66.1121 70.4625L66.1112 70.4723L66.1121 70.4801C66.1667 71.0514 66.2979 71.3898 66.4781 71.5804C66.6583 71.7709 66.8861 71.8006 67.0916 71.7627C67.2972 71.7247 67.4883 71.6249 67.6252 71.5589C67.6905 71.5274 67.7421 71.5059 67.7687 71.4998C67.8254 72.5347 68.42 74.6734 69.0613 76.8905C69.703 79.1091 70.3881 81.3902 70.6244 82.6568C70.4651 83.3186 70.0023 84.7785 69.5766 86.2594C69.1492 87.7455 68.7598 89.2426 68.7598 89.9968C68.7598 90.8361 68.4103 92.1135 67.8506 93.1443C67.5708 93.6597 67.2384 94.1142 66.8759 94.4231C66.5134 94.7321 66.1246 94.8949 65.7211 94.8432C64.959 94.7418 64.3645 94.8334 63.9923 95.0285C63.8061 95.1256 63.6746 95.2486 63.6109 95.3914C63.5471 95.5343 63.5579 95.6957 63.6474 95.8426C63.8264 96.1363 64.2917 96.3881 65.0979 96.5286C65.9003 96.6684 67.0499 96.6898 68.5961 96.4994C69.194 96.6031 69.697 96.6686 70.1053 96.6673C70.5139 96.6663 70.8312 96.5976 71.0501 96.4208C71.269 96.2442 71.3771 95.9626 71.3747 95.5699C71.3728 95.1839 71.2629 94.6783 71.0578 94.035C71.9729 92.1509 72.4826 90.2912 72.8464 89.5378C72.9377 89.3487 73.027 89.2338 73.0785 89.2079C73.1042 89.1948 73.1143 89.1929 73.1382 89.2089C73.1622 89.224 73.1965 89.2613 73.2325 89.3283C73.3765 89.5964 73.538 90.2924 73.7323 91.5192L73.7333 91.5211V91.5251C74.2088 93.4866 74.5889 94.7092 74.864 95.4488C75.0015 95.8185 75.1135 96.0673 75.1982 96.2289C75.2405 96.3096 75.2761 96.3682 75.3061 96.4103C75.336 96.4523 75.3527 96.4779 75.3909 96.4957L75.4021 96.5015H76.5694L76.5453 96.4219C75.7693 93.8314 74.7035 89.9816 74.123 87.0259C74.1342 87.0056 74.6484 86.0684 75.2432 85.1116C75.5437 84.628 75.8609 84.1446 76.1379 83.7843C76.2764 83.604 76.405 83.4546 76.5135 83.3525C76.622 83.2503 76.7145 83.2021 76.7514 83.2021H76.8122V83.1409C76.8122 83.1006 76.8607 82.9712 76.9548 82.8091C77.0489 82.6469 77.185 82.4436 77.3506 82.2153C77.6818 81.7588 78.1292 81.2027 78.5911 80.6639C79.0531 80.1251 79.53 79.6033 79.9184 79.2182C80.1125 79.0257 80.2851 78.8673 80.4211 78.7583C80.4891 78.7038 80.5478 78.6615 80.5944 78.6342C80.6317 78.6124 80.6517 78.6071 80.6656 78.6042C80.6715 78.614 80.6786 78.6245 80.6887 78.6439C80.7137 78.6933 80.7478 78.77 80.7879 78.8691C80.8682 79.0672 80.9759 79.3549 81.1153 79.7083C81.3942 80.4152 81.7959 81.3853 82.3347 82.4348C83.4123 84.5337 85.0429 86.9543 87.3738 88.2282C88.2551 88.7112 88.8437 89.1754 89.2452 89.4565C89.1756 90.8996 88.4667 92.6439 87.5183 93.4113L87.5105 93.4171L87.5047 93.425C87.1253 93.9745 86.4106 94.3219 85.6911 94.5281C84.9717 94.7344 84.2492 94.7998 83.8669 94.7998H83.8062V94.861C83.8062 94.8459 83.8023 94.876 83.7876 94.9057C83.7726 94.9359 83.7524 94.977 83.7269 95.0221C83.6759 95.1122 83.6081 95.2214 83.5438 95.3258C83.4795 95.4302 83.419 95.5288 83.38 95.5955C83.3436 95.6274 83.3496 95.6948 83.3357 95.7284C84.1152 96.1944 85.1464 96.2081 85.9072 96.164C86.8077 96.1113 87.738 96.0936 88.5241 96.6609C88.7915 96.655 89.0742 96.6421 89.3552 96.6967C89.6364 96.7504 89.9436 96.7611 90.2414 96.4842L90.2693 96.459L90.2596 96.4232C90.0835 95.7619 90.3198 94.7307 90.6959 93.8316C90.8839 93.382 91.106 92.9646 91.3229 92.6401C91.5261 92.3362 91.7229 92.1394 91.8748 92.0512C92.5513 92.7702 92.8905 93.5393 92.785 94.9562C92.5118 95.6688 92.2856 96.2516 92.1291 96.7113C91.9716 97.1739 91.8815 97.5117 91.8815 97.7476C91.8815 97.8655 91.9046 97.9614 91.9654 98.0299C92.0261 98.0984 92.119 98.1281 92.2274 98.1249H92.2293C92.4459 98.119 92.749 97.9995 93.179 97.7853H93.1809C93.7818 97.5089 94.1521 96.6725 94.4706 95.9263C94.6299 95.553 94.775 95.2014 94.9184 94.9531C94.9902 94.829 95.062 94.7303 95.1303 94.6698C95.1987 94.6093 95.2574 94.5863 95.321 94.5951L95.3499 94.599L95.3702 94.5796C95.7971 94.1888 96.2287 93.6822 96.5539 93.2436C96.7166 93.0243 96.8524 92.8225 96.9488 92.6605C96.9971 92.5794 97.0354 92.5074 97.0625 92.448C97.0896 92.3885 97.1068 92.3445 97.1068 92.2966C97.1068 92.2414 97.0837 92.1906 97.049 92.1269C97.0144 92.0633 96.965 91.9897 96.9046 91.9115C96.7836 91.7551 96.6166 91.5772 96.4249 91.4186C96.2333 91.26 96.0177 91.1204 95.7979 91.0431C95.5985 90.9729 95.396 90.9785 95.2085 91.0529C94.3607 90.1475 93.9444 89.6349 93.3949 88.798C94.2504 86.883 94.4572 85.2995 94.5622 84.0612C94.7979 83.5829 95.2409 83.3689 95.8779 83.2724C96.5178 83.1755 97.3442 83.2025 98.3021 83.2025C100.918 83.2025 102.423 83.1379 103.323 83.3073C103.773 83.3919 104.067 83.5325 104.285 83.7643C104.503 83.996 104.647 84.3257 104.776 84.7976L104.777 84.7996C105.215 86.242 106.035 87.7594 106.665 89.285C107.295 90.8107 107.733 92.3411 107.421 93.8113C107.083 95.0968 106.229 95.7077 105.476 96.1137C105.098 96.3169 104.748 96.4669 104.497 96.626C104.372 96.7057 104.27 96.7869 104.204 96.8851C104.139 96.9833 104.114 97.1003 104.145 97.2256L104.154 97.2605L104.187 97.2703C105.047 97.5355 106.173 97.578 107.184 97.2208L107.199 97.2149L107.21 97.2036C107.322 97.076 107.497 96.8424 107.783 96.7263C108.068 96.6102 108.466 96.6046 109.043 96.9689L109.06 96.9801L109.079 96.9781C109.385 96.9631 109.687 96.9173 109.945 96.82C110.203 96.7228 110.42 96.5714 110.538 96.3407C110.657 96.1101 110.675 95.8068 110.555 95.4229C110.438 95.0447 110.182 94.5806 109.763 94.0141C109.818 93.4672 109.792 92.0528 109.751 90.5697C109.711 89.077 109.657 87.5313 109.657 86.8021V86.8002V86.7963C109.558 85.5045 108.917 84.2835 108.287 83.1452C107.656 82.0068 107.037 80.9497 106.963 80.0025C106.963 79.9486 106.953 79.8236 106.943 79.6513C106.932 79.4765 106.919 79.2601 106.913 79.0497C106.907 78.8393 106.907 78.6348 106.924 78.487C106.932 78.413 106.944 78.3533 106.957 78.3182C106.963 78.3013 106.97 78.2902 106.974 78.2872C108.282 78.2833 108.781 77.8473 109.234 77.5255L109.262 77.5051L109.258 77.4693C109.208 76.7823 109.398 75.788 109.602 74.7885C109.806 73.7889 110.024 72.7844 110.024 72.0513C110.024 71.9668 109.984 71.8919 109.922 71.8369C109.86 71.7819 109.777 71.741 109.682 71.7031C109.492 71.627 109.244 71.5667 108.99 71.4857C108.735 71.4046 108.474 71.3036 108.263 71.1529C108.051 71.0027 107.89 70.8056 107.82 70.5242C107.82 70.5301 107.821 70.5354 107.82 70.5411L107.818 70.5224C107.819 70.523 107.819 70.5232 107.82 70.5242C107.871 69.5381 107.395 68.2861 106.908 67.0421C106.419 65.7913 105.92 64.5491 105.92 63.6374C105.92 62.8347 105.457 61.1549 104.67 60.2464C104.619 60.1879 104.529 60.182 104.467 60.1367C104.363 60.0613 104.293 59.9824 104.187 59.8709C103.978 59.6477 103.73 59.3449 103.494 59.0297C103.258 58.7144 103.065 58.4282 102.867 58.1166C102.531 57.588 102.181 57.0299 101.914 56.4963C101.834 56.2729 101.813 56.0701 101.848 55.8986C101.89 55.6931 102.008 55.5273 102.215 55.4077C102.422 55.2881 102.72 55.2185 103.111 55.2185C103.414 55.2185 103.6 55.0961 103.753 54.9837C103.907 54.8714 104.027 54.7722 104.236 54.7722H104.296V54.711C104.296 54.5514 104.366 54.479 104.45 54.354C104.534 54.2289 104.623 54.0586 104.623 53.7534V53.6922H104.562C104.31 53.6922 104.144 53.6381 104.055 53.5709C103.966 53.5037 103.946 53.4308 103.968 53.3468C104.013 53.1788 104.285 52.9684 104.726 52.9684H104.789V52.919C104.793 52.9151 104.797 52.9132 104.804 52.9058C104.824 52.8889 104.858 52.8659 104.899 52.84C104.982 52.7878 105.095 52.7202 105.204 52.6352C105.313 52.5503 105.42 52.4475 105.491 52.3209C105.561 52.1941 105.593 52.0409 105.551 51.8717L105.547 51.8604L105.54 51.8492C105.458 51.7455 105.41 51.6654 105.389 51.6066C105.368 51.5479 105.373 51.5148 105.384 51.4883C105.408 51.4352 105.505 51.3864 105.635 51.3321C105.765 51.2779 105.921 51.214 106.033 51.0827C106.145 50.9515 106.203 50.7539 106.152 50.4666L106.142 50.4161H106.09C105.745 50.4161 105.534 50.3973 105.422 50.3191C105.366 50.2797 105.329 50.2259 105.303 50.1356C105.276 50.0453 105.264 49.9195 105.264 49.7524V49.6912H105.203C103.833 49.6912 102.368 49.4331 100.994 49.3254C99.6206 49.2176 98.3338 49.2596 97.32 49.8736L97.3161 49.8746L97.3122 49.8785C96.9196 50.1964 96.7217 50.4956 96.6351 50.7935C96.5486 51.0914 96.5746 51.3821 96.6149 51.6803C96.6956 52.2766 96.8377 52.9061 96.3346 53.7712L96.3327 53.7731C96.2676 53.8933 96.271 54.0425 96.3086 54.1767C96.346 54.311 96.4182 54.4342 96.5214 54.4998L96.5084 54.4886C96.5084 54.4886 96.9868 55.0318 97.2403 55.8955C97.241 55.8896 97.2394 55.8824 97.2403 55.8767L97.2442 55.903C97.2436 55.8991 97.2423 55.8974 97.2403 55.8955C97.2273 56.0032 97.2394 56.1119 97.2933 56.2086C97.3507 56.3107 97.4525 56.3957 97.5996 56.4521C97.8852 56.5614 98.3658 56.5618 99.0924 56.4142C99.1867 56.5073 99.2434 56.6216 99.26 56.7664C99.2768 56.9181 99.2542 57.0984 99.1983 57.2962C99.0865 57.6916 98.8428 58.1553 98.5463 58.6108C97.9531 59.522 97.1443 60.4061 96.7924 60.6727H96.7904V60.6736C96.3162 61.0511 95.897 61.6083 95.7098 62.1727C95.616 62.4549 95.5814 62.7402 95.6307 63.0042C95.679 63.2622 95.8111 63.4981 96.042 63.6853C96.04 63.6814 96.0381 63.6775 96.0362 63.6741L96.0554 63.6992C96.0496 63.6953 96.0457 63.6894 96.0404 63.6861C96.4835 64.7633 96.8863 65.5807 97.0806 66.399C97.2755 67.2194 97.2659 68.0449 96.8812 69.1622C93.9469 74.5518 91.0925 81.1127 90.3233 85.9787C89.963 85.6814 89.4737 84.9692 88.9556 83.9684C88.4132 82.9205 87.8468 81.6141 87.3693 80.3076C86.8918 79.001 86.5035 77.6925 86.3156 76.6429C86.2217 76.1181 86.1777 75.6588 86.1971 75.2982C86.2165 74.9375 86.3013 74.6807 86.4427 74.5539H86.4446V74.553C86.9684 74.0605 87.0939 73.1622 87.3047 72.3835C87.4102 71.9941 87.5353 71.6344 87.7304 71.3705C87.925 71.1074 88.1843 70.9361 88.5799 70.9087C89.1228 70.9088 89.7286 71.0135 90.2047 71.0397C90.443 71.0528 90.6495 71.0475 90.8067 70.9922C90.8853 70.9647 90.9517 70.9231 90.9993 70.8621C91.0468 70.8011 91.0715 70.7236 91.0715 70.6332C91.0715 70.2742 91.0225 68.8647 91.0845 67.5439C91.1152 66.8835 91.1741 66.2466 91.279 65.779C91.3314 65.5451 91.3957 65.3529 91.4697 65.2259C91.5437 65.0988 91.6188 65.0425 91.7019 65.0425H91.7635V64.9813C91.7635 63.6903 91.5242 62.66 90.9526 61.8988C90.3862 61.1447 89.491 60.6649 88.2086 60.4531C87.6546 58.9857 86.7099 57.8028 85.3201 56.803C85.3196 56.7832 85.309 56.4147 85.3472 55.9307C85.386 55.4443 85.4817 54.8713 85.6727 54.4948C86.13 54.5913 86.4628 54.5913 86.6715 54.485C86.893 54.3721 86.9849 54.1592 87.0047 53.9271C87.0245 53.695 86.9799 53.4381 86.9315 53.1994C86.883 52.9607 86.8314 52.7382 86.8314 52.5978V50.1984C86.8304 50.2023 86.8308 50.2062 86.8295 50.2096L86.8314 50.1903V50.2C86.8847 50.0256 86.8899 49.8679 86.8392 49.7295C86.7862 49.5881 86.6776 49.4706 86.5204 49.3686C86.2082 49.1658 85.6995 49.0142 84.9803 48.8369C84.9842 48.8388 84.9881 48.8408 84.9915 48.8447L84.9684 48.8334C84.9742 48.8344 84.9762 48.8354 84.9814 48.8373C84.5366 48.4866 83.9631 48.2733 83.4028 48.2261C83.2617 48.2148 83.1209 48.213 82.9839 48.2222L82.9836 48.2164ZM104.033 65.648C104.033 65.648 104.077 65.7316 104.092 65.7761C104.124 65.8737 104.137 65.9548 104.159 66.0778C104.203 66.324 104.247 66.6501 104.309 67.0141C104.433 67.7356 104.629 68.6023 105.034 69.2971C105.035 69.3084 105.036 69.3189 105.04 69.3302C105.043 69.3452 105.049 69.364 105.054 69.3844C105.066 69.4257 105.081 69.4767 105.094 69.5329C105.121 69.645 105.141 69.7768 105.127 69.8638C105.119 69.9074 105.106 69.9363 105.086 69.9539C105.067 69.9708 105.039 69.9847 104.984 69.9811C104.875 69.9733 104.538 69.8131 104.352 69.6687C103.95 69.3558 103.689 68.8595 103.354 68.5063C103.184 68.3272 103.03 68.16 102.922 68.0105C102.817 67.8654 102.762 67.7399 102.758 67.6457C103.229 66.9047 103.536 66.3682 103.737 66.0409C103.839 65.8749 103.916 65.7595 103.971 65.6984C103.998 65.6678 104.034 65.6479 104.034 65.6479L104.033 65.648ZM69.8715 70.7458C70.2315 70.7326 70.6906 70.7959 71.2006 70.898C72.5607 71.1706 74.2829 71.7101 75.5713 71.7101C75.645 71.7101 75.6852 71.7315 75.7176 71.7751C75.75 71.8187 75.7721 71.8919 75.7763 71.9944C75.7841 72.1992 75.7234 72.5106 75.6069 72.8871C75.3739 73.6399 74.9271 74.6595 74.4328 75.7027C73.9387 76.746 73.3966 77.813 72.9689 78.6688C72.755 79.0967 72.5705 79.4724 72.4343 79.7652C72.2981 80.058 72.2109 80.2604 72.1906 80.3774C72.1662 80.5286 72.1348 80.6348 72.104 80.6928C72.0891 80.7217 72.0737 80.737 72.0636 80.7442C72.0539 80.752 72.0486 80.752 72.0405 80.752C72.0219 80.7481 71.9772 80.7196 71.925 80.6501C71.8726 80.5808 71.812 80.4767 71.7486 80.3454C71.4956 79.8202 71.1806 78.8538 70.8519 77.7412C70.1961 75.5208 69.4863 72.7241 69.0528 71.5956V71.5946C69.0163 71.3425 69.0489 71.1638 69.1327 71.0377C69.2167 70.9113 69.3546 70.8303 69.5469 70.7854C69.643 70.7628 69.7515 70.7501 69.8715 70.7458Z" fill="black"/>
</g>
</g>
<defs>
<clipPath id="clip0_4_4436">
<rect width="174" height="174" fill="white"/>
</clipPath>
<clipPath id="clip1_4_4436">
<rect width="97" height="130" fill="white" transform="translate(38.5 22)"/>
</clipPath>
</defs>
</svg>
