<svg width="310" height="160" viewBox="0 0 310 160" fill="none" xmlns="http://www.w3.org/2000/svg">
<g clip-path="url(#clip0_4_3281)">
<path d="M0 0H310V160H0V0Z" fill="white"/>
<g clip-path="url(#clip1_4_3281)">
<path fill-rule="evenodd" clip-rule="evenodd" d="M86.1639 107.67L86.1365 107.776L82.1484 122.182L96.6555 125.869L223.802 52.3303L227.845 37.8565L213.314 34.1309L86.1639 107.67ZM86.6206 108.026L213.392 34.705L227.18 38.2432L223.345 51.9741L96.5751 125.294L82.8113 121.798L86.6206 108.026Z" fill="black"/>
<path fill-rule="evenodd" clip-rule="evenodd" d="M86.3907 107.847L82.4766 121.99L96.6112 125.581L223.57 52.1517L227.51 38.0497L213.349 34.418L86.3907 107.847Z" fill="#DC291B"/>
<path d="M96.7717 101.844L86.3906 107.848L96.6105 125.581L106.992 119.577L96.7717 101.844Z" fill="white"/>
<path d="M117.537 89.8357L107.156 95.8398L117.376 113.573L127.757 107.568L117.537 89.8357Z" fill="white"/>
<path d="M107.162 95.8401L96.7812 101.844L107.001 119.577L117.382 113.573L107.162 95.8401Z" fill="#DC291B"/>
<path d="M127.92 83.8318L117.539 89.8359L127.759 107.569L138.14 101.565L127.92 83.8318Z" fill="#DC291B"/>
<path d="M202.978 40.4211L213.359 34.417L223.579 52.1498L213.198 58.1539L202.978 40.4211Z" fill="white"/>
<path d="M182.213 52.4299L192.594 46.4258L202.814 64.1586L192.433 70.1627L182.213 52.4299Z" fill="white"/>
<path d="M192.595 46.426L202.977 40.4219L213.196 58.1547L202.815 64.1588L192.595 46.426Z" fill="#DC291B"/>
<path d="M171.83 58.4338L182.211 52.4297L192.431 70.1625L182.05 76.1666L171.83 58.4338Z" fill="#DC291B"/>
<path fill-rule="evenodd" clip-rule="evenodd" d="M223.83 107.67L223.857 107.776L227.846 122.182L213.338 125.869L86.1916 52.3303L82.1484 37.8565L96.6804 34.1309L223.83 107.67ZM223.373 108.026L96.602 34.705L82.8141 38.2432L86.6493 51.9741L213.419 125.294L227.183 121.798L223.373 108.026Z" fill="black"/>
<path fill-rule="evenodd" clip-rule="evenodd" d="M223.604 107.847L227.518 121.99L213.383 125.581L86.4244 52.1518L82.4844 38.0498L96.6449 34.418L223.604 107.847Z" fill="#DC291B"/>
<path d="M213.22 101.844L223.602 107.848L213.382 125.581L203.001 119.577L213.22 101.844Z" fill="white"/>
<path d="M192.455 89.8357L202.836 95.8398L192.616 113.573L182.235 107.568L192.455 89.8357Z" fill="white"/>
<path d="M202.838 95.8401L213.219 101.844L202.999 119.577L192.618 113.573L202.838 95.8401Z" fill="#DC291B"/>
<path d="M182.08 83.8318L192.461 89.8359L182.241 107.569L171.86 101.565L182.08 83.8318Z" fill="#DC291B"/>
<path d="M107.022 40.4211L96.6406 34.417L86.4207 52.1498L96.8018 58.1539L107.022 40.4211Z" fill="white"/>
<path d="M127.78 52.4299L117.398 46.4258L107.179 64.1586L117.56 70.1627L127.78 52.4299Z" fill="white"/>
<path d="M117.405 46.426L107.023 40.4219L96.8035 58.1547L107.185 64.1588L117.405 46.426Z" fill="#DC291B"/>
<path d="M138.162 58.4338L127.781 52.4297L117.561 70.1625L127.942 76.1666L138.162 58.4338Z" fill="#DC291B"/>
<path d="M138.166 58.4334L182.078 83.8311L171.858 101.564L127.946 76.1662L138.166 58.4334Z" fill="white"/>
<path d="M171.834 58.4334L127.922 83.8311L138.142 101.564L182.054 76.1662L171.834 58.4334Z" fill="white"/>
</g>
</g>
<defs>
<clipPath id="clip0_4_3281">
<path d="M0 0H310V160H0V0Z" fill="white"/>
</clipPath>
<clipPath id="clip1_4_3281">
<rect width="146" height="92" fill="white" transform="translate(82 34)"/>
</clipPath>
</defs>
</svg>
