<svg width="174" height="174" viewBox="0 0 174 174" fill="none" xmlns="http://www.w3.org/2000/svg">
<g clip-path="url(#clip0_4_4607)">
<g clip-path="url(#clip1_4_4607)">
<path d="M93.7227 26.0016C92.4042 23.7256 89.8247 22.3018 86.9947 22.3018C84.1133 22.3018 81.5328 23.8034 80.1893 26.1228L14.4504 139.624C13.0396 142.06 12.8307 145.128 14.34 147.734C15.7807 150.221 18.3756 151.698 21.0625 151.698H152.927C155.614 151.698 158.209 150.221 159.649 147.734C161.159 145.128 160.95 142.06 159.539 139.624L93.7227 26.0016Z" fill="white" stroke="black" stroke-width="0.719" stroke-miterlimit="2" stroke-linecap="round" stroke-linejoin="round"/>
<path d="M86.992 24.7549C85.0379 24.7549 83.3406 25.7766 82.4861 27.2518L16.749 140.751C15.7649 142.45 15.6342 144.476 16.6382 146.209C17.6153 147.896 19.3466 148.844 21.0554 148.844H152.923C154.632 148.844 156.363 147.896 157.34 146.209C158.344 144.476 158.214 142.45 157.229 140.751L91.4147 27.1303C90.6073 25.7365 88.9268 24.7549 86.992 24.7549ZM137.344 134.702H36.6348L86.9865 47.7686L137.344 134.702Z" fill="#DD2414"/>
<path fill-rule="evenodd" clip-rule="evenodd" d="M67.9783 107.22C67.972 107.219 67.9658 107.22 67.9598 107.222C66.7812 107.589 65.5243 107.948 64.5133 108.367C63.5024 108.787 62.7284 109.264 62.5437 109.904C62.4656 110.183 62.4274 110.436 62.4774 110.678C62.5274 110.92 62.6677 111.146 62.9357 111.366C63.4717 111.808 64.5149 112.241 66.4338 112.811C68.3472 113.394 72.987 114.315 76.2941 115.498C77.9476 116.09 79.2656 116.755 79.732 117.444C79.9652 117.789 79.9943 118.128 79.7614 118.496C79.5286 118.865 79.0216 119.259 78.1727 119.665C65.1482 125.906 62.6145 127.294 48.6606 132.856C48.6466 132.859 48.6342 132.867 48.6263 132.879C48.6184 132.891 48.6154 132.905 48.6182 132.919C48.621 132.933 48.6291 132.946 48.641 132.954C48.6528 132.962 48.6674 132.965 48.6815 132.962H71.4223C71.4315 132.962 71.4404 132.959 71.4481 132.954C77.4502 129.775 81.5911 126.917 84.1222 124.38C86.6532 121.843 87.5793 119.621 87.1276 117.731C86.8665 116.641 85.9007 115.768 84.5583 115.055C83.216 114.342 81.4934 113.785 79.6976 113.337C76.106 112.44 72.2192 111.971 70.545 111.549C69.7315 111.336 69.0859 111.189 68.6504 110.935C68.2148 110.681 67.9842 110.33 67.9758 109.666C67.9733 109.518 68.0444 109.373 68.1785 109.229C68.3126 109.085 68.5071 108.946 68.7376 108.814C69.1986 108.551 69.8017 108.32 70.3472 108.128C70.8927 107.937 71.3794 107.785 71.6226 107.671C71.6834 107.643 71.7275 107.618 71.7602 107.588C71.7766 107.573 71.7924 107.556 71.7983 107.529C71.804 107.502 71.7915 107.47 71.7737 107.452C71.7376 107.418 71.6918 107.409 71.6238 107.397C71.5558 107.386 71.4659 107.378 71.3473 107.373L67.9783 107.22ZM96.8171 112.127C96.8064 112.125 96.7952 112.126 96.7851 112.13C95.7968 112.634 95.1516 113.044 94.7676 113.538C94.3836 114.033 94.2702 114.611 94.3412 115.429C94.3687 115.819 94.5849 116.179 94.9445 116.518C95.3041 116.858 95.808 117.18 96.4214 117.494C97.6482 118.122 99.3152 118.721 101.145 119.363C104.803 120.647 109.111 122.102 111.818 124.256C112.842 125.07 113.152 126.563 113.201 128.194C113.249 129.826 113.036 131.588 113.036 132.926C113.036 132.941 113.041 132.955 113.051 132.965C113.061 132.975 113.074 132.981 113.089 132.982C113.089 132.982 119.65 133.251 128.665 133.212C128.673 133.212 128.681 133.21 128.689 133.207C128.696 133.203 128.703 133.197 128.708 133.191C128.713 133.184 128.716 133.176 128.718 133.168C128.719 133.16 128.719 133.152 128.717 133.144C127.826 129.715 126.075 126.708 122.873 124.46C118.254 121.223 110.968 119.337 105.368 117.85C102.567 117.106 100.187 116.461 98.7817 115.805C98.0789 115.477 97.6248 115.144 97.4793 114.815C97.4069 114.651 97.4047 114.49 97.4844 114.314C97.564 114.139 97.7286 113.95 97.9894 113.751C97.9894 113.751 97.9894 113.751 97.9894 113.751C97.9894 113.751 97.9894 113.75 97.9894 113.75L99.4541 112.612C99.4626 112.606 99.469 112.597 99.4725 112.587C99.4761 112.577 99.4766 112.566 99.4739 112.555C99.4713 112.545 99.4657 112.536 99.4578 112.529C99.4498 112.521 99.44 112.517 99.4294 112.515L96.8171 112.127Z" fill="black"/>
<path fill-rule="evenodd" clip-rule="evenodd" d="M78.1531 83.3577C85.0207 84.1448 91.3084 85.3074 97.8156 86.8522C98.9231 89.7914 99.6341 92.342 99.6734 95.4315C94.444 94.2525 91.3477 93.6353 87.0555 92.8221C82.7829 92.0318 78.3268 91.4309 73.8969 90.9116C74.9388 87.7601 76.1413 86.3329 78.1531 83.3577ZM69.0181 92.3975C72.6944 87.1624 75.948 81.0227 78.7134 81.2154C81.5214 81.408 85.3517 82.0253 88.6839 82.6229C92.0063 83.201 95.8792 84.1056 98.5889 84.7686C101.315 85.425 102.167 90.7189 103.871 98.5601C104.552 101.653 102.439 104.589 101.469 106.637C101.2 108.24 100.85 109.455 100.332 110.98L95.4368 110.111L95.4139 105.863L74.5915 102.172L73.2744 106.287L68.6512 105.477C68.6905 102.946 68.7101 101.614 68.8642 100.03C68.4579 97.8057 67.547 94.5432 69.0181 92.3975Z" fill="black"/>
</g>
</g>
<defs>
<clipPath id="clip0_4_4607">
<rect width="174" height="174" fill="white"/>
</clipPath>
<clipPath id="clip1_4_4607">
<rect width="148" height="130" fill="white" transform="translate(13 22)"/>
</clipPath>
</defs>
</svg>
