<svg width="174" height="174" viewBox="0 0 174 174" fill="none" xmlns="http://www.w3.org/2000/svg">
<g clip-path="url(#clip0_4_4617)">
<g clip-path="url(#clip1_4_4617)">
<path d="M151.703 86.9999C151.703 122.737 122.733 151.707 86.996 151.707C51.2593 151.707 22.2891 122.737 22.2891 86.9999C22.2891 51.2632 51.2593 22.293 86.996 22.293C122.733 22.293 151.703 51.2632 151.703 86.9999Z" fill="white"/>
<path d="M87 22C51.105 22 22 51.105 22 87C22 122.895 51.105 152 87 152C122.895 152 152 122.895 152 87C152 51.105 122.895 22 87 22ZM87 22.5865C122.578 22.5865 151.413 51.4217 151.413 87C151.413 122.578 122.578 151.413 87 151.413C51.4217 151.413 22.5865 122.578 22.5865 87C22.5865 51.4217 51.4217 22.5865 87 22.5865Z" fill="black" fill-opacity="0.9799"/>
<path opacity="0.999883" fill-rule="evenodd" clip-rule="evenodd" d="M95.0381 50.731C95.0381 50.731 95.088 50.1807 95.5019 49.9584C96.011 49.6848 96.5486 50.0433 96.5486 50.0433L126.973 67.6484C126.973 67.6484 127.545 67.8788 127.554 68.522C127.562 69.093 126.973 69.3915 126.973 69.3915L96.4958 87.2491C96.4958 87.2491 95.8731 87.5551 95.4691 87.2898C95.065 87.0246 95.0381 86.5245 95.0381 86.5245L96.3879 76.0923L75.2779 75.9731C73.6946 75.9644 72.4192 77.2473 72.4192 78.8307V122.776H57.7031V72.9248C57.7031 66.4085 62.9499 61.1629 69.4662 61.1629H84.9948L96.3879 61.1631L95.0381 50.731Z" fill="black" fill-opacity="0.975708"/>
<path d="M87.0191 24.6885C52.7655 24.6884 24.9998 52.4565 25 86.7101C24.9999 120.964 52.7655 148.732 87.0191 148.732C121.273 148.732 149.041 120.964 149.041 86.7101C149.041 52.4565 121.273 24.6884 87.0191 24.6885ZM87.2045 37.6529C114.491 37.6526 136.612 59.7739 136.612 87.0606C136.612 98.8744 132.459 109.714 125.542 118.215L56.1264 48.6598C64.6158 41.7809 75.4271 37.6529 87.2045 37.6529ZM47.7145 57.3713L116.998 126.472C108.715 132.743 98.395 136.466 87.2045 136.466C59.9181 136.466 37.7969 114.347 37.7969 87.0606C37.7969 75.9171 41.4905 65.6369 47.7145 57.3713Z" fill="url(#paint0_linear_4_4617)"/>
</g>
</g>
<defs>
<linearGradient id="paint0_linear_4_4617" x1="24.9988" y1="86.709" x2="149.042" y2="86.709" gradientUnits="userSpaceOnUse">
<stop stop-color="#DC291B"/>
</linearGradient>
<clipPath id="clip0_4_4617">
<rect width="174" height="174" fill="white"/>
</clipPath>
<clipPath id="clip1_4_4617">
<rect width="130" height="130" fill="white" transform="translate(22 22)"/>
</clipPath>
</defs>
</svg>
