<svg width="174" height="174" viewBox="0 0 174 174" fill="none" xmlns="http://www.w3.org/2000/svg">
<g clip-path="url(#clip0_4_3773)">
<g clip-path="url(#clip1_4_3773)">
<path fill-rule="evenodd" clip-rule="evenodd" d="M18.1639 95.1447L18.1364 95.2508L14.1484 109.651L28.6554 113.337L155.801 39.8243L159.844 25.3557L145.312 21.6313L18.1639 95.1447ZM18.6206 95.5006L145.391 22.2053L159.179 25.7422L155.343 39.4683L28.575 112.763L14.8113 109.267L18.6206 95.5006Z" fill="black"/>
<path fill-rule="evenodd" clip-rule="evenodd" d="M18.3985 95.3216L14.4844 109.459L28.6189 113.049L155.576 39.6455L159.516 25.5485L145.356 21.918L18.3985 95.3216Z" fill="#DC291B"/>
<path d="M28.7716 89.3207L18.3906 95.3228L28.6105 113.049L38.9914 107.047L28.7716 89.3207Z" fill="white"/>
<path d="M49.5372 77.3168L39.1562 83.3188L49.3761 101.045L59.7571 95.0434L49.5372 77.3168Z" fill="white"/>
<path d="M39.1544 83.3188L28.7734 89.3208L38.9933 107.047L49.3743 101.045L39.1544 83.3188Z" fill="#DC291B"/>
<path d="M59.92 71.3149L49.5391 77.3169L59.7589 95.0434L70.1399 89.0414L59.92 71.3149Z" fill="#DC291B"/>
<path d="M134.971 27.92L145.352 21.918L155.571 39.6445L145.19 45.6465L134.971 27.92Z" fill="white"/>
<path d="M114.213 39.9239L124.594 33.9219L134.814 51.6484L124.433 57.6504L114.213 39.9239Z" fill="white"/>
<path d="M124.588 33.9219L134.969 27.9199L145.189 45.6464L134.808 51.6485L124.588 33.9219Z" fill="#DC291B"/>
<path d="M103.83 45.9259L114.211 39.9238L124.431 57.6504L114.05 63.6524L103.83 45.9259Z" fill="#DC291B"/>
<path fill-rule="evenodd" clip-rule="evenodd" d="M155.829 95.1447L155.856 95.2508L159.844 109.651L145.337 113.337L18.1915 39.8243L14.1484 25.3557L28.6803 21.6313L155.829 95.1447ZM155.372 95.5006L28.6019 22.2053L14.8141 25.7422L18.6493 39.4683L145.418 112.763L159.181 109.267L155.372 95.5006Z" fill="black"/>
<path fill-rule="evenodd" clip-rule="evenodd" d="M155.602 95.3216L159.516 109.459L145.382 113.049L18.4243 39.6455L14.4844 25.5485L28.6448 21.918L155.602 95.3216Z" fill="#DC291B"/>
<path d="M145.221 89.3207L155.602 95.3228L145.382 113.049L135.001 107.047L145.221 89.3207Z" fill="white"/>
<path d="M124.455 77.3168L134.836 83.3188L124.616 101.045L114.235 95.0434L124.455 77.3168Z" fill="white"/>
<path d="M134.838 83.3188L145.219 89.3208L134.999 107.047L124.618 101.045L134.838 83.3188Z" fill="#DC291B"/>
<path d="M114.072 71.3149L124.453 77.3169L114.233 95.0434L103.852 89.0414L114.072 71.3149Z" fill="#DC291B"/>
<path d="M39.0216 27.92L28.6406 21.918L18.4208 39.6445L28.8018 45.6465L39.0216 27.92Z" fill="white"/>
<path d="M59.7794 39.9239L49.3984 33.9219L39.1786 51.6484L49.5596 57.6504L59.7794 39.9239Z" fill="white"/>
<path d="M49.4044 33.9219L39.0234 27.9199L28.8036 45.6465L39.1846 51.6485L49.4044 33.9219Z" fill="#DC291B"/>
<path d="M70.1622 45.9259L59.7812 39.9238L49.5614 57.6504L59.9424 63.6524L70.1622 45.9259Z" fill="#DC291B"/>
<path d="M70.1586 45.9263L114.07 71.3149L103.85 89.0415L59.9387 63.6528L70.1586 45.9263Z" fill="white"/>
<path fill-rule="evenodd" clip-rule="evenodd" d="M87.0092 94.3794L86.739 94.5352L85.952 94.9899L85.0377 95.5185L18.1685 134.185L18.1402 134.292L14.1479 148.688L28.6532 152.367L107.71 106.653L107.174 106.343L28.5733 151.794L14.8125 148.304L18.6255 134.54L87.2746 94.8449L88.9769 95.8272L89.112 95.5944L87.2715 94.5319L87.0092 94.3794Z" fill="black"/>
<path fill-rule="evenodd" clip-rule="evenodd" d="M87.0078 94.6912L18.3996 134.363L14.4828 148.496L28.6143 152.08L107.443 106.499L87.0078 94.6912Z" fill="#DC291B"/>
<path d="M28.7716 128.353L18.3906 134.355L28.6105 152.082L38.9914 146.079L28.7716 128.353Z" fill="white"/>
<path d="M49.5372 116.35L39.1562 122.352L49.3761 140.078L59.7571 134.076L49.5372 116.35Z" fill="white"/>
<path d="M39.1544 122.351L28.7734 128.353L38.9933 146.08L49.3743 140.078L39.1544 122.351Z" fill="#DC291B"/>
<path d="M59.9201 110.348L49.5391 116.35L59.7589 134.076L70.1399 128.074L59.9201 110.348Z" fill="#DC291B"/>
<path fill-rule="evenodd" clip-rule="evenodd" d="M87.2558 94.5371L86.7203 94.8467L155.367 134.541L159.18 148.304L145.419 151.794L66.8212 106.344L66.7521 106.385L66.2841 106.654L145.341 152.368L159.845 148.688L155.852 134.293L155.824 134.186L87.2558 94.5371Z" fill="black"/>
<path fill-rule="evenodd" clip-rule="evenodd" d="M86.9931 94.691L66.5585 106.498L145.386 152.08L159.517 148.496L155.598 134.363L86.9931 94.691Z" fill="#DC291B"/>
<path d="M145.217 128.353L155.602 134.358L145.385 152.081L135.001 146.076L145.217 128.353Z" fill="white"/>
<path d="M124.451 116.349L134.836 122.354L124.62 140.077L114.235 134.072L124.451 116.349Z" fill="white"/>
<path d="M134.834 122.351L145.219 128.356L135.003 146.079L124.618 140.074L134.834 122.351Z" fill="#DC291B"/>
<path d="M114.076 110.347L124.461 116.352L114.245 134.075L103.86 128.07L114.076 110.347Z" fill="#DC291B"/>
<path fill-rule="evenodd" clip-rule="evenodd" d="M86.9999 94.6904L66.5607 106.509L59.9225 110.347L70.1421 128.073L86.9999 118.327L103.858 128.073L114.077 110.347L107.441 106.509L86.9999 94.6904Z" fill="white"/>
<path d="M103.834 45.9263L59.9219 71.3149L70.1417 89.0415L114.053 63.6528L103.834 45.9263Z" fill="white"/>
</g>
</g>
<defs>
<clipPath id="clip0_4_3773">
<rect width="174" height="174" fill="white"/>
</clipPath>
<clipPath id="clip1_4_3773">
<rect width="146" height="131" fill="white" transform="translate(14 21.5)"/>
</clipPath>
</defs>
</svg>
