<svg width="174" height="174" viewBox="0 0 174 174" fill="none" xmlns="http://www.w3.org/2000/svg">
<g clip-path="url(#clip0_4_4106)">
<g clip-path="url(#clip1_4_4106)">
<path fill-rule="evenodd" clip-rule="evenodd" d="M20.2065 49.625C15.7405 49.625 12.125 53.2355 12.125 57.694V116.308C12.125 120.766 15.7405 124.376 20.2065 124.376H153.793C158.259 124.376 161.875 120.766 161.875 116.308V57.694C161.875 53.2355 158.259 49.625 153.793 49.625H20.2065ZM20.2065 50.9438H153.793C157.55 50.9438 160.554 53.9433 160.554 57.694V116.308C160.554 120.059 157.55 123.057 153.793 123.057H20.2065C16.4495 123.057 13.446 120.059 13.446 116.308V57.694C13.446 53.9433 16.4495 50.9438 20.2065 50.9438Z" fill="black"/>
<path fill-rule="evenodd" clip-rule="evenodd" d="M20.2027 50.2842H153.789C157.901 50.2842 161.211 53.5887 161.211 57.6933V116.307C161.211 120.412 157.901 123.716 153.789 123.716H20.2027C16.0912 123.716 12.7812 120.412 12.7812 116.307V57.6933C12.7812 53.5887 16.0912 50.2842 20.2027 50.2842Z" fill="white"/>
<path fill-rule="evenodd" clip-rule="evenodd" d="M20.2096 53.459H153.796C156.145 53.459 158.037 55.3473 158.037 57.6928V116.307C158.037 118.652 156.145 120.54 153.796 120.54H20.2096C17.8602 120.54 15.9688 118.652 15.9688 116.307V57.6928C15.9688 55.3473 17.8602 53.459 20.2096 53.459Z" fill="#0070FD"/>
<path d="M66.417 85.1162C64.2171 84.1878 62.6126 82.9163 61.6035 81.3018C60.6146 79.667 60.1201 77.8809 60.1201 75.9434C60.1201 72.6335 61.2705 69.8988 63.5713 67.7393C65.8923 65.5798 69.182 64.5 73.4404 64.5C77.6585 64.5 80.9281 65.5798 83.249 67.7393C85.5902 69.8988 86.7607 72.6335 86.7607 75.9434C86.7607 78.002 86.2259 79.8385 85.1562 81.4531C84.0866 83.0475 82.583 84.2686 80.6455 85.1162C83.1077 86.1051 84.9746 87.5482 86.2461 89.4453C87.5378 91.3424 88.1836 93.5322 88.1836 96.0146C88.1836 100.112 86.8717 103.442 84.248 106.005C81.6445 108.568 78.1732 109.85 73.834 109.85C69.7975 109.85 66.4372 108.79 63.7529 106.671C60.5843 104.168 59 100.737 59 96.3779C59 93.9762 59.5954 91.7764 60.7861 89.7783C61.9769 87.7601 63.8538 86.2061 66.417 85.1162ZM68.1729 76.5488C68.1729 78.2441 68.6471 79.5661 69.5957 80.5146C70.5645 81.4632 71.846 81.9375 73.4404 81.9375C75.055 81.9375 76.3467 81.4632 77.3154 80.5146C78.2842 79.5459 78.7686 78.2139 78.7686 76.5186C78.7686 74.9242 78.2842 73.6527 77.3154 72.7041C76.3669 71.7354 75.1055 71.251 73.5312 71.251C71.8965 71.251 70.5947 71.7354 69.626 72.7041C68.6572 73.6729 68.1729 74.9544 68.1729 76.5488ZM67.3857 95.5605C67.3857 97.9017 67.9811 99.7282 69.1719 101.04C70.3828 102.352 71.8864 103.008 73.6826 103.008C75.4385 103.008 76.8916 102.382 78.042 101.131C79.1924 99.8594 79.7676 98.0329 79.7676 95.6514C79.7676 93.5726 79.1823 91.9076 78.0117 90.6562C76.8411 89.3848 75.3577 88.749 73.5615 88.749C71.4827 88.749 69.9287 89.4655 68.8994 90.8984C67.8903 92.3314 67.3857 93.8854 67.3857 95.5605Z" fill="white"/>
<path d="M115.399 109.062H106.893V77.0029C103.785 79.9092 100.121 82.0586 95.9033 83.4512V75.7314C98.1234 75.0049 100.535 73.6325 103.139 71.6143C105.742 69.5758 107.528 67.2044 108.497 64.5H115.399V109.062Z" fill="white"/>
</g>
</g>
<defs>
<clipPath id="clip0_4_4106">
<rect width="174" height="174" fill="white"/>
</clipPath>
<clipPath id="clip1_4_4106">
<rect width="150" height="75" fill="white" transform="translate(12 49.5)"/>
</clipPath>
</defs>
</svg>
