<svg width="310" height="160" viewBox="0 0 310 160" fill="none" xmlns="http://www.w3.org/2000/svg">
<g clip-path="url(#clip0_4_3228)">
<path d="M0 0H310V160H0V0Z" fill="white"/>
<g clip-path="url(#clip1_4_3228)">
<path d="M161.73 19.0016C160.412 16.7256 157.832 15.3018 155.002 15.3018C152.121 15.3018 149.541 16.8034 148.197 19.1228L82.4583 132.624C81.0474 135.06 80.8385 138.128 82.3478 140.734C83.7885 143.221 86.3834 144.698 89.0703 144.698H220.935C223.622 144.698 226.216 143.221 227.657 140.734C229.167 138.128 228.958 135.06 227.547 132.624L161.73 19.0016Z" fill="white" stroke="black" stroke-width="0.719" stroke-miterlimit="2" stroke-linecap="round" stroke-linejoin="round"/>
<path d="M155 17.7559C153.046 17.7559 151.348 18.7776 150.494 20.2528L84.7568 133.752C83.7727 135.451 83.642 137.477 84.646 139.21C85.6231 140.897 87.3544 141.845 89.0632 141.845H220.931C222.64 141.845 224.371 140.897 225.348 139.21C226.352 137.477 226.221 135.451 225.237 133.752L159.423 20.1313C158.615 18.7374 156.935 17.7559 155 17.7559ZM205.351 127.703H104.643L154.994 40.7696L205.351 127.703Z" fill="#DD2414"/>
<path fill-rule="evenodd" clip-rule="evenodd" d="M155.259 77.7363C151.775 77.7504 148.252 78.5877 144.994 80.3308L143.936 78.2784L140.861 83.1133L137.899 87.8273L137.828 87.9409L143.522 88.1765L149.253 88.3999L148.147 86.2816C155.381 82.4122 164.528 84.9533 168.643 92.0994L168.648 92.1091L168.656 92.1166C168.672 92.1329 168.684 92.1813 168.718 92.2399L168.757 92.3071L174.601 88.9446L174.571 88.8811C174.547 88.8299 174.533 88.7888 174.506 88.7419C170.411 81.6627 162.925 77.7053 155.259 77.7363ZM136.365 88.5599L136.328 88.6319C136.305 88.6772 136.277 88.7333 136.279 88.7308L136.276 88.736L136.271 88.7419C130.316 99.0585 133.696 112.231 143.732 118.479L142.496 120.443L148.21 120.668L153.789 120.874L153.923 120.88L151.264 115.833L148.586 110.765L147.337 112.757C140.336 108.435 137.968 99.2809 142.118 92.1021L142.094 92.1278C142.153 92.0884 142.162 92.0398 142.183 91.9728L142.203 91.9129L136.365 88.5599ZM174.445 90.4621L171.371 95.2958L168.315 100.148L170.69 100.226C170.441 108.464 163.68 115.061 155.382 115.061H155.164V121.803H155.382C167.302 121.803 177.059 112.296 177.449 100.503L179.763 100.584L177.104 95.5314L174.507 90.5805L174.445 90.4621Z" fill="black"/>
</g>
</g>
<defs>
<clipPath id="clip0_4_3228">
<path d="M0 0H310V160H0V0Z" fill="white"/>
</clipPath>
<clipPath id="clip1_4_3228">
<rect width="148" height="130" fill="white" transform="translate(81 15)"/>
</clipPath>
</defs>
</svg>
