<svg width="310" height="160" viewBox="0 0 310 160" fill="none" xmlns="http://www.w3.org/2000/svg">
<g clip-path="url(#clip0_4_3197)">
<path d="M0 0H310V160H0V0Z" fill="white"/>
<g clip-path="url(#clip1_4_3197)">
<path d="M161.73 19.0016C160.412 16.7256 157.832 15.3018 155.002 15.3018C152.121 15.3018 149.541 16.8034 148.197 19.1228L82.4583 132.624C81.0474 135.06 80.8385 138.128 82.3478 140.734C83.7885 143.221 86.3834 144.698 89.0703 144.698H220.935C223.622 144.698 226.216 143.221 227.657 140.734C229.167 138.128 228.958 135.06 227.547 132.624L161.73 19.0016Z" fill="white" stroke="black" stroke-width="0.719" stroke-miterlimit="2" stroke-linecap="round" stroke-linejoin="round"/>
<path d="M155 17.7559C153.046 17.7559 151.348 18.7776 150.494 20.2528L84.7568 133.752C83.7727 135.451 83.642 137.477 84.646 139.21C85.6231 140.897 87.3544 141.845 89.0632 141.845H220.931C222.64 141.845 224.371 140.897 225.348 139.21C226.352 137.477 226.221 135.451 225.237 133.752L159.423 20.1313C158.615 18.7374 156.935 17.7559 155 17.7559ZM205.351 127.703H104.643L154.994 40.7696L205.351 127.703Z" fill="#DD2414"/>
<path fill-rule="evenodd" clip-rule="evenodd" d="M158.414 69.5288C153.802 69.5292 153.834 70.2841 152.261 71.7985C151.215 72.8058 150.972 74.4346 150.432 75.7971C150.107 76.6188 150.161 77.6386 149.583 78.3085C149.228 78.7205 148.596 78.7741 148.129 79.0545C147.4 79.4928 146.562 79.8445 146.035 80.5123C145.251 81.5043 144.838 82.7525 144.838 84.108C144.838 84.5553 142.922 85.2194 141.122 85.9601C139.388 86.6733 137.769 87.4729 137.769 87.4729L135.407 92.9475C133.897 92.9724 132.688 94.1903 132.688 95.702V101.434H131.781C130.58 101.434 129.612 102.401 129.612 103.601V110.004H129.395C129.189 109.444 128.551 109.057 127.893 109.057C127.893 109.057 127.773 110.24 127.773 110.844C127.773 111.447 127.893 112.633 127.893 112.633C128.551 112.633 129.189 112.245 129.395 111.685H129.612V111.962C129.612 113.163 130.58 114.129 131.781 114.129H134.38C133.626 114.43 132.98 114.949 132.524 115.618C132.069 116.288 131.825 117.078 131.824 117.888C131.824 118.962 132.253 119.993 133.015 120.753C133.778 121.513 134.812 121.94 135.89 121.94C136.968 121.94 138.002 121.513 138.765 120.753C139.527 119.993 139.955 118.962 139.955 117.888C139.955 117.08 139.713 116.29 139.26 115.621C138.807 114.951 138.163 114.432 137.411 114.129H145.362C144.609 114.43 143.963 114.949 143.507 115.618C143.052 116.288 142.808 117.078 142.807 117.888C142.807 118.962 143.235 119.993 143.998 120.753C144.76 121.513 145.794 121.94 146.873 121.94C147.951 121.94 148.985 121.513 149.747 120.753C150.51 119.993 150.938 118.962 150.938 117.888C150.938 117.08 150.696 116.29 150.243 115.621C149.789 114.951 149.146 114.432 148.394 114.129H156.344C155.59 114.43 154.944 114.949 154.489 115.618C154.033 116.288 153.79 117.078 153.789 117.888C153.789 118.962 154.217 119.993 154.979 120.753C155.742 121.513 156.776 121.94 157.854 121.94C158.932 121.94 159.967 121.513 160.729 120.753C161.491 119.993 161.92 118.962 161.92 117.888C161.92 117.08 161.678 116.291 161.225 115.621C160.772 114.951 160.128 114.432 159.377 114.129H164.452H165.277H167.327C166.573 114.43 165.927 114.949 165.472 115.618C165.016 116.288 164.772 117.078 164.771 117.888C164.771 118.962 165.2 119.993 165.962 120.753C166.725 121.513 167.759 121.94 168.837 121.94C169.915 121.94 170.949 121.513 171.712 120.753C172.474 119.993 172.903 118.962 172.903 117.888C172.903 117.08 172.661 116.291 172.208 115.621C171.754 114.951 171.111 114.432 170.36 114.129H181.362V108.386H178.083V105.396L179.68 105.067V103.34H178.083H176.543L176.465 108.386H173.233V107.361V106.403V101.445H170.794V97.5004C170.794 97.0386 171.168 96.6665 171.631 96.6665H178.997V93.3419H166.73L166.267 101.434H162.052V100.637C162.052 99.3261 160.993 98.2708 159.678 98.2708C158.363 98.2708 157.304 99.3261 157.304 100.637V101.434H150.97V101.338C150.97 98.8906 148.993 96.9204 146.538 96.9204C144.083 96.9204 142.106 98.8906 142.106 101.338V101.434H138.22V95.702C138.22 94.6373 137.62 93.7185 136.738 93.2589C137.371 92.7825 138.756 91.8091 139.69 91.6485C140.654 91.4826 141.587 91.8066 142.611 92.0758C144.608 92.6006 146.692 93.381 148.214 93.1661C150.07 92.904 151.572 91.2549 151.905 91.2223C153.654 91.0515 152.737 89.5412 153.302 87.54C153.762 85.9136 155.392 83.9408 156.646 83.2594C157.015 83.0591 157.448 83.2977 157.906 83.2826C159.284 83.2374 160.824 83.4125 162.031 82.7308C164.232 81.4882 166.764 80.8448 166.764 76.819C166.765 72.7927 163.026 69.5286 158.414 69.5288Z" fill="black"/>
<path d="M181.358 121.69H125.625V123.391H181.358V121.69Z" fill="black"/>
</g>
</g>
<defs>
<clipPath id="clip0_4_3197">
<path d="M0 0H310V160H0V0Z" fill="white"/>
</clipPath>
<clipPath id="clip1_4_3197">
<rect width="148" height="130" fill="white" transform="translate(81 15)"/>
</clipPath>
</defs>
</svg>
