<svg width="174" height="174" viewBox="0 0 174 174" fill="none" xmlns="http://www.w3.org/2000/svg">
<g clip-path="url(#clip0_4_4837)">
<g clip-path="url(#clip1_4_4837)">
<path d="M93.7314 25.9671C92.4123 23.6898 89.8315 22.2651 87.0001 22.2651C84.1172 22.2651 81.5354 23.7677 80.1913 26.0883L14.4198 139.654C13.0082 142.091 12.7992 145.161 14.3092 147.768C15.7507 150.257 18.3468 151.735 21.0351 151.735H152.965C155.653 151.735 158.249 150.257 159.691 147.768C161.201 145.161 160.992 142.091 159.58 139.654L93.7314 25.9671Z" fill="#FFE51A" stroke="black" stroke-width="0.359678" stroke-miterlimit="2" stroke-linecap="round" stroke-linejoin="round"/>
<path d="M87.0039 24.7202C85.0488 24.7202 83.3507 25.7425 82.4957 27.2186L16.726 140.782C15.7414 142.482 15.6106 144.509 16.6151 146.243C17.5927 147.931 19.3248 148.88 21.0345 148.88H152.968C154.677 148.88 156.409 147.931 157.387 146.243C158.392 144.509 158.261 142.482 157.276 140.782L91.4288 27.097C90.621 25.7024 88.9396 24.7202 87.0039 24.7202ZM137.381 134.73H36.6216L86.9983 47.747L137.381 134.73Z" fill="#DD2414"/>
<path d="M87.0132 127.979C99.201 127.979 109.081 118.131 109.081 105.982C109.081 93.8334 99.201 83.9849 87.0132 83.9849C74.8254 83.9849 64.9453 93.8334 64.9453 105.982C64.9453 118.131 74.8254 127.979 87.0132 127.979Z" fill="black"/>
</g>
</g>
<defs>
<clipPath id="clip0_4_4837">
<rect width="174" height="174" fill="white"/>
</clipPath>
<clipPath id="clip1_4_4837">
<rect width="148" height="130" fill="white" transform="translate(13 22)"/>
</clipPath>
</defs>
</svg>
