<svg width="174" height="174" viewBox="0 0 174 174" fill="none" xmlns="http://www.w3.org/2000/svg">
<g clip-path="url(#clip0_4_4695)">
<g clip-path="url(#clip1_4_4695)">
<path fill-rule="evenodd" clip-rule="evenodd" d="M34.6728 22.1895C27.7671 22.1895 22.1953 27.7587 22.1953 34.6644V139.334C22.1953 146.239 27.7671 151.811 34.6728 151.811H139.34C146.245 151.811 151.817 146.239 151.817 139.334V34.6644C151.817 27.7587 146.245 22.1895 139.34 22.1895H34.6728ZM34.6728 22.9614H139.34C145.83 22.9614 151.043 28.1741 151.043 34.6644V139.334C151.043 145.824 145.83 151.037 139.34 151.037H34.6728C28.1825 151.037 22.9698 145.824 22.9698 139.334V34.6644C22.9698 28.1741 28.1825 22.9614 34.6728 22.9614Z" fill="black" fill-opacity="0.9799"/>
<path fill-rule="evenodd" clip-rule="evenodd" d="M34.6683 22.5752H139.335C146.033 22.5752 151.425 27.9674 151.425 34.6654V139.333C151.425 146.031 146.033 151.423 139.335 151.423H34.6683C27.9704 151.423 22.5781 146.031 22.5781 139.333V34.6654C22.5781 27.9674 27.9704 22.5752 34.6683 22.5752Z" fill="white"/>
<path fill-rule="evenodd" clip-rule="evenodd" d="M34.6659 25.4375H139.345C144.453 25.4375 148.566 29.5499 148.566 34.6581V139.338C148.566 144.446 144.453 148.559 139.345 148.559H34.6659C29.5577 148.559 25.4453 144.446 25.4453 139.338V34.6581C25.4453 29.5499 29.5577 25.4375 34.6659 25.4375Z" fill="#0070FD"/>
<path fill-rule="evenodd" clip-rule="evenodd" d="M90.186 70.3004C90.186 70.3004 89.6946 71.0398 89.6953 71.656C89.6964 73.0109 90.437 73.6258 91.915 73.624L92.408 73.6235L103.604 70.7605L103.664 140.237L120.314 140.223L120.254 70.7456L131.721 73.5554C133.2 73.5543 133.938 72.9366 133.936 71.5817C133.936 70.9659 133.688 70.4735 133.565 70.2272L111.761 34.7861" fill="white"/>
<mask id="mask0_4_4695" style="mask-type:luminance" maskUnits="userSpaceOnUse" x="21" y="16" width="145" height="144">
<path d="M21.875 16.306H165.395V159.824H21.875V16.306Z" fill="white"/>
</mask>
<g mask="url(#mask0_4_4695)">
<mask id="mask1_4_4695" style="mask-type:luminance" maskUnits="userSpaceOnUse" x="32" y="33" width="59" height="110">
<path d="M32.9375 142.671H90.5839V33.4863H32.9375V142.671Z" fill="white"/>
</mask>
<g mask="url(#mask1_4_4695)">
<path fill-rule="evenodd" clip-rule="evenodd" d="M60.8844 140.232L39.0147 104.725L38.9958 104.693C38.9958 104.691 38.9973 104.691 38.9973 104.691C38.4046 103.664 38.0561 102.447 38.4927 101.244C39.2789 99.0838 41.7241 99.1504 43.8833 99.9381L51.5647 101.891L51.4522 34.7885H69.8451L69.8923 101.82L78.5189 99.5024L78.5204 99.504C79.1853 99.2624 79.9182 99.1817 80.6652 99.313C82.9299 99.7134 83.6861 100.718 83.2858 102.983C83.1992 103.475 83.0242 103.928 82.7885 104.338C73.4942 120.837 60.8844 140.232 60.8844 140.232Z" fill="white"/>
<path fill-rule="evenodd" clip-rule="evenodd" d="M60.8843 136.004L41.8537 104.978L41.8348 104.946L41.8363 104.944C41.8363 104.944 39.7865 102.562 40.6358 101.855C41.4166 101.206 44.3086 102.53 46.0702 102.761L53.7516 104.714L53.6789 36.9758H67.5785L67.745 104.723L77.9705 102.061C77.9705 102.061 80.6063 101.075 81.0728 101.801C81.5392 102.527 79.5179 105.274 79.5179 105.274L78.866 106.32L60.8843 136.004Z" fill="#DC291B"/>
</g>
</g>
</g>
</g>
<defs>
<clipPath id="clip0_4_4695">
<rect width="174" height="174" fill="white"/>
</clipPath>
<clipPath id="clip1_4_4695">
<rect width="130" height="130" fill="white" transform="translate(22 22)"/>
</clipPath>
</defs>
</svg>
