<svg width="174" height="174" viewBox="0 0 174 174" fill="none" xmlns="http://www.w3.org/2000/svg">
<g clip-path="url(#clip0_4_4292)">
<g clip-path="url(#clip1_4_4292)">
<path fill-rule="evenodd" clip-rule="evenodd" d="M20.2622 22.0801C17.3931 22.0801 15.0781 24.401 15.0781 27.278V146.723C15.0781 149.6 17.3931 151.921 20.2622 151.921H153.736C156.605 151.921 158.919 149.6 158.919 146.723V27.278C158.919 24.401 156.605 22.0801 153.736 22.0801H20.2622ZM20.2622 22.4025H153.736C156.432 22.4025 158.598 24.5741 158.598 27.278V146.723C158.598 149.427 156.432 151.599 153.736 151.599H20.2622C17.5657 151.599 15.3996 149.427 15.3996 146.723V27.278C15.3996 24.5741 17.5657 22.4025 20.2622 22.4025Z" fill="black"/>
<path fill-rule="evenodd" clip-rule="evenodd" d="M20.2654 22.2412H153.739C156.522 22.2412 158.762 24.4876 158.762 27.278V146.723C158.762 149.513 156.522 151.76 153.739 151.76H20.2654C17.4825 151.76 15.2422 149.513 15.2422 146.723V27.278C15.2422 24.4876 17.4825 22.2412 20.2654 22.2412Z" fill="white"/>
<path fill-rule="evenodd" clip-rule="evenodd" d="M20.261 24.4004H153.734C155.325 24.4004 156.605 25.6841 156.605 27.2786V146.723C156.605 148.318 155.325 149.602 153.734 149.602H20.261C18.6708 149.602 17.3906 148.318 17.3906 146.723V27.2786C17.3906 25.6841 18.6708 24.4004 20.261 24.4004Z" fill="#0070FD"/>
<path fill-rule="evenodd" clip-rule="evenodd" d="M86.1367 33.2451L86.0364 33.4488L75.5198 54.7756C75.2629 55.2984 75.2879 55.8508 75.5159 56.2421C75.7439 56.6335 76.1923 56.8573 76.7099 56.705L82.4512 55.007V140.353H89.5665V54.9186L95.3602 56.6666C95.9404 56.8613 96.4742 56.7107 96.7406 56.3073C97.0079 55.9007 97 55.2725 96.6086 54.5492L86.1367 33.2451Z" fill="white"/>
<path fill-rule="evenodd" clip-rule="evenodd" d="M84.8828 80.1904V88.7369L125.706 115.737V140.412H132.822V111.877L125.706 107.172V107.191L84.8828 80.1904Z" fill="white"/>
<path fill-rule="evenodd" clip-rule="evenodd" d="M41.3555 33.2451L41.2547 33.4488L30.7386 54.7761C30.4816 55.2989 30.5066 55.8507 30.7347 56.2421C30.9627 56.6335 31.4111 56.8572 31.9286 56.705L37.67 55.0075V140.446H44.7852V54.9186L50.579 56.6671C51.1592 56.8618 51.6929 56.7107 51.9594 56.3073C52.2267 55.9007 52.2188 55.2724 51.8274 54.5492L41.3555 33.2451Z" fill="white"/>
</g>
</g>
<defs>
<clipPath id="clip0_4_4292">
<rect width="174" height="174" fill="white"/>
</clipPath>
<clipPath id="clip1_4_4292">
<rect width="144" height="130" fill="white" transform="translate(15 22)"/>
</clipPath>
</defs>
</svg>
