<svg width="174" height="174" viewBox="0 0 174 174" fill="none" xmlns="http://www.w3.org/2000/svg">
<g clip-path="url(#clip0_4_3608)">
<g clip-path="url(#clip1_4_3608)">
<path d="M93.7305 26.0021C92.412 23.7261 89.8325 22.3022 87.0025 22.3022C84.1211 22.3022 81.5406 23.8039 80.1972 26.1232L14.4583 139.624C13.0474 142.06 12.8385 145.129 14.3478 147.734C15.7885 150.222 18.3834 151.698 21.0703 151.698H152.935C155.622 151.698 158.216 150.222 159.657 147.734C161.167 145.129 160.958 142.06 159.547 139.624L93.7305 26.0021Z" fill="white" stroke="black" stroke-width="0.719" stroke-miterlimit="2" stroke-linecap="round" stroke-linejoin="round"/>
<path d="M86.9998 24.7554C85.0457 24.7554 83.3484 25.7771 82.4939 27.2523L16.7568 140.752C15.7727 142.451 15.642 144.476 16.646 146.21C17.6231 147.897 19.3544 148.845 21.0632 148.845H152.931C154.64 148.845 156.371 147.897 157.348 146.21C158.352 144.476 158.221 142.451 157.237 140.752L91.4225 27.1308C90.6151 25.737 88.9346 24.7554 86.9998 24.7554ZM137.351 134.703H36.6426L86.9943 47.7691L137.351 134.703Z" fill="#DD2414"/>
<path fill-rule="evenodd" clip-rule="evenodd" d="M87.0216 74.272C87.0138 74.272 87.0061 74.2737 86.999 74.2769C86.992 74.2801 86.9856 74.2848 86.9805 74.2906L78.7413 84.1183C78.7332 84.1281 78.7288 84.1404 78.7288 84.1531V108.804H67.4051C67.391 108.804 67.3775 108.81 67.3675 108.82C67.3575 108.83 67.3518 108.843 67.3516 108.857V116.704C67.3514 116.719 67.357 116.733 67.367 116.743C67.3771 116.753 67.3908 116.759 67.4051 116.759H78.7288V129.798C78.7294 129.812 78.7354 129.825 78.7456 129.835C78.7559 129.845 78.7695 129.85 78.7837 129.85H78.7998C78.8078 129.851 78.8159 129.85 78.8235 129.847L87.0216 126.09L95.1936 129.847C95.2008 129.849 95.2084 129.85 95.216 129.85H95.2334C95.2473 129.85 95.2607 129.844 95.2706 129.834C95.2806 129.825 95.2864 129.812 95.287 129.798V116.759H106.611C106.618 116.759 106.625 116.758 106.632 116.755C106.638 116.752 106.644 116.748 106.65 116.743C106.655 116.738 106.659 116.732 106.661 116.725C106.664 116.719 106.666 116.712 106.665 116.704V108.857C106.665 108.843 106.659 108.829 106.649 108.819C106.639 108.809 106.625 108.804 106.611 108.804H95.287V84.1531C95.2875 84.1406 95.2835 84.1283 95.2758 84.1183L87.064 74.2906C87.0587 74.2846 87.0522 74.2798 87.0449 74.2766C87.0375 74.2734 87.0296 74.2718 87.0216 74.272Z" fill="black"/>
</g>
</g>
<defs>
<clipPath id="clip0_4_3608">
<rect width="174" height="174" fill="white"/>
</clipPath>
<clipPath id="clip1_4_3608">
<rect width="148" height="130" fill="white" transform="translate(13 22)"/>
</clipPath>
</defs>
</svg>
