<svg width="174" height="174" viewBox="0 0 174 174" fill="none" xmlns="http://www.w3.org/2000/svg">
<g clip-path="url(#clip0_4_4719)">
<g clip-path="url(#clip1_4_4719)">
<path fill-rule="evenodd" clip-rule="evenodd" d="M19.806 22.0801C16.917 22.0801 14.5859 24.401 14.5859 27.278V146.723C14.5859 149.6 16.917 151.921 19.806 151.921H154.206C157.095 151.921 159.426 149.6 159.426 146.723V27.278C159.426 24.401 157.095 22.0801 154.206 22.0801H19.806ZM19.806 22.4025H154.206C156.922 22.4025 159.102 24.5741 159.102 27.278V146.723C159.102 149.427 156.922 151.599 154.206 151.599H19.806C17.0908 151.599 14.9097 149.427 14.9097 146.723V27.278C14.9097 24.5741 17.0908 22.4025 19.806 22.4025Z" fill="black"/>
<path fill-rule="evenodd" clip-rule="evenodd" d="M19.8003 22.2412H154.201C157.003 22.2412 159.259 24.4876 159.259 27.278V146.723C159.259 149.513 157.003 151.76 154.201 151.76H19.8003C16.9981 151.76 14.7422 149.513 14.7422 146.723V27.278C14.7422 24.4876 16.9981 22.2412 19.8003 22.2412Z" fill="white"/>
<path fill-rule="evenodd" clip-rule="evenodd" d="M19.8044 24.4004H154.205C155.806 24.4004 157.095 25.6841 157.095 27.2786V146.723C157.095 148.318 155.806 149.602 154.205 149.602H19.8044C18.2031 149.602 16.9141 148.318 16.9141 146.723V27.2786C16.9141 25.6841 18.2031 24.4004 19.8044 24.4004Z" fill="#0070FD"/>
<path fill-rule="evenodd" clip-rule="evenodd" d="M86.1336 33.2451L86.0326 33.4488L75.443 54.7756C75.1842 55.2984 75.2095 55.8508 75.4391 56.2421C75.6686 56.6335 76.1201 56.8573 76.6413 56.705L82.4225 55.007V140.353H89.5872V54.9186L95.4212 56.6666C96.0053 56.8613 96.5428 56.7107 96.8112 56.3073C97.0803 55.9007 97.0723 55.2725 96.6782 54.5492L86.1336 33.2451Z" fill="white"/>
<path fill-rule="evenodd" clip-rule="evenodd" d="M84.875 80.1914V88.7379L125.982 115.738V140.413H133.147V111.878L125.982 107.173V107.192L84.875 80.1914Z" fill="white"/>
<path fill-rule="evenodd" clip-rule="evenodd" d="M41.0477 33.2451L40.9462 33.4488L30.3571 54.7761C30.0983 55.2989 30.1235 55.8507 30.3532 56.2421C30.5827 56.6335 31.0342 56.8572 31.5554 56.705L37.3366 55.0075V140.446H44.5012V54.9186L50.3353 56.6671C50.9194 56.8618 51.4569 56.7107 51.7253 56.3073C51.9944 55.9007 51.9864 55.2724 51.5923 54.5492L41.0477 33.2451Z" fill="white"/>
</g>
</g>
<defs>
<clipPath id="clip0_4_4719">
<rect width="174" height="174" fill="white"/>
</clipPath>
<clipPath id="clip1_4_4719">
<rect width="145" height="130" fill="white" transform="translate(14.5 22)"/>
</clipPath>
</defs>
</svg>
