<svg width="174" height="174" viewBox="0 0 174 174" fill="none" xmlns="http://www.w3.org/2000/svg">
<g clip-path="url(#clip0_4_3516)">
<g clip-path="url(#clip1_4_3516)">
<path d="M93.7227 26.0016C92.4042 23.7256 89.8247 22.3018 86.9947 22.3018C84.1133 22.3018 81.5328 23.8034 80.1893 26.1228L14.4504 139.624C13.0396 142.06 12.8307 145.128 14.34 147.734C15.7807 150.221 18.3756 151.698 21.0625 151.698H152.927C155.614 151.698 158.209 150.221 159.649 147.734C161.159 145.128 160.95 142.06 159.539 139.624L93.7227 26.0016Z" fill="white" stroke="black" stroke-width="0.719" stroke-miterlimit="2" stroke-linecap="round" stroke-linejoin="round"/>
<path d="M86.992 24.7549C85.0379 24.7549 83.3406 25.7766 82.4861 27.2518L16.749 140.751C15.7649 142.45 15.6342 144.476 16.6382 146.209C17.6153 147.896 19.3466 148.844 21.0554 148.844H152.923C154.632 148.844 156.363 147.896 157.34 146.209C158.344 144.476 158.214 142.45 157.229 140.751L91.4147 27.1303C90.6073 25.7365 88.9268 24.7549 86.992 24.7549ZM137.344 134.702H36.6348L86.9865 47.7686L137.344 134.702Z" fill="#DD2414"/>
<path fill-rule="evenodd" clip-rule="evenodd" d="M77.5508 84.4902C77.5436 84.4902 77.5364 84.4915 77.5297 84.4942C77.523 84.497 77.517 84.501 77.5118 84.5061C77.5067 84.5112 77.5027 84.5172 77.5 84.5239C77.4972 84.5306 77.4959 84.5377 77.4959 84.545V96.5535L72.8602 103.518C72.8544 103.527 72.8514 103.538 72.8516 103.548V128.111C72.8518 128.125 72.8577 128.139 72.868 128.149C72.8783 128.159 72.8921 128.165 72.9065 128.164H80.609C80.6234 128.165 80.6372 128.159 80.6475 128.149C80.6578 128.139 80.6637 128.125 80.6639 128.111V103.564L85.2029 96.5996C85.2084 96.591 85.2114 96.581 85.2115 96.5708V84.545C85.2117 84.5306 85.2061 84.5168 85.1961 84.5066C85.1861 84.4963 85.1724 84.4905 85.1581 84.4902H77.5508Z" fill="black"/>
<path fill-rule="evenodd" clip-rule="evenodd" d="M91.3127 84.4932C91.3055 84.4931 91.2983 84.4944 91.2916 84.4972C91.2849 84.4999 91.2788 84.5039 91.2737 84.509C91.2686 84.5141 91.2646 84.5202 91.2618 84.5268C91.2591 84.5335 91.2577 84.5407 91.2578 84.5479V128.111C91.258 128.126 91.2639 128.139 91.2742 128.149C91.2845 128.159 91.2984 128.165 91.3127 128.164H98.8824C98.8967 128.165 98.9106 128.159 98.9209 128.149C98.9312 128.139 98.9371 128.126 98.9373 128.111V84.5479C98.9374 84.5407 98.936 84.5335 98.9333 84.5268C98.9305 84.5202 98.9265 84.5141 98.9214 84.509C98.9163 84.5039 98.9102 84.4999 98.9035 84.4972C98.8968 84.4944 98.8896 84.4931 98.8824 84.4932H91.3127Z" fill="black"/>
</g>
</g>
<defs>
<clipPath id="clip0_4_3516">
<rect width="174" height="174" fill="white"/>
</clipPath>
<clipPath id="clip1_4_3516">
<rect width="148" height="130" fill="white" transform="translate(13 22)"/>
</clipPath>
</defs>
</svg>
