<svg width="174" height="174" viewBox="0 0 174 174" fill="none" xmlns="http://www.w3.org/2000/svg">
<g clip-path="url(#clip0_4_4588)">
<g clip-path="url(#clip1_4_4588)">
<path d="M80.3207 26.0016C81.6303 23.7256 84.1924 22.3018 87.0033 22.3018C89.8652 22.3018 92.4283 23.8034 93.7626 26.1228L159.057 139.624C160.459 142.06 160.666 145.128 159.167 147.734C157.736 150.221 155.159 151.698 152.49 151.698H21.5165C18.8478 151.698 16.2705 150.221 14.8395 147.734C13.3404 145.128 13.5477 142.06 14.9492 139.624L80.3207 26.0016Z" fill="white" stroke="black" stroke-width="0.719" stroke-miterlimit="2" stroke-linecap="round" stroke-linejoin="round"/>
<path d="M87.0037 24.7549C88.9446 24.7549 90.6304 25.7766 91.4791 27.2518L156.772 140.751C157.75 142.45 157.879 144.476 156.882 146.209C155.912 147.896 154.192 148.844 152.495 148.844H21.5181C19.8208 148.844 18.1013 147.896 17.1308 146.209C16.1335 144.476 16.2634 142.45 17.2409 140.751L82.6108 27.1303C83.4128 25.7365 85.082 24.7549 87.0037 24.7549ZM36.9922 134.702H137.021L87.0092 47.7686L36.9922 134.702Z" fill="#DD2414"/>
<path fill-rule="evenodd" clip-rule="evenodd" d="M94.0396 82.162C94.0327 82.1601 94.0254 82.1597 94.0183 82.1607C94.0111 82.1617 94.0042 82.1641 93.998 82.1678L89.8758 84.5277C82.8622 88.6101 77.7748 92.5225 74.4413 97.3051C71.1077 102.088 69.5312 107.74 69.5312 115.288V130.183C69.5313 130.193 69.5341 130.203 69.5394 130.211C69.5447 130.22 69.5522 130.227 69.5611 130.231C69.57 130.236 69.58 130.238 69.5899 130.237C69.5998 130.236 69.6093 130.232 69.6173 130.226L75.7096 125.59L81.8005 130.226C81.8085 130.232 81.818 130.236 81.8279 130.237C81.8379 130.238 81.8479 130.236 81.8568 130.231C81.8657 130.227 81.8732 130.22 81.8785 130.211C81.8837 130.203 81.8865 130.193 81.8866 130.183V117.587C81.8866 110.17 83.5239 105.711 86.3188 102.427C89.1137 99.1425 93.075 97.0309 97.7272 94.3318L100.462 92.7292C100.469 92.7254 100.474 92.7202 100.479 92.714C100.483 92.7078 100.486 92.7007 100.488 92.6932L102.223 84.5868C102.225 84.5734 102.223 84.5595 102.216 84.5477C102.209 84.536 102.198 84.5273 102.185 84.5234L94.0396 82.162Z" fill="black"/>
</g>
</g>
<defs>
<clipPath id="clip0_4_4588">
<rect width="174" height="174" fill="white"/>
</clipPath>
<clipPath id="clip1_4_4588">
<rect width="147" height="130" fill="white" transform="translate(13.5 22)"/>
</clipPath>
</defs>
</svg>
