<svg width="310" height="160" viewBox="0 0 310 160" fill="none" xmlns="http://www.w3.org/2000/svg">
<g clip-path="url(#clip0_4_3083)">
<path d="M0 0H310V160H0V0Z" fill="white"/>
<g clip-path="url(#clip1_4_3083)">
<path d="M161.73 19.0016C160.412 16.7256 157.832 15.3018 155.002 15.3018C152.121 15.3018 149.541 16.8034 148.197 19.1228L82.4583 132.624C81.0474 135.06 80.8385 138.128 82.3478 140.734C83.7885 143.221 86.3834 144.698 89.0703 144.698H220.935C223.622 144.698 226.216 143.221 227.657 140.734C229.167 138.128 228.958 135.06 227.547 132.624L161.73 19.0016Z" fill="white" stroke="black" stroke-width="0.719" stroke-miterlimit="2" stroke-linecap="round" stroke-linejoin="round"/>
<path d="M155.008 17.7559C153.054 17.7559 151.356 18.7776 150.502 20.2528L84.7647 133.752C83.7805 135.451 83.6498 137.477 84.6538 139.21C85.631 140.897 87.3622 141.845 89.071 141.845H220.939C222.647 141.845 224.379 140.897 225.356 139.21C226.36 137.477 226.229 135.451 225.245 133.752L159.43 20.1313C158.623 18.7374 156.942 17.7559 155.008 17.7559ZM205.359 127.703H104.65L155.002 40.7696L205.359 127.703Z" fill="#DD2414"/>
<path fill-rule="evenodd" clip-rule="evenodd" d="M147.911 75.162C147.918 75.1601 147.925 75.1597 147.932 75.1607C147.94 75.1617 147.946 75.1641 147.953 75.1678L152.103 77.5277C159.164 81.6101 164.286 85.5225 167.643 90.3051C170.999 95.0877 172.586 100.74 172.586 108.288V123.183C172.586 123.193 172.583 123.203 172.578 123.211C172.572 123.22 172.565 123.227 172.556 123.231C172.547 123.236 172.537 123.238 172.527 123.237C172.517 123.236 172.507 123.232 172.499 123.226L166.366 118.59L160.233 123.226C160.225 123.232 160.216 123.236 160.206 123.237C160.196 123.238 160.186 123.236 160.177 123.231C160.168 123.227 160.16 123.22 160.155 123.211C160.149 123.203 160.147 123.193 160.147 123.183V110.587C160.147 103.17 158.498 98.711 155.684 95.4268C152.87 92.1425 148.882 90.0308 144.198 87.3318L141.445 85.7292C141.438 85.7254 141.432 85.7202 141.428 85.714C141.423 85.7078 141.42 85.7007 141.419 85.6932L139.672 77.5867C139.669 77.5734 139.672 77.5595 139.679 77.5477C139.686 77.536 139.697 77.5273 139.71 77.5234L147.911 75.162Z" fill="black"/>
</g>
</g>
<defs>
<clipPath id="clip0_4_3083">
<path d="M0 0H310V160H0V0Z" fill="white"/>
</clipPath>
<clipPath id="clip1_4_3083">
<rect width="148" height="130" fill="white" transform="translate(81 15)"/>
</clipPath>
</defs>
</svg>
