<svg width="174" height="174" viewBox="0 0 174 174" fill="none" xmlns="http://www.w3.org/2000/svg">
<g clip-path="url(#clip0_4_3848)">
<g clip-path="url(#clip1_4_3848)">
<path d="M93.7305 26.0016C92.412 23.7256 89.8325 22.3018 87.0025 22.3018C84.1211 22.3018 81.5406 23.8034 80.1972 26.1228L14.4583 139.624C13.0474 142.06 12.8385 145.128 14.3478 147.734C15.7885 150.221 18.3834 151.698 21.0703 151.698H152.935C155.622 151.698 158.216 150.221 159.657 147.734C161.167 145.128 160.958 142.06 159.547 139.624L93.7305 26.0016Z" fill="white" stroke="black" stroke-width="0.719" stroke-miterlimit="2" stroke-linecap="round" stroke-linejoin="round"/>
<path d="M86.9998 24.7559C85.0457 24.7559 83.3484 25.7776 82.4939 27.2528L16.7568 140.752C15.7727 142.451 15.642 144.477 16.646 146.21C17.6231 147.897 19.3544 148.845 21.0632 148.845H152.931C154.64 148.845 156.371 147.897 157.348 146.21C158.352 144.477 158.221 142.451 157.237 140.752L91.4225 27.1313C90.6151 25.7374 88.9346 24.7559 86.9998 24.7559ZM137.351 134.703H36.6426L86.9943 47.7696L137.351 134.703Z" fill="#DD2414"/>
<path fill-rule="evenodd" clip-rule="evenodd" d="M78.1353 78.2559C78.1274 78.2557 78.1195 78.2574 78.1123 78.2606C78.105 78.2638 78.0986 78.2686 78.0934 78.2746L71.9192 85.7576C71.9109 85.7672 71.9063 85.7795 71.9062 85.7922L71.8672 108.531C71.8672 117.429 81.4891 122.255 87.6826 118.695L98.9606 112.171C100.231 111.438 101.5 112.347 101.575 113.407V130.025C101.575 130.035 101.578 130.045 101.583 130.053C101.589 130.062 101.596 130.069 101.605 130.073C101.614 130.078 101.624 130.08 101.634 130.079C101.644 130.078 101.654 130.074 101.662 130.068L107.777 125.406L113.924 130.068C113.932 130.075 113.941 130.079 113.952 130.08C113.962 130.081 113.972 130.079 113.981 130.074C113.991 130.07 113.998 130.063 114.004 130.054C114.009 130.045 114.012 130.035 114.012 130.025V108.277C114.012 103.327 111.683 99.8855 108.545 98.152C105.408 96.4185 101.463 96.3904 98.2325 98.247L86.4677 105.036V105.037C85.9019 105.378 85.3665 105.348 84.9725 105.084C84.5786 104.82 84.3236 104.316 84.3427 103.691V103.69V85.831C84.343 85.8185 84.3389 85.8063 84.3311 85.7965L78.1772 78.276C78.1721 78.2698 78.1657 78.2647 78.1585 78.2612C78.1513 78.2578 78.1433 78.2559 78.1353 78.2559Z" fill="black"/>
</g>
</g>
<defs>
<clipPath id="clip0_4_3848">
<rect width="174" height="174" fill="white"/>
</clipPath>
<clipPath id="clip1_4_3848">
<rect width="148" height="130" fill="white" transform="translate(13 22)"/>
</clipPath>
</defs>
</svg>
