<svg width="174" height="174" viewBox="0 0 174 174" fill="none" xmlns="http://www.w3.org/2000/svg">
<g clip-path="url(#clip0_4_4473)">
<g clip-path="url(#clip1_4_4473)">
<path d="M132.99 41.0667C139.023 47.1062 143.806 54.2748 147.068 62.163C150.329 70.0512 152.005 78.5045 152 87.0405C151.995 95.5764 150.308 104.028 147.037 111.912C143.765 119.796 138.973 126.959 132.933 132.991C120.736 145.173 104.199 152.011 86.9596 152C69.7205 151.989 53.1918 145.131 41.0095 132.933C34.9774 126.894 30.194 119.725 26.9324 111.837C23.6707 103.949 21.9947 95.4954 22 86.9595C22.0053 78.4236 23.6918 69.9723 26.9633 62.0881C30.2348 54.204 35.0271 47.0414 41.0667 41.0094C53.2641 28.8271 69.8014 21.9893 87.0405 22C104.28 22.0108 120.808 28.8692 132.99 41.0667Z" fill="black"/>
<path d="M132.719 41.3378C138.715 47.3417 143.47 54.4679 146.713 62.3096C149.955 70.1512 151.621 78.5548 151.616 87.0403C151.611 95.5259 149.934 103.927 146.682 111.765C143.43 119.603 138.666 126.723 132.662 132.719C120.536 144.83 104.097 151.627 86.9592 151.617C69.8218 151.606 53.3906 144.788 41.2802 132.663C35.2837 126.659 30.5285 119.532 27.2861 111.691C24.0437 103.849 22.3776 95.4456 22.3828 86.9601C22.3881 78.4745 24.0647 70.0731 27.3168 62.2354C30.569 54.3978 35.333 47.2775 41.3369 41.281C53.4624 29.1706 69.9021 22.373 87.0395 22.3837C104.177 22.3943 120.608 29.2123 132.719 41.3378Z" fill="white"/>
<path d="M131.339 42.7204C143.083 54.4788 149.674 70.4207 149.664 87.0392C149.654 103.658 143.042 119.591 131.284 131.335C119.525 143.079 103.583 149.67 86.9649 149.66C70.3464 149.65 54.4127 143.038 42.669 131.28C30.9252 119.522 24.3335 103.58 24.3438 86.9612C24.3541 70.3427 30.9656 54.409 42.7239 42.6653C54.4823 30.9215 70.4242 24.3298 87.0426 24.3401C103.661 24.3505 119.595 30.9621 131.339 42.7204Z" fill="#008FDE"/>
<path d="M98.3857 132.93C96.991 132.501 97.0987 131.652 98.688 130.544C99.3948 130.052 100.238 129.46 100.563 129.229C101.801 128.349 101.377 127.173 96.8436 118.895C94.4766 114.573 91.7634 109.508 90.8142 107.639C89.865 105.77 88.9235 104.24 88.7221 104.239C87.8749 104.235 86.7344 105.941 82.86 113.002C81.0296 116.338 80.6096 117.429 79.2683 122.34C78.4329 125.398 77.5998 128.08 77.4169 128.3C77.2341 128.52 76.6356 128.785 76.0868 128.888C75.1742 129.059 75.0715 129.192 74.8834 130.445C74.5928 132.382 74.4482 132.645 73.6737 132.645C71.9496 132.645 71.1814 132.283 70.6804 131.233L70.1786 130.181L68.2747 130.385L66.3708 130.588L64.1236 128.468C61.6899 126.171 61.632 125.819 63.6347 125.494C64.4716 125.358 65.1372 125.511 66.4053 126.131C67.3234 126.58 68.2964 126.904 68.5676 126.85C68.9278 126.779 69.3272 125.693 70.0489 122.824C70.5924 120.663 71.5838 116.991 72.2519 114.664C72.92 112.337 73.7659 109.277 74.1316 107.864C74.5853 106.111 75.1747 104.745 75.9879 103.561C76.6432 102.607 78.2648 99.6832 79.5913 97.0635L82.0032 92.3006L81.3403 84.8965C80.9022 80.0027 80.542 77.3444 80.2779 77.0558C79.6386 76.3573 78.3077 77.1884 74.6814 80.551C71.8058 83.2174 71.0152 83.7609 67.2846 85.6354C64.6022 86.9831 62.6958 87.7541 61.9572 87.7899C61.0186 87.8355 60.681 88.0331 60.1219 88.8643C58.4405 91.3641 55.6817 89.4273 55.6792 85.7454C55.6786 84.7995 55.8234 83.9358 56.001 83.8261C56.1786 83.7165 57.165 83.5536 58.1931 83.4643C60.0301 83.3047 60.1195 83.2537 63.3881 80.5056C68.2269 76.4373 70.6686 74.1427 72.742 71.7151C75.0163 69.0524 75.7908 67.53 76.4214 64.4823C76.6923 63.1727 77.0999 61.8177 77.3271 61.4711C77.5543 61.1246 78.826 60.1954 80.1531 59.4064C82.7572 57.8581 83.7971 56.8054 83.7971 55.7175C83.7971 54.5696 83.482 54.0916 82.0977 53.1397L80.7736 52.2291V49.6826C80.7736 47.1644 80.7635 47.1309 79.8754 46.6719C78.1263 45.7678 77.9071 44.0985 79.5375 44.0985C80.5556 44.0985 81.3782 43.1817 81.3782 42.0471C81.3782 40.9669 81.9299 40.1694 82.6739 40.1738C83.0422 40.1759 84.5001 40.5822 85.9136 41.0764C87.3271 41.5706 88.991 41.9768 89.6113 41.979C90.6212 41.9825 90.8035 42.1094 91.3569 43.1937C91.6968 43.8596 92.2438 44.5723 92.5725 44.7775C93.3321 45.2517 93.3363 46.1492 92.5827 46.951C91.903 47.6742 90.7513 52.4541 90.7513 54.5517C90.7513 55.7333 90.9074 56.1011 91.7793 56.9725C92.6404 57.8333 93.0257 58 94.153 58C95.8661 58 97.1411 58.4396 99.1853 59.7348C104.489 63.0952 110.326 71.178 114.194 80.5195C114.96 82.3678 115.646 83.4915 116.511 84.314C117.599 85.3482 117.718 85.595 117.545 86.4594C117.032 89.0223 113.223 90.7358 111.614 89.1274C110.996 88.5096 110.869 87.9138 110.989 86.1787C111.05 85.2926 110.524 84.6055 105.722 79.2975C100.202 73.1956 99.3203 72.3846 98.4005 72.5592C97.601 72.711 97.547 74.9556 98.2761 77.7377C99.2628 81.5028 99.6286 85.7641 99.3572 90.3317C99.2238 92.5781 99.1036 96.3199 99.0903 98.6469C99.0666 102.769 99.0917 102.94 100.064 105.296C100.612 106.625 102.984 111.385 105.333 115.873C109.07 123.011 109.599 124.197 109.556 125.349C109.529 126.098 109.701 126.94 109.956 127.305C110.203 127.657 110.404 128.581 110.404 129.359C110.404 130.673 110.337 130.796 109.452 131.105C108.928 131.287 107.813 131.436 106.974 131.436C105.821 131.436 105.169 131.629 104.308 132.226C103.022 133.117 100.119 133.462 98.3857 132.93Z" fill="white"/>
</g>
</g>
<defs>
<clipPath id="clip0_4_4473">
<rect width="174" height="174" fill="white"/>
</clipPath>
<clipPath id="clip1_4_4473">
<rect width="130" height="130" fill="white" transform="translate(22 22)"/>
</clipPath>
</defs>
</svg>
