<svg width="150" height="75" viewBox="0 0 150 75" fill="none" xmlns="http://www.w3.org/2000/svg">
<g clip-path="url(#clip0_4_3439)">
<path fill-rule="evenodd" clip-rule="evenodd" d="M8.20648 0.125C3.74049 0.125 0.125 3.73545 0.125 8.19402V66.8078C0.125 71.2663 3.74049 74.8758 8.20648 74.8758H141.793C146.259 74.8758 149.875 71.2663 149.875 66.8078V8.19402C149.875 3.73545 146.259 0.125 141.793 0.125H8.20648ZM8.20648 1.44379H141.793C145.55 1.44379 148.554 4.44327 148.554 8.19402V66.8078C148.554 70.5585 145.55 73.557 141.793 73.557H8.20648C4.44949 73.557 1.44598 70.5585 1.44598 66.8078V8.19402C1.44598 4.44327 4.44949 1.44379 8.20648 1.44379Z" fill="black"/>
<path fill-rule="evenodd" clip-rule="evenodd" d="M8.20272 0.78418H141.789C145.901 0.78418 149.211 4.08866 149.211 8.19332V66.8071C149.211 70.9117 145.901 74.2162 141.789 74.2162H8.20272C4.09123 74.2162 0.78125 70.9117 0.78125 66.8071V8.19332C0.78125 4.08866 4.09123 0.78418 8.20272 0.78418Z" fill="white"/>
<path fill-rule="evenodd" clip-rule="evenodd" d="M8.20958 3.95898H141.796C144.145 3.95898 146.037 5.84726 146.037 8.19278V66.8065C146.037 69.1521 144.145 71.0403 141.796 71.0403H8.20958C5.86016 71.0403 3.96875 69.1521 3.96875 66.8065V8.19278C3.96875 5.84726 5.86016 3.95898 8.20958 3.95898Z" fill="#009539"/>
<path d="M21 58.2363V15.1762H53.1844V22.4606H29.7641V32.0067H51.5559V39.2617H29.7641V50.9813H54.0134V58.2363H21Z" fill="white"/>
<path d="M67.9111 23.4299V15.7637H96.3648V21.7557C94.0159 24.0467 91.6275 27.3364 89.1996 31.6248C86.7717 35.9132 84.9162 40.4757 83.6332 45.3124C82.3699 50.1295 81.7481 54.4375 81.7679 58.2363H73.744C73.8822 52.2835 75.1158 46.2132 77.445 40.0254C79.794 33.8376 82.9226 28.3057 86.8309 23.4299H67.9111Z" fill="white"/>
<path d="M101.842 48.279L109.896 47.3979C110.093 49.0231 110.606 50.2274 111.436 51.0107C112.265 51.7939 113.36 52.1856 114.722 52.1856C116.439 52.1856 117.9 51.4023 119.104 49.8358C120.308 48.2692 121.078 45.0187 121.414 40.0841C119.321 42.4927 116.706 43.6969 113.567 43.6969C110.152 43.6969 107.202 42.3948 104.714 39.7904C102.247 37.1664 101.013 33.7592 101.013 29.5688C101.013 25.202 102.316 21.6871 104.922 19.024C107.547 16.3413 110.883 15 114.929 15C119.331 15 122.943 16.6938 125.766 20.0814C128.589 23.4495 130 29.0009 130 36.7356C130 44.6075 128.529 50.2862 125.588 53.7717C122.647 57.2572 118.818 59 114.1 59C110.705 59 107.961 58.109 105.869 56.3271C103.777 54.5256 102.435 51.8429 101.842 48.279ZM120.673 30.2443C120.673 27.5812 120.052 25.5154 118.808 24.0467C117.584 22.5781 116.163 21.8438 114.544 21.8438C113.005 21.8438 111.722 22.4508 110.695 23.6649C109.689 24.8594 109.185 26.8273 109.185 29.5688C109.185 32.3494 109.738 34.3956 110.843 35.7076C111.949 37 113.33 37.6462 114.989 37.6462C116.587 37.6462 117.93 37.0196 119.015 35.7664C120.121 34.5131 120.673 32.6725 120.673 30.2443Z" fill="white"/>
</g>
<defs>
<clipPath id="clip0_4_3439">
<rect width="150" height="75" fill="white"/>
</clipPath>
</defs>
</svg>
