<svg width="174" height="174" viewBox="0 0 174 174" fill="none" xmlns="http://www.w3.org/2000/svg">
<g clip-path="url(#clip0_4_3696)">
<g clip-path="url(#clip1_4_3696)">
<path fill-rule="evenodd" clip-rule="evenodd" d="M39.8101 27.4305C33.4357 27.4305 28.2925 32.5713 28.2925 38.9458V135.564C28.2925 141.938 33.4357 147.081 39.8101 147.081H136.426C142.8 147.081 147.943 141.938 147.943 135.564V38.9458C147.943 32.5713 142.8 27.4305 136.426 27.4305H39.8101ZM39.8101 28.143H136.426C142.417 28.143 147.228 32.9547 147.228 38.9458V135.564C147.228 141.555 142.417 146.366 136.426 146.366H39.8101C33.8191 146.366 29.0074 141.555 29.0074 135.564V38.9458C29.0074 32.9547 33.8191 28.143 39.8101 28.143Z" fill="black" fill-opacity="0.9799"/>
<path fill-rule="evenodd" clip-rule="evenodd" d="M39.8096 27.7866H136.425C142.608 27.7866 147.585 32.764 147.585 38.9468V135.563C147.585 141.745 142.608 146.723 136.425 146.723H39.8096C33.6269 146.723 28.6494 141.745 28.6494 135.563V38.9468C28.6494 32.764 33.6269 27.7866 39.8096 27.7866Z" fill="white"/>
<path fill-rule="evenodd" clip-rule="evenodd" d="M39.8038 30.4296H136.431C141.146 30.4296 144.942 34.2256 144.942 38.9409V135.569C144.942 140.284 141.146 144.08 136.431 144.08H39.8038C35.0885 144.08 31.2925 140.284 31.2925 135.569V38.9409C31.2925 34.2256 35.0885 30.4296 39.8038 30.4296Z" fill="#0070FD"/>
<path fill-rule="evenodd" clip-rule="evenodd" d="M91.0555 71.8417C91.0555 71.8417 90.6019 72.5243 90.6025 73.0931C90.6036 74.3437 91.2872 74.9113 92.6515 74.9097L93.1065 74.9092L103.441 72.2664L103.496 136.399L118.866 136.385L118.811 72.2527L129.396 74.8463C130.76 74.8453 131.442 74.2751 131.44 73.0245C131.44 72.4561 131.211 72.0015 131.098 71.7742L110.971 39.0593" fill="white"/>
<mask id="mask0_4_3696" style="mask-type:luminance" maskUnits="userSpaceOnUse" x="28" y="22" width="133" height="133">
<path d="M28 22H160.48V154.478H28V22Z" fill="white"/>
</mask>
<g mask="url(#mask0_4_3696)">
<mask id="mask1_4_3696" style="mask-type:luminance" maskUnits="userSpaceOnUse" x="38" y="37" width="54" height="102">
<path d="M38.2153 138.644H91.4274V37.858H38.2153V138.644Z" fill="white"/>
</mask>
<g mask="url(#mask1_4_3696)">
<path fill-rule="evenodd" clip-rule="evenodd" d="M64.0127 136.392L43.8252 103.616L43.8078 103.586C43.8078 103.585 43.8092 103.585 43.8092 103.585C43.262 102.637 42.9403 101.513 43.3433 100.403C44.0691 98.4088 46.3262 98.4703 48.3193 99.1974L55.4098 101L55.306 39.0593H72.2841L72.3276 100.935L80.2906 98.7952L80.292 98.7966C80.9058 98.5736 81.5823 98.4992 82.2718 98.6204C84.3623 98.9899 85.0603 99.9172 84.6908 102.008C84.6109 102.463 84.4494 102.88 84.2318 103.259C75.6524 118.489 64.0127 136.392 64.0127 136.392Z" fill="white"/>
<path fill-rule="evenodd" clip-rule="evenodd" d="M64.0126 132.489L46.4458 103.85L46.4284 103.82L46.4298 103.819C46.4298 103.819 44.5376 101.619 45.3216 100.967C46.0423 100.368 48.7119 101.59 50.338 101.803L57.4285 103.606L57.3614 41.0785H70.1918L70.3455 103.614L79.7844 101.157C79.7844 101.157 82.2175 100.247 82.648 100.917C83.0786 101.588 81.2128 104.123 81.2128 104.123L80.6111 105.089L64.0126 132.489Z" fill="#DC291B"/>
</g>
</g>
</g>
</g>
<defs>
<clipPath id="clip0_4_3696">
<rect width="174" height="174" fill="white"/>
</clipPath>
<clipPath id="clip1_4_3696">
<rect width="118" height="130" fill="white" transform="translate(28 22)"/>
</clipPath>
</defs>
</svg>
