<svg width="174" height="174" viewBox="0 0 174 174" fill="none" xmlns="http://www.w3.org/2000/svg">
<g clip-path="url(#clip0_4_4120)">
<g clip-path="url(#clip1_4_4120)">
<path fill-rule="evenodd" clip-rule="evenodd" d="M47.9601 22.1416C42.8023 22.1416 38.6406 26.3336 38.6406 31.5295V142.47C38.6406 147.666 42.8023 151.858 47.9601 151.858H126.04C131.198 151.858 135.359 147.666 135.359 142.47V31.5295C135.359 26.3336 131.198 22.1416 126.04 22.1416H47.9601ZM47.9601 22.7259H126.04C130.887 22.7259 134.779 26.6473 134.779 31.5295V142.47C134.779 147.352 130.887 151.274 126.04 151.274H47.9601C43.1137 151.274 39.2211 147.352 39.2211 142.47V31.5295C39.2211 26.6473 43.1137 22.7259 47.9601 22.7259Z" fill="black"/>
<path fill-rule="evenodd" clip-rule="evenodd" d="M47.9588 22.4341H126.039C131.041 22.4341 135.068 26.4908 135.068 31.5299V142.471C135.068 147.51 131.041 151.566 126.039 151.566H47.9588C42.9567 151.566 38.9297 147.51 38.9297 142.471V31.5299C38.9297 26.4908 42.9567 22.4341 47.9588 22.4341Z" fill="white"/>
<path fill-rule="evenodd" clip-rule="evenodd" d="M47.8918 24.5859H126.099C129.882 24.5859 132.928 27.6544 132.928 31.4658V142.534C132.928 146.345 129.882 149.414 126.099 149.414H47.8918C44.1084 149.414 41.0625 146.345 41.0625 142.534V31.4658C41.0625 27.6544 44.1084 24.5859 47.8918 24.5859Z" fill="#0070FD"/>
<path fill-rule="evenodd" clip-rule="evenodd" d="M50.4688 34.3276H123.534V107.933H50.4688V34.3276Z" fill="white"/>
<path fill-rule="evenodd" clip-rule="evenodd" d="M84.6424 46.4541C84.0803 46.4541 83.5237 46.5656 83.0044 46.7823C82.4851 46.999 82.0133 47.3166 81.6158 47.717C81.2184 48.1174 80.9031 48.5927 80.688 49.1159C80.4729 49.639 80.3622 50.1997 80.3622 50.7659C80.3622 51.9095 80.8132 53.0062 81.6159 53.8148C82.4186 54.6234 83.5072 55.0776 84.6424 55.0776C85.7775 55.0776 86.8662 54.6234 87.6689 53.8148C88.4716 53.0062 88.9226 51.9095 88.9226 50.7659C88.9226 50.1997 88.8119 49.639 88.5968 49.1159C88.3817 48.5927 88.0664 48.1174 87.6689 47.717C87.2715 47.3166 86.7997 46.999 86.2804 46.7823C85.7611 46.5656 85.2045 46.4541 84.6424 46.4541ZM89.7643 54.2927C88.6949 54.3126 87.6801 54.4842 86.4816 54.8288C85.3012 55.1131 84.7107 55.3973 84.2582 55.7271C83.8057 56.0568 83.4969 56.4246 82.8647 56.8827L82.8696 56.8798C82.6018 57.0343 82.4581 57.367 82.397 57.8168C82.3359 58.2667 82.3567 58.8412 82.4343 59.5022C82.5895 60.8242 82.9734 62.4921 83.4032 64.1751C83.8329 65.8581 84.3091 67.5555 84.6484 68.9317C84.8181 69.6198 84.9533 70.2279 85.0318 70.712C85.1098 71.1931 85.1271 71.5528 85.0773 71.7326L79.0466 80.0091L87.4255 92.5806L87.4265 92.5816C87.7123 92.9686 88.1691 93.1455 88.6724 93.1808C89.1756 93.2162 89.7292 93.1127 90.2284 92.9336C90.7275 92.7544 91.1719 92.5003 91.4565 92.2259C91.5988 92.0888 91.702 91.9462 91.7489 91.8002C91.7957 91.6543 91.7815 91.5021 91.6907 91.3718L85.3176 80.9441L92.6138 73.9972L92.6148 73.9965C92.9399 73.6665 93.0665 72.9586 93.0944 72.0206C93.1223 71.0826 93.0419 69.9133 92.9077 68.6703C92.6479 66.2626 92.1932 63.6293 91.9282 61.8369L93.9265 64.3267C94.2277 64.9026 94.2696 65.9591 94.239 67.1665C94.2085 68.3747 94.1116 69.7349 94.1637 70.937C94.1637 71.5676 94.3964 72.0488 94.7485 72.368C95.1005 72.6872 95.5692 72.8455 96.0418 72.8455C96.9869 72.8455 97.9559 72.2018 98.0343 70.9407V70.9387L98.0653 63.1869L98.0634 63.1888C98.1381 62.6699 97.8692 62.021 97.3965 61.2918C96.922 60.5596 96.2387 59.7475 95.4691 58.9205C93.9298 57.2664 92.0456 55.5543 90.807 54.3341L90.7904 54.3183L90.7676 54.3163C90.5839 54.3047 90.4038 54.297 90.2258 54.2932C90.0702 54.2902 89.9171 54.2904 89.7643 54.2927ZM83.5026 66.436L83.4318 66.494L77.6129 71.2461C76.4152 72.2152 76.4119 73.3973 76.9604 74.1311C77.509 74.8648 78.6066 75.1501 79.5397 74.3702L84.6245 70.2263L83.5026 66.436ZM78.8379 80.786L78.8 80.9025L74.1936 95.0333C74.0312 95.5688 74.2103 96.0093 74.568 96.3203C74.9258 96.6312 75.4565 96.824 76.0139 96.9078C76.5712 96.9917 77.1558 96.9659 77.6256 96.8276C78.0954 96.6893 78.4596 96.4335 78.538 96.0481L82.0491 85.3869L78.8379 80.786ZM104.602 85.9937V86.0556V89.7004H94.8568V93.5448H83.1944V97.0966H72.2306V100.925L60.9688 100.863V104.831H76.7321V100.987L87.9964 101.049V97.5122H98.9539V93.6679H110.616V89.9612H120.355V85.9938L104.602 85.9937Z" fill="black"/>
</g>
</g>
<defs>
<clipPath id="clip0_4_4120">
<rect width="174" height="174" fill="white"/>
</clipPath>
<clipPath id="clip1_4_4120">
<rect width="97" height="130" fill="white" transform="translate(38.5 22)"/>
</clipPath>
</defs>
</svg>
