<svg width="174" height="174" viewBox="0 0 174 174" fill="none" xmlns="http://www.w3.org/2000/svg">
<g clip-path="url(#clip0_4_3880)">
<g clip-path="url(#clip1_4_3880)">
<path fill-rule="evenodd" clip-rule="evenodd" d="M19.7982 22.0801C16.9091 22.0801 14.5781 24.401 14.5781 27.278V146.723C14.5781 149.6 16.9091 151.921 19.7982 151.921H154.199C157.088 151.921 159.418 149.6 159.418 146.723V27.278C159.418 24.401 157.088 22.0801 154.199 22.0801H19.7982ZM19.7982 22.4025H154.199C156.914 22.4025 159.095 24.5741 159.095 27.278V146.723C159.095 149.427 156.914 151.599 154.199 151.599H19.7982C17.0829 151.599 14.9019 149.427 14.9019 146.723V27.278C14.9019 24.5741 17.0829 22.4025 19.7982 22.4025Z" fill="black"/>
<path fill-rule="evenodd" clip-rule="evenodd" d="M19.8003 22.2422H154.201C157.003 22.2422 159.259 24.4886 159.259 27.279V146.724C159.259 149.514 157.003 151.761 154.201 151.761H19.8003C16.9981 151.761 14.7422 149.514 14.7422 146.724V27.279C14.7422 24.4886 16.9981 22.2422 19.8003 22.2422Z" fill="white"/>
<path fill-rule="evenodd" clip-rule="evenodd" d="M19.7966 24.3994H154.197C155.798 24.3994 157.087 25.6831 157.087 27.2776V146.722C157.087 148.317 155.798 149.601 154.197 149.601H19.7966C18.1953 149.601 16.9062 148.317 16.9062 146.722V27.2776C16.9062 25.6831 18.1953 24.3994 19.7966 24.3994Z" fill="#0070FD"/>
<path fill-rule="evenodd" clip-rule="evenodd" d="M86.1258 33.2451L86.0248 33.4488L75.4352 54.7756C75.1764 55.2984 75.2017 55.8508 75.4312 56.2421C75.6608 56.6335 76.1123 56.8573 76.6335 56.705L82.4147 55.007V140.353H89.5793V54.9186L95.4134 56.6666C95.9975 56.8613 96.535 56.7107 96.8033 56.3073C97.0725 55.9007 97.0645 55.2725 96.6704 54.5492L86.1258 33.2451Z" fill="white"/>
<path fill-rule="evenodd" clip-rule="evenodd" d="M84.8594 80.1914V88.7379L125.966 115.738V140.413H133.131V111.878L125.966 107.173V107.192L84.8594 80.1914Z" fill="white"/>
<path fill-rule="evenodd" clip-rule="evenodd" d="M41.0399 33.2451L40.9384 33.4488L30.3493 54.7761C30.0905 55.2989 30.1157 55.8507 30.3453 56.2421C30.5749 56.6335 31.0264 56.8572 31.5476 56.705L37.3288 55.0075V140.446H44.4934V54.9186L50.3274 56.6671C50.9116 56.8618 51.4491 56.7107 51.7174 56.3073C51.9866 55.9007 51.9786 55.2724 51.5845 54.5492L41.0399 33.2451Z" fill="white"/>
</g>
</g>
<defs>
<clipPath id="clip0_4_3880">
<rect width="174" height="174" fill="white"/>
</clipPath>
<clipPath id="clip1_4_3880">
<rect width="145" height="130" fill="white" transform="translate(14.5 22)"/>
</clipPath>
</defs>
</svg>
