<svg width="310" height="160" viewBox="0 0 310 160" fill="none" xmlns="http://www.w3.org/2000/svg">
<g clip-path="url(#clip0_4_3329)">
<path d="M0 0H310V160H0V0Z" fill="white"/>
<g clip-path="url(#clip1_4_3329)">
<path fill-rule="evenodd" clip-rule="evenodd" d="M102.665 15.189C95.7593 15.189 90.1875 20.7582 90.1875 27.6639V132.333C90.1875 139.239 95.7593 144.811 102.665 144.811H207.332C214.237 144.811 219.809 139.239 219.809 132.333V27.6639C219.809 20.7582 214.237 15.189 207.332 15.189H102.665ZM102.665 15.9609H207.332C213.822 15.9609 219.035 21.1736 219.035 27.6639V132.333C219.035 138.823 213.822 144.036 207.332 144.036H102.665C96.1747 144.036 90.9619 138.823 90.9619 132.333V27.6639C90.9619 21.1736 96.1747 15.9609 102.665 15.9609Z" fill="black" fill-opacity="0.9799"/>
<path fill-rule="evenodd" clip-rule="evenodd" d="M102.661 15.5747H207.327C214.025 15.5747 219.417 20.9669 219.417 27.6649V132.332C219.417 139.03 214.025 144.422 207.327 144.422H102.661C95.9625 144.422 90.5703 139.03 90.5703 132.332V27.6649C90.5703 20.9669 95.9625 15.5747 102.661 15.5747Z" fill="white"/>
<path fill-rule="evenodd" clip-rule="evenodd" d="M102.658 18.438H207.337C212.446 18.438 216.558 22.5504 216.558 27.6586V132.339C216.558 137.447 212.446 141.559 207.337 141.559H102.658C97.5499 141.559 93.4375 137.447 93.4375 132.339V27.6586C93.4375 22.5504 97.5499 18.438 102.658 18.438Z" fill="#0070FD"/>
<path fill-rule="evenodd" clip-rule="evenodd" d="M98.6328 126.188H212.614L155.624 26.874L98.6328 126.188Z" fill="white"/>
<path opacity="0.999883" fill-rule="evenodd" clip-rule="evenodd" d="M153.871 47.5569C153.353 47.5543 152.968 48.1104 152.968 48.8631C152.968 49.6539 152.395 50.293 151.685 50.293C150.549 50.293 150.701 51.4561 151.921 52.0863C152.54 52.4065 152.547 52.4292 152.547 54.1847V55.9599L153.47 56.5949C154.434 57.2584 154.654 57.5914 154.654 58.3915C154.654 59.1498 153.929 59.8831 152.114 60.9623C151.189 61.512 150.302 62.1601 150.144 62.4016C149.986 62.643 149.702 63.5879 149.513 64.5007C149.073 66.625 148.533 67.686 146.948 69.542C145.503 71.234 143.802 72.8335 140.429 75.6692C138.151 77.5847 138.088 77.6202 136.808 77.7314C136.091 77.7945 135.404 77.9073 135.28 77.9836C135.156 78.0598 135.055 78.6619 135.056 79.3212C135.057 81.8875 136.98 83.2377 138.152 81.4952C138.541 80.9158 138.777 80.7782 139.431 80.7464C139.946 80.7213 141.275 80.1835 143.144 79.2442C145.744 77.9377 146.296 77.5591 148.301 75.7005C150.828 73.3567 151.755 72.7773 152.201 73.2642C152.385 73.4653 152.636 75.3186 152.942 78.7297L153.403 83.8901L151.722 87.2102C150.798 89.0362 149.667 91.074 149.211 91.7389C148.644 92.5641 148.233 93.5167 147.917 94.7387C147.662 95.7234 147.073 97.8562 146.607 99.4781C146.141 101.1 145.45 103.659 145.071 105.165C144.568 107.165 144.29 107.922 144.039 107.971C143.85 108.009 143.172 107.784 142.532 107.471C141.648 107.038 141.184 106.932 140.601 107.026C139.205 107.253 139.245 107.499 140.941 109.099L142.508 110.578L143.835 110.435L145.162 110.293L145.512 111.027C145.861 111.759 146.396 112.011 147.598 112.011C148.138 112.011 148.238 111.828 148.441 110.478C148.572 109.604 148.643 109.511 149.279 109.392C149.662 109.32 150.079 109.136 150.207 108.982C150.334 108.829 150.915 106.959 151.498 104.827C152.433 101.405 152.725 100.644 154.001 98.3189C156.701 93.3972 157.496 92.2089 158.087 92.211C158.227 92.2113 158.884 93.2782 159.545 94.5811C160.207 95.8839 162.098 99.4144 163.747 102.427C166.908 108.196 167.202 109.016 166.34 109.63C166.114 109.791 165.526 110.203 165.033 110.547C163.926 111.319 163.851 111.91 164.822 112.209C166.03 112.579 168.054 112.339 168.95 111.718C169.55 111.303 170.005 111.169 170.808 111.169C171.393 111.169 172.171 111.064 172.536 110.937C173.153 110.722 173.199 110.637 173.199 109.721C173.199 109.179 173.058 108.534 172.886 108.289C172.709 108.035 172.589 107.447 172.608 106.925C172.638 106.122 172.269 105.296 169.665 100.321C168.027 97.1926 166.374 93.875 165.992 92.9482C165.314 91.3063 165.297 91.1872 165.313 88.3138C165.323 86.6919 165.406 84.0835 165.499 82.5178C165.688 79.3341 165.434 76.3644 164.746 73.7401C164.238 71.8009 164.276 70.2359 164.833 70.1301C165.474 70.0085 166.088 70.5733 169.936 74.8268C173.283 78.5265 173.649 79.0055 173.607 79.6231C173.523 80.8325 173.612 81.248 174.042 81.6787C175.164 82.7997 177.819 81.6056 178.176 79.8192C178.297 79.2165 178.214 79.0445 177.456 78.3236C176.853 77.7506 176.374 76.9668 175.841 75.6786C173.144 69.1674 169.076 63.5335 165.38 61.1912C163.955 60.2884 163.066 59.9821 161.872 59.9821C161.086 59.9821 160.817 59.8661 160.217 59.2661C159.609 58.6584 159.501 58.4022 159.501 57.5785C159.501 56.1165 160.304 52.785 160.777 52.281C161.303 51.7225 161.3 51.0966 160.77 50.7661C160.541 50.623 160.16 50.1262 159.923 49.6621C159.537 48.9061 159.411 48.8176 158.707 48.8156C158.274 48.8143 157.114 48.5313 156.129 48.1865C155.144 47.8423 154.128 47.5582 153.871 47.5569ZM120.53 107.051L104.312 122.737H119.391L130.983 107.051H120.53ZM160.498 107.051L163.182 122.737H178.261L173.175 111.822C172.154 111.835 171.164 111.853 170.492 111.999C169.744 112.16 169.389 112.468 168.949 112.634C168.509 112.8 167.984 112.822 167.253 112.851C166.522 112.876 165.584 112.914 164.927 112.708C164.27 112.503 163.893 112.057 163.813 111.628C163.733 111.2 163.95 110.788 164.464 110.377C164.978 109.965 165.79 109.554 166.07 108.948C166.314 108.421 166.152 107.745 165.94 107.051L160.498 107.051ZM179.684 107.051L191.275 122.737H206.354L190.137 107.051H179.684ZM151.27 108.623C150.601 109.212 149.588 109.577 149.243 109.891C149.024 110.091 148.936 110.266 148.863 110.458C148.789 110.65 148.911 111.322 148.764 111.548C148.472 112.001 147.886 112.409 147.359 112.561C146.832 112.713 146.376 112.559 145.916 112.233C145.456 111.909 144.96 111.434 144.481 111.283C144 111.132 143.392 111.278 142.467 110.945C141.803 110.706 141.002 109.574 140.164 109.029L133.776 122.737H148.855L151.27 108.623Z" fill="black"/>
</g>
</g>
<defs>
<clipPath id="clip0_4_3329">
<path d="M0 0H310V160H0V0Z" fill="white"/>
</clipPath>
<clipPath id="clip1_4_3329">
<rect width="130" height="130" fill="white" transform="translate(90 15)"/>
</clipPath>
</defs>
</svg>
