<svg width="310" height="160" viewBox="0 0 310 160" fill="none" xmlns="http://www.w3.org/2000/svg">
<g clip-path="url(#clip0_4_3104)">
<path d="M0 0H310V160H0V0Z" fill="white"/>
<g clip-path="url(#clip1_4_3104)">
<path d="M161.723 19.0016C160.404 16.7256 157.825 15.3018 154.995 15.3018C152.113 15.3018 149.533 16.8034 148.189 19.1228L82.4504 132.624C81.0396 135.06 80.8307 138.128 82.34 140.734C83.7807 143.221 86.3756 144.698 89.0625 144.698H220.927C223.614 144.698 226.209 143.221 227.649 140.734C229.159 138.128 228.95 135.06 227.539 132.624L161.723 19.0016Z" fill="white" stroke="black" stroke-width="0.719" stroke-miterlimit="2" stroke-linecap="round" stroke-linejoin="round"/>
<path d="M155 17.7559C153.046 17.7559 151.348 18.7776 150.494 20.2528L84.7568 133.752C83.7727 135.451 83.642 137.477 84.646 139.21C85.6231 140.897 87.3544 141.845 89.0632 141.845H220.931C222.64 141.845 224.371 140.897 225.348 139.21C226.352 137.477 226.221 135.451 225.237 133.752L159.423 20.1313C158.615 18.7374 156.935 17.7559 155 17.7559ZM205.351 127.703H104.643L154.994 40.7696L205.351 127.703Z" fill="#DD2414"/>
<path fill-rule="evenodd" clip-rule="evenodd" d="M160.91 117.516C161.064 117.516 161.179 117.633 161.451 117.734C161.746 118.058 161.995 118.391 162.287 118.832C161.995 118.832 161.605 118.832 161.179 118.832C161.064 118.509 160.779 118.175 160.484 117.734C160.638 117.734 160.779 117.633 160.91 117.516Z" fill="black"/>
<path fill-rule="evenodd" clip-rule="evenodd" d="M162.367 120.086C162.911 120.086 163.452 120.2 164.166 120.302C164.166 120.533 164.166 120.857 164.166 121.19C163.74 121.076 163.337 120.857 162.77 120.625C162.639 120.533 162.485 120.302 162.367 120.086Z" fill="black"/>
<path fill-rule="evenodd" clip-rule="evenodd" d="M164.16 118.985C164.298 118.776 164.547 118.446 164.842 118.119C165.399 118.119 165.94 118.119 166.484 118.119C166.484 118.214 166.366 118.328 166.235 118.544C165.94 118.544 165.514 118.544 165.127 118.661C165.127 118.985 165.127 119.318 165.127 119.759C164.842 119.759 164.547 119.759 164.16 119.645C164.003 119.527 163.872 119.435 163.734 119.204C163.872 119.204 164.003 119.102 164.16 118.985Z" fill="black"/>
<path fill-rule="evenodd" clip-rule="evenodd" d="M166.871 120.55C167.009 120.55 167.117 120.648 167.412 120.765C167.7 121.089 167.969 121.422 168.241 121.863C167.969 121.863 167.543 121.863 167.117 121.863C167.009 121.54 166.74 121.206 166.445 120.765C166.583 120.765 166.74 120.648 166.871 120.55Z" fill="black"/>
<path fill-rule="evenodd" clip-rule="evenodd" d="M168.32 123.123C168.861 123.123 169.428 123.218 170.1 123.332C170.1 123.548 170.1 123.874 170.1 124.207C169.674 124.106 169.287 123.874 168.73 123.665C168.576 123.548 168.458 123.332 168.32 123.123Z" fill="black"/>
<path fill-rule="evenodd" clip-rule="evenodd" d="M170.098 122.019C170.255 121.788 170.511 121.461 170.796 121.167C171.363 121.167 171.904 121.167 172.461 121.167C172.461 121.268 172.33 121.36 172.176 121.579C171.904 121.579 171.478 121.579 171.068 121.693C171.068 122.019 171.068 122.349 171.068 122.79C170.796 122.79 170.511 122.79 170.098 122.676C169.967 122.558 169.829 122.467 169.672 122.235C169.829 122.235 169.967 122.134 170.098 122.019Z" fill="black"/>
<path fill-rule="evenodd" clip-rule="evenodd" d="M167.543 117.038C167.684 117.038 167.838 117.152 168.087 117.247C168.382 117.577 168.651 117.904 168.939 118.351C168.651 118.351 168.225 118.351 167.838 118.351C167.684 118.018 167.412 117.695 167.117 117.247C167.274 117.247 167.412 117.152 167.543 117.038Z" fill="black"/>
<path fill-rule="evenodd" clip-rule="evenodd" d="M169 119.605C169.541 119.605 170.098 119.72 170.796 119.821C170.796 120.053 170.796 120.38 170.796 120.703C170.393 120.589 169.967 120.38 169.426 120.148C169.285 120.053 169.131 119.821 169 119.605Z" fill="black"/>
<path fill-rule="evenodd" clip-rule="evenodd" d="M161.145 121.036C161.282 121.036 161.413 121.128 161.708 121.245C161.957 121.578 162.252 121.902 162.521 122.349C162.252 122.349 161.826 122.349 161.413 122.349C161.282 122.019 160.987 121.693 160.719 121.245C160.856 121.245 160.987 121.128 161.145 121.036Z" fill="black"/>
<path fill-rule="evenodd" clip-rule="evenodd" d="M162.594 123.604C163.151 123.604 163.695 123.705 164.376 123.819C164.376 124.028 164.376 124.361 164.376 124.688C163.964 124.593 163.538 124.361 162.997 124.146C162.866 124.028 162.725 123.819 162.594 123.604Z" fill="black"/>
<path fill-rule="evenodd" clip-rule="evenodd" d="M164.382 122.522C164.513 122.313 164.808 121.98 165.053 121.653C165.637 121.653 166.177 121.653 166.744 121.653C166.744 121.748 166.587 121.862 166.449 122.081C166.177 122.081 165.774 122.081 165.348 122.196C165.348 122.522 165.348 122.829 165.348 123.28C165.053 123.28 164.808 123.28 164.382 123.162C164.241 123.048 164.126 122.947 163.969 122.738C164.126 122.738 164.241 122.636 164.382 122.522Z" fill="black"/>
<path fill-rule="evenodd" clip-rule="evenodd" d="M175.93 119.668C176.572 119.668 177.231 119.782 178.043 119.9C178.043 120.109 178.043 120.432 178.043 120.765C177.555 120.648 177.077 120.432 176.418 120.223C176.264 120.109 176.084 119.9 175.93 119.668Z" fill="black"/>
<path fill-rule="evenodd" clip-rule="evenodd" d="M178.043 118.561C178.213 118.352 178.548 118.019 178.895 117.695C179.531 117.695 180.189 117.695 180.848 117.695C180.848 117.81 180.694 117.904 180.524 118.136C180.189 118.136 179.711 118.136 179.223 118.238C179.223 118.561 179.223 118.894 179.223 119.335C178.895 119.335 178.548 119.335 178.043 119.244C177.889 119.126 177.735 119.008 177.555 118.793C177.735 118.793 177.889 118.678 178.043 118.561Z" fill="black"/>
<path fill-rule="evenodd" clip-rule="evenodd" d="M173.669 120.239C173.823 120.239 174 120.341 174.328 120.455C174.659 120.781 174.964 121.115 175.295 121.556C174.964 121.556 174.482 121.556 174 121.556C173.823 121.229 173.499 120.896 173.188 120.455C173.345 120.455 173.499 120.341 173.669 120.239Z" fill="black"/>
<path fill-rule="evenodd" clip-rule="evenodd" d="M175.391 122.829C176.046 122.829 176.705 122.947 177.521 123.048C177.521 123.28 177.521 123.587 177.521 123.914C177.016 123.796 176.534 123.587 175.876 123.371C175.722 123.28 175.545 123.048 175.391 122.829Z" fill="black"/>
<path fill-rule="evenodd" clip-rule="evenodd" d="M177.52 121.732C177.674 121.516 178.009 121.19 178.333 120.856C178.992 120.856 179.65 120.856 180.293 120.856C180.293 120.958 180.139 121.075 179.958 121.284C179.65 121.284 179.146 121.284 178.664 121.399C178.664 121.732 178.664 122.055 178.664 122.506C178.333 122.506 178.009 122.506 177.52 122.388C177.35 122.274 177.193 122.173 177.016 121.941C177.193 121.941 177.35 121.849 177.52 121.732Z" fill="black"/>
<path fill-rule="evenodd" clip-rule="evenodd" d="M180.832 118.894C180.989 118.894 181.16 119.008 181.491 119.125C181.815 119.449 182.149 119.782 182.461 120.223C182.149 120.223 181.645 120.223 181.16 120.223C180.989 119.9 180.678 119.566 180.344 119.125C180.501 119.125 180.678 119.008 180.832 118.894Z" fill="black"/>
<path fill-rule="evenodd" clip-rule="evenodd" d="M182.531 121.5C183.183 121.5 183.865 121.591 184.678 121.709C184.678 121.925 184.678 122.251 184.678 122.581C184.189 122.483 183.672 122.251 183.013 122.042C182.859 121.925 182.702 121.709 182.531 121.5Z" fill="black"/>
<path fill-rule="evenodd" clip-rule="evenodd" d="M184.684 120.393C184.838 120.161 185.165 119.837 185.496 119.511C186.155 119.511 186.814 119.511 187.449 119.511C187.449 119.628 187.295 119.743 187.138 119.952C186.814 119.952 186.309 119.952 185.824 120.069C185.824 120.393 185.824 120.726 185.824 121.167C185.496 121.167 185.165 121.167 184.684 121.052C184.49 120.935 184.349 120.821 184.195 120.611C184.349 120.611 184.49 120.494 184.684 120.393Z" fill="black"/>
<path fill-rule="evenodd" clip-rule="evenodd" d="M181.505 121.823C181.659 121.823 181.839 121.925 182.164 122.042C182.495 122.365 182.823 122.699 183.131 123.14C182.823 123.14 182.318 123.14 181.839 123.14C181.659 122.813 181.351 122.483 181.023 122.042C181.181 122.042 181.351 121.924 181.505 121.823Z" fill="black"/>
<path fill-rule="evenodd" clip-rule="evenodd" d="M183.227 124.417C183.885 124.417 184.541 124.515 185.357 124.633C185.357 124.842 185.357 125.165 185.357 125.498C184.875 125.397 184.37 125.165 183.715 124.956C183.558 124.842 183.404 124.633 183.227 124.417Z" fill="black"/>
<path fill-rule="evenodd" clip-rule="evenodd" d="M185.357 123.316C185.511 123.101 185.845 122.754 186.169 122.428C186.828 122.428 187.487 122.428 188.129 122.428C188.129 122.545 187.975 122.66 187.795 122.869C187.487 122.869 186.982 122.869 186.504 122.986C186.504 123.316 186.504 123.643 186.504 124.09C186.169 124.09 185.845 124.09 185.357 123.976C185.186 123.858 185.029 123.757 184.875 123.525C185.029 123.525 185.186 123.434 185.357 123.316Z" fill="black"/>
<path fill-rule="evenodd" clip-rule="evenodd" d="M119.102 116.942V121.037V121.114H159.151V116.942L119.102 116.942Z" fill="black"/>
<path fill-rule="evenodd" clip-rule="evenodd" d="M150.54 90.4538C157.953 90.9731 164.808 91.9399 171.887 93.2922C173.204 96.4181 174.119 99.1487 174.289 102.451C168.62 101.422 165.248 100.903 160.584 100.246C155.898 99.5897 151.081 99.1487 146.319 98.7763C147.289 95.3173 148.508 93.7168 150.54 90.4538ZM141.115 100.609C144.848 94.8012 148.063 88.0171 151.065 88.0726C154.079 88.1706 158.248 88.6736 161.839 89.1538C165.48 89.6404 169.678 90.4309 172.664 91.0123C175.606 91.5904 176.766 97.2673 178.975 105.636C179.827 108.938 177.697 112.204 176.743 114.445C176.55 116.186 176.226 117.515 175.721 119.181L170.415 118.482L170.183 113.89L147.538 110.872L146.359 115.337L141.325 114.677C141.25 111.956 141.211 110.542 141.286 108.824C140.765 106.449 139.621 102.967 141.115 100.609Z" fill="black"/>
</g>
</g>
<defs>
<clipPath id="clip0_4_3104">
<path d="M0 0H310V160H0V0Z" fill="white"/>
</clipPath>
<clipPath id="clip1_4_3104">
<rect width="148" height="130" fill="white" transform="translate(81 15)"/>
</clipPath>
</defs>
</svg>
