<svg width="310" height="160" viewBox="0 0 310 160" fill="none" xmlns="http://www.w3.org/2000/svg">
<g clip-path="url(#clip0_4_3309)">
<path d="M0 0H310V160H0V0Z" fill="white"/>
<g clip-path="url(#clip1_4_3309)">
<path d="M161.73 19.0016C160.412 16.7256 157.832 15.3018 155.002 15.3018C152.121 15.3018 149.541 16.8034 148.197 19.1228L82.4583 132.624C81.0474 135.06 80.8385 138.128 82.3478 140.734C83.7885 143.221 86.3834 144.698 89.0703 144.698H220.935C223.622 144.698 226.216 143.221 227.657 140.734C229.167 138.128 228.958 135.06 227.547 132.624L161.73 19.0016Z" fill="#FFE51A" stroke="black" stroke-width="0.719" stroke-miterlimit="2" stroke-linecap="round" stroke-linejoin="round"/>
<path d="M155.008 17.7554C153.054 17.7554 151.356 18.7771 150.502 20.2523L84.7647 133.752C83.7805 135.451 83.6498 137.476 84.6538 139.21C85.631 140.897 87.3622 141.845 89.071 141.845H220.939C222.647 141.845 224.379 140.897 225.356 139.21C226.36 137.476 226.229 135.451 225.245 133.752L159.43 20.1308C158.623 18.737 156.942 17.7554 155.008 17.7554ZM205.359 127.703H104.65L155.002 40.7691L205.359 127.703Z" fill="#DD2414"/>
<path fill-rule="evenodd" clip-rule="evenodd" d="M156.801 75.8058C156.604 75.8072 156.419 75.8184 156.247 75.8389C155.556 75.9209 155.055 76.1551 154.698 76.5214C153.988 77.2505 153.86 78.4824 153.859 80.0419C153.767 80.2377 153.553 80.4447 153.301 80.6078C153.056 80.7663 152.78 80.878 152.554 80.9188C152.349 80.7207 152.206 80.5031 152.024 80.2795C151.835 80.0473 151.6 79.8126 151.205 79.6042C151.204 79.6042 151.204 79.6042 151.204 79.6042C150.437 79.2265 149.029 79.106 147.348 79.2025C145.666 79.2989 143.715 79.6157 141.882 80.1312C140.048 80.6467 138.334 81.3606 137.123 82.2536C135.912 83.1466 135.2 84.2281 135.408 85.4659V90.4522L133.629 94.3816C133.624 94.3926 133.622 94.405 133.625 94.4167C133.628 94.4285 133.635 94.4389 133.644 94.4464L135.927 96.2995C135.467 98.3349 135.336 100.224 135.44 101.66C135.493 102.383 135.603 102.99 135.762 103.448C135.913 103.882 136.115 104.159 136.357 104.289V106.963C136.137 106.983 135.95 107.073 135.829 107.232C135.695 107.408 135.621 107.638 135.593 107.866C135.566 108.094 135.584 108.322 135.647 108.498C135.678 108.586 135.721 108.662 135.777 108.718C135.817 108.759 135.874 108.77 135.928 108.783C135.924 110.796 135.354 113.249 135.167 115.276C135.073 116.293 135.076 117.205 135.303 117.903C135.523 118.582 135.977 119.046 136.733 119.201L136.363 120.499C136.14 120.602 135.982 120.735 135.889 120.894C135.791 121.062 135.75 121.252 135.723 121.45C135.672 121.828 135.651 122.234 135.431 122.61C134.251 122.181 133.333 121.285 132.935 119.571C132.933 119.559 132.926 119.548 132.917 119.54C132.907 119.532 132.895 119.528 132.883 119.528C131.061 119.528 130.163 119.093 129.493 118.54C128.822 117.987 128.377 117.303 127.482 116.825C127.474 116.821 127.465 116.819 127.456 116.819C126.557 116.819 125.963 117.271 125.433 117.833C124.904 118.395 124.432 119.068 123.763 119.538C123.755 119.543 123.749 119.551 123.745 119.561C123.542 120.03 123.101 120.937 122.661 121.725C122.441 122.119 122.22 122.483 122.031 122.747C121.937 122.879 121.85 122.985 121.777 123.057C121.704 123.128 121.644 123.159 121.623 123.159C121.615 123.159 121.607 123.16 121.6 123.164C121.592 123.167 121.586 123.172 121.581 123.178L119.178 125.902C119.171 125.91 119.166 125.919 119.165 125.93C119.163 125.94 119.164 125.951 119.169 125.96C119.173 125.97 119.18 125.978 119.189 125.984C119.198 125.99 119.208 125.993 119.219 125.993L193.376 125.862C193.385 125.861 193.395 125.859 193.403 125.854C193.411 125.849 193.418 125.842 193.423 125.834C193.427 125.826 193.43 125.816 193.43 125.807C193.429 125.797 193.427 125.788 193.422 125.779L190.976 121.697C190.707 120.691 189.69 118.872 188.331 116.99C186.967 115.102 185.263 113.16 183.633 111.955C183.626 111.95 183.618 111.946 183.609 111.945C182.049 111.709 181.107 111.339 180.527 110.916C179.948 110.492 179.728 110.017 179.611 109.551C179.495 109.084 179.489 108.627 179.333 108.249C179.177 107.871 178.859 107.582 178.163 107.477C178.157 107.476 178.152 107.476 178.147 107.477L175.457 107.889C175.443 107.891 175.43 107.899 175.422 107.911C173.858 109.93 172.216 110.788 170.58 110.602C168.944 110.415 167.298 109.176 165.745 106.959C165.738 106.95 165.729 106.943 165.719 106.939C163.214 106.06 160.712 105.451 158.962 104.724C158.087 104.361 157.401 103.968 156.998 103.505C156.595 103.041 156.467 102.514 156.7 101.846C156.703 101.839 156.704 101.831 156.703 101.824C156.703 101.817 156.701 101.809 156.698 101.803C156.694 101.796 156.689 101.79 156.684 101.786C156.678 101.781 156.671 101.777 156.664 101.775L155.322 101.384L155.306 99.8214C155.306 99.8129 155.304 99.8046 155.3 99.797C154.081 97.4624 153.704 95.8287 153.771 94.5803C153.837 93.3319 154.345 92.4644 154.913 91.6559C155.481 90.8474 156.111 90.0997 156.4 89.0987C156.686 88.1085 156.624 86.867 155.859 85.0987L156.622 84.6999C157.856 84.8707 158.739 84.7848 159.415 84.3687C160.087 83.9545 160.549 83.2164 160.966 82.1168C161.834 82.1122 162.552 81.9688 162.96 81.5811C163.167 81.3842 163.291 81.1244 163.309 80.8007C163.327 80.4771 163.241 80.0903 163.036 79.6301C163.035 79.6271 163.033 79.6242 163.03 79.6215C161.975 78.0643 160.36 76.7039 158.958 76.065C158.955 76.0637 158.951 76.0627 158.948 76.0621C158.102 75.8846 157.394 75.8016 156.801 75.8058ZM150.272 92.3831C149.461 94.4154 150.281 95.7533 150.705 97.0079C149.392 96.9726 148.138 96.2086 147.718 94.4219L150.272 92.3831ZM144.047 103.019L148.547 107.012L147.601 116.042L145.301 119.553C145.294 119.564 145.291 119.577 145.293 119.59C145.294 119.602 145.3 119.614 145.31 119.623L147.228 121.378C147.236 121.385 147.247 121.39 147.258 121.392C147.269 121.393 147.28 121.392 147.29 121.386L148.064 120.998L149.307 122.641H144.027L140.564 119.98L141.858 118.668C141.867 118.659 141.872 118.648 141.873 118.636L144.047 103.019ZM155.852 105.699L164.302 108.798C165.114 111.991 167.377 113.354 169.53 113.785L166.879 116.409C166.874 116.414 166.869 116.42 166.867 116.427C166.864 116.433 166.862 116.44 166.862 116.448C166.862 116.455 166.864 116.462 166.867 116.469C166.869 116.475 166.874 116.481 166.879 116.487L168.186 117.804C167.356 118.193 166.717 118.526 166.3 118.859C165.876 119.197 165.659 119.547 165.649 119.959C165.654 119.955 165.657 119.951 165.662 119.947L165.647 119.985C165.647 119.976 165.649 119.968 165.649 119.959C165.178 120.427 164.871 120.803 164.543 121.028C164.211 121.255 163.855 121.339 163.243 121.224C163.235 121.222 163.227 121.223 163.219 121.225C163.211 121.227 163.204 121.231 163.198 121.237C161.979 122.254 161.247 122.728 160.492 122.789C159.737 122.85 158.937 122.499 157.58 121.834C157.568 121.828 157.554 121.826 157.541 121.83L156.197 122.214C155.344 122.214 154.093 121.55 153.308 120.72C152.916 120.304 152.64 119.849 152.579 119.424C152.519 119.008 152.665 118.622 153.106 118.298L154.838 119.221C154.845 119.225 154.852 119.227 154.86 119.228C154.867 119.228 154.875 119.227 154.882 119.225C154.889 119.222 154.896 119.219 154.902 119.213C154.907 119.208 154.912 119.202 154.915 119.195C156.252 116.077 156.25 109.769 155.852 105.699Z" fill="black"/>
</g>
</g>
<defs>
<clipPath id="clip0_4_3309">
<path d="M0 0H310V160H0V0Z" fill="white"/>
</clipPath>
<clipPath id="clip1_4_3309">
<rect width="148" height="130" fill="white" transform="translate(81 15)"/>
</clipPath>
</defs>
</svg>
