<svg width="310" height="160" viewBox="0 0 310 160" fill="none" xmlns="http://www.w3.org/2000/svg">
<g clip-path="url(#clip0_4_2952)">
<path d="M0 0H310V160H0V0Z" fill="white"/>
<g clip-path="url(#clip1_4_2952)">
<path fill-rule="evenodd" clip-rule="evenodd" d="M115.96 15.1417C110.802 15.1417 106.641 19.3337 106.641 24.5296V135.47C106.641 140.666 110.802 144.858 115.96 144.858H194.04C199.198 144.858 203.359 140.666 203.359 135.47V24.5296C203.359 19.3337 199.198 15.1417 194.04 15.1417H115.96ZM115.96 15.726H194.04C198.886 15.726 202.779 19.6474 202.779 24.5296V135.47C202.779 140.352 198.886 144.273 194.04 144.273H115.96C111.114 144.273 107.221 140.352 107.221 135.47V24.5296C107.221 19.6474 111.114 15.726 115.96 15.726Z" fill="black"/>
<path fill-rule="evenodd" clip-rule="evenodd" d="M115.959 15.4337H194.039C199.041 15.4337 203.068 19.4904 203.068 24.5295V135.47C203.068 140.509 199.041 144.566 194.039 144.566H115.959C110.957 144.566 106.93 140.509 106.93 135.47V24.5295C106.93 19.4904 110.957 15.4337 115.959 15.4337Z" fill="white"/>
<path fill-rule="evenodd" clip-rule="evenodd" d="M115.9 17.586H194.106C197.89 17.586 200.936 20.6544 200.936 24.4658V135.534C200.936 139.345 197.89 142.413 194.106 142.413H115.9C112.116 142.413 109.07 139.345 109.07 135.534V24.4658C109.07 20.6544 112.116 17.586 115.9 17.586Z" fill="#0070FD"/>
<path fill-rule="evenodd" clip-rule="evenodd" d="M118.469 27.3282H191.533V81.4494H118.469V27.3282Z" fill="white"/>
<path fill-rule="evenodd" clip-rule="evenodd" d="M177.75 31.8126L177.708 31.8469L123.047 77.3031H129.612L180.31 31.8126L177.75 31.8126ZM186.115 31.9045L186.071 31.9862L161.653 77.3031H168.127L188.199 31.9044L186.115 31.9045ZM181.615 32.4882L181.57 32.5418L179.863 34.4961H182.237L183.822 32.4883L181.615 32.4882ZM177.674 36.9448L177.629 36.9983L171.767 43.6556H174.935L180.331 36.9448L177.674 36.9448ZM168.211 47.6945L168.165 47.7481L160.073 56.9762H164.647L172.059 47.6945L168.211 47.6945ZM155.377 62.3336L142.217 77.3031H148.709L160.452 62.3336H160.132H155.377Z" fill="black"/>
<path fill-rule="evenodd" clip-rule="evenodd" d="M113.508 97.266V88.9141H116.964C117.587 88.9141 118.114 89.1364 118.543 89.581C118.733 89.785 118.887 90.0297 119.005 90.3153C119.126 90.6008 119.187 90.872 119.187 91.129V91.3921C119.187 91.7348 119.088 92.055 118.889 92.3527C118.727 92.5853 118.531 92.7586 118.3 92.8728C118.543 92.9544 118.751 93.1012 118.926 93.3134C119.213 93.6601 119.359 94.0333 119.363 94.4331V95.051C119.363 95.3203 119.302 95.5976 119.181 95.8832C119.063 96.1646 118.905 96.4094 118.707 96.6174C118.278 97.0538 117.761 97.27 117.158 97.266H113.508ZM115.026 92.2242H116.842C117.045 92.2242 117.215 92.1712 117.352 92.0652C117.559 91.9102 117.662 91.6858 117.662 91.3921V91.129C117.662 90.8313 117.563 90.611 117.365 90.4682C117.223 90.3581 117.049 90.303 116.842 90.303H115.026V92.2242ZM115.026 95.8771H117.049C117.304 95.8771 117.506 95.7955 117.656 95.6323C117.778 95.4895 117.84 95.2958 117.844 95.051V94.4331C117.844 94.2454 117.78 94.0721 117.65 93.913C117.492 93.7131 117.292 93.6132 117.049 93.6132H115.026V95.8771Z" fill="white"/>
<path fill-rule="evenodd" clip-rule="evenodd" d="M126.708 97.266V88.9141H124.941L122.402 94.531V88.9141H121.023V97.266H122.821L125.33 91.7837V97.266H126.708Z" fill="white"/>
<path fill-rule="evenodd" clip-rule="evenodd" d="M128.539 97.266V88.9141H130.057V92.2426H132.706V88.9141H134.224V97.266H132.706V93.6315H130.057V97.266H128.539Z" fill="white"/>
<path fill-rule="evenodd" clip-rule="evenodd" d="M136.055 97.266V88.9141H141.151V90.303H137.573V92.2242H139.96V93.6132H137.573V95.8771H141.151V97.266H136.055Z" fill="white"/>
<path fill-rule="evenodd" clip-rule="evenodd" d="M143.828 97.266V90.303H141.781V88.9141H147.466V90.303H145.347V97.266H143.828Z" fill="white"/>
<path fill-rule="evenodd" clip-rule="evenodd" d="M148.578 97.266V88.9141H150.097V91.6981L152.277 88.9141H154.257L151.087 92.9401L154.5 97.266H152.55L150.097 94.1149V97.266H148.578Z" fill="white"/>
<path fill-rule="evenodd" clip-rule="evenodd" d="M156.548 96.0667L156.208 97.266H154.586L157.015 88.9141H158.783L161.218 97.266H159.615L159.263 96.0667H156.548ZM156.949 94.6778H158.88L157.902 91.3615L156.949 94.6778Z" fill="white"/>
<path fill-rule="evenodd" clip-rule="evenodd" d="M120.14 100.217L117.717 108.569H115.919L113.508 100.217H115.142L116.842 106.017L118.543 100.217H120.14Z" fill="white"/>
<path fill-rule="evenodd" clip-rule="evenodd" d="M121.25 108.569V100.217H122.768V108.569H121.25Z" fill="white"/>
<path fill-rule="evenodd" clip-rule="evenodd" d="M130.122 103.527V105.828C130.122 106.448 129.956 107.009 129.624 107.51C129.341 107.926 128.977 108.243 128.531 108.459C128.155 108.642 127.74 108.734 127.286 108.734C126.318 108.734 125.555 108.357 124.996 107.602C124.624 107.096 124.438 106.505 124.438 105.828V102.934C124.438 102.289 124.634 101.706 125.027 101.184C125.589 100.429 126.355 100.052 127.323 100.052C128.221 100.052 128.942 100.388 129.485 101.061C129.732 101.371 129.908 101.745 130.013 102.181H128.507C128.268 101.688 127.865 101.441 127.298 101.441C127.047 101.441 126.814 101.496 126.6 101.606C126.389 101.716 126.229 101.865 126.12 102.053C126.011 102.236 125.956 102.458 125.956 102.72V106.03C125.956 106.364 126.055 106.639 126.254 106.856C126.553 107.178 126.909 107.339 127.323 107.339C127.549 107.339 127.76 107.284 127.954 107.174C128.153 107.064 128.308 106.913 128.422 106.721C128.543 106.521 128.604 106.291 128.604 106.03V104.916H127.323V103.527H130.122Z" fill="white"/>
<path fill-rule="evenodd" clip-rule="evenodd" d="M131.797 108.569V100.217H133.564L136.103 105.834V100.217H137.482V108.569H135.684L133.176 103.086V108.569H131.797Z" fill="white"/>
<path fill-rule="evenodd" clip-rule="evenodd" d="M139.312 108.569V100.217H144.408V101.606H140.831V103.527H143.218V104.916H140.831V107.18H144.408V108.569H139.312Z" fill="white"/>
<path fill-rule="evenodd" clip-rule="evenodd" d="M147.086 108.569V101.606H145.039V100.217H150.724V101.606H148.604V108.569H147.086Z" fill="white"/>
<path fill-rule="evenodd" clip-rule="evenodd" d="M153.172 108.569V101.606H151.125V100.217H156.81V101.606H154.69V108.569H153.172Z" fill="white"/>
<path fill-rule="evenodd" clip-rule="evenodd" d="M157.922 108.569V100.217H163.018V101.606H159.44V103.527H161.827V104.916H159.44V107.18H163.018V108.569H157.922Z" fill="white"/>
<path fill-rule="evenodd" clip-rule="evenodd" d="M182.484 89.9254L176.572 93.2929C176.427 93.3041 174.538 93.5553 172.942 93.7737C172.468 93.8385 171.745 93.9668 171.174 94.072C170.677 94.1635 170.581 94.165 170.3 94.265C170.121 94.3288 169.92 94.3975 169.791 94.5219C169.686 94.6231 169.668 94.7842 169.62 94.9206C169.498 95.2645 169.326 95.9666 169.323 95.9759H169.316C168.838 95.9759 168.453 96.3636 168.453 96.8448C168.453 97.3259 168.838 97.7137 169.316 97.7137H169.321L169.804 98.5749L172.061 98.7611L172.689 98.7618C172.976 99.7707 173.911 100.528 174.994 100.528C176.074 100.528 177.005 99.7755 177.294 98.7714L177.92 98.7734L188.307 98.866L188.904 98.8621C189.22 99.8218 190.129 100.529 191.177 100.529C192.233 100.529 193.15 99.8116 193.461 98.8409L194.072 98.837L196.018 98.4768V97.8078H197.595H198.01C198.17 97.8078 198.299 97.2941 198.299 96.656C198.299 96.018 198.17 95.5042 198.01 95.5042H197.152C196.984 94.9776 196.842 94.4459 196.53 94.0048C195.743 92.8919 194.637 92.0117 193.493 91.2765C192.543 90.6655 191.211 89.9308 190.388 89.9249L182.484 89.9254ZM182.578 90.6968H185.123C185.208 90.6963 185.277 90.7654 185.278 90.8513V93.3257C185.277 93.4115 185.208 93.4806 185.123 93.4802H178.541C178.384 93.48 178.327 93.2729 178.461 93.1915L182.5 90.719C182.523 90.7041 182.55 90.6969 182.578 90.6968ZM186.61 90.6968H190.173C190.184 90.6963 190.197 90.6977 190.208 90.7007C190.208 90.7007 190.863 90.9464 191.19 91.1003C191.639 91.3114 192.079 91.5446 192.501 91.8062C193.243 92.265 194.619 93.2978 194.619 93.2978C194.695 93.3564 194.654 93.4786 194.559 93.4792L186.61 93.4791C186.555 93.4787 186.511 93.4339 186.51 93.3788V90.7962C186.511 90.7409 186.6 90.6422 186.61 90.6968ZM174.994 97.1508C175.522 97.1508 175.951 97.5819 175.951 98.1143C175.951 98.6467 175.522 99.0789 174.994 99.0788C174.465 99.0789 174.037 98.6467 174.038 98.1143C174.037 97.5819 174.465 97.1508 174.994 97.1508ZM191.179 97.1547C191.707 97.1547 192.136 97.5868 192.136 98.1192C192.136 98.6516 191.707 99.0828 191.179 99.0827C190.65 99.0828 190.222 98.6516 190.222 98.1192C190.222 97.5868 190.65 97.1547 191.179 97.1547Z" fill="white"/>
<path fill-rule="evenodd" clip-rule="evenodd" d="M115.555 124.948V117.985H113.508V116.596H119.193V117.985H117.073V124.948H115.555Z" fill="white"/>
<path fill-rule="evenodd" clip-rule="evenodd" d="M120.281 122.201V119.331C120.281 118.943 120.332 118.607 120.433 118.321C120.534 118.036 120.702 117.75 120.937 117.465C121.504 116.775 122.231 116.431 123.118 116.431C124.069 116.431 124.826 116.81 125.389 117.569C125.774 118.091 125.966 118.678 125.966 119.331V122.201C125.966 122.906 125.754 123.526 125.328 124.061C124.774 124.762 124.039 125.113 123.124 125.113C122.662 125.113 122.233 125.019 121.836 124.832C121.439 124.64 121.109 124.373 120.846 124.03C120.47 123.536 120.281 122.927 120.281 122.201ZM124.448 122.415V119.129C124.448 118.835 124.361 118.576 124.187 118.352C123.919 118.001 123.569 117.826 123.136 117.826C122.897 117.826 122.67 117.891 122.456 118.022C122.241 118.148 122.073 118.319 121.952 118.536C121.85 118.723 121.8 118.921 121.8 119.129V122.415C121.8 122.676 121.866 122.91 122 123.118C122.255 123.522 122.634 123.724 123.136 123.724C123.683 123.724 124.071 123.49 124.302 123.02C124.399 122.825 124.448 122.623 124.448 122.415Z" fill="white"/>
<path fill-rule="evenodd" clip-rule="evenodd" d="M126.883 124.948L129.306 116.596H131.104L133.515 124.948H131.881L130.181 119.147L128.48 124.948H126.883Z" fill="white"/>
<path fill-rule="evenodd" clip-rule="evenodd" d="M115.555 136.25V129.287H113.508V127.898H119.193V129.287H117.073V136.25H115.555Z" fill="white"/>
<path fill-rule="evenodd" clip-rule="evenodd" d="M120.281 133.502V130.633C120.281 130.245 120.332 129.909 120.433 129.623C120.534 129.338 120.702 129.052 120.937 128.767C121.504 128.077 122.231 127.732 123.118 127.732C124.069 127.732 124.826 128.112 125.389 128.871C125.774 129.393 125.966 129.98 125.966 130.633V133.502C125.966 134.208 125.754 134.828 125.328 135.362C124.774 136.064 124.039 136.415 123.124 136.415C122.662 136.415 122.233 136.321 121.836 136.133C121.439 135.942 121.109 135.674 120.846 135.332C120.47 134.838 120.281 134.228 120.281 133.502ZM124.448 133.716V130.431C124.448 130.137 124.361 129.878 124.187 129.654C123.919 129.303 123.569 129.128 123.136 129.128C122.897 129.128 122.67 129.193 122.456 129.323C122.241 129.45 122.073 129.621 121.952 129.837C121.85 130.025 121.8 130.223 121.8 130.431V133.716C121.8 133.978 121.866 134.212 122 134.42C122.255 134.824 122.634 135.026 123.136 135.026C123.683 135.026 124.071 134.791 124.302 134.322C124.399 134.126 124.448 133.924 124.448 133.716Z" fill="white"/>
<path fill-rule="evenodd" clip-rule="evenodd" d="M129.151 127.898V134.86H132.37V136.249H127.633V127.898H129.151Z" fill="white"/>
<path fill-rule="evenodd" clip-rule="evenodd" d="M135.003 127.898V134.861H138.222V136.25H133.484V127.898H135.003Z" fill="white"/>
<path d="M164.347 130.793L164.447 131.243L164.592 131.393C164.592 131.393 164.724 131.397 164.776 131.431C164.832 131.467 164.893 131.591 164.893 131.591L163.305 135.046V138.743H167.626C167.671 138.243 167.9 137.779 168.268 137.442C168.636 137.104 169.115 136.917 169.613 136.917C170.11 136.917 170.59 137.104 170.958 137.442C171.325 137.779 171.554 138.243 171.6 138.743H181.974C182.019 138.243 182.248 137.779 182.616 137.442C182.984 137.104 183.463 136.917 183.961 136.917C184.458 136.917 184.938 137.104 185.306 137.442C185.673 137.78 185.902 138.243 185.948 138.743H191.592V135.046V134.596L190.148 131.591V130.793L164.347 130.793ZM165.721 131.694H167.635C167.815 131.694 167.96 131.84 167.96 132.021V134.719C167.96 134.9 167.815 135.046 167.635 135.046H164.682C164.502 135.046 164.292 134.888 164.357 134.719L165.396 132.021C165.461 131.852 165.541 131.694 165.721 131.694ZM169.132 131.694H173.352C173.532 131.694 173.677 131.84 173.677 132.021V134.719C173.677 134.9 173.532 135.046 173.352 135.046H169.132C168.952 135.046 168.808 134.9 168.808 134.719V132.021C168.808 131.839 168.952 131.694 169.132 131.694ZM175.089 131.694H179.308C179.488 131.694 179.633 131.84 179.633 132.021V134.719C179.633 134.9 179.488 135.046 179.308 135.046H175.089C174.909 135.046 174.764 134.9 174.764 134.719V132.021C174.764 131.839 174.909 131.694 175.089 131.694ZM180.948 131.694H185.168C185.348 131.694 185.493 131.84 185.493 132.021V134.719C185.493 134.9 185.348 135.046 185.168 135.046H180.948C180.768 135.046 180.624 134.9 180.624 134.719V132.021C180.624 131.839 180.769 131.694 180.948 131.694ZM186.759 131.694H188.674C188.854 131.694 188.931 131.853 188.998 132.021L190.086 134.719C190.153 134.887 189.941 135.046 189.761 135.046H186.759C186.579 135.046 186.434 134.9 186.434 134.719V132.021C186.434 131.839 186.579 131.694 186.759 131.694ZM169.612 137.17C169.383 137.17 169.157 137.215 168.945 137.303C168.733 137.392 168.541 137.521 168.379 137.684C168.217 137.848 168.088 138.041 168.001 138.255C167.913 138.468 167.868 138.696 167.868 138.927C167.868 139.393 168.052 139.84 168.379 140.17C168.706 140.499 169.15 140.685 169.612 140.685C169.842 140.685 170.068 140.639 170.28 140.551C170.492 140.463 170.684 140.333 170.846 140.17C171.008 140.007 171.137 139.813 171.224 139.6C171.312 139.387 171.357 139.158 171.357 138.927C171.357 138.696 171.312 138.468 171.225 138.255C171.137 138.041 171.008 137.847 170.846 137.684C170.684 137.521 170.492 137.392 170.28 137.303C170.069 137.215 169.842 137.169 169.612 137.17ZM183.96 137.17C183.731 137.17 183.505 137.215 183.293 137.303C183.081 137.392 182.889 137.521 182.727 137.684C182.565 137.848 182.436 138.041 182.349 138.255C182.261 138.468 182.216 138.696 182.216 138.927C182.216 139.393 182.4 139.84 182.727 140.17C183.054 140.499 183.498 140.685 183.96 140.685C184.19 140.685 184.416 140.639 184.628 140.551C184.84 140.463 185.032 140.333 185.194 140.17C185.356 140.007 185.485 139.813 185.572 139.6C185.66 139.387 185.705 139.158 185.705 138.927C185.705 138.696 185.66 138.468 185.573 138.255C185.485 138.041 185.356 137.847 185.194 137.684C185.032 137.521 184.84 137.392 184.628 137.303C184.417 137.215 184.19 137.169 183.96 137.17ZM169.612 137.964C169.738 137.964 169.862 137.989 169.978 138.038C170.094 138.086 170.2 138.157 170.288 138.246C170.377 138.336 170.448 138.442 170.496 138.559C170.544 138.676 170.568 138.801 170.568 138.927C170.568 139.054 170.544 139.179 170.495 139.296C170.447 139.412 170.377 139.519 170.288 139.608C170.2 139.697 170.094 139.768 169.978 139.817C169.862 139.865 169.738 139.89 169.612 139.89C169.359 139.89 169.116 139.788 168.937 139.608C168.758 139.427 168.657 139.182 168.657 138.927C168.657 138.801 168.682 138.676 168.73 138.559C168.778 138.442 168.848 138.336 168.937 138.246C169.026 138.157 169.131 138.086 169.247 138.038C169.363 137.989 169.487 137.964 169.612 137.964ZM183.96 137.964C184.086 137.964 184.21 137.989 184.326 138.038C184.442 138.086 184.548 138.157 184.636 138.246C184.725 138.336 184.796 138.442 184.844 138.559C184.892 138.676 184.916 138.801 184.916 138.927C184.916 139.054 184.892 139.179 184.843 139.296C184.795 139.412 184.725 139.519 184.636 139.608C184.548 139.697 184.442 139.768 184.326 139.817C184.21 139.865 184.086 139.89 183.96 139.89C183.707 139.89 183.464 139.788 183.285 139.608C183.106 139.427 183.005 139.182 183.005 138.927C183.005 138.801 183.03 138.676 183.078 138.559C183.126 138.442 183.196 138.336 183.285 138.246C183.374 138.157 183.479 138.086 183.595 138.038C183.711 137.989 183.835 137.964 183.96 137.964Z" fill="white"/>
<path d="M171.592 112.161V123.013H191.593V113.177C191.593 112.614 191.143 112.161 190.584 112.161H171.592ZM165.221 113.546L161.819 118.351V124.003L161.788 124.002L161.285 124.048C161.063 124.068 160.883 124.265 160.883 124.49V125.065C160.883 125.289 161.062 125.47 161.285 125.47H162.651C162.978 123.668 164.53 122.31 166.41 122.31C168.427 122.31 170.066 123.871 170.221 125.868H180.666L181.587 124.242H170.596V113.547L165.221 113.546ZM165.48 114.3H169.847V118.733H163.64C163.38 118.733 163.038 118.486 163.17 118.259L165.48 114.3ZM166.487 123.06C166.121 123.06 165.758 123.133 165.42 123.274C165.082 123.415 164.775 123.622 164.516 123.883C164.257 124.144 164.052 124.453 163.912 124.794C163.771 125.135 163.699 125.5 163.699 125.869C163.699 126.238 163.771 126.603 163.912 126.944C164.052 127.284 164.257 127.594 164.516 127.855C164.775 128.115 165.082 128.322 165.42 128.463C165.758 128.605 166.121 128.677 166.487 128.677C166.853 128.677 167.216 128.605 167.554 128.463C167.892 128.322 168.199 128.115 168.458 127.855C168.717 127.594 168.923 127.284 169.063 126.944C169.203 126.603 169.275 126.238 169.275 125.869C169.275 125.5 169.203 125.135 169.063 124.794C168.923 124.453 168.717 124.144 168.458 123.883C168.199 123.622 167.892 123.415 167.554 123.274C167.216 123.133 166.853 123.06 166.487 123.06ZM184.538 123.06C184.172 123.06 183.809 123.133 183.471 123.274C183.133 123.415 182.826 123.622 182.567 123.883C182.308 124.144 182.103 124.453 181.963 124.794C181.822 125.135 181.75 125.5 181.75 125.869C181.75 126.238 181.822 126.603 181.963 126.944C182.103 127.284 182.308 127.594 182.567 127.855C182.826 128.115 183.133 128.322 183.471 128.463C183.809 128.605 184.172 128.677 184.538 128.677C184.904 128.677 185.267 128.605 185.605 128.463C185.943 128.322 186.25 128.115 186.509 127.855C186.768 127.594 186.973 127.284 187.114 126.944C187.254 126.603 187.326 126.238 187.326 125.869C187.326 125.5 187.254 125.135 187.114 124.794C186.973 124.453 186.768 124.144 186.509 123.883C186.25 123.622 185.943 123.415 185.605 123.274C185.267 123.133 184.904 123.06 184.538 123.06ZM166.487 123.901C166.744 123.901 166.998 123.952 167.235 124.051C167.472 124.15 167.687 124.295 167.868 124.477C168.05 124.66 168.193 124.877 168.292 125.116C168.39 125.355 168.44 125.61 168.44 125.869C168.44 126.127 168.39 126.383 168.292 126.622C168.194 126.861 168.05 127.077 167.868 127.26C167.687 127.443 167.472 127.588 167.235 127.687C166.998 127.786 166.744 127.836 166.487 127.836C165.969 127.836 165.472 127.629 165.106 127.26C164.74 126.891 164.534 126.391 164.534 125.869C164.534 125.347 164.74 124.847 165.106 124.478C165.472 124.109 165.969 123.901 166.487 123.901ZM184.538 123.901C184.795 123.901 185.049 123.952 185.286 124.051C185.522 124.15 185.738 124.295 185.919 124.477C186.101 124.66 186.244 124.877 186.343 125.116C186.441 125.355 186.491 125.61 186.491 125.869C186.491 126.127 186.441 126.383 186.343 126.622C186.244 126.861 186.101 127.077 185.919 127.26C185.738 127.443 185.522 127.588 185.286 127.687C185.049 127.786 184.795 127.836 184.538 127.836C184.02 127.836 183.523 127.629 183.157 127.26C182.791 126.891 182.585 126.391 182.585 125.869C182.585 125.347 182.791 124.847 183.157 124.478C183.523 124.109 184.02 123.901 184.538 123.901ZM187.676 124.242L188.574 125.868H190.599L191.437 124.242H187.676ZM166.472 124.742C166.172 124.742 165.883 124.862 165.671 125.076C165.458 125.29 165.339 125.581 165.339 125.884C165.339 126.034 165.368 126.182 165.425 126.321C165.482 126.46 165.565 126.585 165.671 126.692C165.776 126.798 165.901 126.882 166.038 126.939C166.176 126.997 166.323 127.026 166.472 127.026C166.621 127.026 166.769 126.997 166.906 126.939C167.044 126.882 167.169 126.798 167.274 126.692C167.379 126.585 167.463 126.46 167.52 126.321C167.577 126.182 167.606 126.034 167.606 125.884C167.606 125.581 167.486 125.29 167.274 125.076C167.061 124.862 166.773 124.742 166.472 124.742ZM184.523 124.742C184.223 124.742 183.934 124.862 183.722 125.076C183.509 125.29 183.39 125.581 183.39 125.884C183.39 126.034 183.419 126.182 183.476 126.321C183.533 126.46 183.616 126.585 183.722 126.692C183.827 126.798 183.952 126.882 184.089 126.939C184.227 126.997 184.374 127.026 184.523 127.026C184.672 127.026 184.82 126.997 184.957 126.939C185.095 126.882 185.22 126.798 185.325 126.692C185.43 126.585 185.514 126.46 185.571 126.321C185.628 126.182 185.657 126.034 185.657 125.884C185.657 125.581 185.537 125.29 185.325 125.076C185.112 124.862 184.824 124.742 184.523 124.742Z" fill="white"/>
<path fill-rule="evenodd" clip-rule="evenodd" d="M172.266 115.782L175.344 117.342V118.065L172.266 119.632V118.775L174.442 117.705L172.266 116.635V115.782Z" fill="black"/>
<path fill-rule="evenodd" clip-rule="evenodd" d="M179.36 118.051V117.257H179.86C180.026 117.257 180.163 117.205 180.269 117.1C180.38 116.99 180.436 116.848 180.436 116.673C180.436 116.484 180.37 116.328 180.238 116.205C180.104 116.081 179.949 116.019 179.773 116.019C179.551 116.019 179.374 116.117 179.242 116.313C179.189 116.392 179.155 116.487 179.141 116.596H178.225C178.234 116.284 178.32 116.018 178.482 115.799C178.766 115.417 179.191 115.226 179.755 115.226C180.269 115.226 180.662 115.375 180.935 115.673C181.181 115.939 181.303 116.241 181.303 116.579C181.303 116.933 181.146 117.27 180.831 117.589C181.19 117.897 181.369 118.276 181.369 118.726C181.369 119.162 181.204 119.523 180.873 119.81C180.579 120.061 180.199 120.187 179.731 120.187C179.396 120.187 179.102 120.118 178.85 119.981C178.597 119.841 178.403 119.642 178.266 119.383C178.172 119.199 178.122 118.98 178.117 118.726H179.013C179.045 118.877 179.098 119.001 179.172 119.096C179.316 119.294 179.51 119.393 179.755 119.393C179.982 119.393 180.168 119.31 180.314 119.142C180.439 119 180.502 118.834 180.502 118.645C180.502 118.44 180.424 118.279 180.269 118.163C180.174 118.088 180.055 118.051 179.912 118.051H179.36Z" fill="black"/>
<path fill-rule="evenodd" clip-rule="evenodd" d="M182.242 119.345H183.03V119.915L182.242 120.855V119.345Z" fill="black"/>
<path fill-rule="evenodd" clip-rule="evenodd" d="M185.043 116.114V116.992C185.267 116.919 185.473 116.883 185.661 116.883C185.952 116.883 186.217 116.945 186.456 117.069C186.696 117.19 186.891 117.363 187.039 117.59C187.21 117.851 187.296 118.163 187.296 118.527C187.296 118.944 187.187 119.291 186.969 119.569C186.814 119.764 186.622 119.917 186.393 120.027C186.166 120.134 185.922 120.187 185.661 120.187C185.265 120.187 184.917 120.065 184.616 119.82C184.322 119.583 184.132 119.257 184.047 118.845H184.928C184.986 119.022 185.078 119.158 185.203 119.254C185.33 119.347 185.485 119.394 185.668 119.394C185.932 119.394 186.139 119.289 186.289 119.079C186.382 118.951 186.428 118.801 186.428 118.628V118.415C186.428 118.219 186.367 118.055 186.244 117.922C186.091 117.759 185.904 117.677 185.682 117.677C185.432 117.677 185.219 117.796 185.043 118.034H184.172V115.32H186.983V116.114H185.043Z" fill="black"/>
<path d="M188.141 116.684V117.392H189.085V120.093H189.893V117.392H190.853V116.684H188.141Z" fill="black"/>
<path fill-rule="evenodd" clip-rule="evenodd" d="M176.462 103.125V103.898L174.49 104.868L176.462 105.838V106.615L173.672 105.195V104.539L176.462 103.125Z" fill="white"/>
<path fill-rule="evenodd" clip-rule="evenodd" d="M180.361 105.182V104.463H180.814C180.965 104.463 181.089 104.415 181.185 104.32C181.286 104.221 181.336 104.092 181.336 103.933C181.336 103.762 181.276 103.621 181.157 103.509C181.035 103.397 180.894 103.341 180.735 103.341C180.534 103.341 180.373 103.429 180.254 103.607C180.205 103.679 180.175 103.764 180.162 103.864H179.332C179.34 103.58 179.418 103.34 179.565 103.141C179.823 102.794 180.208 102.621 180.719 102.621C181.185 102.621 181.542 102.756 181.789 103.027C182.011 103.268 182.122 103.541 182.122 103.848C182.122 104.169 181.98 104.474 181.695 104.764C182.02 105.043 182.182 105.386 182.182 105.794C182.182 106.189 182.032 106.516 181.732 106.776C181.466 107.004 181.121 107.118 180.697 107.118C180.393 107.118 180.127 107.056 179.898 106.931C179.67 106.805 179.493 106.624 179.37 106.389C179.284 106.223 179.239 106.024 179.234 105.794H180.046C180.075 105.931 180.124 106.043 180.191 106.13C180.321 106.309 180.497 106.399 180.719 106.399C180.925 106.399 181.094 106.323 181.226 106.171C181.339 106.042 181.396 105.892 181.396 105.721C181.396 105.535 181.325 105.389 181.185 105.283C181.099 105.216 180.991 105.182 180.861 105.182H180.361Z" fill="white"/>
<path fill-rule="evenodd" clip-rule="evenodd" d="M182.977 106.355H183.691V106.871L182.977 107.724V106.355Z" fill="white"/>
<path fill-rule="evenodd" clip-rule="evenodd" d="M185.512 103.427V104.222C185.716 104.157 185.902 104.124 186.072 104.124C186.337 104.124 186.577 104.18 186.793 104.292C187.011 104.402 187.187 104.559 187.321 104.764C187.476 105.001 187.554 105.284 187.554 105.613C187.554 105.992 187.456 106.306 187.258 106.558C187.118 106.735 186.944 106.874 186.736 106.973C186.531 107.07 186.309 107.119 186.072 107.119C185.714 107.119 185.398 107.008 185.125 106.786C184.859 106.571 184.687 106.276 184.609 105.902H185.408C185.461 106.062 185.544 106.186 185.657 106.273C185.772 106.357 185.913 106.399 186.079 106.399C186.318 106.399 186.505 106.304 186.642 106.114C186.726 105.998 186.768 105.862 186.768 105.705V105.512C186.768 105.334 186.712 105.186 186.601 105.065C186.462 104.917 186.293 104.843 186.091 104.843C185.865 104.843 185.672 104.951 185.512 105.166H184.723V102.707H187.271V103.427H185.512Z" fill="white"/>
<path d="M190.383 103.624V104.332H191.327V107.033H192.136V104.332H193.095V103.624H190.383Z" fill="white"/>
</g>
</g>
<defs>
<clipPath id="clip0_4_2952">
<path d="M0 0H310V160H0V0Z" fill="white"/>
</clipPath>
<clipPath id="clip1_4_2952">
<rect width="97" height="130" fill="white" transform="translate(106.5 15)"/>
</clipPath>
</defs>
</svg>
