<svg width="148" height="130" viewBox="0 0 148 130" fill="none" xmlns="http://www.w3.org/2000/svg">
<g clip-path="url(#clip0_4_3470)">
<path d="M80.7305 4.00161C79.412 1.72558 76.8325 0.301758 74.0025 0.301758C71.1211 0.301758 68.5406 1.80345 67.1972 4.12275L1.45826 117.624C0.0473799 120.06 -0.161524 123.128 1.34779 125.734C2.78852 128.221 5.38339 129.698 8.07027 129.698H139.935C142.622 129.698 145.216 128.221 146.657 125.734C148.167 123.128 147.958 120.06 146.547 117.624L80.7305 4.00161Z" fill="white" stroke="black" stroke-width="0.719" stroke-miterlimit="2" stroke-linecap="round" stroke-linejoin="round"/>
<path d="M73.9998 2.75586C72.0457 2.75586 70.3484 3.77758 69.4939 5.25279L3.75685 118.752C2.77271 120.451 2.64199 122.477 3.646 124.21C4.62315 125.897 6.35437 126.845 8.0632 126.845H139.931C141.64 126.845 143.371 125.897 144.348 124.21C145.352 122.477 145.221 120.451 144.237 118.752L78.4225 5.13125C77.6151 3.73745 75.9346 2.75586 73.9998 2.75586ZM124.351 112.703H23.6426L73.9943 25.7696L124.351 112.703Z" fill="#DD2414"/>
<path fill-rule="evenodd" clip-rule="evenodd" d="M65.1353 56.2559C65.1274 56.2557 65.1195 56.2574 65.1123 56.2606C65.105 56.2638 65.0986 56.2686 65.0934 56.2746L58.9192 63.7576C58.9109 63.7672 58.9063 63.7795 58.9062 63.7922L58.8672 86.5306C58.8672 95.4291 68.4891 100.255 74.6826 96.6947L85.9606 90.1706C87.2305 89.4378 88.4999 90.3466 88.5753 91.4074V108.025C88.5753 108.035 88.5781 108.045 88.5835 108.053C88.5887 108.062 88.5963 108.069 88.6053 108.073C88.6143 108.078 88.6243 108.08 88.6343 108.079C88.6443 108.078 88.6539 108.074 88.6619 108.068L94.7769 103.406L100.924 108.068C100.932 108.075 100.941 108.079 100.952 108.08C100.962 108.081 100.972 108.079 100.981 108.074C100.991 108.07 100.998 108.063 101.004 108.054C101.009 108.045 101.012 108.035 101.012 108.025V86.2772C101.012 81.3269 98.6831 77.8855 95.5454 76.152C92.4078 74.4185 88.4632 74.3904 85.2325 76.247L73.4677 83.036V83.0375C72.9019 83.3781 72.3665 83.3475 71.9725 83.0836C71.5786 82.8196 71.3236 82.3156 71.3427 81.6912V81.6898V63.831C71.343 63.8185 71.3389 63.8063 71.3311 63.7965L65.1772 56.276C65.1721 56.2698 65.1657 56.2647 65.1585 56.2612C65.1513 56.2578 65.1433 56.2559 65.1353 56.2559Z" fill="black"/>
</g>
<defs>
<clipPath id="clip0_4_3470">
<rect width="148" height="130" fill="white"/>
</clipPath>
</defs>
</svg>
