<svg width="310" height="160" viewBox="0 0 310 160" fill="none" xmlns="http://www.w3.org/2000/svg">
<g clip-path="url(#clip0_4_3319)">
<g clip-path="url(#clip1_4_3319)">
<path d="M161.731 18.9671C160.412 16.6898 157.831 15.2651 155 15.2651C152.117 15.2651 149.535 16.7677 148.191 19.0883L82.4198 132.654C81.0082 135.091 80.7992 138.161 82.3092 140.768C83.7507 143.257 86.3468 144.735 89.0351 144.735H220.965C223.653 144.735 226.249 143.257 227.691 140.768C229.201 138.161 228.992 135.091 227.58 132.654L161.731 18.9671Z" fill="white" stroke="black" stroke-width="0.359678" stroke-miterlimit="2" stroke-linecap="round" stroke-linejoin="round"/>
<path d="M155.004 17.7202C153.049 17.7202 151.351 18.7425 150.496 20.2186L84.726 133.782C83.7414 135.482 83.6106 137.509 84.6151 139.243C85.5927 140.931 87.3248 141.88 89.0345 141.88H220.968C222.677 141.88 224.409 140.931 225.387 139.243C226.392 137.509 226.261 135.482 225.276 133.782L159.429 20.097C158.621 18.7024 156.94 17.7202 155.004 17.7202ZM205.381 127.73H104.622L154.998 40.747L205.381 127.73Z" fill="#DD2414"/>
<path opacity="0.999883" fill-rule="evenodd" clip-rule="evenodd" d="M152.685 58.2852C152.225 58.2824 151.883 58.7745 151.883 59.4404C151.883 60.1399 151.375 60.7051 150.745 60.7051C149.737 60.7051 149.872 61.7339 150.954 62.2912C151.503 62.5742 151.51 62.5948 151.51 64.1472V65.7173L152.329 66.279C153.185 66.8658 153.379 67.1604 153.379 67.868C153.379 68.5387 152.736 69.1873 151.126 70.1418C150.305 70.6283 149.518 71.2012 149.378 71.4148C149.237 71.6285 148.985 72.4641 148.818 73.2714C148.428 75.1503 147.949 76.0887 146.542 77.7302C145.26 79.2268 143.75 80.6415 140.757 83.1496C138.736 84.8438 138.68 84.8752 137.544 84.9736C136.908 85.0287 136.298 85.1291 136.189 85.1967C136.079 85.2644 135.989 85.7966 135.99 86.3798C135.991 88.6496 137.697 89.8437 138.737 88.3026C139.083 87.7902 139.292 87.6685 139.872 87.6404C140.329 87.6183 141.508 87.1426 143.167 86.3117C145.474 85.1561 145.964 84.8212 147.742 83.1774C149.985 81.1044 150.807 80.5919 151.203 81.0226C151.366 81.2005 151.589 82.8396 151.86 85.8566L152.27 90.4208L150.778 93.3574C149.958 94.9724 148.955 96.7748 148.549 97.3629C148.047 98.0927 147.682 98.9352 147.402 100.016C147.176 100.887 146.652 102.773 146.239 104.208C145.826 105.643 145.213 107.906 144.877 109.238C144.43 111.007 144.183 111.676 143.961 111.72C143.793 111.753 143.191 111.554 142.623 111.277C141.839 110.895 141.428 110.801 140.91 110.884C139.671 111.085 139.707 111.302 141.212 112.718L142.602 114.025L143.779 113.899L144.957 113.774L145.267 114.422C145.577 115.07 146.052 115.293 147.119 115.293C147.598 115.293 147.687 115.131 147.867 113.937C147.983 113.164 148.046 113.082 148.611 112.976C148.95 112.913 149.32 112.75 149.434 112.614C149.547 112.479 150.062 110.825 150.579 108.94C151.408 105.913 151.668 105.239 152.8 103.183C155.196 98.8299 155.901 97.7789 156.425 97.7807C156.55 97.781 157.132 98.7247 157.72 99.877C158.307 101.029 159.984 104.152 161.448 106.816C164.252 111.919 164.514 112.644 163.748 113.187C163.548 113.329 163.026 113.694 162.589 113.998C161.607 114.681 161.54 115.204 162.402 115.468C163.474 115.796 165.269 115.583 166.064 115.034C166.597 114.667 167 114.548 167.713 114.548C168.232 114.548 168.922 114.455 169.246 114.343C169.794 114.153 169.835 114.077 169.835 113.267C169.835 112.788 169.71 112.217 169.557 112.001C169.399 111.776 169.293 111.256 169.31 110.794C169.337 110.085 169.01 109.353 166.699 104.953C165.245 102.186 163.779 99.2521 163.44 98.4323C162.838 96.9801 162.823 96.8748 162.837 94.3333C162.846 92.8988 162.92 90.5918 163.003 89.2069C163.17 86.3911 162.944 83.7645 162.334 81.4434C161.883 79.7282 161.917 78.344 162.411 78.2505C162.98 78.1428 163.525 78.6427 166.939 82.4045C169.909 85.6768 170.234 86.1005 170.196 86.6467C170.122 87.7164 170.2 88.0839 170.583 88.4648C171.578 89.4563 173.934 88.4001 174.251 86.8201C174.358 86.2872 174.285 86.1349 173.612 85.4974C173.077 84.9903 172.652 84.2973 172.179 83.1579C169.786 77.399 166.176 72.4159 162.896 70.3442C161.632 69.5458 160.843 69.2748 159.784 69.2748C159.087 69.2748 158.848 69.1722 158.316 68.6416C157.776 68.1044 157.68 67.8775 157.68 67.149C157.68 65.8559 158.392 62.9093 158.813 62.4635C159.279 61.9692 159.277 61.4159 158.807 61.1236C158.603 60.9971 158.265 60.5576 158.055 60.1471C157.713 59.4785 157.6 59.4002 156.976 59.3984C156.592 59.3969 155.563 59.1468 154.689 58.8421C153.814 58.5374 152.913 58.2861 152.685 58.2852ZM123.101 110.906L108.711 124.78H122.091L132.376 110.906H123.101ZM158.565 110.906L160.946 124.78H174.326L169.813 115.125C168.907 115.136 168.029 115.156 167.433 115.283C166.769 115.424 166.454 115.697 166.064 115.844C165.674 115.99 165.208 116.01 164.559 116.036C163.91 116.061 163.078 116.091 162.495 115.91C161.912 115.728 161.577 115.333 161.506 114.954C161.435 114.575 161.628 114.212 162.084 113.848C162.54 113.484 163.261 113.12 163.509 112.584C163.725 112.118 163.581 111.52 163.394 110.906L158.565 110.906ZM175.588 110.906L185.874 124.78H199.253L184.864 110.906H175.588ZM150.376 112.296C149.676 112.635 149.041 113.543 148.735 113.821C148.54 113.998 148.462 114.152 148.397 114.322C148.331 114.492 148.283 114.683 148.153 114.883C147.894 115.284 147.374 115.645 146.907 115.779C146.439 115.914 146.034 115.777 145.626 115.489C145.218 115.202 144.778 114.782 144.352 114.649C143.926 114.516 143.386 114.644 142.566 114.35C141.976 114.139 141.266 113.137 140.522 112.656L134.854 124.78H148.234L150.376 112.296Z" fill="black"/>
</g>
</g>
<defs>
<clipPath id="clip0_4_3319">
<path d="M0 0H310V160H0V0Z" fill="white"/>
</clipPath>
<clipPath id="clip1_4_3319">
<rect width="148" height="130" fill="white" transform="translate(81 15)"/>
</clipPath>
</defs>
</svg>
