<svg width="147" height="130" viewBox="0 0 147 130" fill="none" xmlns="http://www.w3.org/2000/svg">
<g clip-path="url(#clip0_4_3476)">
<path d="M79.8746 3.69986C78.565 1.42383 76.0029 0 73.192 0C70.3301 0 67.767 1.50169 66.4327 3.821L1.13797 117.322C-0.263381 119.758 -0.470874 122.826 1.02824 125.432C2.45923 127.919 5.03657 129.396 7.7053 129.396H138.679C141.348 129.396 143.925 127.919 145.356 125.432C146.855 122.826 146.648 119.758 145.246 117.322L79.8746 3.69986Z" fill="white" stroke="black" stroke-width="0.719" stroke-miterlimit="2" stroke-linecap="round" stroke-linejoin="round"/>
<path d="M73.1916 2.45312C71.2507 2.45312 69.5649 3.47484 68.7162 4.95005L3.42329 118.45C2.44581 120.149 2.31596 122.174 3.31319 123.907C4.28374 125.594 6.00326 126.542 7.70055 126.542H138.677C140.374 126.542 142.094 125.594 143.065 123.907C144.062 122.174 143.932 120.149 142.954 118.45L77.5845 4.82852C76.7825 3.43471 75.1133 2.45312 73.1916 2.45312ZM123.203 112.401H23.1747L73.1862 25.4669L123.203 112.401Z" fill="#DD2414"/>
<path fill-rule="evenodd" clip-rule="evenodd" d="M80.9153 102.213C81.0683 102.213 81.1822 102.33 81.4524 102.432C81.7453 102.755 81.9927 103.088 82.2824 103.529C81.9927 103.529 81.6054 103.529 81.1822 103.529C81.0683 103.206 80.7851 102.873 80.4922 102.432C80.6452 102.432 80.7851 102.33 80.9153 102.213Z" fill="black"/>
<path fill-rule="evenodd" clip-rule="evenodd" d="M82.3594 104.784C82.8997 104.784 83.4367 104.898 84.1463 105C84.1463 105.232 84.1463 105.555 84.1463 105.888C83.7232 105.774 83.3228 105.555 82.7597 105.323C82.6295 105.232 82.4765 105 82.3594 104.784Z" fill="black"/>
<path fill-rule="evenodd" clip-rule="evenodd" d="M84.1497 103.684C84.2864 103.475 84.5338 103.145 84.8267 102.818C85.38 102.818 85.9171 102.818 86.4574 102.818C86.4574 102.913 86.3402 103.027 86.21 103.243C85.9171 103.243 85.494 103.243 85.1099 103.361C85.1099 103.684 85.1099 104.017 85.1099 104.458C84.8267 104.458 84.5338 104.458 84.1497 104.344C83.9935 104.226 83.8633 104.135 83.7266 103.903C83.8633 103.903 83.9935 103.802 84.1497 103.684Z" fill="black"/>
<path fill-rule="evenodd" clip-rule="evenodd" d="M86.8372 105.248C86.9739 105.248 87.0813 105.346 87.3743 105.464C87.6607 105.787 87.9276 106.12 88.1977 106.561C87.9276 106.561 87.5044 106.561 87.0813 106.561C86.9739 106.238 86.707 105.905 86.4141 105.464C86.5508 105.464 86.707 105.346 86.8372 105.248Z" fill="black"/>
<path fill-rule="evenodd" clip-rule="evenodd" d="M88.2812 107.822C88.8183 107.822 89.3814 107.917 90.0487 108.031C90.0487 108.247 90.0487 108.574 90.0487 108.907C89.6255 108.805 89.2414 108.574 88.6881 108.364C88.5351 108.247 88.418 108.031 88.2812 107.822Z" fill="black"/>
<path fill-rule="evenodd" clip-rule="evenodd" d="M90.0481 106.718C90.2044 106.486 90.4582 106.159 90.7414 105.865C91.3045 105.865 91.8416 105.865 92.3949 105.865C92.3949 105.966 92.2647 106.058 92.1117 106.277C91.8416 106.277 91.4184 106.277 91.0116 106.391C91.0116 106.718 91.0116 107.048 91.0116 107.489C90.7414 107.489 90.4583 107.489 90.0481 107.374C89.9179 107.257 89.7812 107.165 89.625 106.933C89.7812 106.933 89.9179 106.832 90.0481 106.718Z" fill="black"/>
<path fill-rule="evenodd" clip-rule="evenodd" d="M87.5091 101.737C87.649 101.737 87.802 101.852 88.0494 101.946C88.3423 102.276 88.6092 102.603 88.8957 103.05C88.6092 103.05 88.1861 103.05 87.802 103.05C87.649 102.717 87.3789 102.394 87.0859 101.946C87.2422 101.946 87.3789 101.852 87.5091 101.737Z" fill="black"/>
<path fill-rule="evenodd" clip-rule="evenodd" d="M88.9531 104.304C89.4902 104.304 90.0435 104.418 90.7368 104.519C90.7368 104.751 90.7368 105.078 90.7368 105.401C90.3365 105.287 89.9133 105.078 89.3763 104.846C89.2363 104.751 89.0833 104.519 88.9531 104.304Z" fill="black"/>
<path fill-rule="evenodd" clip-rule="evenodd" d="M81.1419 105.735C81.2786 105.735 81.4088 105.827 81.7017 105.944C81.9491 106.278 82.242 106.601 82.5089 107.048C82.242 107.048 81.8189 107.048 81.4088 107.048C81.2786 106.719 80.9857 106.392 80.7188 105.944C80.8555 105.944 80.9857 105.827 81.1419 105.735Z" fill="black"/>
<path fill-rule="evenodd" clip-rule="evenodd" d="M82.5938 108.302C83.1471 108.302 83.6874 108.403 84.3644 108.517C84.3644 108.726 84.3644 109.06 84.3644 109.386C83.9543 109.291 83.5312 109.06 82.9941 108.844C82.8639 108.726 82.7239 108.517 82.5938 108.302Z" fill="black"/>
<path fill-rule="evenodd" clip-rule="evenodd" d="M84.3632 107.22C84.4934 107.011 84.7864 106.678 85.0305 106.352C85.6099 106.352 86.1469 106.352 86.71 106.352C86.71 106.446 86.5538 106.561 86.4171 106.779C86.1469 106.779 85.7466 106.779 85.3234 106.894C85.3234 107.22 85.3234 107.527 85.3234 107.978C85.0305 107.978 84.7864 107.978 84.3632 107.861C84.2233 107.746 84.1094 107.645 83.9531 107.436C84.1094 107.436 84.2233 107.335 84.3632 107.22Z" fill="black"/>
<path fill-rule="evenodd" clip-rule="evenodd" d="M95.8359 104.366C96.4739 104.366 97.1281 104.481 97.9353 104.598C97.9353 104.807 97.9353 105.131 97.9353 105.464C97.4504 105.346 96.9751 105.131 96.3209 104.921C96.1679 104.807 95.9889 104.598 95.8359 104.366Z" fill="black"/>
<path fill-rule="evenodd" clip-rule="evenodd" d="M97.9303 103.258C98.0995 103.049 98.4315 102.716 98.7766 102.393C99.408 102.393 100.062 102.393 100.716 102.393C100.716 102.507 100.563 102.602 100.394 102.834C100.062 102.834 99.587 102.834 99.1021 102.935C99.1021 103.258 99.1021 103.591 99.1021 104.032C98.7766 104.032 98.4315 104.032 97.9303 103.941C97.7773 103.823 97.6243 103.706 97.4453 103.49C97.6243 103.49 97.7773 103.376 97.9303 103.258Z" fill="black"/>
<path fill-rule="evenodd" clip-rule="evenodd" d="M93.5878 104.938C93.7408 104.938 93.9166 105.039 94.2421 105.153C94.5708 105.48 94.8735 105.813 95.2023 106.254C94.8735 106.254 94.395 106.254 93.9166 106.254C93.7408 105.927 93.4186 105.594 93.1094 105.153C93.2656 105.153 93.4186 105.039 93.5878 104.938Z" fill="black"/>
<path fill-rule="evenodd" clip-rule="evenodd" d="M95.2969 107.528C95.9479 107.528 96.6021 107.646 97.4126 107.747C97.4126 107.979 97.4126 108.286 97.4126 108.613C96.9113 108.495 96.4328 108.286 95.7786 108.07C95.6256 107.979 95.4499 107.747 95.2969 107.528Z" fill="black"/>
<path fill-rule="evenodd" clip-rule="evenodd" d="M97.4075 106.43C97.5605 106.214 97.8925 105.888 98.2147 105.555C98.8689 105.555 99.5232 105.555 100.161 105.555C100.161 105.656 100.008 105.774 99.8291 105.983C99.5232 105.983 99.0219 105.983 98.5435 106.097C98.5435 106.43 98.5435 106.753 98.5435 107.204C98.2147 107.204 97.8925 107.204 97.4075 107.087C97.2382 106.972 97.082 106.871 96.9062 106.639C97.082 106.639 97.2382 106.548 97.4075 106.43Z" fill="black"/>
<path fill-rule="evenodd" clip-rule="evenodd" d="M100.704 103.592C100.86 103.592 101.029 103.706 101.358 103.824C101.68 104.147 102.012 104.48 102.321 104.921C102.012 104.921 101.511 104.921 101.029 104.921C100.86 104.598 100.551 104.265 100.219 103.824C100.375 103.824 100.551 103.706 100.704 103.592Z" fill="black"/>
<path fill-rule="evenodd" clip-rule="evenodd" d="M102.391 106.198C103.038 106.198 103.715 106.29 104.523 106.407C104.523 106.623 104.523 106.949 104.523 107.279C104.038 107.181 103.523 106.949 102.869 106.74C102.716 106.623 102.56 106.407 102.391 106.198Z" fill="black"/>
<path fill-rule="evenodd" clip-rule="evenodd" d="M104.524 105.091C104.677 104.859 105.003 104.536 105.331 104.209C105.985 104.209 106.64 104.209 107.271 104.209C107.271 104.327 107.118 104.441 106.962 104.65C106.64 104.65 106.138 104.65 105.657 104.768C105.657 105.091 105.657 105.424 105.657 105.865C105.331 105.865 105.003 105.865 104.524 105.751C104.332 105.633 104.192 105.519 104.039 105.31C104.192 105.31 104.332 105.192 104.524 105.091Z" fill="black"/>
<path fill-rule="evenodd" clip-rule="evenodd" d="M101.377 106.522C101.53 106.522 101.709 106.624 102.031 106.741C102.36 107.065 102.685 107.398 102.991 107.839C102.685 107.839 102.184 107.839 101.709 107.839C101.53 107.512 101.224 107.182 100.898 106.741C101.055 106.741 101.224 106.624 101.377 106.522Z" fill="black"/>
<path fill-rule="evenodd" clip-rule="evenodd" d="M103.086 109.115C103.74 109.115 104.391 109.213 105.202 109.331C105.202 109.54 105.202 109.863 105.202 110.196C104.723 110.095 104.222 109.863 103.571 109.654C103.415 109.54 103.262 109.331 103.086 109.115Z" fill="black"/>
<path fill-rule="evenodd" clip-rule="evenodd" d="M105.197 108.014C105.35 107.799 105.682 107.453 106.004 107.126C106.659 107.126 107.313 107.126 107.951 107.126C107.951 107.244 107.798 107.358 107.619 107.567C107.313 107.567 106.812 107.567 106.336 107.685C106.336 108.014 106.336 108.341 106.336 108.789C106.004 108.789 105.682 108.789 105.197 108.674C105.028 108.557 104.872 108.455 104.719 108.223C104.872 108.223 105.028 108.132 105.197 108.014Z" fill="black"/>
<path fill-rule="evenodd" clip-rule="evenodd" d="M39.3906 101.641V105.735V105.813H79.1695V101.641L39.3906 101.641Z" fill="black"/>
<path fill-rule="evenodd" clip-rule="evenodd" d="M70.6122 75.152C77.9748 75.6713 84.784 76.6382 91.8146 77.9904C93.123 81.1163 94.0311 83.8469 94.2004 87.1492C88.5694 86.1203 85.2201 85.601 80.5884 84.9444C75.9339 84.2879 71.1492 83.8469 66.4199 83.4746C67.3833 80.0155 68.5942 78.4151 70.6122 75.152ZM61.2511 85.307C64.9584 79.4995 68.1515 72.7153 71.133 72.7708C74.1275 72.8688 78.2677 73.3718 81.8351 73.852C85.4512 74.3387 89.6208 75.1291 92.586 75.7105C95.5089 76.2887 96.6611 81.9655 98.8549 90.3339C99.7011 93.6361 97.5855 96.9024 96.6383 99.1431C96.4463 100.884 96.124 102.213 95.6228 103.879L90.3531 103.18L90.122 98.5879L67.6307 95.5698L66.4589 100.035L61.4594 99.375C61.3846 96.6542 61.3455 95.2399 61.4204 93.5218C60.9028 91.1472 59.7669 87.6653 61.2511 85.307Z" fill="black"/>
</g>
<defs>
<clipPath id="clip0_4_3476">
<rect width="147" height="130" fill="white"/>
</clipPath>
</defs>
</svg>
