<svg width="174" height="174" viewBox="0 0 174 174" fill="none" xmlns="http://www.w3.org/2000/svg">
<g clip-path="url(#clip0_4_3727)">
<g clip-path="url(#clip1_4_3727)">
<path d="M151.926 87.0001C151.926 122.859 122.857 151.928 86.9982 151.928C51.1395 151.928 22.0703 122.859 22.0703 87.0001C22.0703 51.1415 51.1395 22.0723 86.9982 22.0723C122.857 22.0723 151.926 51.1415 151.926 87.0001Z" fill="black"/>
<path d="M151.269 86.9997C151.269 122.498 122.492 151.275 86.9938 151.275C51.4957 151.275 22.7188 122.498 22.7188 86.9997C22.7188 51.5015 51.4957 22.7246 86.9938 22.7246C122.492 22.7246 151.269 51.5015 151.269 86.9997Z" fill="white"/>
<path d="M86.996 148.418C120.916 148.418 148.414 120.92 148.414 86.9999C148.414 53.0797 120.916 25.582 86.996 25.582C53.0758 25.582 25.5781 53.0797 25.5781 86.9999C25.5781 120.92 53.0758 148.418 86.996 148.418Z" fill="black"/>
<path d="M86.9943 145.698C119.412 145.698 145.692 119.418 145.692 87.0001C145.692 54.5825 119.412 28.3027 86.9943 28.3027C54.5766 28.3027 28.2969 54.5825 28.2969 87.0001C28.2969 119.418 54.5766 145.698 86.9943 145.698Z" fill="white"/>
<path d="M127.796 44.0463L43.7734 128.069L45.7981 130.094L129.821 46.071L127.796 44.0463Z" fill="black"/>
<path d="M131.898 48.0835L47.875 132.106L49.8996 134.131L133.923 50.1081L131.898 48.0835Z" fill="black"/>
<path d="M123.914 39.8598L39.8906 123.883L41.9153 125.907L125.938 41.8845L123.914 39.8598Z" fill="black"/>
</g>
</g>
<defs>
<clipPath id="clip0_4_3727">
<rect width="174" height="174" fill="white"/>
</clipPath>
<clipPath id="clip1_4_3727">
<rect width="130" height="130" fill="white" transform="translate(22 22)"/>
</clipPath>
</defs>
</svg>
