<svg width="174" height="174" viewBox="0 0 174 174" fill="none" xmlns="http://www.w3.org/2000/svg">
<g clip-path="url(#clip0_4_4064)">
<g clip-path="url(#clip1_4_4064)">
<path d="M86.9982 151.928C122.857 151.928 151.926 122.859 151.926 87.0001C151.926 51.1415 122.857 22.0723 86.9982 22.0723C51.1395 22.0723 22.0703 51.1415 22.0703 87.0001C22.0703 122.859 51.1395 151.928 86.9982 151.928Z" fill="black"/>
<path d="M86.9938 151.275C122.492 151.275 151.269 122.498 151.269 86.9997C151.269 51.5015 122.492 22.7246 86.9938 22.7246C51.4957 22.7246 22.7188 51.5015 22.7188 86.9997C22.7188 122.498 51.4957 151.275 86.9938 151.275Z" fill="white"/>
<path fill-rule="evenodd" clip-rule="evenodd" d="M86.9959 25.582C70.707 25.5822 55.0852 32.053 43.5672 43.5711C32.0491 55.0891 25.5783 70.7109 25.5781 86.9998C25.5783 103.289 32.0491 118.911 43.5672 130.429C55.0852 141.947 70.707 148.417 86.9959 148.418C103.285 148.417 118.907 141.947 130.425 130.429C141.943 118.911 148.414 103.289 148.414 86.9998C148.414 70.7109 141.943 55.0891 130.425 43.5711C118.907 32.053 103.285 25.5822 86.9959 25.582ZM86.9959 38.437C99.8756 38.4372 112.228 43.5537 121.335 52.6609C130.442 61.7682 135.559 74.1202 135.559 86.9998C135.559 99.8795 130.442 112.231 121.335 121.339C112.228 130.446 99.8756 135.562 86.9959 135.563C74.1163 135.562 61.7643 130.446 52.657 121.339C43.5498 112.231 38.4333 99.8795 38.4331 86.9998C38.4333 74.1202 43.5498 61.7682 52.657 52.6609C61.7643 43.5537 74.1163 38.4372 86.9959 38.437Z" fill="#DC291B"/>
<path fill-rule="evenodd" clip-rule="evenodd" d="M90.7462 74.9894C90.7462 74.9894 90.4292 75.4661 90.4297 75.8635C90.4304 76.7372 90.908 77.1337 91.8611 77.1327L92.179 77.1323L99.3991 75.286L99.4374 120.09L110.175 120.08L110.136 75.2764L117.531 77.0883C118.485 77.0876 118.961 76.6892 118.96 75.8156C118.959 75.4183 118.8 75.1009 118.72 74.942L104.659 52.0869" fill="#DC291B"/>
<path fill-rule="evenodd" clip-rule="evenodd" d="M55.7149 97.1642C55.7149 97.1642 55.398 96.6875 55.3984 96.29C55.3992 95.4163 55.8767 95.0198 56.8299 95.0209L57.1478 95.0212L64.3679 96.8675L64.4061 52.0635L75.1434 52.0732L75.1051 96.8773L82.5 95.0653C83.4533 95.066 83.9294 95.4645 83.9283 96.338C83.9279 96.7353 83.7683 97.0527 83.6891 97.2115L69.628 120.067" fill="black"/>
</g>
</g>
<defs>
<clipPath id="clip0_4_4064">
<rect width="174" height="174" fill="white"/>
</clipPath>
<clipPath id="clip1_4_4064">
<rect width="130" height="130" fill="white" transform="translate(22 22)"/>
</clipPath>
</defs>
</svg>
