<svg width="174" height="174" viewBox="0 0 174 174" fill="none" xmlns="http://www.w3.org/2000/svg">
<g clip-path="url(#clip0_4_3816)">
<g clip-path="url(#clip1_4_3816)">
<path fill-rule="evenodd" clip-rule="evenodd" d="M18.1639 114.67L18.1365 114.776L14.1484 129.182L28.6555 132.869L155.802 59.3303L159.845 44.8565L145.314 41.1309L18.1639 114.67ZM18.6206 115.026L145.392 41.705L159.18 45.2432L155.345 58.9741L28.5751 132.294L14.8113 128.798L18.6206 115.026Z" fill="black"/>
<path fill-rule="evenodd" clip-rule="evenodd" d="M18.3907 114.847L14.4766 128.99L28.6112 132.581L155.57 59.1517L159.51 45.0497L145.349 41.418L18.3907 114.847Z" fill="#DC291B"/>
<path d="M28.7717 108.844L18.3906 114.848L28.6105 132.581L38.9916 126.577L28.7717 108.844Z" fill="white"/>
<path d="M49.5373 96.8357L39.1562 102.84L49.3762 120.573L59.7572 114.568L49.5373 96.8357Z" fill="white"/>
<path d="M39.1623 102.84L28.7812 108.844L39.0012 126.577L49.3822 120.573L39.1623 102.84Z" fill="#DC291B"/>
<path d="M59.9201 90.8318L49.5391 96.8359L59.759 114.569L70.14 108.565L59.9201 90.8318Z" fill="#DC291B"/>
<path d="M134.978 47.4216L145.359 41.4175L155.579 59.1503L145.198 65.1544L134.978 47.4216Z" fill="white"/>
<path d="M114.213 59.4299L124.594 53.4258L134.814 71.1586L124.433 77.1627L114.213 59.4299Z" fill="white"/>
<path d="M124.595 53.426L134.977 47.4219L145.196 65.1547L134.815 71.1588L124.595 53.426Z" fill="#DC291B"/>
<path d="M103.83 65.4338L114.211 59.4297L124.431 77.1625L114.05 83.1666L103.83 65.4338Z" fill="#DC291B"/>
<path fill-rule="evenodd" clip-rule="evenodd" d="M155.83 114.67L155.857 114.776L159.846 129.182L145.338 132.869L18.1916 59.3303L14.1484 44.8565L28.6804 41.1309L155.83 114.67ZM155.373 115.026L28.602 41.705L14.8141 45.2432L18.6493 58.9741L145.419 132.294L159.183 128.798L155.373 115.026Z" fill="black"/>
<path fill-rule="evenodd" clip-rule="evenodd" d="M155.604 114.847L159.518 128.99L145.383 132.581L18.4244 59.1518L14.4844 45.0498L28.6449 41.418L155.604 114.847Z" fill="#DC291B"/>
<path d="M145.22 108.844L155.602 114.848L145.382 132.581L135.001 126.577L145.22 108.844Z" fill="white"/>
<path d="M124.455 96.8357L134.836 102.84L124.616 120.573L114.235 114.568L124.455 96.8357Z" fill="white"/>
<path d="M134.838 102.84L145.219 108.844L134.999 126.577L124.618 120.573L134.838 102.84Z" fill="#DC291B"/>
<path d="M114.08 90.8318L124.461 96.8359L114.241 114.569L103.86 108.565L114.08 90.8318Z" fill="#DC291B"/>
<path d="M39.0217 47.4216L28.6406 41.4175L18.4207 59.1503L28.8018 65.1544L39.0217 47.4216Z" fill="white"/>
<path d="M59.7795 59.4299L49.3984 53.4258L39.1785 71.1586L49.5596 77.1627L59.7795 59.4299Z" fill="white"/>
<path d="M49.4045 53.426L39.0234 47.4219L28.8035 65.1547L39.1846 71.1588L49.4045 53.426Z" fill="#DC291B"/>
<path d="M70.1623 65.4338L59.7812 59.4297L49.5613 77.1625L59.9424 83.1666L70.1623 65.4338Z" fill="#DC291B"/>
<path d="M70.166 65.4339L114.078 90.8315L103.858 108.564L59.9461 83.1667L70.166 65.4339Z" fill="white"/>
<path d="M103.834 65.4339L59.9219 90.8315L70.1418 108.564L114.054 83.1667L103.834 65.4339Z" fill="white"/>
</g>
</g>
<defs>
<clipPath id="clip0_4_3816">
<rect width="174" height="174" fill="white"/>
</clipPath>
<clipPath id="clip1_4_3816">
<rect width="146" height="92" fill="white" transform="translate(14 41)"/>
</clipPath>
</defs>
</svg>
