<svg width="310" height="160" viewBox="0 0 310 160" fill="none" xmlns="http://www.w3.org/2000/svg">
<g clip-path="url(#clip0_4_3010)">
<g clip-path="url(#clip1_4_3010)">
<path fill-rule="evenodd" clip-rule="evenodd" d="M115.96 15.1417C110.802 15.1417 106.641 19.3337 106.641 24.5296V135.47C106.641 140.666 110.802 144.858 115.96 144.858H194.04C199.198 144.858 203.359 140.666 203.359 135.47V24.5296C203.359 19.3337 199.198 15.1417 194.04 15.1417H115.96ZM115.96 15.726H194.04C198.886 15.726 202.779 19.6474 202.779 24.5296V135.47C202.779 140.352 198.886 144.274 194.04 144.274H115.96C111.114 144.274 107.221 140.352 107.221 135.47V24.5296C107.221 19.6474 111.114 15.726 115.96 15.726Z" fill="black"/>
<path fill-rule="evenodd" clip-rule="evenodd" d="M115.959 15.4337H194.039C199.041 15.4337 203.068 19.4904 203.068 24.5295V135.47C203.068 140.509 199.041 144.566 194.039 144.566H115.959C110.957 144.566 106.93 140.509 106.93 135.47V24.5295C106.93 19.4904 110.957 15.4337 115.959 15.4337Z" fill="white"/>
<path fill-rule="evenodd" clip-rule="evenodd" d="M115.9 17.586H194.106C197.89 17.586 200.936 20.6544 200.936 24.4659V135.534C200.936 139.345 197.89 142.414 194.106 142.414H115.9C112.116 142.414 109.07 139.345 109.07 135.534V24.4659C109.07 20.6544 112.116 17.586 115.9 17.586Z" fill="#0070FD"/>
<path fill-rule="evenodd" clip-rule="evenodd" d="M118.469 27.3282H191.533V81.4494H118.469V27.3282Z" fill="white"/>
<path fill-rule="evenodd" clip-rule="evenodd" d="M177.75 31.8127L177.708 31.8469L123.047 77.3031H129.612L180.31 31.8126L177.75 31.8127ZM186.115 31.9045L186.071 31.9863L161.653 77.3031H168.127L188.199 31.9045L186.115 31.9045ZM181.615 32.4883L181.57 32.5418L179.863 34.4961H182.237L183.822 32.4883L181.615 32.4883ZM177.674 36.9448L177.629 36.9984L171.767 43.6556H174.935L180.331 36.9448L177.674 36.9448ZM168.211 47.6945L168.165 47.7481L160.073 56.9763H164.647L172.059 47.6946L168.211 47.6945ZM155.377 62.3337L142.217 77.3031H148.709L160.452 62.3337H160.132H155.377Z" fill="black"/>
<path fill-rule="evenodd" clip-rule="evenodd" d="M117.13 109.834V99.9298H114.219V97.9542H122.305V99.9298H119.29V109.834H117.13Z" fill="white"/>
<path fill-rule="evenodd" clip-rule="evenodd" d="M123.852 105.926V101.844C123.852 101.293 123.924 100.814 124.068 100.408C124.212 100.002 124.451 99.5958 124.785 99.1897C125.591 98.2091 126.625 97.7188 127.886 97.7188C129.239 97.7188 130.316 98.2584 131.117 99.3376C131.664 100.08 131.938 100.916 131.938 101.844V105.926C131.938 106.929 131.635 107.811 131.031 108.571C130.242 109.569 129.196 110.068 127.895 110.068C127.238 110.068 126.628 109.935 126.063 109.668C125.499 109.395 125.029 109.015 124.655 108.528C124.119 107.826 123.852 106.958 123.852 105.926ZM129.778 106.23V101.557C129.778 101.139 129.654 100.771 129.406 100.452C129.026 99.9526 128.528 99.7031 127.912 99.7031C127.572 99.7031 127.25 99.796 126.944 99.9816C126.639 100.161 126.4 100.405 126.227 100.713C126.083 100.98 126.011 101.261 126.011 101.557V106.23C126.011 106.602 126.106 106.935 126.296 107.231C126.659 107.806 127.198 108.093 127.912 108.093C128.689 108.093 129.242 107.759 129.571 107.092C129.709 106.813 129.778 106.526 129.778 106.23Z" fill="white"/>
<path fill-rule="evenodd" clip-rule="evenodd" d="M133.242 109.834L136.689 97.9542H139.246L142.676 109.834H140.352L137.933 101.583L135.514 109.834H133.242Z" fill="white"/>
<path fill-rule="evenodd" clip-rule="evenodd" d="M117.13 125.91V116.006H114.219V114.03H122.305V116.006H119.29V125.91H117.13Z" fill="white"/>
<path fill-rule="evenodd" clip-rule="evenodd" d="M123.852 122.002V117.92C123.852 117.369 123.924 116.89 124.068 116.484C124.212 116.078 124.451 115.672 124.785 115.266C125.591 114.285 126.625 113.795 127.886 113.795C129.239 113.795 130.316 114.335 131.117 115.414C131.664 116.156 131.938 116.992 131.938 117.92V122.002C131.938 123.006 131.635 123.888 131.031 124.648C130.242 125.646 129.196 126.144 127.895 126.144C127.238 126.144 126.628 126.011 126.063 125.744C125.499 125.471 125.029 125.091 124.655 124.604C124.119 123.902 123.852 123.035 123.852 122.002ZM129.778 122.307V117.633C129.778 117.215 129.654 116.847 129.406 116.528C129.026 116.029 128.528 115.779 127.912 115.779C127.572 115.779 127.25 115.872 126.944 116.058C126.639 116.238 126.4 116.481 126.227 116.789C126.083 117.056 126.011 117.337 126.011 117.633V122.307C126.011 122.678 126.106 123.011 126.296 123.307C126.659 123.882 127.198 124.169 127.912 124.169C128.689 124.169 129.242 123.835 129.571 123.168C129.709 122.89 129.778 122.602 129.778 122.307Z" fill="white"/>
<path fill-rule="evenodd" clip-rule="evenodd" d="M136.472 114.03V123.934H141.051V125.91H134.312V114.03H136.472Z" fill="white"/>
<path fill-rule="evenodd" clip-rule="evenodd" d="M144.793 114.03V123.934H149.371V125.91H142.633V114.03H144.793Z" fill="white"/>
<path d="M154.728 121.022L154.882 121.718L155.107 121.949C155.107 121.949 155.31 121.954 155.392 122.008C155.477 122.064 155.572 122.256 155.572 122.256L153.117 127.595V133.308H159.796C159.866 132.537 160.22 131.819 160.788 131.297C161.356 130.775 162.098 130.486 162.867 130.486C163.636 130.486 164.377 130.775 164.945 131.297C165.513 131.819 165.867 132.537 165.938 133.308H181.971C182.042 132.537 182.396 131.819 182.964 131.297C183.532 130.775 184.273 130.486 185.042 130.486C185.811 130.486 186.552 130.775 187.12 131.297C187.688 131.819 188.043 132.537 188.113 133.308H196.836V127.595V126.899L194.605 122.256V121.022L154.728 121.022ZM156.851 122.414H159.81C160.088 122.414 160.312 122.639 160.312 122.919V127.09C160.312 127.37 160.088 127.595 159.81 127.595H155.245C154.967 127.595 154.643 127.351 154.744 127.09L156.349 122.919C156.45 122.658 156.573 122.414 156.851 122.414ZM162.124 122.414H168.646C168.924 122.414 169.147 122.639 169.147 122.919V127.09C169.147 127.37 168.923 127.595 168.646 127.595H162.124C161.846 127.595 161.622 127.37 161.622 127.09V122.919C161.622 122.639 161.846 122.414 162.124 122.414ZM171.33 122.414H177.852C178.13 122.414 178.353 122.639 178.353 122.919V127.09C178.353 127.37 178.129 127.595 177.852 127.595H171.33C171.052 127.595 170.829 127.37 170.829 127.09V122.919C170.829 122.639 171.053 122.414 171.33 122.414ZM180.386 122.414H186.908C187.186 122.414 187.409 122.639 187.409 122.919V127.09C187.409 127.37 187.186 127.595 186.908 127.595H180.386C180.108 127.595 179.884 127.37 179.884 127.09V122.919C179.884 122.639 180.108 122.414 180.386 122.414ZM189.367 122.414H192.326C192.604 122.414 192.723 122.66 192.828 122.919L194.508 127.09C194.613 127.349 194.284 127.595 194.007 127.595H189.367C189.089 127.595 188.865 127.37 188.865 127.09V122.919C188.865 122.639 189.089 122.414 189.367 122.414ZM162.866 130.877C162.512 130.877 162.161 130.947 161.834 131.084C161.507 131.22 161.21 131.42 160.959 131.672C160.709 131.925 160.511 132.224 160.375 132.554C160.24 132.883 160.17 133.237 160.17 133.593C160.17 134.314 160.454 135.005 160.96 135.514C161.465 136.023 162.151 136.309 162.866 136.309C163.22 136.309 163.571 136.239 163.898 136.103C164.225 135.966 164.522 135.766 164.773 135.514C165.023 135.262 165.222 134.962 165.357 134.633C165.493 134.303 165.563 133.95 165.563 133.593C165.563 133.237 165.493 132.883 165.358 132.554C165.222 132.224 165.023 131.925 164.773 131.672C164.523 131.42 164.225 131.22 163.898 131.083C163.571 130.947 163.22 130.877 162.866 130.877ZM185.042 130.877C184.687 130.877 184.337 130.947 184.01 131.084C183.683 131.22 183.385 131.42 183.135 131.672C182.885 131.925 182.686 132.224 182.55 132.554C182.415 132.883 182.345 133.237 182.345 133.593C182.345 134.314 182.629 135.005 183.135 135.514C183.641 136.023 184.326 136.309 185.042 136.309C185.396 136.31 185.746 136.239 186.073 136.103C186.401 135.966 186.698 135.766 186.948 135.514C187.199 135.262 187.397 134.962 187.533 134.633C187.668 134.303 187.738 133.95 187.738 133.593C187.738 133.237 187.669 132.883 187.533 132.554C187.398 132.224 187.199 131.925 186.949 131.672C186.698 131.42 186.401 131.22 186.074 131.083C185.746 130.947 185.396 130.877 185.042 130.877ZM162.866 132.105C163.06 132.105 163.252 132.144 163.431 132.218C163.611 132.293 163.774 132.403 163.911 132.541C164.048 132.679 164.157 132.843 164.231 133.024C164.305 133.204 164.343 133.398 164.343 133.593C164.343 133.789 164.305 133.982 164.231 134.163C164.157 134.343 164.048 134.507 163.911 134.645C163.773 134.784 163.611 134.893 163.431 134.968C163.252 135.043 163.06 135.081 162.866 135.081C162.474 135.081 162.099 134.924 161.822 134.645C161.545 134.366 161.389 133.988 161.389 133.593C161.389 133.398 161.428 133.204 161.502 133.024C161.576 132.843 161.685 132.679 161.822 132.541C161.959 132.403 162.122 132.293 162.301 132.219C162.48 132.144 162.672 132.105 162.866 132.105ZM185.042 132.105C185.236 132.105 185.428 132.144 185.607 132.218C185.786 132.293 185.949 132.403 186.086 132.541C186.223 132.679 186.332 132.843 186.406 133.024C186.481 133.204 186.519 133.398 186.519 133.593C186.519 133.789 186.481 133.982 186.406 134.163C186.332 134.343 186.223 134.507 186.086 134.645C185.949 134.784 185.786 134.893 185.607 134.968C185.428 135.043 185.236 135.081 185.042 135.081C184.65 135.081 184.274 134.924 183.997 134.645C183.72 134.366 183.565 133.988 183.565 133.593C183.565 133.398 183.603 133.204 183.677 133.024C183.751 132.843 183.86 132.679 183.997 132.541C184.134 132.403 184.297 132.293 184.476 132.219C184.656 132.144 184.848 132.105 185.042 132.105Z" fill="white"/>
<path d="M165.926 92.2257V108.998H196.838V93.796C196.838 92.926 196.143 92.2257 195.28 92.2257H165.926ZM156.079 94.3665L150.821 101.793V110.527L150.774 110.526L149.997 110.597C149.654 110.629 149.375 110.933 149.375 111.28V112.169C149.375 112.515 149.652 112.795 149.997 112.795H152.107C152.613 110.01 155.012 107.911 157.918 107.911C161.034 107.911 163.568 110.324 163.808 113.41H179.951L181.374 110.897H164.387V94.3668L156.079 94.3665ZM156.48 95.5315H163.229V102.383H153.637C153.234 102.383 152.705 102.001 152.91 101.651L156.48 95.5315ZM158.037 109.071C157.471 109.071 156.911 109.183 156.388 109.401C155.865 109.619 155.39 109.939 154.99 110.342C154.59 110.745 154.273 111.224 154.056 111.75C153.84 112.277 153.728 112.841 153.728 113.411C153.728 113.981 153.84 114.546 154.056 115.072C154.273 115.599 154.59 116.077 154.99 116.481C155.39 116.884 155.865 117.203 156.388 117.421C156.911 117.64 157.471 117.752 158.037 117.752C158.602 117.752 159.163 117.64 159.685 117.421C160.208 117.203 160.683 116.884 161.083 116.481C161.483 116.077 161.801 115.599 162.017 115.072C162.234 114.546 162.345 113.981 162.345 113.411C162.345 112.841 162.234 112.277 162.017 111.75C161.801 111.224 161.483 110.745 161.083 110.342C160.683 109.939 160.208 109.619 159.685 109.401C159.163 109.183 158.602 109.071 158.037 109.071ZM185.935 109.071C185.369 109.071 184.809 109.183 184.286 109.401C183.764 109.619 183.289 109.939 182.889 110.342C182.489 110.745 182.171 111.224 181.955 111.75C181.738 112.277 181.627 112.841 181.627 113.411C181.627 113.981 181.738 114.546 181.955 115.072C182.171 115.599 182.489 116.077 182.889 116.481C183.289 116.884 183.764 117.203 184.286 117.421C184.809 117.64 185.369 117.752 185.935 117.752C186.501 117.752 187.061 117.64 187.584 117.421C188.107 117.203 188.582 116.884 188.982 116.481C189.382 116.077 189.699 115.599 189.916 115.072C190.132 114.546 190.244 113.981 190.244 113.411C190.244 112.841 190.132 112.277 189.916 111.75C189.699 111.224 189.382 110.745 188.982 110.342C188.582 109.939 188.107 109.619 187.584 109.401C187.061 109.183 186.501 109.071 185.935 109.071ZM158.037 110.37C158.433 110.37 158.826 110.449 159.192 110.602C159.558 110.755 159.891 110.978 160.171 111.261C160.452 111.543 160.674 111.879 160.826 112.248C160.977 112.617 161.055 113.012 161.055 113.411C161.055 113.811 160.977 114.206 160.826 114.575C160.674 114.944 160.452 115.279 160.171 115.562C159.891 115.844 159.558 116.068 159.192 116.221C158.826 116.374 158.433 116.452 158.037 116.452C157.236 116.452 156.469 116.132 155.903 115.562C155.337 114.991 155.019 114.218 155.019 113.411C155.019 112.605 155.337 111.831 155.903 111.261C156.469 110.691 157.236 110.37 158.037 110.37ZM185.935 110.37C186.332 110.37 186.724 110.449 187.09 110.602C187.457 110.755 187.789 110.979 188.07 111.261C188.35 111.543 188.572 111.879 188.724 112.248C188.876 112.617 188.954 113.012 188.954 113.411C188.954 113.811 188.876 114.206 188.724 114.575C188.572 114.944 188.35 115.279 188.07 115.562C187.789 115.844 187.457 116.068 187.09 116.221C186.724 116.374 186.332 116.452 185.935 116.452C185.135 116.452 184.367 116.132 183.801 115.562C183.235 114.991 182.917 114.218 182.917 113.411C182.917 112.605 183.235 111.831 183.801 111.261C184.367 110.691 185.135 110.37 185.935 110.37ZM190.786 110.897L192.173 113.41H195.302L196.597 110.897H190.786ZM158.014 111.67C157.549 111.67 157.103 111.856 156.775 112.187C156.446 112.518 156.262 112.966 156.262 113.435C156.262 113.666 156.307 113.896 156.395 114.11C156.483 114.324 156.612 114.519 156.775 114.683C156.937 114.847 157.13 114.977 157.343 115.066C157.556 115.154 157.784 115.2 158.014 115.2C158.244 115.2 158.472 115.154 158.684 115.066C158.897 114.977 159.09 114.847 159.253 114.683C159.415 114.519 159.544 114.324 159.632 114.11C159.72 113.896 159.766 113.666 159.766 113.435C159.766 112.966 159.581 112.518 159.252 112.187C158.924 111.856 158.478 111.67 158.014 111.67ZM185.912 111.67C185.448 111.67 185.002 111.856 184.673 112.187C184.345 112.518 184.16 112.966 184.16 113.435C184.16 113.666 184.205 113.896 184.293 114.11C184.381 114.324 184.51 114.519 184.673 114.683C184.836 114.847 185.029 114.977 185.242 115.066C185.454 115.154 185.682 115.2 185.912 115.2C186.142 115.2 186.37 115.154 186.583 115.066C186.795 114.977 186.989 114.847 187.151 114.683C187.314 114.519 187.443 114.324 187.531 114.11C187.619 113.896 187.664 113.666 187.664 113.435C187.664 112.966 187.48 112.518 187.151 112.187C186.822 111.856 186.377 111.67 185.912 111.67Z" fill="white"/>
<path fill-rule="evenodd" clip-rule="evenodd" d="M166.969 97.8214L171.727 100.232V101.35L166.969 103.771V102.447L170.332 100.794L166.969 99.14V97.8214Z" fill="black"/>
<path fill-rule="evenodd" clip-rule="evenodd" d="M177.928 101.329V100.103H178.701C178.958 100.103 179.169 100.022 179.334 99.8595C179.505 99.6902 179.591 99.4704 179.591 99.2002C179.591 98.9084 179.489 98.667 179.285 98.4761C179.078 98.2851 178.838 98.1897 178.567 98.1897C178.223 98.1897 177.95 98.341 177.746 98.6436C177.664 98.7661 177.612 98.912 177.59 99.0814H176.174C176.188 98.5986 176.321 98.1879 176.571 97.8492C177.011 97.2584 177.667 96.963 178.54 96.963C179.334 96.963 179.942 97.1936 180.364 97.6547C180.743 98.0654 180.932 98.532 180.932 99.0543C180.932 99.6019 180.689 100.123 180.203 100.616C180.757 101.092 181.034 101.677 181.034 102.372C181.034 103.046 180.778 103.604 180.267 104.048C179.813 104.437 179.225 104.631 178.502 104.631C177.984 104.631 177.53 104.525 177.14 104.312C176.75 104.096 176.449 103.788 176.238 103.388C176.092 103.104 176.015 102.765 176.008 102.372H177.392C177.442 102.607 177.524 102.797 177.639 102.945C177.86 103.251 178.161 103.405 178.54 103.405C178.89 103.405 179.178 103.275 179.403 103.015C179.597 102.796 179.693 102.54 179.693 102.248C179.693 101.931 179.573 101.682 179.334 101.502C179.187 101.387 179.003 101.329 178.781 101.329H177.928Z" fill="black"/>
<path fill-rule="evenodd" clip-rule="evenodd" d="M182.391 103.328H183.608V104.209L182.391 105.663V103.328Z" fill="black"/>
<path fill-rule="evenodd" clip-rule="evenodd" d="M186.711 98.3352V99.6916C187.058 99.5799 187.377 99.5241 187.666 99.5241C188.117 99.5241 188.526 99.6195 188.895 99.8105C189.267 99.9978 189.567 100.266 189.796 100.616C190.061 101.019 190.193 101.502 190.193 102.064C190.193 102.709 190.025 103.246 189.689 103.674C189.449 103.977 189.152 104.213 188.798 104.382C188.448 104.548 188.07 104.631 187.666 104.631C187.055 104.631 186.517 104.442 186.052 104.063C185.597 103.696 185.304 103.193 185.172 102.556H186.534C186.624 102.829 186.765 103.04 186.958 103.188C187.155 103.332 187.394 103.404 187.677 103.404C188.085 103.404 188.405 103.242 188.637 102.918C188.78 102.72 188.852 102.487 188.852 102.221V101.891C188.852 101.588 188.757 101.334 188.568 101.129C188.331 100.877 188.042 100.751 187.698 100.751C187.312 100.751 186.983 100.934 186.711 101.302H185.365V97.1085H189.71V98.3352H186.711Z" fill="black"/>
<path d="M191.5 99.2169V100.311H192.959V104.485H194.209V100.311H195.692V99.2169H191.5Z" fill="black"/>
</g>
</g>
<defs>
<clipPath id="clip0_4_3010">
<path d="M0 0H310V160H0V0Z" fill="white"/>
</clipPath>
<clipPath id="clip1_4_3010">
<rect width="97" height="130" fill="white" transform="translate(106.5 15)"/>
</clipPath>
</defs>
</svg>
