<svg width="174" height="174" viewBox="0 0 174 174" fill="none" xmlns="http://www.w3.org/2000/svg">
<g clip-path="url(#clip0_4_4097)">
<g clip-path="url(#clip1_4_4097)">
<path fill-rule="evenodd" clip-rule="evenodd" d="M34.6649 22.1895C27.7593 22.1895 22.1875 27.7587 22.1875 34.6644V139.334C22.1875 146.239 27.7593 151.811 34.6649 151.811H139.332C146.237 151.811 151.809 146.239 151.809 139.334V34.6644C151.809 27.7587 146.237 22.1895 139.332 22.1895H34.6649ZM34.6649 22.9614H139.332C145.822 22.9614 151.035 28.1741 151.035 34.6644V139.334C151.035 145.824 145.822 151.037 139.332 151.037H34.6649C28.1747 151.037 22.9619 145.824 22.9619 139.334V34.6644C22.9619 28.1741 28.1747 22.9614 34.6649 22.9614Z" fill="black" fill-opacity="0.9799"/>
<path fill-rule="evenodd" clip-rule="evenodd" d="M34.6605 22.5752H139.327C146.025 22.5752 151.417 27.9674 151.417 34.6654V139.333C151.417 146.031 146.025 151.423 139.327 151.423H34.6605C27.9625 151.423 22.5703 146.031 22.5703 139.333V34.6654C22.5703 27.9674 27.9625 22.5752 34.6605 22.5752Z" fill="white"/>
<path fill-rule="evenodd" clip-rule="evenodd" d="M34.6581 25.4385H139.337C144.446 25.4385 148.558 29.5508 148.558 34.659V139.339C148.558 144.447 144.446 148.56 139.337 148.56H34.6581C29.5499 148.56 25.4375 144.447 25.4375 139.339V34.659C25.4375 29.5508 29.5499 25.4385 34.6581 25.4385Z" fill="#0070FD"/>
<path d="M87.1145 47.0205L65.0996 82.6646C64.8807 83.1 64.6274 83.6495 64.6891 84.1641C64.7511 84.6805 64.9416 85.2407 65.4456 85.5292C65.9265 85.8045 66.57 85.8724 67.4019 85.8564L78.6052 82.9817V128.7V128.711H95.4995H95.6237V83.0095L106.827 85.8567L107.32 85.8573C108.798 85.8586 109.539 85.244 109.54 83.8889C109.54 83.2726 109.086 82.4599 109.086 82.4599L87.1145 47.0205Z" fill="white"/>
</g>
</g>
<defs>
<clipPath id="clip0_4_4097">
<rect width="174" height="174" fill="white"/>
</clipPath>
<clipPath id="clip1_4_4097">
<rect width="130" height="130" fill="white" transform="translate(22 22)"/>
</clipPath>
</defs>
</svg>
