<svg width="174" height="174" viewBox="0 0 174 174" fill="none" xmlns="http://www.w3.org/2000/svg">
<g clip-path="url(#clip0_4_4239)">
<g clip-path="url(#clip1_4_4239)">
<path fill-rule="evenodd" clip-rule="evenodd" d="M9.64062 22.1416H164.358V151.857H9.64062V22.1416Z" fill="#FFE51A"/>
<path fill-rule="evenodd" clip-rule="evenodd" d="M13.2479 23.6983C12.1065 23.6983 11.1875 24.6229 11.1875 25.7713V148.228C11.1875 149.376 12.1065 150.301 13.2479 150.301H160.75C161.892 150.301 162.811 149.376 162.811 148.228V25.7713C162.811 24.6229 161.892 23.6983 160.75 23.6983H13.2479ZM13.2585 25.7738H160.739C160.743 25.7738 160.748 25.7777 160.748 25.7826V148.218C160.748 148.221 160.744 148.226 160.739 148.226H13.2585C13.2546 148.226 13.2498 148.222 13.2498 148.218V25.7819C13.2498 25.778 13.2527 25.7738 13.2585 25.7738Z" fill="black"/>
<path fill-rule="evenodd" clip-rule="evenodd" d="M157.263 100.167V141.273H144.702V103.57L98.6484 50.3861V32.7266H111.21V46.4098L157.263 100.167Z" fill="#DC291B"/>
<path fill-rule="evenodd" clip-rule="evenodd" d="M46.8125 138.652H51.017V127.038H46.8125V138.652Z" fill="black"/>
<path fill-rule="evenodd" clip-rule="evenodd" d="M125.078 138.652H129.522V127.038H125.078V138.652Z" fill="black"/>
<path fill-rule="evenodd" clip-rule="evenodd" d="M46.8125 115.185H51.017V103.597H46.8125V115.185Z" fill="black"/>
<path fill-rule="evenodd" clip-rule="evenodd" d="M125.078 115.185H129.522V103.597H125.078V115.185Z" fill="black"/>
<path fill-rule="evenodd" clip-rule="evenodd" d="M46.8125 91.7363H51.017V80.1485H46.8125V91.7363Z" fill="black"/>
<path fill-rule="evenodd" clip-rule="evenodd" d="M46.8125 68.3038H51.017V56.7159H46.8125V68.3038Z" fill="black"/>
<path fill-rule="evenodd" clip-rule="evenodd" d="M46.8125 44.8564H51.017V33.2686H46.8125V44.8564Z" fill="black"/>
<path fill-rule="evenodd" clip-rule="evenodd" d="M87.1352 119.472C82.3514 119.472 78.5 123.346 78.5 128.159V150.301H95.77V128.159C95.77 123.346 91.919 119.472 87.1352 119.472Z" fill="black"/>
<path fill-rule="evenodd" clip-rule="evenodd" d="M78.5 23.6983V44.0598C78.5 48.8727 82.3514 52.7475 87.1352 52.7475C91.919 52.7475 95.77 48.8727 95.77 44.0598V23.6983H78.5Z" fill="black"/>
<path fill-rule="evenodd" clip-rule="evenodd" d="M26.6393 35.1057V56.715V60.3747L26.6387 61.4412L26.6393 62.4391V63.1324L20.1668 61.7639C19.8674 61.6909 19.6001 61.8404 19.419 62.0836C19.2811 62.268 19.1893 62.5055 19.1956 62.7411L30.1081 82.0028L41.0211 62.7401C41.0211 62.1986 40.5749 61.6445 40.0499 61.7629L33.9218 63.1315V62.4391V61.4402V60.3711V35.1057H26.6393Z" fill="black"/>
<path fill-rule="evenodd" clip-rule="evenodd" d="M26.6393 92.5253V114.135V117.794L26.6388 118.861L26.6393 119.859V120.552L20.1669 119.184C19.8675 119.111 19.6001 119.26 19.419 119.503C19.2811 119.688 19.1893 119.925 19.1956 120.161L30.1081 139.422L41.0212 120.16C41.0212 119.618 40.5749 119.064 40.0499 119.182L33.9218 120.551V119.859V118.86V117.791V92.5253H26.6393Z" fill="black"/>
<path fill-rule="evenodd" clip-rule="evenodd" d="M95.7734 95.4376L95.8955 117.608C96.0069 117.815 96.2044 117.975 96.4155 118.065C96.6932 118.184 96.9992 118.18 97.2221 117.966L102.147 113.525L102.987 114.99L103.517 115.913L105.722 119.756C106.458 121.038 107.539 126.03 107.539 128.652L107.494 142.594H114.78L114.824 128.651C114.824 126.327 114.712 124.306 114.244 122.199C113.774 120.084 112.94 118.056 112.03 116.092C111.408 114.753 109.826 112.253 109.826 112.253L109.295 111.327L108.455 109.862L114.442 107.965C114.955 107.803 115.066 107.099 114.797 106.63L95.7734 95.4376Z" fill="black"/>
<path fill-rule="evenodd" clip-rule="evenodd" d="M66.6627 37.1846L77.5752 56.4461C77.5815 56.6816 77.4897 56.919 77.3518 57.1035C77.1707 57.3466 76.9033 57.4965 76.604 57.4234L70.1319 56.0549L70.132 57.7459L70.1318 58.8124L70.1319 63.2493C70.1319 64.7296 71.6769 69.5965 72.9802 71.868L79.9475 83.9188L73.6375 87.584L66.6699 75.5311C65.5152 73.5187 64.6078 71.7124 63.9663 69.6517C63.3225 67.5841 63.0361 65.4081 62.8492 63.2497C62.7217 61.7775 62.8493 58.8162 62.8493 58.8162L62.8492 57.747L62.849 56.0561L56.721 57.4244C56.196 57.5428 55.75 56.9888 55.75 56.4474L66.6627 37.1846Z" fill="black"/>
</g>
</g>
<defs>
<clipPath id="clip0_4_4239">
<rect width="174" height="174" fill="white"/>
</clipPath>
<clipPath id="clip1_4_4239">
<rect width="155" height="130" fill="white" transform="translate(9.5 22)"/>
</clipPath>
</defs>
</svg>
