<svg width="310" height="160" viewBox="0 0 310 160" fill="none" xmlns="http://www.w3.org/2000/svg">
<g clip-path="url(#clip0_4_3191)">
<g clip-path="url(#clip1_4_3191)">
<path d="M161.73 19.0016C160.412 16.7256 157.832 15.3018 155.002 15.3018C152.121 15.3018 149.541 16.8034 148.197 19.1228L82.4583 132.624C81.0474 135.06 80.8385 138.128 82.3478 140.734C83.7885 143.221 86.3834 144.698 89.0703 144.698H220.935C223.622 144.698 226.216 143.221 227.657 140.734C229.167 138.128 228.958 135.06 227.547 132.624L161.73 19.0016Z" fill="white" stroke="black" stroke-width="0.719" stroke-miterlimit="2" stroke-linecap="round" stroke-linejoin="round"/>
<path d="M155 17.7559C153.046 17.7559 151.348 18.7776 150.494 20.2528L84.7568 133.752C83.7727 135.451 83.642 137.477 84.646 139.21C85.6231 140.897 87.3544 141.845 89.0632 141.845H220.931C222.64 141.845 224.371 140.897 225.348 139.21C226.352 137.477 226.221 135.451 225.237 133.752L159.423 20.1313C158.615 18.7374 156.935 17.7559 155 17.7559ZM205.351 127.703H104.643L154.994 40.7696L205.351 127.703Z" fill="#DD2414"/>
<path fill-rule="evenodd" clip-rule="evenodd" d="M155.027 67.2715C155.019 67.2716 155.012 67.2735 155.004 67.2769C154.997 67.2803 154.991 67.2853 154.986 67.2913L146.747 77.1178C146.739 77.1276 146.734 77.1399 146.734 77.1526V122.78C146.735 122.794 146.74 122.808 146.751 122.818C146.761 122.828 146.775 122.833 146.789 122.833H146.805C146.813 122.834 146.821 122.833 146.829 122.83L155.027 119.093L163.199 122.83C163.206 122.833 163.214 122.834 163.222 122.833H163.239C163.253 122.833 163.267 122.827 163.277 122.817C163.287 122.807 163.292 122.794 163.293 122.78V109.758H174.616C174.631 109.759 174.644 109.753 174.655 109.743C174.665 109.733 174.671 109.719 174.671 109.705V101.84C174.671 101.826 174.665 101.813 174.655 101.803C174.644 101.792 174.631 101.787 174.616 101.787H163.293V77.1526C163.293 77.14 163.289 77.1277 163.281 77.1178L155.07 67.2913C155.064 67.2851 155.058 67.28 155.051 67.2766C155.043 67.2732 155.035 67.2714 155.027 67.2715Z" fill="black"/>
</g>
</g>
<defs>
<clipPath id="clip0_4_3191">
<path d="M0 0H310V160H0V0Z" fill="white"/>
</clipPath>
<clipPath id="clip1_4_3191">
<rect width="148" height="130" fill="white" transform="translate(81 15)"/>
</clipPath>
</defs>
</svg>
