<svg width="174" height="174" viewBox="0 0 174 174" fill="none" xmlns="http://www.w3.org/2000/svg">
<g clip-path="url(#clip0_4_4403)">
<g clip-path="url(#clip1_4_4403)">
<path fill-rule="evenodd" clip-rule="evenodd" d="M34.6728 22.1895C27.7671 22.1895 22.1953 27.7587 22.1953 34.6644V139.334C22.1953 146.239 27.7671 151.811 34.6728 151.811H139.34C146.245 151.811 151.817 146.239 151.817 139.334V34.6644C151.817 27.7587 146.245 22.1895 139.34 22.1895H34.6728ZM34.6728 22.9614H139.34C145.83 22.9614 151.043 28.1741 151.043 34.6644V139.334C151.043 145.824 145.83 151.037 139.34 151.037H34.6728C28.1825 151.037 22.9698 145.824 22.9698 139.334V34.6644C22.9698 28.1741 28.1825 22.9614 34.6728 22.9614Z" fill="black" fill-opacity="0.9799"/>
<path fill-rule="evenodd" clip-rule="evenodd" d="M34.6683 22.5752H139.335C146.033 22.5752 151.425 27.9674 151.425 34.6654V139.333C151.425 146.031 146.033 151.423 139.335 151.423H34.6683C27.9704 151.423 22.5781 146.031 22.5781 139.333V34.6654C22.5781 27.9674 27.9704 22.5752 34.6683 22.5752Z" fill="white"/>
<path fill-rule="evenodd" clip-rule="evenodd" d="M34.6659 25.4385H139.345C144.453 25.4385 148.566 29.5508 148.566 34.659V139.339C148.566 144.447 144.453 148.56 139.345 148.56H34.6659C29.5577 148.56 25.4453 144.447 25.4453 139.339V34.659C25.4453 29.5508 29.5577 25.4385 34.6659 25.4385Z" fill="#0070FD"/>
<path fill-rule="evenodd" clip-rule="evenodd" d="M90.186 70.3014C90.186 70.3014 89.6946 71.0408 89.6953 71.657C89.6964 73.0119 90.437 73.6267 91.915 73.625L92.408 73.6245L103.604 70.7614L103.664 140.238L120.314 140.224L120.254 70.7466L131.721 73.5564C133.2 73.5553 133.938 72.9376 133.936 71.5827C133.936 70.9669 133.688 70.4745 133.565 70.2282L111.761 34.7871" fill="white"/>
<mask id="mask0_4_4403" style="mask-type:luminance" maskUnits="userSpaceOnUse" x="21" y="16" width="145" height="144">
<path d="M21.875 16.3069H165.395V159.825H21.875V16.3069Z" fill="white"/>
</mask>
<g mask="url(#mask0_4_4403)">
<mask id="mask1_4_4403" style="mask-type:luminance" maskUnits="userSpaceOnUse" x="32" y="33" width="59" height="110">
<path d="M32.9375 142.671H90.5839V33.4863H32.9375V142.671Z" fill="white"/>
</mask>
<g mask="url(#mask1_4_4403)">
<path fill-rule="evenodd" clip-rule="evenodd" d="M60.8844 140.231L39.0147 104.724L38.9958 104.692C38.9958 104.69 38.9973 104.69 38.9973 104.69C38.4046 103.663 38.0561 102.446 38.4927 101.243C39.2789 99.0828 41.7241 99.1494 43.8833 99.9371L51.5647 101.89L51.4522 34.7876H69.8451L69.8923 101.819L78.5189 99.5014L78.5204 99.503C79.1853 99.2614 79.9182 99.1807 80.6652 99.3121C82.9299 99.7124 83.6861 100.717 83.2858 102.982C83.1992 103.474 83.0242 103.927 82.7885 104.337C73.4942 120.836 60.8844 140.231 60.8844 140.231Z" fill="white"/>
<path fill-rule="evenodd" clip-rule="evenodd" d="M60.8843 136.003L41.8537 104.977L41.8348 104.945L41.8363 104.943C41.8363 104.943 39.7865 102.561 40.6358 101.854C41.4166 101.205 44.3086 102.529 46.0702 102.76L53.7516 104.713L53.6789 36.9747H67.5785L67.745 104.722L77.9705 102.06C77.9705 102.06 80.6063 101.074 81.0728 101.8C81.5392 102.526 79.5179 105.273 79.5179 105.273L78.866 106.319L60.8843 136.003Z" fill="#DC291B"/>
</g>
</g>
</g>
</g>
<defs>
<clipPath id="clip0_4_4403">
<rect width="174" height="174" fill="white"/>
</clipPath>
<clipPath id="clip1_4_4403">
<rect width="130" height="130" fill="white" transform="translate(22 22)"/>
</clipPath>
</defs>
</svg>
