<svg width="174" height="174" viewBox="0 0 174 174" fill="none" xmlns="http://www.w3.org/2000/svg">
<g clip-path="url(#clip0_4_3534)">
<g clip-path="url(#clip1_4_3534)">
<path d="M93.7227 26.0016C92.4042 23.7256 89.8247 22.3018 86.9947 22.3018C84.1133 22.3018 81.5328 23.8034 80.1893 26.1228L14.4504 139.624C13.0396 142.06 12.8307 145.128 14.34 147.734C15.7807 150.221 18.3756 151.698 21.0625 151.698H152.927C155.614 151.698 158.209 150.221 159.649 147.734C161.159 145.128 160.95 142.06 159.539 139.624L93.7227 26.0016Z" fill="white" stroke="black" stroke-width="0.719" stroke-miterlimit="2" stroke-linecap="round" stroke-linejoin="round"/>
<path d="M86.992 24.7549C85.0379 24.7549 83.3406 25.7766 82.4861 27.2518L16.749 140.751C15.7649 142.45 15.6342 144.476 16.6382 146.209C17.6153 147.896 19.3466 148.844 21.0554 148.844H152.923C154.632 148.844 156.363 147.896 157.34 146.209C158.344 144.476 158.214 142.45 157.229 140.751L91.4147 27.1303C90.6073 25.7365 88.9268 24.7549 86.992 24.7549ZM137.344 134.702H36.6348L86.9865 47.7686L137.344 134.702Z" fill="#DD2414"/>
<path fill-rule="evenodd" clip-rule="evenodd" d="M76.3282 84.125C76.321 84.1249 76.3138 84.1263 76.3071 84.129C76.3004 84.1317 76.2943 84.1358 76.2892 84.1408C76.2841 84.1459 76.28 84.152 76.2773 84.1587C76.2746 84.1654 76.2732 84.1725 76.2733 84.1797V98.5799L72.7182 105.084C72.7136 105.092 72.7111 105.101 72.7109 105.11V128.112C72.7112 128.126 72.7171 128.14 72.7273 128.15C72.7376 128.16 72.7515 128.165 72.7658 128.165H79.8689C79.8833 128.165 79.8971 128.16 79.9074 128.15C79.9177 128.14 79.9236 128.126 79.9238 128.112V105.123L83.5353 98.6202C83.5401 98.6119 83.5426 98.6024 83.5425 98.5928V84.1797C83.5426 84.1725 83.5412 84.1654 83.5385 84.1587C83.5358 84.152 83.5317 84.1459 83.5266 84.1408C83.5215 84.1358 83.5154 84.1317 83.5087 84.129C83.502 84.1263 83.4948 84.1249 83.4876 84.125H76.3282Z" fill="black"/>
<path fill-rule="evenodd" clip-rule="evenodd" d="M90.5222 84.125C90.5079 84.1252 90.4942 84.1311 90.4842 84.1414C90.4741 84.1516 90.4686 84.1654 90.4688 84.1797V98.5928C90.4685 98.6018 90.4705 98.6107 90.4746 98.6187L94.0644 105.123V128.112C94.0646 128.126 94.0703 128.139 94.0803 128.149C94.0902 128.159 94.1037 128.165 94.1178 128.165H101.222C101.236 128.165 101.25 128.159 101.26 128.149C101.27 128.139 101.276 128.126 101.276 128.112V105.11C101.276 105.101 101.274 105.092 101.27 105.084L97.7206 98.577V84.1797C97.7208 84.1654 97.7153 84.1516 97.7052 84.1414C97.6952 84.1311 97.6815 84.1252 97.6672 84.125H90.5222Z" fill="black"/>
</g>
</g>
<defs>
<clipPath id="clip0_4_3534">
<rect width="174" height="174" fill="white"/>
</clipPath>
<clipPath id="clip1_4_3534">
<rect width="148" height="130" fill="white" transform="translate(13 22)"/>
</clipPath>
</defs>
</svg>
