<svg width="174" height="174" viewBox="0 0 174 174" fill="none" xmlns="http://www.w3.org/2000/svg">
<g clip-path="url(#clip0_4_4761)">
<g clip-path="url(#clip1_4_4761)">
<path d="M93.7227 26.0016C92.4042 23.7256 89.8247 22.3018 86.9947 22.3018C84.1133 22.3018 81.5328 23.8034 80.1893 26.1228L14.4504 139.624C13.0396 142.06 12.8307 145.128 14.34 147.734C15.7807 150.221 18.3756 151.698 21.0625 151.698H152.927C155.614 151.698 158.209 150.221 159.649 147.734C161.159 145.128 160.95 142.06 159.539 139.624L93.7227 26.0016Z" fill="white" stroke="black" stroke-width="0.719" stroke-miterlimit="2" stroke-linecap="round" stroke-linejoin="round"/>
<path d="M86.992 24.7549C85.0379 24.7549 83.3406 25.7766 82.4861 27.2518L16.749 140.751C15.7649 142.45 15.6342 144.476 16.6382 146.209C17.6153 147.896 19.3466 148.844 21.0554 148.844H152.923C154.632 148.844 156.363 147.896 157.34 146.209C158.344 144.476 158.214 142.45 157.229 140.751L91.4147 27.1303C90.6073 25.7365 88.9268 24.7549 86.992 24.7549ZM137.344 134.702H36.6348L86.9865 47.7686L137.344 134.702Z" fill="#DD2414"/>
<path fill-rule="evenodd" clip-rule="evenodd" d="M86.7744 113.101C78.1634 113.101 70.5232 116.331 66.7952 120.75H53.6399H53.5625V128.192H120.455V120.75H106.646C103.442 116.98 95.4105 113.101 86.7744 113.101Z" fill="black"/>
</g>
</g>
<defs>
<clipPath id="clip0_4_4761">
<rect width="174" height="174" fill="white"/>
</clipPath>
<clipPath id="clip1_4_4761">
<rect width="148" height="130" fill="white" transform="translate(13 22)"/>
</clipPath>
</defs>
</svg>
