<svg width="174" height="174" viewBox="0 0 174 174" fill="none" xmlns="http://www.w3.org/2000/svg">
<g clip-path="url(#clip0_4_4056)">
<g clip-path="url(#clip1_4_4056)">
<path fill-rule="evenodd" clip-rule="evenodd" d="M20.2065 49.625C15.7405 49.625 12.125 53.2355 12.125 57.694V116.308C12.125 120.766 15.7405 124.376 20.2065 124.376H153.793C158.259 124.376 161.875 120.766 161.875 116.308V57.694C161.875 53.2355 158.259 49.625 153.793 49.625H20.2065ZM20.2065 50.9438H153.793C157.55 50.9438 160.554 53.9433 160.554 57.694V116.308C160.554 120.059 157.55 123.057 153.793 123.057H20.2065C16.4495 123.057 13.446 120.059 13.446 116.308V57.694C13.446 53.9433 16.4495 50.9438 20.2065 50.9438Z" fill="black"/>
<path fill-rule="evenodd" clip-rule="evenodd" d="M20.2027 50.2842H153.789C157.901 50.2842 161.211 53.5887 161.211 57.6933V116.307C161.211 120.412 157.901 123.716 153.789 123.716H20.2027C16.0912 123.716 12.7812 120.412 12.7812 116.307V57.6933C12.7812 53.5887 16.0912 50.2842 20.2027 50.2842Z" fill="white"/>
<path fill-rule="evenodd" clip-rule="evenodd" d="M20.2096 53.459H153.796C156.145 53.459 158.037 55.3473 158.037 57.6928V116.307C158.037 118.652 156.145 120.54 153.796 120.54H20.2096C17.8602 120.54 15.9688 118.652 15.9688 116.307V57.6928C15.9688 55.3473 17.8602 53.459 20.2096 53.459Z" fill="#009539"/>
<path d="M33 107.736V64.6762H65.1844V71.9606H41.7641V81.5067H63.5559V88.7617H41.7641V100.481H66.0134V107.736H33Z" fill="white"/>
<path d="M79.9111 72.9299V65.2637H108.365V71.2557C106.016 73.5467 103.627 76.8364 101.2 81.1248C98.7717 85.4132 96.9162 89.9757 95.6332 94.8124C94.3699 99.6295 93.7481 103.937 93.7679 107.736H85.744C85.8822 101.783 87.1158 95.7132 89.445 89.5254C91.794 83.3376 94.9226 77.8057 98.8309 72.9299H79.9111Z" fill="white"/>
<path d="M113.842 97.779L121.896 96.8979C122.093 98.5231 122.606 99.7274 123.436 100.511C124.265 101.294 125.36 101.686 126.722 101.686C128.439 101.686 129.9 100.902 131.104 99.3358C132.308 97.7692 133.078 94.5187 133.414 89.5841C131.321 91.9927 128.706 93.1969 125.567 93.1969C122.152 93.1969 119.202 91.8948 116.714 89.2904C114.247 86.6664 113.013 83.2592 113.013 79.0688C113.013 74.702 114.316 71.1871 116.922 68.524C119.547 65.8413 122.883 64.5 126.929 64.5C131.331 64.5 134.943 66.1938 137.766 69.5814C140.589 72.9495 142 78.5009 142 86.2356C142 94.1075 140.529 99.7862 137.588 103.272C134.647 106.757 130.818 108.5 126.1 108.5C122.705 108.5 119.961 107.609 117.869 105.827C115.777 104.026 114.435 101.343 113.842 97.779ZM132.673 79.7443C132.673 77.0812 132.052 75.0154 130.808 73.5467C129.584 72.0781 128.163 71.3438 126.544 71.3438C125.005 71.3438 123.722 71.9508 122.695 73.1649C121.689 74.3594 121.185 76.3273 121.185 79.0688C121.185 81.8494 121.738 83.8956 122.843 85.2076C123.949 86.5 125.33 87.1462 126.989 87.1462C128.587 87.1462 129.93 86.5196 131.015 85.2664C132.121 84.0131 132.673 82.1725 132.673 79.7443Z" fill="white"/>
</g>
</g>
<defs>
<clipPath id="clip0_4_4056">
<rect width="174" height="174" fill="white"/>
</clipPath>
<clipPath id="clip1_4_4056">
<rect width="150" height="75" fill="white" transform="translate(12 49.5)"/>
</clipPath>
</defs>
</svg>
