<svg width="174" height="174" viewBox="0 0 174 174" fill="none" xmlns="http://www.w3.org/2000/svg">
<g clip-path="url(#clip0_4_3552)">
<g clip-path="url(#clip1_4_3552)">
<path d="M93.7305 26.0016C92.412 23.7256 89.8325 22.3018 87.0025 22.3018C84.1211 22.3018 81.5406 23.8034 80.1972 26.1228L14.4583 139.624C13.0474 142.06 12.8385 145.128 14.3478 147.734C15.7885 150.221 18.3834 151.698 21.0703 151.698H152.935C155.622 151.698 158.216 150.221 159.657 147.734C161.167 145.128 160.958 142.06 159.547 139.624L93.7305 26.0016Z" fill="white" stroke="black" stroke-width="0.719" stroke-miterlimit="2" stroke-linecap="round" stroke-linejoin="round"/>
<path d="M86.9998 24.7559C85.0457 24.7559 83.3484 25.7776 82.4939 27.2528L16.7568 140.752C15.7727 142.451 15.642 144.477 16.646 146.21C17.6231 147.897 19.3544 148.845 21.0632 148.845H152.931C154.64 148.845 156.371 147.897 157.348 146.21C158.352 144.477 158.221 142.451 157.237 140.752L91.4225 27.1313C90.6151 25.7374 88.9346 24.7559 86.9998 24.7559ZM137.351 134.703H36.6426L86.9943 47.7696L137.351 134.703Z" fill="#DD2414"/>
<path fill-rule="evenodd" clip-rule="evenodd" d="M63.2147 93.377L134.308 132.823H40.4219L63.2147 93.377Z" fill="black" stroke="#1B1C1C" stroke-width="0.209645" stroke-miterlimit="10"/>
<path fill-rule="evenodd" clip-rule="evenodd" d="M105.051 103.762C105.686 104.136 106.175 104.652 106.514 105.257C106.863 105.877 107.042 106.55 107.042 107.271C107.042 107.96 106.847 108.619 106.485 109.24C106.136 109.857 105.647 110.321 105.051 110.656C104.431 110.965 103.789 111.121 103.092 111.098C102.378 111.059 101.72 110.864 101.1 110.5C100.442 110.091 99.94 109.61 99.5913 109.028C99.2425 108.411 99.0665 107.768 99.0502 107.092C99.0502 106.42 99.2197 105.737 99.5913 105.156C99.94 104.539 100.442 104.058 101.061 103.723C101.684 103.398 102.355 103.22 103.076 103.246C103.789 103.246 104.448 103.415 105.051 103.762ZM95.3932 93.7399C95.7582 93.1226 96.2602 92.6256 96.8827 92.2779C97.502 91.9303 98.1832 91.7517 98.8938 91.7744C99.5913 91.7744 100.266 91.9693 100.908 92.3559C101.527 92.736 102.006 93.2233 102.355 93.8406C102.688 94.4221 102.86 95.0816 102.844 95.7931C102.844 96.4915 102.652 97.1348 102.303 97.7456C101.915 98.366 101.426 98.8534 100.83 99.201C100.211 99.5258 99.5293 99.7045 98.8318 99.7045C98.1441 99.7045 97.4629 99.5096 96.8436 99.123C96.2243 98.7754 95.7419 98.2718 95.3932 97.6513C95.0444 97.0341 94.8684 96.3746 94.8684 95.7021C94.8293 95.0036 95.0086 94.3604 95.3932 93.7399ZM92.375 105.296L108.124 96.6442L109.575 97.5214L93.845 106.163L92.375 105.296ZM103.812 105.776C103.401 105.546 102.975 105.507 102.551 105.62C102.147 105.721 101.814 105.971 101.566 106.358C101.348 106.745 101.296 107.154 101.41 107.596C101.527 108.038 101.798 108.372 102.186 108.603C102.59 108.837 102.997 108.889 103.424 108.798C103.828 108.697 104.161 108.45 104.409 108.06C104.64 107.651 104.718 107.248 104.601 106.806C104.51 106.358 104.252 106.033 103.868 105.815L103.812 105.776ZM100.289 96.5533C100.52 96.1407 100.576 95.7151 100.458 95.3123C100.367 94.9029 100.096 94.578 99.7086 94.3441C99.2979 94.0907 98.8938 94.0355 98.4537 94.1525C98.004 94.2434 97.678 94.5001 97.4629 94.8867C97.2152 95.2895 97.1532 95.7021 97.2901 96.1407C97.3847 96.6085 97.6552 96.9399 98.0431 97.1738C98.4537 97.4207 98.8318 97.4597 99.2816 97.3427C99.7086 97.2485 100.031 96.9788 100.25 96.6085L100.289 96.5533Z" fill="black"/>
<path fill-rule="evenodd" clip-rule="evenodd" d="M79.0986 79.0204L81.7713 80.5538L73.411 94.8482L70.7578 93.2758L76.7388 83.0845L75.3046 82.2561L76.1195 80.8397L79.0986 79.0204ZM89.6231 90.901C89.9719 90.3032 90.0729 89.6437 89.8969 88.9485C89.7013 88.25 89.3135 87.7335 88.6942 87.3436C88.0749 86.996 87.4165 86.918 86.719 87.0902C86.0084 87.2819 85.4804 87.6717 85.1317 88.2663L81.7876 93.997C81.4388 94.6175 81.3443 95.251 81.517 95.9722C81.7093 96.6707 82.0972 97.1743 82.7393 97.5609C83.3521 97.902 84.0104 97.9767 84.6917 97.8078C85.4055 97.6291 85.9302 97.249 86.279 96.6317L89.6231 90.901ZM79.1572 92.4474L82.2895 87.074C83.0815 85.6965 84.2419 84.8421 85.777 84.4165C87.2861 84.0299 88.717 84.2249 90.0729 85.0208C90.9562 85.5406 91.6765 86.2748 92.1556 87.1909C92.6608 88.1103 92.8923 89.0784 92.8532 90.1245C92.8369 90.5371 92.7619 90.9757 92.6609 91.4663C92.5435 91.8139 92.4262 92.1387 92.2567 92.4474L92.2729 92.4734L89.1211 97.8858C88.3324 99.2177 87.1851 100.069 85.6597 100.478C84.1506 100.868 82.7165 100.673 81.3638 99.8772C80.2589 99.2177 79.4668 98.2886 78.9454 97.0963C78.4597 95.8943 78.401 94.6955 78.7693 93.4318C78.8671 93.0841 79.0203 92.7593 79.1768 92.4474L79.1572 92.4474Z" fill="black"/>
</g>
</g>
<defs>
<clipPath id="clip0_4_3552">
<rect width="174" height="174" fill="white"/>
</clipPath>
<clipPath id="clip1_4_3552">
<rect width="148" height="130" fill="white" transform="translate(13 22)"/>
</clipPath>
</defs>
</svg>
