<svg width="69" height="38" viewBox="0 0 69 38" fill="none" xmlns="http://www.w3.org/2000/svg">
<path fill-rule="evenodd" clip-rule="evenodd" d="M41.7912 29.6313C41.9451 29.6313 42.0598 29.7496 42.3317 29.8516C42.6265 30.177 42.8754 30.5123 43.167 30.9561C42.8754 30.9561 42.4856 30.9561 42.0598 30.9561C41.9451 30.6306 41.6601 30.2953 41.3653 29.8516C41.5193 29.8516 41.6601 29.7496 41.7912 29.6313Z" fill="black"/>
<path fill-rule="evenodd" clip-rule="evenodd" d="M43.2445 32.2191C43.7883 32.2191 44.3288 32.3342 45.0429 32.4361C45.0429 32.6695 45.0429 32.9949 45.0429 33.3302C44.617 33.2152 44.2141 32.9949 43.6474 32.7615C43.5164 32.6695 43.3624 32.4361 43.2445 32.2191Z" fill="black"/>
<path fill-rule="evenodd" clip-rule="evenodd" d="M45.0463 31.1118C45.1839 30.9014 45.4328 30.5694 45.7276 30.2407C46.2845 30.2407 46.825 30.2407 47.3688 30.2407C47.3688 30.336 47.2509 30.4511 47.1199 30.668C46.825 30.668 46.3992 30.668 46.0126 30.7864C46.0126 31.1118 46.0126 31.4471 46.0126 31.8909C45.7276 31.8909 45.4328 31.8909 45.0463 31.7758C44.889 31.6575 44.758 31.5654 44.6204 31.332C44.758 31.332 44.889 31.2301 45.0463 31.1118Z" fill="black"/>
<path fill-rule="evenodd" clip-rule="evenodd" d="M47.751 32.6859C47.8886 32.6859 47.9967 32.7846 48.2915 32.9029C48.5798 33.2284 48.8484 33.5637 49.1203 34.0074C48.8484 34.0074 48.4226 34.0074 47.9967 34.0074C47.8886 33.682 47.62 33.3467 47.3252 32.9029C47.4628 32.9029 47.62 32.7846 47.751 32.6859Z" fill="black"/>
<path fill-rule="evenodd" clip-rule="evenodd" d="M49.2044 35.2767C49.7449 35.2767 50.3116 35.372 50.9831 35.4871C50.9831 35.704 50.9831 36.0328 50.9831 36.3681C50.5573 36.2661 50.1707 36.0328 49.6138 35.8224C49.4599 35.704 49.3419 35.4871 49.2044 35.2767Z" fill="black"/>
<path fill-rule="evenodd" clip-rule="evenodd" d="M50.9826 34.1651C51.1398 33.9317 51.3953 33.6029 51.6803 33.3071C52.247 33.3071 52.7875 33.3071 53.3444 33.3071C53.3444 33.409 53.2134 33.501 53.0594 33.7213C52.7875 33.7213 52.3617 33.7213 51.9522 33.8363C51.9522 34.1651 51.9522 34.4971 51.9522 34.9409C51.6803 34.9409 51.3953 34.9409 50.9826 34.8258C50.8516 34.7075 50.714 34.6154 50.5567 34.382C50.714 34.382 50.8516 34.2801 50.9826 34.1651Z" fill="black"/>
<path fill-rule="evenodd" clip-rule="evenodd" d="M48.4272 29.1527C48.5681 29.1527 48.722 29.2677 48.971 29.3631C49.2658 29.6951 49.5344 30.0238 49.8227 30.4742C49.5344 30.4742 49.1086 30.4742 48.722 30.4742C48.5681 30.1389 48.2962 29.8134 48.0014 29.3631C48.1586 29.3631 48.2962 29.2677 48.4272 29.1527Z" fill="black"/>
<path fill-rule="evenodd" clip-rule="evenodd" d="M49.8805 31.7355C50.421 31.7355 50.9779 31.8506 51.6757 31.9525C51.6757 32.1859 51.6757 32.5146 51.6757 32.8401C51.2727 32.725 50.8469 32.5146 50.3064 32.2812C50.1655 32.1859 50.0116 31.9525 49.8805 31.7355Z" fill="black"/>
<path fill-rule="evenodd" clip-rule="evenodd" d="M42.0192 33.1764C42.1568 33.1764 42.2878 33.2684 42.5826 33.3868C42.8316 33.7221 43.1264 34.0475 43.395 34.4979C43.1264 34.4979 42.7005 34.4979 42.2878 34.4979C42.1568 34.1658 41.8619 33.8371 41.5933 33.3868C41.7309 33.3868 41.8619 33.2684 42.0192 33.1764Z" fill="black"/>
<path fill-rule="evenodd" clip-rule="evenodd" d="M43.4804 35.7592C44.0372 35.7592 44.581 35.8612 45.2624 35.9762C45.2624 36.1866 45.2624 36.5219 45.2624 36.8506C44.8496 36.7553 44.4238 36.5219 43.8833 36.3049C43.7522 36.1866 43.6114 35.9762 43.4804 35.7592Z" fill="black"/>
<path fill-rule="evenodd" clip-rule="evenodd" d="M45.2612 34.6709C45.3922 34.4606 45.687 34.1253 45.9327 33.7965C46.5158 33.7965 47.0563 33.7965 47.623 33.7965C47.623 33.8919 47.4658 34.0069 47.3282 34.2272C47.0563 34.2272 46.6534 34.2272 46.2276 34.3422C46.2276 34.6709 46.2276 34.98 46.2276 35.4336C45.9327 35.4336 45.687 35.4336 45.2612 35.3153C45.1203 35.2002 45.0057 35.0983 44.8485 34.8879C45.0057 34.8879 45.1203 34.786 45.2612 34.6709Z" fill="black"/>
<path fill-rule="evenodd" clip-rule="evenodd" d="M56.8075 31.7984C57.4496 31.7984 58.108 31.9135 58.9204 32.0318C58.9204 32.2422 58.9204 32.5677 58.9204 32.903C58.4323 32.7846 57.954 32.5677 57.2956 32.3573C57.1416 32.2422 56.9615 32.0318 56.8075 31.7984Z" fill="black"/>
<path fill-rule="evenodd" clip-rule="evenodd" d="M58.9153 30.6833C59.0856 30.4729 59.4198 30.1376 59.767 29.8122C60.4025 29.8122 61.0609 29.8122 61.7194 29.8122C61.7194 29.9272 61.5654 30.0225 61.3951 30.2559C61.0609 30.2559 60.5827 30.2559 60.0946 30.3578C60.0946 30.6833 60.0946 31.0186 60.0946 31.4624C59.767 31.4624 59.4198 31.4624 58.9153 31.3703C58.7613 31.252 58.6074 31.1336 58.4272 30.9167C58.6074 30.9167 58.7613 30.8016 58.9153 30.6833Z" fill="black"/>
<path fill-rule="evenodd" clip-rule="evenodd" d="M54.545 32.3734C54.6989 32.3734 54.8758 32.4753 55.2034 32.5904C55.5343 32.9191 55.8389 33.2544 56.1698 33.6982C55.8389 33.6982 55.3574 33.6982 54.8758 33.6982C54.6989 33.3695 54.3746 33.0342 54.0635 32.5904C54.2207 32.5904 54.3746 32.4753 54.545 32.3734Z" fill="black"/>
<path fill-rule="evenodd" clip-rule="evenodd" d="M56.265 34.9807C56.9202 34.9807 57.5786 35.099 58.3942 35.2009C58.3942 35.4343 58.3942 35.7433 58.3942 36.072C57.8898 35.9537 57.4082 35.7433 56.7498 35.5263C56.5958 35.4343 56.419 35.2009 56.265 34.9807Z" fill="black"/>
<path fill-rule="evenodd" clip-rule="evenodd" d="M58.3892 33.8756C58.5431 33.6586 58.8772 33.3299 59.2015 32.9946C59.86 32.9946 60.5184 32.9946 61.1605 32.9946C61.1605 33.0965 61.0065 33.2148 60.8263 33.4252C60.5184 33.4252 60.0139 33.4252 59.5324 33.5402C59.5324 33.8756 59.5324 34.201 59.5324 34.6546C59.2016 34.6546 58.8773 34.6546 58.3892 34.5363C58.2188 34.4212 58.0616 34.3193 57.8847 34.0859C58.0616 34.0859 58.2188 33.9939 58.3892 33.8756Z" fill="black"/>
<path fill-rule="evenodd" clip-rule="evenodd" d="M61.7065 31.0191C61.8638 31.0191 62.0341 31.1341 62.365 31.2525C62.6893 31.5779 63.0234 31.9132 63.3346 32.357C63.0234 32.357 62.5189 32.357 62.0341 32.357C61.8638 32.0315 61.5526 31.6962 61.2185 31.2525C61.3757 31.2525 61.5526 31.1341 61.7065 31.0191Z" fill="black"/>
<path fill-rule="evenodd" clip-rule="evenodd" d="M63.4043 33.6422C64.0561 33.6422 64.7375 33.7343 65.5499 33.8526C65.5499 34.0696 65.5499 34.3983 65.5499 34.7303C65.0618 34.6317 64.5442 34.3983 63.8858 34.1879C63.7318 34.0696 63.5746 33.8526 63.4043 33.6422Z" fill="black"/>
<path fill-rule="evenodd" clip-rule="evenodd" d="M65.5514 32.5278C65.7053 32.2944 66.0329 31.9689 66.3638 31.6402C67.0222 31.6402 67.6806 31.6402 68.3161 31.6402C68.3161 31.7586 68.1622 31.8736 68.0049 32.084C67.6806 32.084 67.1762 32.084 66.6913 32.2023C66.6913 32.5278 66.6913 32.8631 66.6913 33.3069C66.3638 33.3069 66.0329 33.3069 65.5514 33.1918C65.3581 33.0735 65.2172 32.9584 65.0633 32.748C65.2172 32.748 65.3581 32.6297 65.5514 32.5278Z" fill="black"/>
<path fill-rule="evenodd" clip-rule="evenodd" d="M62.384 33.9685C62.538 33.9685 62.7182 34.0704 63.0425 34.1888C63.3733 34.5142 63.7009 34.8495 64.0088 35.2933C63.7009 35.2933 63.1964 35.2933 62.7182 35.2933C62.538 34.9646 62.2301 34.6326 61.9025 34.1888C62.0597 34.1888 62.2301 34.0704 62.384 33.9685Z" fill="black"/>
<path fill-rule="evenodd" clip-rule="evenodd" d="M64.104 36.5779C64.7625 36.5779 65.4176 36.6766 66.2333 36.7949C66.2333 37.0053 66.2333 37.3307 66.2333 37.666C65.7518 37.5641 65.2473 37.3308 64.5921 37.1204C64.4349 37.0053 64.2809 36.7949 64.104 36.5779Z" fill="black"/>
<path fill-rule="evenodd" clip-rule="evenodd" d="M66.2289 35.4701C66.3828 35.2531 66.717 34.9046 67.0413 34.5759C67.6997 34.5759 68.3581 34.5759 69.0002 34.5759C69.0002 34.6943 68.8462 34.8093 68.666 35.0197C68.3581 35.0197 67.8537 35.0197 67.3754 35.1381C67.3754 35.4701 67.3754 35.7988 67.3754 36.2491C67.0413 36.2491 66.717 36.2491 66.2289 36.1341C66.0585 36.0158 65.9013 35.9138 65.7473 35.6805C65.9013 35.6805 66.0585 35.5884 66.2289 35.4701Z" fill="black"/>
<path fill-rule="evenodd" clip-rule="evenodd" d="M0 29.0554V33.1764V33.2541H40.0341V29.0554L0 29.0554Z" fill="black"/>
<path fill-rule="evenodd" clip-rule="evenodd" d="M31.4219 2.39677C38.8317 2.91944 45.6846 3.89249 52.7603 5.25342C54.0772 8.39935 54.9911 11.1475 55.1615 14.471C49.4944 13.4355 46.1236 12.9128 41.4622 12.252C36.7778 11.5913 31.9624 11.1475 27.2027 10.7728C28.1723 7.29153 29.3909 5.68076 31.4219 2.39677ZM22.0008 12.6169C25.7319 6.77215 28.9454 -0.0555484 31.946 0.00034086C34.9597 0.0989594 39.1265 0.6052 42.7168 1.08844C46.3562 1.57824 50.5524 2.37376 53.5367 2.95891C56.4783 3.54075 57.638 9.25404 59.8458 17.6761C60.6975 20.9995 58.5683 24.2868 57.615 26.5418C57.4218 28.294 57.0974 29.6319 56.593 31.3084L51.2895 30.6049L51.0569 25.983L28.4213 22.9456L27.242 27.4393L22.2104 26.7753C22.1351 24.0369 22.0958 22.6136 22.1711 20.8844C21.6503 18.4946 20.507 14.9903 22.0008 12.6169Z" fill="black"/>
</svg>
