<svg width="310" height="160" viewBox="0 0 310 160" fill="none" xmlns="http://www.w3.org/2000/svg">
<g clip-path="url(#clip0_4_3145)">
<g clip-path="url(#clip1_4_3145)">
<path d="M161.723 19.0016C160.404 16.7256 157.825 15.3018 154.995 15.3018C152.113 15.3018 149.533 16.8034 148.189 19.1228L82.4504 132.624C81.0396 135.06 80.8307 138.128 82.34 140.734C83.7807 143.221 86.3756 144.698 89.0625 144.698H220.927C223.614 144.698 226.209 143.221 227.649 140.734C229.159 138.128 228.95 135.06 227.539 132.624L161.723 19.0016Z" fill="white" stroke="black" stroke-width="0.719" stroke-miterlimit="2" stroke-linecap="round" stroke-linejoin="round"/>
<path d="M155 17.7559C153.046 17.7559 151.348 18.7776 150.494 20.2528L84.7568 133.752C83.7727 135.451 83.642 137.477 84.646 139.21C85.6231 140.897 87.3544 141.845 89.0632 141.845H220.931C222.64 141.845 224.371 140.897 225.348 139.21C226.352 137.477 226.221 135.451 225.237 133.752L159.423 20.1313C158.615 18.7374 156.935 17.7559 155 17.7559ZM205.351 127.703H104.643L154.994 40.7696L205.351 127.703Z" fill="#DD2414"/>
<path fill-rule="evenodd" clip-rule="evenodd" d="M145.551 77.4902C145.544 77.4902 145.536 77.4915 145.53 77.4942C145.523 77.497 145.517 77.501 145.512 77.5061C145.507 77.5112 145.503 77.5172 145.5 77.5239C145.497 77.5306 145.496 77.5377 145.496 77.545V89.5535L140.86 96.5181C140.854 96.5271 140.851 96.5377 140.852 96.5484V121.111C140.852 121.125 140.858 121.139 140.868 121.149C140.878 121.159 140.892 121.165 140.906 121.164H148.609C148.623 121.165 148.637 121.159 148.648 121.149C148.658 121.139 148.664 121.125 148.664 121.111V96.5642L153.203 89.5996C153.208 89.591 153.211 89.581 153.212 89.5708V77.545C153.212 77.5306 153.206 77.5168 153.196 77.5066C153.186 77.4963 153.172 77.4905 153.158 77.4902H145.551Z" fill="black"/>
<path fill-rule="evenodd" clip-rule="evenodd" d="M159.313 77.4932C159.305 77.4931 159.298 77.4944 159.292 77.4972C159.285 77.4999 159.279 77.5039 159.274 77.509C159.269 77.5141 159.265 77.5202 159.262 77.5268C159.259 77.5335 159.258 77.5407 159.258 77.5479V121.111C159.258 121.126 159.264 121.139 159.274 121.149C159.285 121.159 159.298 121.165 159.313 121.164H166.882C166.897 121.165 166.911 121.159 166.921 121.149C166.931 121.139 166.937 121.126 166.937 121.111V77.5479C166.937 77.5407 166.936 77.5335 166.933 77.5268C166.931 77.5202 166.926 77.5141 166.921 77.509C166.916 77.5039 166.91 77.4999 166.903 77.4972C166.897 77.4944 166.89 77.4931 166.882 77.4932H159.313Z" fill="black"/>
</g>
</g>
<defs>
<clipPath id="clip0_4_3145">
<path d="M0 0H310V160H0V0Z" fill="white"/>
</clipPath>
<clipPath id="clip1_4_3145">
<rect width="148" height="130" fill="white" transform="translate(81 15)"/>
</clipPath>
</defs>
</svg>
