<svg width="148" height="131" viewBox="0 0 148 131" fill="none" xmlns="http://www.w3.org/2000/svg">
<path d="M80.7225 4.08367C79.405 1.79401 76.8276 0.361651 73.9999 0.361651C71.1208 0.361651 68.5424 1.87234 67.2 4.20554L1.51417 118.387C0.104428 120.837 -0.104308 123.924 1.40379 126.545C2.84335 129.047 5.43613 130.533 8.12085 130.533H139.879C142.564 130.533 145.156 129.047 146.596 126.545C148.104 123.924 147.895 120.837 146.486 118.387L80.7225 4.08367Z" fill="white" stroke="black" stroke-width="0.719" stroke-miterlimit="2" stroke-linecap="round" stroke-linejoin="round"/>
<path d="M73.9995 2.82947C72.047 2.82947 70.3511 3.85731 69.4972 5.34136L3.81319 119.521C2.82985 121.23 2.69923 123.268 3.70243 125.011C4.67879 126.708 6.40862 127.662 8.11607 127.662H139.877C141.585 127.662 143.315 126.708 144.291 125.011C145.294 123.268 145.164 121.23 144.18 119.521L78.4187 5.21909C77.6119 3.81694 75.9327 2.82947 73.9995 2.82947ZM124.311 113.436H23.6829L73.994 25.9811L124.311 113.436Z" fill="#DD2414"/>
</svg>
