<svg width="174" height="174" viewBox="0 0 174 174" fill="none" xmlns="http://www.w3.org/2000/svg">
<g clip-path="url(#clip0_4_3578)">
<g clip-path="url(#clip1_4_3578)">
<path d="M93.7227 26.0016C92.4042 23.7256 89.8247 22.3018 86.9947 22.3018C84.1133 22.3018 81.5328 23.8034 80.1893 26.1228L14.4504 139.624C13.0396 142.06 12.8307 145.128 14.34 147.734C15.7807 150.221 18.3756 151.698 21.0625 151.698H152.927C155.614 151.698 158.209 150.221 159.649 147.734C161.159 145.128 160.95 142.06 159.539 139.624L93.7227 26.0016Z" fill="white" stroke="black" stroke-width="0.719" stroke-miterlimit="2" stroke-linecap="round" stroke-linejoin="round"/>
<path d="M86.992 24.7549C85.0379 24.7549 83.3406 25.7766 82.4861 27.2518L16.749 140.751C15.7649 142.45 15.6342 144.476 16.6382 146.209C17.6153 147.896 19.3466 148.844 21.0554 148.844H152.923C154.632 148.844 156.363 147.896 157.34 146.209C158.344 144.476 158.214 142.45 157.229 140.751L91.4147 27.1303C90.6073 25.7365 88.9268 24.7549 86.992 24.7549ZM137.344 134.702H36.6348L86.9865 47.7686L137.344 134.702Z" fill="#DD2414"/>
<path fill-rule="evenodd" clip-rule="evenodd" d="M69.6146 114.182C67.3699 114.153 65.9784 114.533 64.9514 115.121C63.9244 115.709 63.2653 116.501 62.4777 117.29C61.6901 118.08 60.7748 118.871 59.2278 119.467C57.6809 120.062 55.5008 120.463 52.1911 120.467C52.1838 120.467 52.1766 120.469 52.1699 120.471C52.1632 120.474 52.1571 120.478 52.1519 120.483C52.1468 120.488 52.1427 120.494 52.14 120.501C52.1372 120.508 52.1359 120.515 52.136 120.522L52.1172 130.315C52.1171 130.322 52.1184 130.329 52.1211 130.336C52.1238 130.342 52.1277 130.348 52.1327 130.353C52.1377 130.358 52.1437 130.362 52.1502 130.365C52.1568 130.368 52.1639 130.37 52.171 130.37L121.792 130.348C121.806 130.348 121.82 130.342 121.829 130.332C121.839 130.322 121.845 130.309 121.845 130.295L121.903 121.181C121.902 121.167 121.897 121.153 121.887 121.143C121.877 121.133 121.863 121.127 121.849 121.127C115.191 121.117 112.866 119.424 111.101 117.726C109.337 116.028 108.122 114.307 103.768 114.298C99.4087 114.288 97.8611 116.036 96.0965 117.761C94.332 119.485 92.3462 121.194 87.0368 121.166C81.7289 121.156 79.6392 119.447 77.7367 117.717C75.8341 115.987 74.1152 114.231 69.6146 114.182Z" fill="black"/>
</g>
</g>
<defs>
<clipPath id="clip0_4_3578">
<rect width="174" height="174" fill="white"/>
</clipPath>
<clipPath id="clip1_4_3578">
<rect width="148" height="130" fill="white" transform="translate(13 22)"/>
</clipPath>
</defs>
</svg>
