<svg width="33" height="49" viewBox="0 0 33 49" fill="none" xmlns="http://www.w3.org/2000/svg">
<path fill-rule="evenodd" clip-rule="evenodd" d="M8.26122 0.00185689C8.26825 -2.45039e-05 8.27558 -0.000481003 8.28279 0.000509164C8.29 0.00149933 8.29694 0.00391406 8.30319 0.00761996L12.4642 2.37366C19.5437 6.46659 24.679 10.3891 28.0438 15.1841C31.4087 19.979 33 25.6455 33 33.213V48.147C32.9999 48.157 32.9971 48.1668 32.9918 48.1753C32.9865 48.1838 32.9789 48.1907 32.9699 48.1952C32.9609 48.1997 32.9508 48.2016 32.9408 48.2007C32.9308 48.1999 32.9212 48.1962 32.9131 48.1903L26.7635 43.5419L20.6154 48.1903C20.6073 48.1962 20.5977 48.1999 20.5877 48.2007C20.5777 48.2016 20.5676 48.1997 20.5586 48.1952C20.5496 48.1907 20.542 48.1838 20.5367 48.1753C20.5314 48.1668 20.5285 48.157 20.5285 48.147V35.5184C20.5285 28.082 18.8758 23.6117 16.0546 20.3189C13.2334 17.0262 9.23495 14.9091 4.539 12.2031L1.77849 10.5963C1.77184 10.5925 1.76609 10.5873 1.7616 10.5811C1.75712 10.5749 1.754 10.5678 1.75247 10.5603L0.00143803 2.43285C-0.0014648 2.41948 0.000806979 2.40551 0.0077906 2.39373C0.0147742 2.38195 0.0259572 2.37324 0.0391098 2.36933L8.26122 0.00185689Z" fill="black"/>
</svg>
