<svg width="174" height="174" viewBox="0 0 174 174" fill="none" xmlns="http://www.w3.org/2000/svg">
<g clip-path="url(#clip0_4_4843)">
<g clip-path="url(#clip1_4_4843)">
<path d="M93.7305 26.0021C92.412 23.7261 89.8325 22.3022 87.0025 22.3022C84.1211 22.3022 81.5406 23.8039 80.1972 26.1232L14.4583 139.624C13.0474 142.06 12.8385 145.129 14.3478 147.734C15.7885 150.222 18.3834 151.698 21.0703 151.698H152.935C155.622 151.698 158.216 150.222 159.657 147.734C161.167 145.129 160.958 142.06 159.547 139.624L93.7305 26.0021Z" fill="white" stroke="black" stroke-width="0.719" stroke-miterlimit="2" stroke-linecap="round" stroke-linejoin="round"/>
<path d="M86.9998 24.7554C85.0457 24.7554 83.3484 25.7771 82.4939 27.2523L16.7568 140.752C15.7727 142.451 15.642 144.476 16.646 146.21C17.6231 147.897 19.3544 148.845 21.0632 148.845H152.931C154.64 148.845 156.371 147.897 157.348 146.21C158.352 144.476 158.221 142.451 157.237 140.752L91.4225 27.1308C90.6151 25.737 88.9346 24.7554 86.9998 24.7554ZM137.351 134.703H36.6426L86.9943 47.7691L137.351 134.703Z" fill="#DD2414"/>
<path fill-rule="evenodd" clip-rule="evenodd" d="M87.2592 84.7363C83.7746 84.7504 80.2521 85.5877 76.9942 87.3308L75.9359 85.2784L72.8613 90.1133L69.8994 94.8273L69.8283 94.9409L75.5218 95.1765L81.2533 95.3999L80.1472 93.2816C87.3809 89.4122 96.5284 91.9533 100.643 99.0994L100.648 99.1091L100.656 99.1166C100.672 99.1329 100.684 99.1813 100.718 99.2399L100.757 99.3071L106.601 95.9446L106.571 95.8811C106.547 95.8299 106.533 95.7888 106.506 95.7419C102.411 88.6627 94.9253 84.7053 87.2592 84.7363ZM68.3645 95.5599L68.3279 95.6319C68.3052 95.6772 68.2772 95.7333 68.2789 95.7308L68.2758 95.736L68.2707 95.7419C62.3155 106.059 65.6962 119.231 75.7318 125.479L74.4959 127.443L80.2102 127.668L85.7886 127.874L85.9233 127.88L83.264 122.833L80.5863 117.765L79.3368 119.757C72.3359 115.435 69.968 106.281 74.1184 99.1021L74.0938 99.1278C74.153 99.0884 74.162 99.0398 74.1832 98.9728L74.2028 98.9129L68.3645 95.5599ZM106.445 97.4621L103.371 102.296L100.315 107.148L102.69 107.226C102.441 115.464 95.6799 122.061 87.3817 122.061H87.1637V128.803H87.3817C99.3022 128.803 109.059 119.296 109.449 107.503L111.763 107.584L109.104 102.531L106.507 97.5805L106.445 97.4621Z" fill="black"/>
</g>
</g>
<defs>
<clipPath id="clip0_4_4843">
<rect width="174" height="174" fill="white"/>
</clipPath>
<clipPath id="clip1_4_4843">
<rect width="148" height="130" fill="white" transform="translate(13 22)"/>
</clipPath>
</defs>
</svg>
