<svg width="310" height="160" viewBox="0 0 310 160" fill="none" xmlns="http://www.w3.org/2000/svg">
<g clip-path="url(#clip0_4_2920)">
<path d="M0 0H310V160H0V0Z" fill="white"/>
<g clip-path="url(#clip1_4_2920)">
<path fill-rule="evenodd" clip-rule="evenodd" d="M115.556 15.1416C110.345 15.1416 106.141 19.3336 106.141 24.5295V135.47C106.141 140.666 110.345 144.858 115.556 144.858H194.441C199.652 144.858 203.856 140.666 203.856 135.47V24.5295C203.856 19.3336 199.652 15.1416 194.441 15.1416H115.556ZM115.556 15.7259H194.441C199.338 15.7259 203.27 19.6473 203.27 24.5295V135.47C203.27 140.352 199.338 144.274 194.441 144.274H115.556C110.66 144.274 106.727 140.352 106.727 135.47V24.5295C106.727 19.6473 110.66 15.7259 115.556 15.7259Z" fill="black"/>
<path fill-rule="evenodd" clip-rule="evenodd" d="M115.56 15.4336H194.445C199.499 15.4336 203.567 19.4903 203.567 24.5294V135.47C203.567 140.509 199.499 144.566 194.445 144.566H115.56C110.506 144.566 106.438 140.509 106.438 135.47V24.5294C106.438 19.4903 110.506 15.4336 115.56 15.4336Z" fill="white"/>
<path fill-rule="evenodd" clip-rule="evenodd" d="M115.494 17.5859H194.507C198.329 17.5859 201.407 20.6544 201.407 24.4658V135.534C201.407 139.345 198.329 142.414 194.507 142.414H115.494C111.671 142.414 108.594 139.345 108.594 135.534V24.4658C108.594 20.6544 111.671 17.5859 115.494 17.5859Z" fill="#0070FD"/>
<path fill-rule="evenodd" clip-rule="evenodd" d="M118.086 27.3281H191.904V100.933H118.086V27.3281Z" fill="white"/>
<path fill-rule="evenodd" clip-rule="evenodd" d="M178.2 30.7874L122.758 76.4062H129.383L180.742 30.7874H178.252H178.2ZM186.677 30.8795L161.883 76.4062H168.413L188.759 30.8795H186.765H186.677ZM182.105 31.4539L180.339 33.4386H182.738L184.315 31.4539H182.172H182.105ZM178.112 35.9378L172.142 42.6554H175.336L180.775 35.9378H178.177H178.112ZM168.517 46.7276L160.301 56.0257H164.897L172.384 46.7276H168.585H168.517ZM155.522 61.4153L142.181 76.4062H148.739L160.434 61.6527L160.621 61.4153H155.522Z" fill="#131414"/>
<path fill-rule="evenodd" clip-rule="evenodd" d="M126.117 95.0965V84.6367H130.49C131.279 84.6367 131.945 84.9151 132.488 85.472C132.729 85.7274 132.924 86.0339 133.072 86.3915C133.226 86.7491 133.303 87.0888 133.303 87.4107V87.7402C133.303 88.1693 133.177 88.5703 132.926 88.9432C132.721 89.2344 132.473 89.4516 132.181 89.5946C132.488 89.6968 132.752 89.8807 132.972 90.1463C133.336 90.5806 133.52 91.048 133.526 91.5486V92.3226C133.526 92.6597 133.449 93.0071 133.295 93.3647C133.146 93.7172 132.947 94.0237 132.696 94.2843C132.153 94.8309 131.499 95.1017 130.736 95.0965H126.117ZM128.038 88.7823H130.336C130.592 88.7823 130.808 88.7159 130.982 88.5831C131.243 88.389 131.374 88.108 131.374 87.7402V87.4107C131.374 87.0377 131.248 86.7619 130.997 86.5831C130.818 86.4451 130.598 86.3762 130.336 86.3762H128.038V88.7823ZM128.038 93.3571H130.598C130.92 93.3571 131.177 93.2549 131.366 93.0506C131.52 92.8718 131.599 92.6291 131.604 92.3226V91.5486C131.604 91.3136 131.522 91.0965 131.358 90.8973C131.159 90.647 130.905 90.5218 130.598 90.5218H128.038V93.3571Z" fill="black"/>
<path fill-rule="evenodd" clip-rule="evenodd" d="M142.826 95.0965V84.6367H140.59L137.377 91.6713V84.6367H135.633V95.0965H137.908L141.082 88.2306V95.0965H142.826Z" fill="black"/>
<path fill-rule="evenodd" clip-rule="evenodd" d="M145.141 95.0965V84.6367H147.062V88.8053H150.413V84.6367H152.334V95.0965H150.413V90.5448H147.062V95.0965H145.141Z" fill="black"/>
<path fill-rule="evenodd" clip-rule="evenodd" d="M154.641 95.0965V84.6367H161.088V86.3762H156.562V88.7823H159.582V90.5218H156.562V93.3571H161.088V95.0965H154.641Z" fill="black"/>
<path fill-rule="evenodd" clip-rule="evenodd" d="M164.481 95.0965V86.3762H161.891V84.6367H169.084V86.3762H166.402V95.0965H164.481Z" fill="black"/>
<path fill-rule="evenodd" clip-rule="evenodd" d="M170.492 95.0965V84.6367H172.413V88.1233L175.172 84.6367H177.678L173.666 89.6789L177.985 95.0965H175.518L172.413 91.1502V95.0965H170.492Z" fill="black"/>
<path fill-rule="evenodd" clip-rule="evenodd" d="M180.576 93.5946L180.146 95.0965H178.094L181.168 84.6367H183.404L186.486 95.0965H184.457L184.011 93.5946H180.576ZM181.083 91.8551H183.527L182.29 87.7019L181.083 91.8551Z" fill="black"/>
<path fill-rule="evenodd" clip-rule="evenodd" d="M132.064 116.443L128.998 126.903H126.723L123.672 116.443H125.739L127.891 123.708L130.043 116.443H132.064Z" fill="white"/>
<path fill-rule="evenodd" clip-rule="evenodd" d="M133.469 126.903V116.443H135.39V126.903H133.469Z" fill="white"/>
<path fill-rule="evenodd" clip-rule="evenodd" d="M144.701 120.589V123.47C144.701 124.247 144.491 124.949 144.071 125.577C143.712 126.098 143.251 126.494 142.688 126.765C142.211 126.995 141.686 127.11 141.112 127.11C139.888 127.11 138.922 126.637 138.215 125.692C137.743 125.059 137.508 124.318 137.508 123.47V119.846C137.508 119.038 137.756 118.308 138.253 117.654C138.965 116.709 139.934 116.236 141.158 116.236C142.296 116.236 143.208 116.658 143.894 117.501C144.207 117.889 144.429 118.356 144.563 118.903H142.657C142.355 118.285 141.845 117.976 141.127 117.976C140.81 117.976 140.515 118.045 140.244 118.183C139.977 118.321 139.775 118.507 139.637 118.742C139.498 118.972 139.429 119.25 139.429 119.577V123.723C139.429 124.142 139.555 124.487 139.806 124.757C140.185 125.161 140.636 125.363 141.158 125.363C141.445 125.363 141.712 125.294 141.957 125.156C142.209 125.018 142.406 124.829 142.549 124.589C142.703 124.339 142.78 124.05 142.78 123.723V122.328H141.158V120.589H144.701Z" fill="white"/>
<path fill-rule="evenodd" clip-rule="evenodd" d="M146.812 126.903V116.443H149.049L152.261 123.478V116.443H154.006V126.903H151.731L148.557 120.037V126.903H146.812Z" fill="white"/>
<path fill-rule="evenodd" clip-rule="evenodd" d="M156.32 126.903V116.443H162.768V118.183H158.242V120.589H161.262V122.328H158.242V125.164H162.768V126.903H156.32Z" fill="white"/>
<path fill-rule="evenodd" clip-rule="evenodd" d="M166.152 126.903V118.183H163.562V116.443H170.756V118.183H168.074V126.903H166.152Z" fill="white"/>
<path fill-rule="evenodd" clip-rule="evenodd" d="M173.855 126.903V118.183H171.266V116.443H178.459V118.183H175.777V126.903H173.855Z" fill="white"/>
<path fill-rule="evenodd" clip-rule="evenodd" d="M179.867 126.903V116.443H186.315V118.183H181.788V120.589H184.809V122.328H181.788V125.164H186.315V126.903H179.867Z" fill="white"/>
</g>
</g>
<defs>
<clipPath id="clip0_4_2920">
<path d="M0 0H310V160H0V0Z" fill="white"/>
</clipPath>
<clipPath id="clip1_4_2920">
<rect width="98" height="130" fill="white" transform="translate(106 15)"/>
</clipPath>
</defs>
</svg>
