<svg width="148" height="131" viewBox="0 0 148 131" fill="none" xmlns="http://www.w3.org/2000/svg">
<path d="M67.2775 4.08368C68.595 1.79401 71.1724 0.361655 74.0001 0.361655C76.8792 0.361655 79.4576 1.87234 80.8 4.20554L146.486 118.387C147.896 120.837 148.104 123.924 146.596 126.545C145.157 129.047 142.564 130.533 139.879 130.533H8.12105C5.43633 130.533 2.84355 129.047 1.40399 126.545C-0.10409 123.924 0.10452 120.837 1.51439 118.387L67.2775 4.08368Z" fill="white" stroke="black" stroke-width="0.719" stroke-miterlimit="2" stroke-linecap="round" stroke-linejoin="round"/>
<path d="M74.0005 2.82948C75.953 2.82948 77.6489 3.85732 78.5028 5.34136L144.187 119.521C145.17 121.23 145.301 123.268 144.298 125.011C143.321 126.708 141.591 127.662 139.884 127.662H8.12265C6.4152 127.662 4.68536 126.708 3.70901 125.011C2.70581 123.268 2.83644 121.23 3.81977 119.521L69.5813 5.2191C70.3881 3.81694 72.0673 2.82948 74.0005 2.82948ZM23.6894 113.436H124.317L74.006 25.9811L23.6894 113.436Z" fill="#DD2414"/>
<path fill-rule="evenodd" clip-rule="evenodd" d="M82.8629 56.65C82.8708 56.6499 82.8787 56.6515 82.8859 56.6547C82.8932 56.658 82.8996 56.6628 82.9048 56.6688L89.074 64.1967C89.0823 64.2064 89.0869 64.2187 89.087 64.2314L89.126 87.1061C89.126 96.0579 79.5118 100.913 73.3233 97.331L62.0544 90.7679C60.7855 90.0306 59.5171 90.945 59.4418 92.0121V108.729C59.4418 108.739 59.439 108.749 59.4337 108.758C59.4284 108.766 59.4208 108.773 59.4118 108.778C59.4029 108.782 59.3928 108.784 59.3828 108.783C59.3728 108.782 59.3633 108.779 59.3552 108.773L53.2452 104.082L47.1034 108.773C47.0954 108.779 47.0857 108.783 47.0754 108.784C47.0652 108.785 47.0549 108.784 47.0457 108.779C47.0364 108.774 47.0287 108.767 47.0233 108.759C47.018 108.75 47.0152 108.74 47.0154 108.729V86.8511C47.0154 81.8712 49.3422 78.4092 52.4773 76.6653C55.6124 74.9214 59.5539 74.8932 62.7819 76.7609L74.5372 83.5906C74.5372 83.5911 74.5372 83.5916 74.5372 83.5921C75.1026 83.9347 75.6375 83.904 76.0312 83.6384C76.4248 83.3728 76.6796 82.8659 76.6605 82.2377C76.6605 82.2372 76.6605 82.2367 76.6605 82.2362V64.2705C76.6602 64.258 76.6643 64.2457 76.6721 64.2358L82.8211 56.6703C82.8261 56.664 82.8325 56.6589 82.8397 56.6554C82.847 56.6519 82.8549 56.65 82.8629 56.65Z" fill="black"/>
</svg>
