<svg width="174" height="174" viewBox="0 0 174 174" fill="none" xmlns="http://www.w3.org/2000/svg">
<g clip-path="url(#clip0_4_4427)">
<g clip-path="url(#clip1_4_4427)">
<path fill-rule="evenodd" clip-rule="evenodd" d="M34.6649 22.189C27.7593 22.189 22.1875 27.7582 22.1875 34.6639V139.333C22.1875 146.239 27.7593 151.811 34.6649 151.811H139.332C146.237 151.811 151.809 146.239 151.809 139.333V34.6639C151.809 27.7582 146.237 22.189 139.332 22.189H34.6649ZM34.6649 22.9609H139.332C145.822 22.9609 151.035 28.1736 151.035 34.6639V139.333C151.035 145.823 145.822 151.036 139.332 151.036H34.6649C28.1747 151.036 22.9619 145.823 22.9619 139.333V34.6639C22.9619 28.1736 28.1747 22.9609 34.6649 22.9609Z" fill="black" fill-opacity="0.9799"/>
<path fill-rule="evenodd" clip-rule="evenodd" d="M34.6605 22.5747H139.327C146.025 22.5747 151.417 27.9669 151.417 34.6649V139.332C151.417 146.03 146.025 151.422 139.327 151.422H34.6605C27.9625 151.422 22.5703 146.03 22.5703 139.332V34.6649C22.5703 27.9669 27.9625 22.5747 34.6605 22.5747Z" fill="white"/>
<path fill-rule="evenodd" clip-rule="evenodd" d="M34.6581 25.438H139.337C144.446 25.438 148.558 29.5504 148.558 34.6586V139.339C148.558 144.447 144.446 148.559 139.337 148.559H34.6581C29.5499 148.559 25.4375 144.447 25.4375 139.339V34.6586C25.4375 29.5504 29.5499 25.438 34.6581 25.438Z" fill="#0070FD"/>
<path fill-rule="evenodd" clip-rule="evenodd" d="M86.9758 42.9707C68.2384 42.9707 52.5781 58.6322 52.5781 77.3696V109.427L61.8126 122.156L71.0475 109.427V77.3696C71.0475 68.5449 78.1511 61.44 86.9758 61.44C95.8005 61.44 102.905 68.5449 102.905 77.3696V131.442L112.135 125.348L121.375 131.442V77.3696C121.375 58.6322 105.713 42.9707 86.9758 42.9707Z" fill="white"/>
</g>
</g>
<defs>
<clipPath id="clip0_4_4427">
<rect width="174" height="174" fill="white"/>
</clipPath>
<clipPath id="clip1_4_4427">
<rect width="130" height="130" fill="white" transform="translate(22 22)"/>
</clipPath>
</defs>
</svg>
