<svg width="310" height="160" viewBox="0 0 310 160" fill="none" xmlns="http://www.w3.org/2000/svg">
<g clip-path="url(#clip0_4_3163)">
<g clip-path="url(#clip1_4_3163)">
<path d="M161.73 19.0016C160.412 16.7256 157.832 15.3018 155.002 15.3018C152.121 15.3018 149.541 16.8034 148.197 19.1228L82.4583 132.624C81.0474 135.06 80.8385 138.128 82.3478 140.734C83.7885 143.221 86.3834 144.698 89.0703 144.698H220.935C223.622 144.698 226.216 143.221 227.657 140.734C229.167 138.128 228.958 135.06 227.547 132.624L161.73 19.0016Z" fill="white" stroke="black" stroke-width="0.719" stroke-miterlimit="2" stroke-linecap="round" stroke-linejoin="round"/>
<path d="M155 17.7559C153.046 17.7559 151.348 18.7776 150.494 20.2528L84.7568 133.752C83.7727 135.451 83.642 137.477 84.646 139.21C85.6231 140.897 87.3544 141.845 89.0632 141.845H220.931C222.64 141.845 224.371 140.897 225.348 139.21C226.352 137.477 226.221 135.451 225.237 133.752L159.423 20.1313C158.615 18.7374 156.935 17.7559 155 17.7559ZM205.351 127.703H104.643L154.994 40.7696L205.351 127.703Z" fill="#DD2414"/>
<path fill-rule="evenodd" clip-rule="evenodd" d="M163.631 70.2191C163.631 72.2829 163.535 73.995 163.301 75.3161C161.432 86.7459 156.859 98.0015 156.859 109.665H154.168C154.168 98.1954 149.028 86.667 147.314 75.2176C147.099 73.6828 146.961 71.9477 146.961 70.0482C146.961 66.2985 150.973 62.7197 155.316 62.7197C158.883 62.7197 163.631 65.2469 163.631 70.2191ZM160.924 117.44C160.924 118.86 160.38 120.122 159.328 121.19C158.26 122.241 156.974 122.784 155.471 122.784C154.053 122.784 152.78 122.241 151.729 121.19C150.66 120.122 150.136 118.86 150.136 117.44C150.136 115.922 150.647 114.68 151.676 113.631C152.728 112.619 153.99 112.093 155.471 112.093C156.859 112.093 158.105 112.599 159.236 113.611C160.357 114.601 160.924 115.886 160.924 117.44Z" fill="black"/>
</g>
</g>
<defs>
<clipPath id="clip0_4_3163">
<path d="M0 0H310V160H0V0Z" fill="white"/>
</clipPath>
<clipPath id="clip1_4_3163">
<rect width="148" height="130" fill="white" transform="translate(81 15)"/>
</clipPath>
</defs>
</svg>
