<svg width="174" height="174" viewBox="0 0 174 174" fill="none" xmlns="http://www.w3.org/2000/svg">
<g clip-path="url(#clip0_4_3662)">
<g clip-path="url(#clip1_4_3662)">
<path fill-rule="evenodd" clip-rule="evenodd" d="M34.6649 22.1895C27.7593 22.1895 22.1875 27.7587 22.1875 34.6644V139.334C22.1875 146.239 27.7593 151.811 34.6649 151.811H139.332C146.237 151.811 151.809 146.239 151.809 139.334V34.6644C151.809 27.7587 146.237 22.1895 139.332 22.1895H34.6649ZM34.6649 22.9614H139.332C145.822 22.9614 151.035 28.1741 151.035 34.6644V139.334C151.035 145.824 145.822 151.037 139.332 151.037H34.6649C28.1747 151.037 22.9619 145.824 22.9619 139.334V34.6644C22.9619 28.1741 28.1747 22.9614 34.6649 22.9614Z" fill="black" fill-opacity="0.9799"/>
<path fill-rule="evenodd" clip-rule="evenodd" d="M34.6683 22.5752H139.335C146.033 22.5752 151.425 27.9674 151.425 34.6654V139.333C151.425 146.031 146.033 151.423 139.335 151.423H34.6683C27.9704 151.423 22.5781 146.031 22.5781 139.333V34.6654C22.5781 27.9674 27.9704 22.5752 34.6683 22.5752Z" fill="white"/>
<path fill-rule="evenodd" clip-rule="evenodd" d="M34.6581 25.4385H139.337C144.446 25.4385 148.558 29.5508 148.558 34.659V139.339C148.558 144.447 144.446 148.56 139.337 148.56H34.6581C29.5499 148.56 25.4375 144.447 25.4375 139.339V34.659C25.4375 29.5508 29.5499 25.4385 34.6581 25.4385Z" fill="#0070FD"/>
<path fill-rule="evenodd" clip-rule="evenodd" d="M30.6328 133.188H144.614L87.6236 33.8745L30.6328 133.188Z" fill="white"/>
<path opacity="0.999883" fill-rule="evenodd" clip-rule="evenodd" d="M85.8711 54.5574C85.3525 54.5548 84.9678 55.1109 84.9678 55.8636C84.9678 56.6544 84.3947 57.2935 83.685 57.2935C82.5486 57.2935 82.7014 58.4566 83.9206 59.0868C84.5398 59.407 84.5469 59.4297 84.5469 61.1852V62.9603L85.4696 63.5954C86.4344 64.2589 86.654 64.5919 86.654 65.392C86.654 66.1503 85.929 66.8836 84.1139 67.9628C83.1889 68.5125 82.3024 69.1606 82.144 69.4021C81.9857 69.6435 81.7019 70.5884 81.513 71.5012C81.0735 73.6255 80.5335 74.6865 78.9482 76.5425C77.503 78.2345 75.8016 79.834 72.4289 82.6697C70.1506 84.5851 70.0879 84.6207 68.8075 84.7319C68.091 84.7949 67.4037 84.9078 67.2799 84.9841C67.1562 85.0603 67.0554 85.6623 67.0557 86.3217C67.0574 88.888 68.9799 90.2381 70.1518 88.4957C70.5415 87.9163 70.777 87.7787 71.4312 87.7469C71.946 87.7218 73.2746 87.184 75.1442 86.2447C77.7445 84.9382 78.2962 84.5596 80.3005 82.701C82.8281 80.3572 83.7553 79.7778 84.2009 80.2647C84.385 80.4658 84.6363 82.3191 84.9416 85.7302L85.4033 90.8905L83.7225 94.2107C82.7979 96.0367 81.6673 98.0745 81.2106 98.7394C80.6438 99.5645 80.2334 100.517 79.9171 101.739C79.6623 102.724 79.0727 104.857 78.607 106.479C78.1413 108.101 77.4501 110.659 77.0713 112.166C76.5683 114.165 76.2899 114.922 76.0388 114.972C75.8498 115.01 75.1718 114.784 74.532 114.471C73.6481 114.039 73.1841 113.932 72.6008 114.027C71.2049 114.253 71.2451 114.499 72.9414 116.1L74.5078 117.578L75.8347 117.436L77.1616 117.294L77.5116 118.027C77.8608 118.759 78.3962 119.011 79.5979 119.011C80.1378 119.011 80.2385 118.829 80.441 117.478C80.5721 116.605 80.6434 116.512 81.2794 116.392C81.6619 116.321 82.0794 116.136 82.2068 115.983C82.3343 115.829 82.9153 113.959 83.4976 111.828C84.4325 108.405 84.725 107.644 86.0008 105.319C88.7014 100.398 89.496 99.2094 90.0866 99.2114C90.227 99.2118 90.8836 100.279 91.5453 101.582C92.2069 102.884 94.0976 106.415 95.7474 109.427C98.9076 115.197 99.2025 116.016 98.3396 116.63C98.1136 116.791 97.5261 117.203 97.0335 117.547C95.9259 118.319 95.8506 118.911 96.8221 119.209C98.0303 119.58 100.054 119.34 100.95 118.719C101.55 118.303 102.005 118.169 102.808 118.169C103.393 118.169 104.171 118.064 104.536 117.938C105.153 117.723 105.199 117.638 105.199 116.721C105.199 116.179 105.058 115.534 104.886 115.289C104.709 115.035 104.589 114.448 104.608 113.926C104.638 113.123 104.269 112.296 101.665 107.321C100.027 104.193 98.3742 100.876 97.9917 99.9487C97.3143 98.3068 97.2968 98.1877 97.3132 95.3143C97.3232 93.6923 97.4062 91.084 97.4993 89.5182C97.6884 86.3346 97.4336 83.3649 96.7458 80.7406C96.2377 78.8014 96.2755 77.2364 96.8329 77.1306C97.474 77.009 98.0879 77.5738 101.936 81.8272C105.283 85.527 105.649 86.006 105.607 86.6236C105.523 87.833 105.612 88.2485 106.042 88.6792C107.164 89.8002 109.819 88.606 110.176 86.8197C110.297 86.217 110.214 86.045 109.456 85.3241C108.853 84.7511 108.374 83.9673 107.841 82.6791C105.144 76.1679 101.076 70.534 97.3795 68.1917C95.9548 67.2889 95.066 66.9826 93.872 66.9826C93.0862 66.9826 92.8174 66.8666 92.2172 66.2666C91.6095 65.6589 91.5005 65.4027 91.5005 64.579C91.5005 63.117 92.3035 59.7855 92.7772 59.2815C93.3029 58.7229 93.3 58.0971 92.7703 57.7666C92.5412 57.6235 92.1601 57.1267 91.9232 56.6626C91.5375 55.9066 91.4107 55.8181 90.7067 55.8161C90.2745 55.8148 89.1145 55.5318 88.1292 55.1869C87.1439 54.8427 86.1278 54.5587 85.8711 54.5574ZM52.5296 114.052L36.3125 129.738H51.3914L62.9828 114.052H52.5296ZM92.4982 114.052L95.1821 129.738H110.261L105.175 118.822C104.154 118.835 103.164 118.854 102.492 119C101.744 119.16 101.389 119.468 100.949 119.634C100.509 119.8 99.9844 119.823 99.2531 119.851C98.5217 119.876 97.5842 119.914 96.9272 119.709C96.2701 119.503 95.8932 119.057 95.8131 118.629C95.7328 118.2 95.9499 117.789 96.4641 117.377C96.9785 116.966 97.7901 116.554 98.07 115.949C98.3139 115.422 98.1516 114.746 97.9402 114.052L92.4982 114.052ZM111.684 114.052L123.275 129.738H138.354L122.137 114.052H111.684ZM83.2695 115.624C82.6013 116.213 81.5882 116.577 81.2432 116.892C81.0238 117.092 80.9363 117.266 80.8625 117.459C80.7886 117.651 80.9107 118.322 80.7643 118.549C80.4716 119.001 79.8864 119.409 79.3591 119.562C78.8318 119.714 78.3758 119.559 77.9158 119.234C77.4557 118.909 76.9604 118.434 76.4805 118.284C76.0005 118.133 75.3916 118.278 74.4671 117.946C73.8027 117.707 73.0018 116.574 72.1639 116.03L65.7757 129.738H80.8546L83.2695 115.624Z" fill="black"/>
</g>
</g>
<defs>
<clipPath id="clip0_4_3662">
<rect width="174" height="174" fill="white"/>
</clipPath>
<clipPath id="clip1_4_3662">
<rect width="130" height="130" fill="white" transform="translate(22 22)"/>
</clipPath>
</defs>
</svg>
