<svg width="174" height="174" viewBox="0 0 174 174" fill="none" xmlns="http://www.w3.org/2000/svg">
<g clip-path="url(#clip0_4_3988)">
<g clip-path="url(#clip1_4_3988)">
<path d="M93.7305 26.0016C92.412 23.7256 89.8325 22.3018 87.0025 22.3018C84.1211 22.3018 81.5406 23.8034 80.1972 26.1228L14.4583 139.624C13.0474 142.06 12.8385 145.128 14.3478 147.734C15.7885 150.221 18.3834 151.698 21.0703 151.698H152.935C155.622 151.698 158.216 150.221 159.657 147.734C161.167 145.128 160.958 142.06 159.547 139.624L93.7305 26.0016Z" fill="white" stroke="black" stroke-width="0.719" stroke-miterlimit="2" stroke-linecap="round" stroke-linejoin="round"/>
<path d="M86.9998 24.7559C85.0457 24.7559 83.3484 25.7776 82.4939 27.2528L16.7568 140.752C15.7727 142.451 15.642 144.477 16.646 146.21C17.6231 147.897 19.3544 148.845 21.0632 148.845H152.931C154.64 148.845 156.371 147.897 157.348 146.21C158.352 144.477 158.221 142.451 157.237 140.752L91.4225 27.1313C90.6151 25.7374 88.9346 24.7559 86.9998 24.7559ZM137.351 134.703H36.6426L86.9943 47.7696L137.351 134.703Z" fill="#DD2414"/>
<path fill-rule="evenodd" clip-rule="evenodd" d="M95.631 77.2191C95.631 79.2829 95.5354 80.995 95.3013 82.3161C93.4318 93.7459 88.8588 105.002 88.8588 116.665H86.1684C86.1684 105.195 81.0282 93.667 79.3137 82.2176C79.0994 80.6828 78.9609 78.9477 78.9609 77.0482C78.9609 73.2985 82.9735 69.7197 87.3158 69.7197C90.8832 69.7197 95.631 72.2469 95.631 77.2191ZM92.9241 124.44C92.9241 125.86 92.3801 127.122 91.3283 128.19C90.2601 129.241 88.9742 129.784 87.4707 129.784C86.053 129.784 84.7803 129.241 83.7285 128.19C82.6603 127.122 82.136 125.86 82.136 124.44C82.136 122.922 82.6471 121.68 83.6758 120.631C84.7275 119.619 85.9903 119.093 87.4707 119.093C88.8588 119.093 90.1051 119.599 91.236 120.611C92.357 121.601 92.9241 122.886 92.9241 124.44Z" fill="black"/>
</g>
</g>
<defs>
<clipPath id="clip0_4_3988">
<rect width="174" height="174" fill="white"/>
</clipPath>
<clipPath id="clip1_4_3988">
<rect width="148" height="130" fill="white" transform="translate(13 22)"/>
</clipPath>
</defs>
</svg>
