<svg width="310" height="160" viewBox="0 0 310 160" fill="none" xmlns="http://www.w3.org/2000/svg">
<g clip-path="url(#clip0_4_3062)">
<g clip-path="url(#clip1_4_3062)">
<path d="M161.731 18.9676C160.412 16.6903 157.831 15.2656 155 15.2656C152.117 15.2656 149.535 16.7682 148.191 19.0888L82.4198 132.654C81.0082 135.091 80.7992 138.161 82.3092 140.769C83.7507 143.257 86.3468 144.735 89.0351 144.735H220.965C223.653 144.735 226.249 143.257 227.691 140.769C229.201 138.162 228.992 135.091 227.58 132.654L161.731 18.9676Z" fill="#FFE51A" stroke="black" stroke-width="0.359678" stroke-miterlimit="2" stroke-linecap="round" stroke-linejoin="round"/>
<path d="M155.004 17.7207C153.049 17.7207 151.351 18.743 150.496 20.219L84.726 133.783C83.7414 135.483 83.6106 137.509 84.6151 139.244C85.5927 140.932 87.3248 141.88 89.0345 141.88H220.968C222.677 141.88 224.409 140.932 225.387 139.244C226.392 137.509 226.261 135.483 225.276 133.783L159.429 20.0974C158.621 18.7028 156.94 17.7207 155.004 17.7207ZM205.381 127.73H104.622L154.998 40.7475L205.381 127.73Z" fill="#DD2414"/>
<path fill-rule="evenodd" clip-rule="evenodd" d="M176.127 98.8424C176.615 98.0373 176.618 97.0856 176.386 96.1419C176.197 95.3734 175.852 94.6109 175.487 93.9368L169.24 82.3031C169.24 82.3031 168.995 81.7633 168.486 80.9617C167.834 79.9347 166.716 78.49 164.771 77.3208C163.022 76.2693 160.662 76.4216 158.786 76.5358C157.859 76.5922 156.472 76.5092 156.472 76.5092L156.471 76.5097L151.499 73.9751C151.434 73.9419 151.356 73.9572 151.318 74.0198L147.912 79.649C147.874 79.7117 147.894 79.7918 147.957 79.8296L151.873 82.7938L151.89 82.8026L150.581 84.9662L138.175 105.47L137.875 105.966L137.859 105.954L133.402 103.885C133.339 103.847 133.259 103.867 133.221 103.93L129.815 109.558C129.778 109.621 129.8 109.697 129.86 109.739L134.446 112.911L134.446 112.913C134.446 112.913 135.167 114.097 135.549 114.941C136.323 116.648 137.289 118.799 139.038 119.851C140.983 121.02 142.786 121.332 144.002 121.428C144.95 121.502 145.544 121.467 145.544 121.467L158.781 121.549C159.549 121.555 160.387 121.502 161.157 121.31C162.103 121.075 162.946 120.628 163.433 119.823L166.025 115.539L173.536 103.126L176.127 98.8424ZM173.208 97.704L169.196 104.335L168.151 106.062L161.059 117.782C160.49 118.724 159.421 118.59 158.326 118.457L150.292 117.481C149.197 117.349 148.566 116.492 149.135 115.55L158.417 100.21L159.462 98.4835L165.664 88.2323C166.234 87.2908 167.29 87.4462 167.919 88.3495L172.531 94.9792C173.16 95.8825 173.778 96.7625 173.208 97.704Z" fill="black"/>
</g>
</g>
<defs>
<clipPath id="clip0_4_3062">
<path d="M0 0H310V160H0V0Z" fill="white"/>
</clipPath>
<clipPath id="clip1_4_3062">
<rect width="148" height="130" fill="white" transform="translate(81 15)"/>
</clipPath>
</defs>
</svg>
