<svg width="174" height="174" viewBox="0 0 174 174" fill="none" xmlns="http://www.w3.org/2000/svg">
<g clip-path="url(#clip0_4_4218)">
<g clip-path="url(#clip1_4_4218)">
<path d="M87 22C51.1064 21.9995 22.0002 51.1068 22 87.0014C22.0002 122.896 51.1064 152.001 87 152C122.893 152 152 122.895 152 87.0014C152 51.1072 122.893 22.0002 87 22ZM87 22.7693C122.478 22.7695 151.231 51.5221 151.231 87.0014C151.231 122.481 122.478 151.233 87 151.233C51.5213 151.234 22.7695 122.481 22.7693 87.0014C22.7695 51.5216 51.5213 22.7688 87 22.7693Z" fill="black"/>
<path d="M86.9988 22.3848C51.3126 22.3843 22.383 51.3142 22.3828 87.0014C22.383 122.689 51.3126 151.618 86.9988 151.618C122.684 151.618 151.613 122.688 151.614 87.0014C151.613 51.3147 122.684 22.3849 86.9988 22.3848Z" fill="white"/>
<path d="M87.0019 24.3398C52.3967 24.3396 24.3435 52.3936 24.3438 86.9998C24.3436 121.606 52.3967 149.66 87.0019 149.66C121.607 149.659 149.659 121.606 149.659 86.9998C149.659 52.394 121.607 24.3403 87.0019 24.3398Z" fill="#008FDE"/>
<path d="M104.247 54.2484C103.717 54.364 103.29 54.8343 103.542 55.5255L106.53 67.3169H75.4748C63.9584 67.3169 54.6875 76.5878 54.6875 88.1042V131.974H67.6443V86.8347C67.6443 83.1979 70.571 80.2687 74.2078 80.2687H106.53V80.3601L103.542 92.1439C103.477 92.9757 103.907 93.3729 104.791 93.2433L138.675 73.7027L104.791 54.256C104.612 54.2108 104.424 54.2099 104.247 54.2484Z" fill="white"/>
</g>
</g>
<defs>
<clipPath id="clip0_4_4218">
<rect width="174" height="174" fill="white"/>
</clipPath>
<clipPath id="clip1_4_4218">
<rect width="130" height="130" fill="white" transform="translate(22 22)"/>
</clipPath>
</defs>
</svg>
