<svg width="174" height="174" viewBox="0 0 174 174" fill="none" xmlns="http://www.w3.org/2000/svg">
<g clip-path="url(#clip0_4_3945)">
<g clip-path="url(#clip1_4_3945)">
<path d="M93.7227 26.0016C92.4042 23.7256 89.8247 22.3018 86.9947 22.3018C84.1133 22.3018 81.5328 23.8034 80.1893 26.1228L14.4504 139.624C13.0396 142.06 12.8307 145.128 14.34 147.734C15.7807 150.221 18.3756 151.698 21.0625 151.698H152.927C155.614 151.698 158.209 150.221 159.649 147.734C161.159 145.128 160.95 142.06 159.539 139.624L93.7227 26.0016Z" fill="white" stroke="black" stroke-width="0.719" stroke-miterlimit="2" stroke-linecap="round" stroke-linejoin="round"/>
<path d="M86.992 24.7549C85.0379 24.7549 83.3406 25.7766 82.4861 27.2518L16.749 140.751C15.7649 142.45 15.6342 144.476 16.6382 146.209C17.6153 147.896 19.3466 148.844 21.0554 148.844H152.923C154.632 148.844 156.363 147.896 157.34 146.209C158.344 144.476 158.214 142.45 157.229 140.751L91.4147 27.1303C90.6073 25.7365 88.9268 24.7549 86.992 24.7549ZM137.344 134.702H36.6348L86.9865 47.7686L137.344 134.702Z" fill="#DD2414"/>
<path fill-rule="evenodd" clip-rule="evenodd" d="M88.8581 84.5137C88.8438 84.5139 88.8301 84.5198 88.8201 84.53C88.8101 84.5403 88.8045 84.5541 88.8047 84.5684V96.5668C88.8045 96.5775 88.8075 96.5881 88.8134 96.5971L93.3682 103.537V128.112C93.3684 128.126 93.3743 128.139 93.3846 128.149C93.3949 128.159 93.4087 128.165 93.4231 128.165H101.094C101.108 128.165 101.121 128.159 101.131 128.149C101.141 128.139 101.147 128.126 101.147 128.112V103.521C101.147 103.511 101.144 103.5 101.139 103.491L96.5362 96.551V84.5684C96.5362 84.5612 96.5349 84.554 96.5321 84.5474C96.5294 84.5407 96.5254 84.5346 96.5203 84.5295C96.5151 84.5244 96.5091 84.5204 96.5024 84.5177C96.4957 84.515 96.4885 84.5136 96.4813 84.5137H88.8581Z" fill="black"/>
<path fill-rule="evenodd" clip-rule="evenodd" d="M75.1316 84.5107C75.1172 84.511 75.1035 84.5168 75.0935 84.5271C75.0835 84.5374 75.078 84.5511 75.0781 84.5655V128.111C75.0783 128.126 75.084 128.139 75.094 128.149C75.104 128.159 75.1175 128.165 75.1316 128.165H82.7186C82.7329 128.165 82.7468 128.159 82.7571 128.149C82.7674 128.139 82.7733 128.126 82.7735 128.111V84.5655C82.7736 84.5583 82.7722 84.5511 82.7695 84.5444C82.7667 84.5378 82.7627 84.5317 82.7576 84.5266C82.7525 84.5215 82.7464 84.5175 82.7397 84.5147C82.733 84.512 82.7258 84.5107 82.7186 84.5107H75.1316Z" fill="black"/>
</g>
</g>
<defs>
<clipPath id="clip0_4_3945">
<rect width="174" height="174" fill="white"/>
</clipPath>
<clipPath id="clip1_4_3945">
<rect width="148" height="130" fill="white" transform="translate(13 22)"/>
</clipPath>
</defs>
</svg>
