<svg width="174" height="174" viewBox="0 0 174 174" fill="none" xmlns="http://www.w3.org/2000/svg">
<g clip-path="url(#clip0_4_3686)">
<g clip-path="url(#clip1_4_3686)">
<path fill-rule="evenodd" clip-rule="evenodd" d="M20.2065 49.625C15.7405 49.625 12.125 53.2355 12.125 57.694V116.308C12.125 120.766 15.7405 124.376 20.2065 124.376H153.793C158.259 124.376 161.875 120.766 161.875 116.308V57.694C161.875 53.2355 158.259 49.625 153.793 49.625H20.2065ZM20.2065 50.9438H153.793C157.55 50.9438 160.554 53.9433 160.554 57.694V116.308C160.554 120.059 157.55 123.057 153.793 123.057H20.2065C16.4495 123.057 13.446 120.059 13.446 116.308V57.694C13.446 53.9433 16.4495 50.9438 20.2065 50.9438Z" fill="black"/>
<path fill-rule="evenodd" clip-rule="evenodd" d="M20.2027 50.2842H153.789C157.901 50.2842 161.211 53.5887 161.211 57.6933V116.307C161.211 120.412 157.901 123.716 153.789 123.716H20.2027C16.0912 123.716 12.7812 120.412 12.7812 116.307V57.6933C12.7812 53.5887 16.0912 50.2842 20.2027 50.2842Z" fill="white"/>
<path fill-rule="evenodd" clip-rule="evenodd" d="M20.2096 53.459H153.796C156.145 53.459 158.037 55.3473 158.037 57.6928V116.307C158.037 118.652 156.145 120.54 153.796 120.54H20.2096C17.8602 120.54 15.9688 118.652 15.9688 116.307V57.6928C15.9688 55.3473 17.8602 53.459 20.2096 53.459Z" fill="#009539"/>
<path fill-rule="evenodd" clip-rule="evenodd" d="M62.7075 103.298L60.9161 109.557H52.375L65.1707 65.9648H74.4795L87.3072 109.557H78.862L77.0067 103.298H62.7075ZM64.8188 96.0485H74.9913L69.8411 78.7392L64.8188 96.0485Z" fill="white"/>
<path fill-rule="evenodd" clip-rule="evenodd" d="M104.003 102.308H121.629V109.557H92.6472V102.308L111.073 84.0725C112.289 82.8803 112.896 81.3899 112.896 79.6015C112.896 77.6853 112.384 76.0885 111.361 74.8111C110.06 73.1717 108.397 72.352 106.371 72.352C104.366 72.352 102.702 73.2143 101.38 74.9388C100.442 76.1524 99.9727 77.4724 99.9727 78.8989V80.3999H91.6875C91.8368 76.6102 92.8071 73.5017 94.5985 71.0746C97.5628 67.0932 101.434 65.1025 106.211 65.1025C110.625 65.1025 114.229 66.6355 117.023 69.7013C119.625 72.5543 120.926 75.9714 120.926 79.9528C120.926 83.7212 119.411 87.1065 116.383 90.1084L104.003 102.308Z" fill="white"/>
</g>
</g>
<defs>
<clipPath id="clip0_4_3686">
<rect width="174" height="174" fill="white"/>
</clipPath>
<clipPath id="clip1_4_3686">
<rect width="150" height="75" fill="white" transform="translate(12 49.5)"/>
</clipPath>
</defs>
</svg>
