<svg width="310" height="160" viewBox="0 0 310 160" fill="none" xmlns="http://www.w3.org/2000/svg">
<g clip-path="url(#clip0_4_3169)">
<path fill-rule="evenodd" clip-rule="evenodd" d="M108.052 22.2073H201.944C207.953 22.2073 212.79 27.0444 212.79 33.0529V126.946C212.79 132.954 207.953 137.791 201.944 137.791H108.052C102.044 137.791 97.2065 132.954 97.2065 126.946V33.0529C97.2065 27.0444 102.044 22.2073 108.052 22.2073Z" fill="white"/>
<path d="M102.198 15.5H207.802C214.283 15.5001 219.5 20.7166 219.5 27.1982V132.802C219.5 139.283 214.283 144.5 207.802 144.5H102.198C95.7166 144.5 90.5001 139.283 90.5 132.802V27.1982C90.5001 20.8178 95.5549 15.6634 101.896 15.5039L102.198 15.5Z" fill="#EAE305" stroke="black"/>
<path fill-rule="evenodd" clip-rule="evenodd" d="M108.047 24.7754H201.95C206.533 24.7754 210.222 28.4644 210.222 33.0468V126.951C210.222 131.533 206.533 135.222 201.95 135.222H108.047C103.464 135.222 99.7754 131.533 99.7754 126.951V33.0468C99.7754 28.4644 103.464 24.7754 108.047 24.7754Z" fill="#0070FD"/>
<path fill-rule="evenodd" clip-rule="evenodd" d="M104.438 121.434H206.686L155.562 32.3433L104.438 121.434Z" fill="white"/>
<path opacity="0.999883" fill-rule="evenodd" clip-rule="evenodd" d="M153.991 50.8975C153.526 50.8952 153.181 51.394 153.181 52.0692C153.181 52.7786 152.667 53.3519 152.03 53.3519C151.011 53.3519 151.148 54.3953 152.241 54.9606C152.797 55.2479 152.803 55.2682 152.803 56.8429V58.4354L153.631 59.0051C154.496 59.6003 154.693 59.899 154.693 60.6167C154.693 61.297 154.043 61.9548 152.415 62.9229C151.585 63.416 150.79 63.9974 150.648 64.214C150.506 64.4306 150.251 65.2782 150.082 66.097C149.687 68.0026 149.203 68.9544 147.781 70.6193C146.484 72.1372 144.958 73.5721 141.933 76.1158C139.889 77.8341 139.833 77.866 138.684 77.9658C138.041 78.0223 137.425 78.1236 137.314 78.192C137.203 78.2604 137.112 78.8004 137.113 79.3919C137.114 81.694 138.839 82.9052 139.89 81.3421C140.24 80.8224 140.451 80.6989 141.038 80.6704C141.5 80.6479 142.691 80.1654 144.369 79.3228C146.701 78.1508 147.196 77.8112 148.994 76.1439C151.261 74.0414 152.093 73.5216 152.493 73.9584C152.658 74.1388 152.883 75.8013 153.157 78.8613L153.572 83.4904L152.064 86.4688C151.234 88.1068 150.22 89.9349 149.81 90.5313C149.302 91.2715 148.934 92.1261 148.65 93.2223C148.421 94.1057 147.893 96.0189 147.475 97.4738C147.057 98.9289 146.437 101.224 146.097 102.575C145.646 104.369 145.396 105.048 145.171 105.093C145.001 105.127 144.393 104.924 143.819 104.644C143.026 104.256 142.61 104.16 142.087 104.245C140.835 104.448 140.871 104.669 142.392 106.105L143.798 107.431L144.988 107.303L146.178 107.176L146.492 107.833C146.805 108.49 147.286 108.716 148.364 108.716C148.848 108.716 148.938 108.552 149.12 107.341C149.238 106.557 149.302 106.474 149.872 106.367C150.215 106.303 150.59 106.137 150.704 106C150.818 105.862 151.34 104.185 151.862 102.272C152.701 99.2024 152.963 98.5197 154.108 96.4339C156.53 92.0189 157.243 90.953 157.773 90.9548C157.899 90.9551 158.488 91.9121 159.081 93.0809C159.675 94.2496 161.371 97.4167 162.851 100.119C165.686 105.295 165.95 106.03 165.176 106.581C164.973 106.725 164.446 107.095 164.004 107.403C163.011 108.095 162.943 108.626 163.815 108.894C164.899 109.226 166.714 109.011 167.518 108.454C168.056 108.081 168.464 107.961 169.185 107.961C169.709 107.961 170.407 107.867 170.735 107.753C171.288 107.56 171.329 107.484 171.329 106.662C171.329 106.176 171.203 105.597 171.049 105.377C170.889 105.15 170.782 104.623 170.799 104.154C170.826 103.434 170.495 102.693 168.159 98.2297C166.69 95.4236 165.207 92.4475 164.864 91.6161C164.256 90.1432 164.241 90.0364 164.255 87.4588C164.264 86.0038 164.339 83.664 164.422 82.2594C164.592 79.4035 164.363 76.7394 163.746 74.3853C163.291 72.6457 163.325 71.2419 163.825 71.147C164.4 71.0378 164.95 71.5445 168.402 75.3601C171.405 78.679 171.733 79.1087 171.695 79.6627C171.62 80.7476 171.699 81.1204 172.086 81.5067C173.092 82.5123 175.473 81.4411 175.794 79.8386C175.902 79.298 175.829 79.1437 175.148 78.497C174.607 77.983 174.178 77.2799 173.699 76.1242C171.28 70.2834 167.631 65.2294 164.315 63.1282C163.037 62.3184 162.24 62.0436 161.168 62.0436C160.464 62.0436 160.222 61.9395 159.684 61.4013C159.139 60.8561 159.041 60.6263 159.041 59.8874C159.041 58.5759 159.761 55.5874 160.186 55.1352C160.658 54.6342 160.655 54.0728 160.18 53.7763C159.975 53.6479 159.633 53.2022 159.42 52.7859C159.074 52.1078 158.96 52.0284 158.329 52.0266C157.941 52.0254 156.901 51.7715 156.017 51.4622C155.133 51.1534 154.221 50.8986 153.991 50.8975ZM124.082 104.268L109.534 118.339H123.061L133.459 104.268H124.082ZM159.936 104.268L162.344 118.339H175.87L171.308 108.547C170.392 108.559 169.504 108.575 168.901 108.706C168.23 108.85 167.912 109.126 167.517 109.275C167.123 109.424 166.652 109.444 165.996 109.47C165.34 109.492 164.499 109.526 163.909 109.342C163.32 109.158 162.982 108.758 162.91 108.373C162.838 107.989 163.032 107.62 163.494 107.251C163.955 106.881 164.683 106.512 164.934 105.969C165.153 105.496 165.007 104.89 164.818 104.267L159.936 104.268ZM177.146 104.268L187.545 118.339H201.071L186.524 104.268H177.146ZM151.657 105.678C151.058 106.206 150.149 106.533 149.84 106.815C149.643 106.994 149.564 107.151 149.498 107.323C149.432 107.496 149.541 108.098 149.41 108.301C149.147 108.707 148.623 109.074 148.15 109.21C147.676 109.346 147.267 109.208 146.855 108.916C146.442 108.625 145.998 108.199 145.567 108.064C145.137 107.928 144.59 108.059 143.761 107.76C143.165 107.546 142.447 106.53 141.695 106.042L135.964 118.339H149.491L151.657 105.678Z" fill="black"/>
</g>
<defs>
<clipPath id="clip0_4_3169">
<path d="M0 0H310V160H0V0Z" fill="white"/>
</clipPath>
</defs>
</svg>
