<svg width="174" height="174" viewBox="0 0 174 174" fill="none" xmlns="http://www.w3.org/2000/svg">
<g clip-path="url(#clip0_4_3650)">
<g clip-path="url(#clip1_4_3650)">
<path d="M93.7314 25.9671C92.4123 23.6898 89.8315 22.2651 87.0001 22.2651C84.1172 22.2651 81.5354 23.7677 80.1913 26.0883L14.4198 139.654C13.0082 142.091 12.7992 145.161 14.3092 147.768C15.7507 150.257 18.3468 151.735 21.0351 151.735H152.965C155.653 151.735 158.249 150.257 159.691 147.768C161.201 145.161 160.992 142.091 159.58 139.654L93.7314 25.9671Z" fill="white" stroke="black" stroke-width="0.359678" stroke-miterlimit="2" stroke-linecap="round" stroke-linejoin="round"/>
<path d="M87.0039 24.7202C85.0488 24.7202 83.3507 25.7425 82.4957 27.2186L16.726 140.782C15.7414 142.482 15.6106 144.509 16.6151 146.243C17.5927 147.931 19.3248 148.88 21.0345 148.88H152.968C154.677 148.88 156.409 147.931 157.387 146.243C158.392 144.509 158.261 142.482 157.276 140.782L91.4288 27.097C90.621 25.7024 88.9396 24.7202 87.0039 24.7202ZM137.381 134.73H36.6216L86.9983 47.747L137.381 134.73Z" fill="#DD2414"/>
<path opacity="0.999883" fill-rule="evenodd" clip-rule="evenodd" d="M84.6847 65.2847C84.2246 65.2819 83.8832 65.774 83.8832 66.4399C83.8832 67.1394 83.3747 67.7047 82.745 67.7047C81.7367 67.7047 81.8723 68.7334 82.954 69.2908C83.5035 69.5737 83.5098 69.5943 83.5098 71.1467V72.7168L84.3285 73.2785C85.1846 73.8653 85.3794 74.1599 85.3794 74.8675C85.3794 75.5382 84.7362 76.1868 83.1256 77.1413C82.3048 77.6278 81.5182 78.2007 81.3777 78.4144C81.2372 78.628 80.9854 79.4636 80.8178 80.2709C80.4278 82.1498 79.9486 83.0882 78.542 84.7297C77.2597 86.2263 75.75 87.641 72.7574 90.1491C70.7358 91.8433 70.6802 91.8747 69.5441 91.9731C68.9083 92.0282 68.2985 92.1286 68.1886 92.1962C68.0788 92.2639 67.9894 92.7961 67.9897 93.3793C67.9912 95.6491 69.697 96.8432 70.7369 95.3021C71.0827 94.7897 71.2916 94.668 71.8721 94.6399C72.3289 94.6178 73.5078 94.1421 75.1667 93.3112C77.474 92.1556 77.9635 91.8207 79.742 90.1769C81.9847 88.1039 82.8074 87.5914 83.2028 88.0221C83.3661 88.2 83.5891 89.8391 83.8601 92.8561L84.2697 97.4203L82.7783 100.357C81.9579 101.972 80.9547 103.774 80.5494 104.362C80.0465 105.092 79.6824 105.935 79.4018 107.016C79.1756 107.887 78.6525 109.773 78.2392 111.207C77.826 112.642 77.2128 114.905 76.8766 116.237C76.4303 118.006 76.1833 118.675 75.9605 118.72C75.7928 118.753 75.1912 118.554 74.6234 118.277C73.8392 117.894 73.4275 117.8 72.91 117.884C71.6713 118.084 71.707 118.301 73.2122 119.717L74.6021 121.025L75.7794 120.899L76.9568 120.773L77.2673 121.422C77.5772 122.069 78.0523 122.292 79.1186 122.292C79.5976 122.292 79.6869 122.131 79.8667 120.937C79.983 120.164 80.0462 120.081 80.6106 119.976C80.95 119.913 81.3204 119.75 81.4335 119.614C81.5466 119.478 82.0621 117.824 82.5788 115.939C83.4084 112.912 83.6679 112.239 84.7999 110.182C87.1962 105.829 87.9013 104.778 88.4252 104.78C88.5498 104.781 89.1325 105.724 89.7196 106.876C90.3066 108.029 91.9843 111.151 93.4482 113.816C96.2522 118.919 96.5139 119.644 95.7483 120.187C95.5477 120.329 95.0264 120.694 94.5893 120.997C93.6065 121.68 93.5398 122.204 94.4017 122.468C95.4738 122.795 97.269 122.583 98.0644 122.034C98.5969 121.666 99.0002 121.547 99.7132 121.547C100.232 121.547 100.922 121.455 101.246 121.343C101.794 121.152 101.835 121.077 101.835 120.267C101.835 119.787 101.71 119.217 101.557 119C101.399 118.776 101.293 118.256 101.31 117.794C101.337 117.084 101.01 116.353 98.6985 111.953C97.2454 109.186 95.7789 106.252 95.4395 105.432C94.8385 103.98 94.8229 103.874 94.8375 101.333C94.8458 99.8983 94.92 97.5913 95.0026 96.2065C95.1704 93.3906 94.9442 90.764 94.334 88.4429C93.8831 86.7277 93.9167 85.3435 94.4112 85.25C94.9801 85.1423 95.5248 85.6422 98.939 89.404C101.909 92.6763 102.234 93.1 102.196 93.6462C102.122 94.7159 102.2 95.0834 102.583 95.4643C103.578 96.4558 105.934 95.3996 106.251 93.8196C106.358 93.2867 106.285 93.1345 105.612 92.4969C105.077 91.9898 104.652 91.2968 104.179 90.1574C101.786 84.3985 98.1764 79.4154 94.8963 77.3438C93.6321 76.5453 92.8435 76.2743 91.784 76.2743C91.0868 76.2743 90.8483 76.1717 90.3157 75.6411C89.7765 75.1039 89.6798 74.877 89.6798 74.1485C89.6798 72.8554 90.3923 69.9088 90.8126 69.463C91.2791 68.9687 91.2765 68.4154 90.8067 68.1231C90.6034 67.9966 90.2652 67.5571 90.055 67.1466C89.7128 66.478 89.6003 66.3997 88.9757 66.3979C88.5921 66.3964 87.5628 66.1463 86.6886 65.8416C85.8144 65.5369 84.9125 65.2856 84.6847 65.2847ZM55.1005 117.906L40.7109 131.779H54.0906L64.3757 117.906H55.1005ZM90.565 117.906L92.9465 131.779H106.326L101.813 122.125C100.907 122.135 100.029 122.155 99.4329 122.282C98.7687 122.424 98.454 122.697 98.0638 122.843C97.6736 122.99 97.2076 123.01 96.5587 123.035C95.9098 123.06 95.0779 123.091 94.4949 122.909C93.9119 122.727 93.5775 122.333 93.5064 121.954C93.4352 121.575 93.6277 121.211 94.084 120.847C94.5404 120.483 95.2606 120.119 95.509 119.584C95.7253 119.117 95.5813 118.52 95.3938 117.906L90.565 117.906ZM107.588 117.906L117.874 131.779H131.253L116.864 117.906H107.588ZM82.3763 119.296C81.6764 119.634 81.0408 120.542 80.7347 120.82C80.54 120.997 80.4624 121.152 80.3969 121.322C80.3314 121.492 80.2833 121.683 80.1534 121.883C79.8937 122.283 79.3744 122.644 78.9066 122.779C78.4387 122.913 78.0341 122.777 77.6259 122.489C77.2177 122.202 76.7782 121.782 76.3524 121.648C75.9264 121.515 75.3862 121.644 74.5659 121.35C73.9763 121.138 73.2657 120.136 72.5223 119.655L66.8539 131.779H80.2336L82.3763 119.296Z" fill="black"/>
</g>
</g>
<defs>
<clipPath id="clip0_4_3650">
<rect width="174" height="174" fill="white"/>
</clipPath>
<clipPath id="clip1_4_3650">
<rect width="148" height="130" fill="white" transform="translate(13 22)"/>
</clipPath>
</defs>
</svg>
