<svg width="174" height="174" viewBox="0 0 174 174" fill="none" xmlns="http://www.w3.org/2000/svg">
<g clip-path="url(#clip0_4_4045)">
<g clip-path="url(#clip1_4_4045)">
<path fill-rule="evenodd" clip-rule="evenodd" d="M34.6649 22.189C27.7593 22.189 22.1875 27.7582 22.1875 34.6639V139.333C22.1875 146.239 27.7593 151.811 34.6649 151.811H139.332C146.237 151.811 151.809 146.239 151.809 139.333V34.6639C151.809 27.7582 146.237 22.189 139.332 22.189H34.6649ZM34.6649 22.9609H139.332C145.822 22.9609 151.035 28.1736 151.035 34.6639V139.333C151.035 145.823 145.822 151.036 139.332 151.036H34.6649C28.1747 151.036 22.9619 145.823 22.9619 139.333V34.6639C22.9619 28.1736 28.1747 22.9609 34.6649 22.9609Z" fill="black" fill-opacity="0.9799"/>
<path fill-rule="evenodd" clip-rule="evenodd" d="M34.6605 22.5747H139.327C146.025 22.5747 151.417 27.9669 151.417 34.6649V139.332C151.417 146.03 146.025 151.422 139.327 151.422H34.6605C27.9625 151.422 22.5703 146.03 22.5703 139.332V34.6649C22.5703 27.9669 27.9625 22.5747 34.6605 22.5747Z" fill="white"/>
<path fill-rule="evenodd" clip-rule="evenodd" d="M34.6581 25.438H139.337C144.446 25.438 148.558 29.5504 148.558 34.6586V139.339C148.558 144.447 144.446 148.559 139.337 148.559H34.6581C29.5499 148.559 25.4375 144.447 25.4375 139.339V34.6586C25.4375 29.5504 29.5499 25.438 34.6581 25.438Z" fill="#0070FD"/>
<path fill-rule="evenodd" clip-rule="evenodd" d="M30.6328 133.188H144.614L87.6236 33.874L30.6328 133.188Z" fill="white"/>
<path opacity="0.999883" fill-rule="evenodd" clip-rule="evenodd" d="M85.8711 54.5569C85.3525 54.5543 84.9678 55.1104 84.9678 55.8631C84.9678 56.6539 84.3947 57.293 83.685 57.293C82.5486 57.293 82.7014 58.4561 83.9206 59.0863C84.5398 59.4065 84.5469 59.4292 84.5469 61.1847V62.9599L85.4696 63.5949C86.4344 64.2584 86.654 64.5914 86.654 65.3915C86.654 66.1498 85.929 66.8831 84.1139 67.9623C83.1889 68.512 82.3024 69.1601 82.144 69.4016C81.9857 69.643 81.7019 70.5879 81.513 71.5007C81.0735 73.625 80.5335 74.686 78.9482 76.542C77.503 78.234 75.8016 79.8335 72.4289 82.6692C70.1506 84.5847 70.0879 84.6202 68.8075 84.7314C68.091 84.7945 67.4037 84.9073 67.2799 84.9836C67.1562 85.0598 67.0554 85.6619 67.0557 86.3212C67.0574 88.8875 68.9799 90.2377 70.1518 88.4952C70.5415 87.9158 70.777 87.7782 71.4312 87.7464C71.946 87.7213 73.2746 87.1835 75.1442 86.2442C77.7445 84.9377 78.2962 84.5591 80.3005 82.7005C82.8281 80.3567 83.7553 79.7773 84.2009 80.2642C84.385 80.4653 84.6363 82.3186 84.9416 85.7297L85.4033 90.8901L83.7225 94.2102C82.7979 96.0362 81.6673 98.074 81.2106 98.7389C80.6438 99.5641 80.2334 100.517 79.9171 101.739C79.6623 102.723 79.0727 104.856 78.607 106.478C78.1413 108.1 77.4501 110.659 77.0713 112.165C76.5683 114.165 76.2899 114.922 76.0388 114.971C75.8498 115.009 75.1718 114.784 74.532 114.471C73.6481 114.038 73.1841 113.932 72.6008 114.026C71.2049 114.253 71.2451 114.499 72.9414 116.099L74.5078 117.578L75.8347 117.435L77.1616 117.293L77.5116 118.027C77.8608 118.759 78.3962 119.011 79.5979 119.011C80.1378 119.011 80.2385 118.828 80.441 117.478C80.5721 116.604 80.6434 116.511 81.2794 116.392C81.6619 116.32 82.0794 116.136 82.2068 115.982C82.3343 115.829 82.9153 113.959 83.4976 111.827C84.4325 108.405 84.725 107.644 86.0008 105.319C88.7014 100.397 89.496 99.2089 90.0866 99.211C90.227 99.2113 90.8836 100.278 91.5453 101.581C92.2069 102.884 94.0976 106.414 95.7474 109.427C98.9076 115.196 99.2025 116.016 98.3396 116.63C98.1136 116.791 97.5261 117.203 97.0335 117.547C95.9259 118.319 95.8506 118.91 96.8221 119.209C98.0303 119.579 100.054 119.339 100.95 118.718C101.55 118.303 102.005 118.169 102.808 118.169C103.393 118.169 104.171 118.064 104.536 117.937C105.153 117.722 105.199 117.637 105.199 116.721C105.199 116.179 105.058 115.534 104.886 115.289C104.709 115.035 104.589 114.447 104.608 113.925C104.638 113.122 104.269 112.296 101.665 107.321C100.027 104.193 98.3742 100.875 97.9917 99.9482C97.3143 98.3063 97.2968 98.1872 97.3132 95.3138C97.3232 93.6919 97.4062 91.0835 97.4993 89.5178C97.6884 86.3341 97.4336 83.3644 96.7458 80.7401C96.2377 78.8009 96.2755 77.2359 96.8329 77.1301C97.474 77.0085 98.0879 77.5733 101.936 81.8268C105.283 85.5265 105.649 86.0055 105.607 86.6231C105.523 87.8325 105.612 88.248 106.042 88.6787C107.164 89.7997 109.819 88.6056 110.176 86.8192C110.297 86.2165 110.214 86.0445 109.456 85.3236C108.853 84.7506 108.374 83.9668 107.841 82.6786C105.144 76.1674 101.076 70.5335 97.3795 68.1912C95.9548 67.2884 95.066 66.9821 93.872 66.9821C93.0862 66.9821 92.8174 66.8661 92.2172 66.2661C91.6095 65.6584 91.5005 65.4022 91.5005 64.5785C91.5005 63.1165 92.3035 59.785 92.7772 59.281C93.3029 58.7225 93.3 58.0966 92.7703 57.7661C92.5412 57.623 92.1601 57.1262 91.9232 56.6621C91.5375 55.9061 91.4107 55.8176 90.7067 55.8156C90.2745 55.8143 89.1145 55.5313 88.1292 55.1865C87.1439 54.8423 86.1278 54.5582 85.8711 54.5569ZM52.5296 114.051L36.3125 129.737H51.3914L62.9828 114.051H52.5296ZM92.4982 114.051L95.1821 129.737H110.261L105.175 118.822C104.154 118.835 103.164 118.853 102.492 118.999C101.744 119.16 101.389 119.468 100.949 119.634C100.509 119.8 99.9844 119.822 99.2531 119.851C98.5217 119.876 97.5842 119.914 96.9272 119.708C96.2701 119.503 95.8932 119.057 95.8131 118.628C95.7328 118.2 95.9499 117.788 96.4641 117.377C96.9785 116.965 97.7901 116.554 98.07 115.948C98.3139 115.421 98.1516 114.745 97.9402 114.051L92.4982 114.051ZM111.684 114.051L123.275 129.737H138.354L122.137 114.051H111.684ZM83.2695 115.623C82.6013 116.212 81.5882 116.577 81.2432 116.891C81.0238 117.091 80.9363 117.266 80.8625 117.458C80.7886 117.65 80.9107 118.322 80.7643 118.548C80.4716 119.001 79.8864 119.409 79.3591 119.561C78.8318 119.713 78.3758 119.559 77.9158 119.233C77.4557 118.909 76.9604 118.434 76.4805 118.283C76.0005 118.132 75.3916 118.278 74.4671 117.945C73.8027 117.706 73.0018 116.574 72.1639 116.029L65.7757 129.737H80.8546L83.2695 115.623Z" fill="black"/>
</g>
</g>
<defs>
<clipPath id="clip0_4_4045">
<rect width="174" height="174" fill="white"/>
</clipPath>
<clipPath id="clip1_4_4045">
<rect width="130" height="130" fill="white" transform="translate(22 22)"/>
</clipPath>
</defs>
</svg>
