<svg width="174" height="174" viewBox="0 0 174 174" fill="none" xmlns="http://www.w3.org/2000/svg">
<g clip-path="url(#clip0_4_5187)">
<g clip-path="url(#clip1_4_5187)">
<path d="M93.6793 26.0016C92.3697 23.7256 89.8076 22.3018 86.9967 22.3018C84.1348 22.3018 81.5717 23.8034 80.2374 26.1228L14.9427 139.624C13.5413 142.06 13.3338 145.128 14.8329 147.734C16.2639 150.221 18.8413 151.698 21.51 151.698H152.483C155.152 151.698 157.73 150.221 159.161 147.734C160.66 145.128 160.452 142.06 159.051 139.624L93.6793 26.0016Z" fill="white" stroke="black" stroke-width="0.719" stroke-miterlimit="2" stroke-linecap="round" stroke-linejoin="round"/>
<path d="M87.0041 24.7559C85.0632 24.7559 83.3774 25.7776 82.5287 27.2528L17.2358 140.752C16.2583 142.451 16.1285 144.477 17.1257 146.21C18.0962 147.897 19.8158 148.845 21.5131 148.845H152.49C154.187 148.845 155.907 147.897 156.877 146.21C157.874 144.477 157.744 142.451 156.767 140.752L91.397 27.1313C90.595 25.7374 88.9258 24.7559 87.0041 24.7559ZM137.016 134.703H36.9872L86.9987 47.7696L137.016 134.703Z" fill="#DD2414"/>
<path fill-rule="evenodd" clip-rule="evenodd" d="M95.5731 77.2191C95.5731 79.2829 95.4781 80.995 95.2456 82.3161C93.3888 93.7459 88.8466 105.002 88.8466 116.665H86.1744C86.1744 105.195 81.0689 93.667 79.366 82.2176C79.1532 80.6828 79.0156 78.9477 79.0156 77.0482C79.0156 73.2985 83.0011 69.7197 87.314 69.7197C90.8573 69.7197 95.5731 72.2469 95.5731 77.2191ZM92.8844 124.44C92.8844 125.86 92.3441 127.122 91.2994 128.19C90.2384 129.241 88.9612 129.784 87.4679 129.784C86.0597 129.784 84.7957 129.241 83.751 128.19C82.69 127.122 82.1693 125.86 82.1693 124.44C82.1693 122.922 82.6769 121.68 83.6986 120.631C84.7433 119.619 85.9975 119.093 87.4679 119.093C88.8466 119.093 90.0845 119.599 91.2077 120.611C92.3212 121.601 92.8844 122.886 92.8844 124.44Z" fill="black"/>
</g>
</g>
<defs>
<clipPath id="clip0_4_5187">
<rect width="174" height="174" fill="white"/>
</clipPath>
<clipPath id="clip1_4_5187">
<rect width="147" height="130" fill="white" transform="translate(13.5 22)"/>
</clipPath>
</defs>
</svg>
