<svg width="174" height="174" viewBox="0 0 174 174" fill="none" xmlns="http://www.w3.org/2000/svg">
<rect x="22" y="29.9053" width="130" height="114.189" rx="7.02703" fill="black"/>
<rect x="27.2705" y="35.1755" width="119.459" height="49.1892" rx="3.51351" fill="#E67A11"/>
<path d="M73.7274 76.0837C72.2043 76.0837 70.7409 75.9045 69.3373 75.5462C67.9336 75.1878 66.6494 74.6203 65.4847 73.8439C64.32 73.0674 63.3494 72.0818 62.5729 70.8872C61.7964 69.6628 61.3185 68.1994 61.1394 66.4971H67.5006C67.7096 67.3333 68.1128 68.0351 68.7101 68.6026C69.3373 69.1401 70.0839 69.5284 70.95 69.7673C71.8459 70.0062 72.7867 70.1257 73.7722 70.1257C74.4292 70.1257 75.0713 70.066 75.6985 69.9465C76.3555 69.827 76.9379 69.618 77.4456 69.3193C77.9831 69.0207 78.4013 68.6175 78.6999 68.1098C78.9985 67.6021 79.1479 66.96 79.1479 66.1835C79.1479 65.4668 79.0135 64.8695 78.7447 64.3916C78.4759 63.9138 78.1175 63.5255 77.6696 63.2269C77.2216 62.9282 76.684 62.7192 76.0569 62.5997C75.4596 62.4803 74.8175 62.4205 74.1306 62.4205H70.4572V56.9553H72.921C73.6975 56.9553 74.3994 56.8806 75.0265 56.7313C75.6537 56.5521 76.1763 56.3132 76.5944 56.0145C77.0424 55.686 77.3858 55.2978 77.6248 54.8498C77.8637 54.372 77.9831 53.8344 77.9831 53.2371C77.9831 52.3412 77.789 51.6393 77.4008 51.1316C77.0125 50.5941 76.475 50.2058 75.7881 49.9669C75.1012 49.728 74.3098 49.6085 73.4138 49.6085C72.5776 49.6085 71.7862 49.7429 71.0396 50.0117C70.3228 50.2506 69.7255 50.609 69.2477 51.0868C68.7698 51.5647 68.4563 52.147 68.3069 52.8339H62.0801C62.2593 51.2212 62.6923 49.8474 63.3792 48.7126C64.0661 47.5478 64.9471 46.5922 66.0223 45.8455C67.0974 45.0989 68.292 44.5614 69.606 44.2328C70.95 43.8745 72.3387 43.6953 73.7722 43.6953C75.146 43.6953 76.46 43.8446 77.7144 44.1432C78.9687 44.4419 80.0886 44.9347 81.0742 45.6216C82.0896 46.2786 82.8959 47.1596 83.4932 48.2646C84.0905 49.3696 84.3892 50.6986 84.3892 52.2516C84.3892 53.2072 84.2249 54.1032 83.8964 54.9394C83.5977 55.7756 83.1498 56.5222 82.5525 57.1793C81.985 57.8064 81.3131 58.3291 80.5366 58.7472C81.7013 59.0757 82.657 59.6132 83.4036 60.3599C84.1502 61.1065 84.7027 61.9875 85.0611 63.0029C85.4494 64.0183 85.6435 65.1084 85.6435 66.2731C85.6435 68.1845 85.2851 69.7822 84.5683 71.0664C83.8815 72.3207 82.9556 73.3212 81.7909 74.0678C80.6262 74.7846 79.342 75.3072 77.9383 75.6357C76.5347 75.9344 75.131 76.0837 73.7274 76.0837ZM99.8568 76.0837C98.3337 76.0837 96.8703 75.9045 95.4667 75.5462C94.063 75.1878 92.7789 74.6203 91.6141 73.8439C90.4494 73.0674 89.4788 72.0818 88.7023 70.8872C87.9258 69.6628 87.448 68.1994 87.2688 66.4971H93.63C93.8391 67.3333 94.2422 68.0351 94.8395 68.6026C95.4667 69.1401 96.2133 69.5284 97.0794 69.7673C97.9753 70.0062 98.9161 70.1257 99.9016 70.1257C100.559 70.1257 101.201 70.066 101.828 69.9465C102.485 69.827 103.067 69.618 103.575 69.3193C104.113 69.0207 104.531 68.6175 104.829 68.1098C105.128 67.6021 105.277 66.96 105.277 66.1835C105.277 65.4668 105.143 64.8695 104.874 64.3916C104.605 63.9138 104.247 63.5255 103.799 63.2269C103.351 62.9282 102.813 62.7192 102.186 62.5997C101.589 62.4803 100.947 62.4205 100.26 62.4205H96.5866V56.9553H99.0505C99.827 56.9553 100.529 56.8806 101.156 56.7313C101.783 56.5521 102.306 56.3132 102.724 56.0145C103.172 55.686 103.515 55.2978 103.754 54.8498C103.993 54.372 104.113 53.8344 104.113 53.2371C104.113 52.3412 103.918 51.6393 103.53 51.1316C103.142 50.5941 102.604 50.2058 101.917 49.9669C101.231 49.728 100.439 49.6085 99.5432 49.6085C98.707 49.6085 97.9156 49.7429 97.169 50.0117C96.4522 50.2506 95.8549 50.609 95.3771 51.0868C94.8993 51.5647 94.5857 52.147 94.4364 52.8339H88.2095C88.3887 51.2212 88.8218 49.8474 89.5086 48.7126C90.1955 47.5478 91.0766 46.5922 92.1517 45.8455C93.2268 45.0989 94.4214 44.5614 95.7355 44.2328C97.0794 43.8745 98.4681 43.6953 99.9016 43.6953C101.275 43.6953 102.589 43.8446 103.844 44.1432C105.098 44.4419 106.218 44.9347 107.204 45.6216C108.219 46.2786 109.025 47.1596 109.623 48.2646C110.22 49.3696 110.519 50.6986 110.519 52.2516C110.519 53.2072 110.354 54.1032 110.026 54.9394C109.727 55.7756 109.279 56.5222 108.682 57.1793C108.114 57.8064 107.443 58.3291 106.666 58.7472C107.831 59.0757 108.786 59.6132 109.533 60.3599C110.28 61.1065 110.832 61.9875 111.191 63.0029C111.579 64.0183 111.773 65.1084 111.773 66.2731C111.773 68.1845 111.415 69.7822 110.698 71.0664C110.011 72.3207 109.085 73.3212 107.92 74.0678C106.756 74.7846 105.471 75.3072 104.068 75.6357C102.664 75.9344 101.26 76.0837 99.8568 76.0837Z" fill="black"/>
<rect x="27.2705" y="89.635" width="119.459" height="49.1892" rx="3.51351" fill="#E67A11"/>
<path d="M44.3125 130.23V106.98H38.0857V102.142C39.3102 102.112 40.4152 102.007 41.4007 101.828C42.3863 101.619 43.2673 101.261 44.0438 100.753C44.8202 100.215 45.4922 99.4688 46.0596 98.5131H50.7186V130.23H44.3125ZM68.3529 130.588C66.0235 130.588 64.0524 130.17 62.4397 129.334C60.827 128.497 59.5129 127.348 58.4975 125.884C57.4821 124.391 56.7504 122.674 56.3025 120.733C55.8545 118.762 55.6305 116.671 55.6305 114.461C55.6305 112.191 55.8545 110.071 56.3025 108.1C56.7803 106.129 57.5269 104.397 58.5423 102.903C59.5876 101.41 60.9166 100.245 62.5293 99.4091C64.1719 98.5729 66.1429 98.1547 68.4425 98.1547C70.8317 98.1547 72.8327 98.5878 74.4454 99.4539C76.0879 100.32 77.402 101.529 78.3875 103.082C79.4029 104.606 80.1197 106.338 80.5378 108.279C80.9858 110.22 81.2098 112.251 81.2098 114.371C81.2098 116.552 80.9858 118.612 80.5378 120.553C80.0898 122.495 79.3731 124.227 78.3875 125.75C77.402 127.243 76.0879 128.423 74.4454 129.289C72.8028 130.155 70.772 130.588 68.3529 130.588ZM68.3529 124.675C69.8163 124.675 70.9661 124.346 71.8023 123.689C72.6684 123.002 73.3105 122.121 73.7286 121.046C74.1766 119.971 74.4603 118.851 74.5798 117.686C74.7291 116.492 74.8038 115.387 74.8038 114.371C74.8038 113.416 74.7291 112.355 74.5798 111.191C74.4603 109.996 74.1915 108.876 73.7734 107.831C73.3553 106.756 72.7282 105.875 71.8919 105.188C71.0557 104.501 69.9209 104.158 68.4873 104.158C67.0538 104.158 65.904 104.501 65.0379 105.188C64.1719 105.845 63.5148 106.711 63.0669 107.786C62.6488 108.861 62.365 109.981 62.2157 111.146C62.0664 112.311 61.9917 113.386 61.9917 114.371C61.9917 115.357 62.0515 116.447 62.1709 117.642C62.3202 118.836 62.604 119.971 63.0221 121.046C63.4402 122.121 64.0673 123.002 64.9036 123.689C65.7696 124.346 66.9194 124.675 68.3529 124.675ZM95.7759 130.588C94.2827 130.588 92.8342 130.424 91.4306 130.095C90.0269 129.737 88.7427 129.184 87.578 128.438C86.4431 127.661 85.5322 126.646 84.8454 125.392C84.1883 124.137 83.8598 122.629 83.8598 120.867C83.8598 119.702 84.0241 118.657 84.3526 117.731C84.711 116.775 85.2187 115.939 85.8757 115.223C86.5626 114.476 87.3839 113.879 88.3395 113.431C87.5332 112.923 86.8762 112.326 86.3685 111.639C85.8608 110.922 85.4874 110.145 85.2485 109.309C85.0096 108.473 84.8901 107.622 84.8901 106.756C84.8901 105.173 85.2037 103.844 85.8309 102.769C86.4581 101.664 87.2943 100.783 88.3395 100.126C89.3848 99.4389 90.5645 98.9462 91.8785 98.6475C93.1926 98.319 94.5216 98.1547 95.8655 98.1547C97.2393 98.1547 98.5683 98.319 99.8524 98.6475C101.137 98.9462 102.301 99.4539 103.347 100.171C104.392 100.858 105.228 101.768 105.855 102.903C106.482 104.008 106.796 105.352 106.796 106.935C106.796 107.741 106.662 108.563 106.393 109.399C106.154 110.205 105.766 110.952 105.228 111.639C104.72 112.326 104.063 112.908 103.257 113.386C104.213 113.804 105.034 114.371 105.721 115.088C106.408 115.805 106.93 116.656 107.289 117.642C107.647 118.627 107.826 119.732 107.826 120.957C107.826 122.719 107.483 124.212 106.796 125.436C106.109 126.661 105.183 127.661 104.019 128.438C102.854 129.184 101.555 129.737 100.121 130.095C98.7176 130.424 97.2691 130.588 95.7759 130.588ZM95.8207 124.809C96.4777 124.809 97.1347 124.734 97.7918 124.585C98.4488 124.436 99.0461 124.197 99.5837 123.868C100.121 123.51 100.539 123.077 100.838 122.569C101.167 122.032 101.331 121.375 101.331 120.598C101.331 119.643 101.092 118.866 100.614 118.269C100.136 117.642 99.4791 117.179 98.6429 116.88C97.8366 116.552 96.8958 116.387 95.8207 116.387C94.7754 116.387 93.8197 116.552 92.9537 116.88C92.1174 117.179 91.4604 117.642 90.9826 118.269C90.5047 118.866 90.2658 119.643 90.2658 120.598C90.2658 121.375 90.4301 122.032 90.7586 122.569C91.0871 123.077 91.5052 123.51 92.0129 123.868C92.5505 124.197 93.1478 124.436 93.8048 124.585C94.4618 124.734 95.1338 124.809 95.8207 124.809ZM95.8655 111.504C96.8212 111.504 97.6275 111.355 98.2845 111.056C98.9714 110.728 99.4941 110.28 99.8524 109.712C100.241 109.115 100.435 108.458 100.435 107.741C100.435 106.845 100.241 106.114 99.8524 105.546C99.4642 104.949 98.9117 104.501 98.1949 104.202C97.5081 103.874 96.6868 103.71 95.7311 103.71C94.8053 103.71 93.9989 103.874 93.312 104.202C92.655 104.501 92.1324 104.934 91.7441 105.502C91.3858 106.069 91.2066 106.756 91.2066 107.562C91.2066 108.369 91.4007 109.07 91.7889 109.668C92.1772 110.265 92.7147 110.728 93.4016 111.056C94.1184 111.355 94.9397 111.504 95.8655 111.504ZM122.43 130.588C120.937 130.588 119.489 130.424 118.085 130.095C116.681 129.737 115.397 129.184 114.232 128.438C113.098 127.661 112.187 126.646 111.5 125.392C110.843 124.137 110.514 122.629 110.514 120.867C110.514 119.702 110.678 118.657 111.007 117.731C111.365 116.775 111.873 115.939 112.53 115.223C113.217 114.476 114.038 113.879 114.994 113.431C114.188 112.923 113.531 112.326 113.023 111.639C112.515 110.922 112.142 110.145 111.903 109.309C111.664 108.473 111.545 107.622 111.545 106.756C111.545 105.173 111.858 103.844 112.485 102.769C113.112 101.664 113.949 100.783 114.994 100.126C116.039 99.4389 117.219 98.9462 118.533 98.6475C119.847 98.319 121.176 98.1547 122.52 98.1547C123.894 98.1547 125.223 98.319 126.507 98.6475C127.791 98.9462 128.956 99.4539 130.001 100.171C131.046 100.858 131.883 101.768 132.51 102.903C133.137 104.008 133.45 105.352 133.45 106.935C133.45 107.741 133.316 108.563 133.047 109.399C132.808 110.205 132.42 110.952 131.883 111.639C131.375 112.326 130.718 112.908 129.911 113.386C130.867 113.804 131.688 114.371 132.375 115.088C133.062 115.805 133.585 116.656 133.943 117.642C134.302 118.627 134.481 119.732 134.481 120.957C134.481 122.719 134.137 124.212 133.45 125.436C132.764 126.661 131.838 127.661 130.673 128.438C129.508 129.184 128.209 129.737 126.776 130.095C125.372 130.424 123.924 130.588 122.43 130.588ZM122.475 124.809C123.132 124.809 123.789 124.734 124.446 124.585C125.103 124.436 125.7 124.197 126.238 123.868C126.776 123.51 127.194 123.077 127.492 122.569C127.821 122.032 127.985 121.375 127.985 120.598C127.985 119.643 127.746 118.866 127.268 118.269C126.791 117.642 126.134 117.179 125.297 116.88C124.491 116.552 123.55 116.387 122.475 116.387C121.43 116.387 120.474 116.552 119.608 116.88C118.772 117.179 118.115 117.642 117.637 118.269C117.159 118.866 116.92 119.643 116.92 120.598C116.92 121.375 117.084 122.032 117.413 122.569C117.742 123.077 118.16 123.51 118.667 123.868C119.205 124.197 119.802 124.436 120.459 124.585C121.116 124.734 121.788 124.809 122.475 124.809ZM122.52 111.504C123.476 111.504 124.282 111.355 124.939 111.056C125.626 110.728 126.148 110.28 126.507 109.712C126.895 109.115 127.089 108.458 127.089 107.741C127.089 106.845 126.895 106.114 126.507 105.546C126.119 104.949 125.566 104.501 124.849 104.202C124.162 103.874 123.341 103.71 122.385 103.71C121.46 103.71 120.653 103.874 119.966 104.202C119.309 104.501 118.787 104.934 118.399 105.502C118.04 106.069 117.861 106.756 117.861 107.562C117.861 108.369 118.055 109.07 118.443 109.668C118.832 110.265 119.369 110.728 120.056 111.056C120.773 111.355 121.594 111.504 122.52 111.504Z" fill="black"/>
</svg>
