<svg width="310" height="160" viewBox="0 0 310 160" fill="none" xmlns="http://www.w3.org/2000/svg">
<g clip-path="url(#clip0_4_5332)">
<path d="M0 0H310V160H0V0Z" fill="white"/>
<g clip-path="url(#clip1_4_5332)">
<path d="M161.731 18.9671C160.412 16.6898 157.831 15.2651 155 15.2651C152.117 15.2651 149.535 16.7677 148.191 19.0883L82.4198 132.654C81.0082 135.091 80.7992 138.161 82.3092 140.768C83.7507 143.257 86.3468 144.735 89.0351 144.735H220.965C223.653 144.735 226.249 143.257 227.691 140.768C229.201 138.161 228.992 135.091 227.58 132.654L161.731 18.9671Z" fill="white" stroke="black" stroke-width="0.359678" stroke-miterlimit="2" stroke-linecap="round" stroke-linejoin="round"/>
<path d="M155.004 17.7202C153.049 17.7202 151.351 18.7425 150.496 20.2186L84.726 133.782C83.7414 135.482 83.6106 137.509 84.6151 139.243C85.5927 140.931 87.3248 141.88 89.0345 141.88H220.968C222.677 141.88 224.409 140.931 225.387 139.243C226.392 137.509 226.261 135.482 225.276 133.782L159.429 20.097C158.621 18.7024 156.94 17.7202 155.004 17.7202ZM205.381 127.73H104.622L154.998 40.747L205.381 127.73Z" fill="#DD2414"/>
<path fill-rule="evenodd" clip-rule="evenodd" d="M134.051 89.1199C133.548 88.7485 133.49 88.4236 133.49 87.9208C134.284 85.9481 135.949 85.4994 137.962 85.2287C137.653 85.6774 137.478 85.9481 137.381 86.5438C137.536 86.5283 137.73 86.4278 138.039 86.4123C137.981 86.6212 137.981 86.6212 137.981 86.7759C138.543 86.7759 139.279 86.451 139.82 86.2963C140.905 86.2963 141.931 86.4278 142.202 87.7274C143.77 87.0699 145.899 86.5825 146.907 88.4236C147.1 89.4293 146.791 90.582 146.597 91.6109C146.636 92.2839 146.732 92.9414 146.829 93.6764C147.275 94.8522 147.275 94.8522 147.313 95.123C146.732 95.1849 145.203 94.1637 144.757 93.8311C143.809 92.926 143.441 92.6939 143.189 91.4716C143.189 91.0693 143.441 88.8259 142.338 89.4293C142.338 89.5995 142.318 89.7542 142.318 89.9089C142.841 91.2395 142.937 92.1292 141.679 93.042C141.66 93.2354 141.66 93.2354 141.718 93.4288C141.931 93.483 142.086 93.4056 142.338 93.3514C142.705 93.6609 143.015 94.2179 143.305 94.6975C144.119 94.7749 144.389 94.8135 144.932 95.5098C145.145 95.6258 145.339 95.7651 145.571 95.8811C146.248 96.7475 147.217 97.2117 147.952 98.1787C148.087 98.2019 148.204 98.2947 148.669 98.4494C148.843 98.7976 148.843 98.7975 149.268 100.229C149.326 100.244 149.384 100.244 149.443 100.267C149.927 99.8419 150.352 99.3004 149.946 98.7047C150.062 98.024 150.662 97.5598 150.972 96.9409C151.646 96.1286 152.173 95.1075 152.731 94.2024C153.606 91.8971 153.451 90.3499 152.808 88.0368C152.808 86.8146 152.808 86.4278 153.893 85.7315C154.28 85.1127 153.878 84.8264 153.878 84.2076C154.42 83.666 154.885 83.5113 154.497 82.6836C154.009 82.6604 153.699 82.9156 153.374 82.9156C153.219 82.7609 153.219 82.7609 152.886 82.1807C152.483 82.0028 152.483 82.0028 152.266 81.8094C152.251 81.6005 152.212 81.3839 152.212 81.1518C152.096 81.1132 151.979 81.0745 151.863 81.0358C151.84 80.8424 151.824 80.649 151.824 80.4788C151.375 80.3628 151.243 80.3241 151.011 80.1075C151.011 79.535 151.36 79.2256 151.375 78.6609C150.74 78.3128 150.895 77.8718 150.724 77.3071C150.662 77.2684 150.569 77.2529 150.507 77.2297C150.492 77.075 150.492 76.9435 150.453 76.8042C149.714 76.7114 151.011 74.8548 151.15 74.7001C151.863 74.027 152.793 73.5783 153.607 72.9827C155.327 72.5727 157.171 72.1085 158.929 72.7506C159.371 73.0987 159.371 73.0987 159.758 73.5397C160.649 73.8336 160.766 74.9863 160.944 75.8372C160.944 77.075 160.673 78.1812 160.185 79.3571C160.185 79.8367 160.285 80.1694 160.223 80.4556C159.859 80.6335 159.642 80.649 159.565 81.059C159.642 81.1132 160.03 81.2137 160.185 81.2911C160.595 82.0647 160.944 81.8713 161.757 82.2349C161.757 82.2736 161.757 82.2968 161.757 82.3354C162.005 82.4902 162.377 82.3354 162.726 82.6836C164.291 82.993 164.818 84.3855 165.941 85.2287C166.174 85.8089 168.026 87.3793 168.591 88.9806C168.917 89.847 169.482 89.6923 169.653 89.8703C169.947 90.6593 171.861 88.9651 172.752 89.2359C173.821 90.0404 174.185 92.7094 174.751 93.9858C175.092 95.1075 174.712 94.7594 175.774 98.7821C175.014 99.3236 174.263 99.78 173.511 100.089C172.543 100.708 172.481 101.25 172.481 102.395C172.364 102.72 171.923 102.975 171.628 103.184C171.28 103.803 171.396 103.687 171.574 104.321C171.961 104.46 171.961 104.46 172.171 104.63C172.969 106.255 173.627 106.201 175.44 106.356C176.409 106.704 177.323 106.742 178.385 106.603C178.834 106.781 179.454 106.564 179.779 107.052C180.538 107.052 180.616 107.09 180.848 107.09C181.275 106.781 182.297 106.936 182.669 107.415C182.878 108.135 182.878 109.287 182.708 110.061C182.398 110.471 182.475 110.548 182.669 111.105C182.669 112.521 182.049 114.331 181.274 115.554C180.577 116.111 180.112 116.923 179.585 115.747C179.585 115.066 179.585 114.409 179.585 113.72C179.392 113.194 179.043 112.25 178.694 111.956C178.385 111.995 178.137 112.096 177.594 112.173C176.626 112.15 175.773 112.072 174.867 111.956C173.372 111.593 173.372 111.593 172.713 111.531C171.435 111.554 170.179 111.57 168.901 111.593C168.591 111.554 168.49 111.454 168.281 111.361C167.545 110.394 165.143 107.067 163.71 107.748C163.013 108.73 162.625 109.52 162.548 110.757C162.92 112.715 162.881 114.703 163.284 116.753C163.284 117.658 163.385 118.161 163.036 119.027C163.036 119.824 163.4 120.597 163.206 121.425C162.625 122.276 161.308 122.276 160.44 122.276C159.859 122.47 159.859 122.47 159.51 122.647C157.883 122.996 156.008 122.702 154.459 122.276C154.381 122.222 154.304 122.183 154.242 122.106C154.188 120.907 154.885 120.984 155.892 120.574C156.063 120.404 156.435 120.249 156.822 119.878C157.225 119.453 157.341 119.282 157.829 119.089C158.116 117.99 157.031 117.967 156.837 117.155C156.837 116.289 156.915 115.554 157.109 114.741C157.132 113.024 157.171 111.283 157.186 109.581C156.837 107.957 156.837 107.957 156.706 107.067C156.706 105.814 157.132 104.019 157.945 103.145C158.232 102.511 158.387 101.699 158.604 101.08C158.542 100.151 158.038 100.151 157.457 99.664C157.109 98.8749 157.79 97.1575 157.225 96.8481C156.435 96.8481 156.396 96.8094 156.101 97.5985C155.389 98.5268 155.389 98.5268 153.916 100.747C153.452 100.964 152.793 100.824 152.305 100.863C152.134 101.234 152.189 101.621 152.189 102.085C152.034 102.642 151.685 103.223 151.631 103.787C152.344 104.924 152.77 105.597 152.925 106.99C152.925 107.748 153.103 108.715 152.344 109.195C151.189 109.218 150.414 109.349 149.327 109.674C149.443 109.945 149.482 110.216 149.598 110.487C149.888 110.796 150.507 111.376 150.12 111.902C149.637 112.111 148.708 112.366 148.494 112.869C149.695 113.179 150.934 113.449 152.266 113.449C153.103 113.117 154.73 112.173 155.427 113.233C155.854 115.244 155.699 117 155.017 118.957C154.575 119.205 154.436 119.182 154.203 118.779C153.971 118.006 153.568 117.333 153.335 116.675C152.809 115.979 152.499 115.902 151.724 115.902C149.733 116.366 148.262 116.884 146.326 116.211C145.765 115.863 145.765 115.863 144.932 115.244C143.015 115.244 144.37 118.547 144.7 119.437C145.126 120.056 146.694 122.083 145.842 122.918C145.145 123.243 145.145 123.243 144.855 123.344C143.48 124.419 142.047 125.231 140.305 125.231C139.143 124.651 141.022 122.972 141.35 122.493C141.524 122.083 141.699 121.425 141.873 121.038C142.222 120.559 142.067 120.211 141.912 119.669C141.292 118.3 140.692 116.907 139.918 115.67C139.027 115.066 138.117 114.912 137.304 114.355C136.839 114.316 136.529 114.177 136.22 113.991C136.22 112.521 137.033 111.221 136.626 109.79C136.587 109.79 136.568 109.79 136.549 109.79C136.375 109.465 136.201 109.326 136.046 109.102C135.872 108.344 135.988 108.305 135.349 108.29C135.252 108.638 135.116 109.063 134.864 109.365C134.458 109.365 134.303 109.141 133.935 109.179C133.935 109.852 134.652 110.216 133.897 110.951C133.316 111.09 133.935 111.631 133.935 111.956C133.084 112.807 132.077 112.227 131.38 111.67C131.09 111.183 130.973 111.067 130.586 110.796C130.586 110.254 131.651 109.04 131.98 108.56C132.348 107.903 132.696 107.106 133.045 106.448C134.168 104.924 135.542 103.555 136.568 101.946C137.052 100.925 137.343 99.8961 137.595 98.8362C137.808 97.4283 137.808 97.4283 137.905 96.9409C138.64 96.5928 138.621 96.1518 137.963 95.8192C136.433 95.9739 136.607 96.3839 135.775 95.123C135.581 95.0688 135.407 95.0069 135.232 94.9528C135.116 94.682 135.116 94.682 135.136 94.5428C135.019 94.5041 134.903 94.4886 134.788 94.4732C134.71 93.893 134.691 93.893 134.207 93.715C134.303 93.2896 134.362 92.8873 134.362 92.4386C133.181 91.6109 133.626 90.5046 134.11 89.4293C134.11 89.3288 134.109 89.2127 134.051 89.1199Z" fill="#131414" stroke="#131414" stroke-width="0.0733524" stroke-miterlimit="10" stroke-linejoin="round"/>
</g>
</g>
<defs>
<clipPath id="clip0_4_5332">
<path d="M0 0H310V160H0V0Z" fill="white"/>
</clipPath>
<clipPath id="clip1_4_5332">
<rect width="148" height="130" fill="white" transform="translate(81 15)"/>
</clipPath>
</defs>
</svg>
