<svg width="174" height="174" viewBox="0 0 174 174" fill="none" xmlns="http://www.w3.org/2000/svg">
<g clip-path="url(#clip0_4_5164)">
<path d="M79.0914 66.7572C80.639 66.7572 81.7682 67.0908 82.4791 67.758C83.1901 68.4197 83.5455 69.333 83.5455 70.4978C83.5455 71.0228 83.4662 71.526 83.3076 72.0072C83.149 72.483 82.8893 72.9068 82.5284 73.2787C82.1729 73.6506 81.6972 73.9459 81.1011 74.1646C80.505 74.3779 79.7695 74.4845 78.8946 74.4845H77.8036V78.7502H75.2607V66.7572H79.0914ZM78.9602 68.8408H77.8036V72.401H78.6403C79.116 72.401 79.5289 72.3381 79.8789 72.2123C80.2289 72.0865 80.4996 71.8896 80.691 71.6217C80.8823 71.3537 80.978 71.0092 80.978 70.5881C80.978 69.9974 80.814 69.5599 80.4859 69.2756C80.1578 68.9857 79.6492 68.8408 78.9602 68.8408Z" fill="black"/>
<path d="M72.7854 72.737C72.7854 73.6612 72.6706 74.5034 72.4409 75.2635C72.2112 76.0182 71.8612 76.669 71.3909 77.2159C70.9261 77.7628 70.3355 78.1839 69.6191 78.4792C68.9028 78.769 68.0551 78.9139 67.0763 78.9139C66.0974 78.9139 65.2498 78.769 64.5334 78.4792C63.8171 78.1839 63.2237 77.7628 62.7534 77.2159C62.2886 76.669 61.9414 76.0155 61.7117 75.2553C61.482 74.4952 61.3672 73.6503 61.3672 72.7206C61.3672 71.4792 61.5695 70.3991 61.9742 69.4803C62.3843 68.5561 63.0132 67.8397 63.8608 67.3311C64.7084 66.8225 65.7857 66.5682 67.0927 66.5682C68.3942 66.5682 69.4633 66.8225 70.3 67.3311C71.1421 67.8397 71.7655 68.5561 72.1702 69.4803C72.5803 70.4046 72.7854 71.4901 72.7854 72.737ZM64.0331 72.737C64.0331 73.5737 64.137 74.2956 64.3448 74.9026C64.5581 75.5042 64.8889 75.969 65.3373 76.2971C65.7857 76.6198 66.3654 76.7811 67.0763 76.7811C67.7981 76.7811 68.3833 76.6198 68.8317 76.2971C69.2801 75.969 69.6055 75.5042 69.8078 74.9026C70.0156 74.2956 70.1195 73.5737 70.1195 72.737C70.1195 71.4792 69.8844 70.4893 69.4141 69.7675C68.9438 69.0456 68.17 68.6846 67.0927 68.6846C66.3763 68.6846 65.7912 68.8487 65.3373 69.1768C64.8889 69.4995 64.5581 69.9643 64.3448 70.5714C64.137 71.1729 64.0331 71.8948 64.0331 72.737Z" fill="black"/>
<path d="M56.7837 78.7502H54.2409V68.8736H50.9844V66.7572H60.0402V68.8736H56.7837V78.7502Z" fill="black"/>
<path d="M49.9852 75.4192C49.9852 76.1302 49.8129 76.7481 49.4684 77.2731C49.1239 77.7981 48.6208 78.2028 47.9591 78.4872C47.3029 78.7716 46.5045 78.9138 45.5639 78.9138C45.1483 78.9138 44.7409 78.8864 44.3417 78.8317C43.948 78.7771 43.5679 78.6978 43.2015 78.5938C42.8406 78.4845 42.4961 78.3505 42.168 78.1919V75.8294C42.7367 76.081 43.3273 76.3079 43.9398 76.5103C44.5522 76.7126 45.1592 76.8138 45.7608 76.8138C46.1764 76.8138 46.5099 76.7591 46.7615 76.6497C47.0185 76.5403 47.2044 76.3899 47.3193 76.1985C47.4341 76.0071 47.4915 75.7884 47.4915 75.5423C47.4915 75.2415 47.3904 74.9845 47.188 74.7712C46.9857 74.5579 46.7068 74.3583 46.3514 74.1724C46.0014 73.9864 45.6049 73.7868 45.162 73.5735C44.8831 73.4423 44.5796 73.2837 44.2515 73.0978C43.9234 72.9063 43.6116 72.6739 43.3164 72.4005C43.0211 72.1271 42.7777 71.7962 42.5863 71.4079C42.4004 71.0142 42.3074 70.5438 42.3074 69.997C42.3074 69.2806 42.4715 68.6681 42.7996 68.1595C43.1277 67.6509 43.5952 67.2626 44.2022 66.9946C44.8147 66.7212 45.5366 66.5845 46.3678 66.5845C46.9912 66.5845 47.5845 66.6583 48.1478 66.806C48.7165 66.9481 49.3098 67.156 49.9278 67.4294L49.1075 69.4063C48.5552 69.1821 48.0603 69.0099 47.6228 68.8896C47.1853 68.7638 46.7396 68.7009 46.2857 68.7009C45.9686 68.7009 45.6979 68.7528 45.4737 68.8567C45.2495 68.9552 45.0799 69.0974 44.9651 69.2833C44.8503 69.4638 44.7928 69.6743 44.7928 69.9149C44.7928 70.1993 44.8749 70.4399 45.0389 70.6368C45.2084 70.8282 45.46 71.0142 45.7936 71.1946C46.1326 71.3751 46.5537 71.5856 47.0568 71.8263C47.6693 72.1161 48.1915 72.4196 48.6235 72.7368C49.061 73.0485 49.3973 73.4177 49.6325 73.8442C49.8676 74.2653 49.9852 74.7903 49.9852 75.4192Z" fill="black"/>
<path d="M84.4357 106.95L83.5662 104.095H79.1942L78.3247 106.95H75.585L79.8176 94.9077H82.9264L87.1754 106.95H84.4357ZM82.9592 101.962L82.0897 99.1733C82.035 98.9874 81.9612 98.7495 81.8683 98.4597C81.7808 98.1644 81.6905 97.8663 81.5976 97.5655C81.5101 97.2593 81.439 96.994 81.3843 96.7698C81.3296 96.994 81.253 97.2729 81.1546 97.6065C81.0617 97.9347 80.9714 98.2464 80.8839 98.5417C80.7964 98.837 80.7335 99.0476 80.6953 99.1733L79.834 101.962H82.9592Z" fill="black"/>
<path d="M75.2524 104.932V110.444H72.7998V106.95H63.9736V94.9569H66.5165V104.833H70.9296V94.9569H73.4642V104.932H75.2524Z" fill="black"/>
<path d="M61.4663 106.95H54.5596V94.9569H61.4663V97.0405H57.1024V99.6737H61.1628V101.757H57.1024V104.85H61.4663V106.95Z" fill="black"/>
<path d="M51.0987 94.9569V104.833H52.6982V110.444H50.2456V106.95H42.7319V110.444H40.2793V104.833H41.2062C41.5179 104.21 41.8187 103.551 42.1085 102.857C42.3983 102.162 42.669 101.416 42.9206 100.617C43.1721 99.8186 43.3991 98.9518 43.6014 98.0167C43.8037 97.0815 43.9733 96.0616 44.11 94.9569H51.0987ZM48.5641 97.0733H46.1278C46.0458 97.653 45.9337 98.271 45.7915 98.9272C45.6494 99.5835 45.4798 100.253 45.283 100.937C45.0916 101.615 44.8756 102.285 44.6349 102.947C44.3998 103.608 44.1483 104.237 43.8803 104.833H48.5641V97.0733Z" fill="black"/>
<path d="M156.9 120.6V53.5501C156.9 51.3133 155.087 49.5001 152.85 49.5001H84.4531V47.4001H152.85C156.246 47.4001 159 50.1535 159 53.5501V120.6C159 123.997 156.246 126.75 152.85 126.75H84.4531V124.65H152.85C155.087 124.65 156.9 122.837 156.9 120.6Z" fill="black"/>
<path d="M96.8961 87C96.8961 67.3663 80.9806 51.45 61.3478 51.45C41.715 51.45 25.7995 67.3663 25.7995 87C25.7995 106.634 41.715 122.55 61.3478 122.55C80.9806 122.55 96.8961 106.634 96.8961 87ZM107.696 87C107.696 112.598 86.945 133.35 61.3478 133.35C35.7506 133.35 15 112.598 15 87C15 61.4016 35.7506 40.65 61.3478 40.65C86.945 40.65 107.696 61.4016 107.696 87Z" fill="#D9251C"/>
<path d="M88.7939 82.65C91.0305 82.65 92.8437 84.4632 92.8437 86.7C92.8437 88.9367 91.0305 90.75 88.7939 90.75H33.8965C31.6598 90.75 29.8467 88.9367 29.8467 86.7C29.8467 84.4632 31.6598 82.65 33.8965 82.65H88.7939Z" fill="black"/>
<path d="M151.195 87.0001C151.195 79.5419 149.949 72.8877 148.014 68.1759C147.044 65.8151 145.942 64.043 144.826 62.894C143.717 61.7515 142.727 61.3501 141.896 61.3501C141.064 61.3501 140.074 61.7515 138.965 62.894C137.849 64.043 136.747 65.8151 135.777 68.1759C133.842 72.8877 132.596 79.5419 132.596 87.0001C132.596 94.4582 133.842 101.112 135.777 105.824C136.747 108.185 137.849 109.957 138.965 111.106C140.074 112.249 141.064 112.65 141.896 112.65V114.75C135.6 114.75 130.496 102.326 130.496 87.0001C130.496 71.6742 135.6 59.2501 141.896 59.2501C148.191 59.2501 153.295 71.6742 153.295 87.0001C153.295 102.326 148.191 114.75 141.896 114.75V112.65C142.727 112.65 143.717 112.249 144.826 111.106C145.942 109.957 147.044 108.185 148.014 105.824C149.949 101.112 151.195 94.4582 151.195 87.0001Z" fill="black"/>
</g>
<defs>
<clipPath id="clip0_4_5164">
<rect width="174" height="174" fill="white"/>
</clipPath>
</defs>
</svg>
