<svg width="174" height="174" viewBox="0 0 174 174" fill="none" xmlns="http://www.w3.org/2000/svg">
<g clip-path="url(#clip0_4_5135)">
<g clip-path="url(#clip1_4_5135)">
<path d="M86.9981 22.1895C51.2091 22.189 22.1877 51.2114 22.1875 87.0014C22.1877 122.791 51.2091 151.811 86.9981 151.811C122.787 151.81 151.809 122.791 151.809 87.0014C151.809 51.2119 122.787 22.1896 86.9981 22.1895Z" fill="black"/>
<path d="M86.998 22.5723C51.4158 22.5718 22.5705 51.4174 22.5703 87.0006C22.5705 122.584 51.4158 151.429 86.998 151.429C122.58 151.429 151.424 122.583 151.424 87.0006C151.424 51.4179 122.58 22.5724 86.998 22.5723Z" fill="white"/>
<path d="M86.999 24.5225C78.7946 24.5224 70.6705 26.1384 63.0906 29.2782C55.5107 32.4179 48.6234 37.02 42.822 42.8216C37.0206 48.6231 32.4187 55.5106 29.279 63.0907C26.1393 70.6708 24.5234 78.7951 24.5234 86.9998C24.5234 95.2044 26.1393 103.329 29.279 110.909C32.4187 118.489 37.0206 125.376 42.822 131.178C48.6234 136.98 55.5107 141.582 63.0906 144.721C70.6705 147.861 78.7946 149.477 86.999 149.477C103.568 149.477 119.459 142.894 131.175 131.178C142.891 119.461 149.474 103.57 149.473 86.9998C149.474 70.4299 142.891 54.5387 131.175 42.822C119.459 31.1052 103.568 24.5227 86.999 24.5225ZM86.9613 37.4613C86.9738 37.4612 86.9864 37.4612 86.999 37.4613C100.137 37.4615 112.737 42.6808 122.026 51.9711C131.316 61.2614 136.535 73.8615 136.535 86.9998C136.535 100.138 131.316 112.738 122.026 122.028C112.737 131.319 100.137 136.538 86.999 136.538C80.4937 136.538 74.0521 135.257 68.0419 132.767C62.0318 130.278 56.5709 126.629 51.9709 122.029C47.3709 117.429 43.7221 111.968 41.2326 105.957C38.7431 99.9471 37.4619 93.5053 37.4619 86.9998C37.4618 73.8679 42.6757 61.2732 51.9575 51.984C61.2394 42.6948 73.8297 37.4712 86.9613 37.4613Z" fill="#DC291B"/>
<path d="M71.6563 58.4902C69.1596 58.4902 67.0859 60.5639 67.0859 63.0606V99.7269H106.908V63.0606C106.908 60.5628 104.835 58.4902 102.338 58.4902H71.6563ZM71.6563 62.522H102.338C102.67 62.522 102.876 62.7295 102.876 63.0606L102.874 95.6926H71.1203V63.0606C71.1203 62.7284 71.3241 62.522 71.6563 62.522ZM67.0859 101.73V104.476H106.908V101.73H67.0859ZM67.622 106.097C67.3251 106.097 67.0859 106.336 67.0859 106.633V109.404V111.797V114.518C67.0859 114.815 67.3251 115.054 67.622 115.054H71.46C71.7569 115.054 71.9961 114.815 71.9961 114.518V111.797H83.1906C83.4971 112.321 84.0234 112.769 84.7019 113.085C85.3804 113.401 86.1801 113.569 86.9984 113.569C87.8163 113.569 88.6154 113.4 89.2934 113.084C89.9714 112.769 90.4973 112.32 90.8037 111.797H101.998V114.518C101.998 114.815 102.237 115.054 102.534 115.054H106.375C106.672 115.054 106.908 114.815 106.908 114.518V111.797V109.404V106.633C106.908 106.336 106.672 106.097 106.375 106.097H102.534C102.237 106.097 101.998 106.336 101.998 106.633V109.404H90.62C90.2699 108.951 89.748 108.572 89.1101 108.308C88.4723 108.044 87.7423 107.904 86.9984 107.904C86.9766 107.904 86.9548 107.904 86.9329 107.904C86.1997 107.912 85.4829 108.055 84.8571 108.319C84.2313 108.583 83.7193 108.957 83.3743 109.404H71.9961V106.633C71.9961 106.336 71.7569 106.097 71.46 106.097H67.622Z" fill="black"/>
<path d="M71.6549 60.5068C70.2404 60.5068 69.102 61.6453 69.102 63.0597L69.1016 97.7099H104.89L104.89 63.0597C104.89 61.6453 103.751 60.5068 102.336 60.5068H71.6549Z" fill="#E67A11"/>
</g>
</g>
<defs>
<clipPath id="clip0_4_5135">
<rect width="174" height="174" fill="white"/>
</clipPath>
<clipPath id="clip1_4_5135">
<rect width="130" height="130" fill="white" transform="translate(22 22)"/>
</clipPath>
</defs>
</svg>
