<svg width="120" height="50" viewBox="0 0 120 50" fill="none" xmlns="http://www.w3.org/2000/svg">
<rect width="120" height="49.412" rx="3.51351" fill="#E67A11"/>
<path d="M46.6673 41.0935C45.1373 41.0935 43.6673 40.9135 42.2573 40.5535C40.8473 40.1935 39.5573 39.6234 38.3873 38.8434C37.2173 38.0634 36.2422 37.0734 35.4622 35.8734C34.6822 34.6434 34.2022 33.1734 34.0222 31.4634H40.4123C40.6223 32.3034 41.0273 33.0084 41.6273 33.5784C42.2573 34.1184 43.0073 34.5084 43.8773 34.7484C44.7773 34.9884 45.7223 35.1084 46.7123 35.1084C47.3723 35.1084 48.0173 35.0484 48.6473 34.9284C49.3073 34.8084 49.8923 34.5984 50.4023 34.2984C50.9423 33.9984 51.3623 33.5934 51.6623 33.0834C51.9623 32.5734 52.1123 31.9284 52.1123 31.1484C52.1123 30.4284 51.9773 29.8284 51.7073 29.3484C51.4373 28.8684 51.0773 28.4784 50.6273 28.1784C50.1773 27.8784 49.6373 27.6684 49.0073 27.5484C48.4073 27.4284 47.7623 27.3684 47.0723 27.3684H43.3823V21.8784H45.8573C46.6373 21.8784 47.3423 21.8034 47.9723 21.6534C48.6023 21.4734 49.1273 21.2334 49.5473 20.9334C49.9973 20.6034 50.3423 20.2134 50.5823 19.7634C50.8223 19.2834 50.9423 18.7434 50.9423 18.1434C50.9423 17.2434 50.7473 16.5384 50.3573 16.0284C49.9673 15.4884 49.4273 15.0983 48.7373 14.8583C48.0473 14.6183 47.2523 14.4983 46.3523 14.4983C45.5123 14.4983 44.7173 14.6333 43.9673 14.9033C43.2473 15.1433 42.6473 15.5034 42.1673 15.9834C41.6873 16.4634 41.3723 17.0484 41.2223 17.7384H34.9672C35.1472 16.1184 35.5822 14.7383 36.2722 13.5983C36.9623 12.4283 37.8473 11.4683 38.9273 10.7183C40.0073 9.96833 41.2073 9.42833 42.5273 9.09832C43.8773 8.73832 45.2723 8.55832 46.7123 8.55832C48.0923 8.55832 49.4123 8.70832 50.6723 9.00832C51.9323 9.30833 53.0573 9.80333 54.0473 10.4933C55.0673 11.1533 55.8773 12.0383 56.4773 13.1483C57.0773 14.2583 57.3773 15.5934 57.3773 17.1534C57.3773 18.1134 57.2123 19.0134 56.8823 19.8534C56.5823 20.6934 56.1323 21.4434 55.5323 22.1034C54.9623 22.7334 54.2873 23.2584 53.5073 23.6784C54.6773 24.0084 55.6373 24.5484 56.3873 25.2984C57.1373 26.0484 57.6923 26.9334 58.0523 27.9534C58.4423 28.9734 58.6373 30.0684 58.6373 31.2384C58.6373 33.1584 58.2773 34.7634 57.5573 36.0534C56.8673 37.3134 55.9373 38.3184 54.7673 39.0684C53.5973 39.7884 52.3073 40.3135 50.8973 40.6435C49.4873 40.9435 48.0773 41.0935 46.6673 41.0935ZM72.9151 41.0935C71.385 41.0935 69.915 40.9135 68.505 40.5535C67.095 40.1935 65.805 39.6234 64.635 38.8434C63.465 38.0634 62.49 37.0734 61.71 35.8734C60.93 34.6434 60.45 33.1734 60.27 31.4634H66.66C66.87 32.3034 67.275 33.0084 67.875 33.5784C68.505 34.1184 69.255 34.5084 70.125 34.7484C71.025 34.9884 71.97 35.1084 72.9601 35.1084C73.6201 35.1084 74.2651 35.0484 74.8951 34.9284C75.5551 34.8084 76.1401 34.5984 76.6501 34.2984C77.1901 33.9984 77.6101 33.5934 77.9101 33.0834C78.2101 32.5734 78.3601 31.9284 78.3601 31.1484C78.3601 30.4284 78.2251 29.8284 77.9551 29.3484C77.6851 28.8684 77.3251 28.4784 76.8751 28.1784C76.4251 27.8784 75.8851 27.6684 75.2551 27.5484C74.6551 27.4284 74.0101 27.3684 73.3201 27.3684H69.63V21.8784H72.105C72.8851 21.8784 73.5901 21.8034 74.2201 21.6534C74.8501 21.4734 75.3751 21.2334 75.7951 20.9334C76.2451 20.6034 76.5901 20.2134 76.8301 19.7634C77.0701 19.2834 77.1901 18.7434 77.1901 18.1434C77.1901 17.2434 76.9951 16.5384 76.6051 16.0284C76.2151 15.4884 75.6751 15.0983 74.9851 14.8583C74.2951 14.6183 73.5001 14.4983 72.6 14.4983C71.76 14.4983 70.965 14.6333 70.215 14.9033C69.495 15.1433 68.895 15.5034 68.415 15.9834C67.935 16.4634 67.62 17.0484 67.47 17.7384H61.215C61.395 16.1184 61.83 14.7383 62.52 13.5983C63.21 12.4283 64.095 11.4683 65.175 10.7183C66.255 9.96833 67.455 9.42833 68.775 9.09832C70.125 8.73832 71.52 8.55832 72.9601 8.55832C74.3401 8.55832 75.6601 8.70832 76.9201 9.00832C78.1801 9.30833 79.3051 9.80333 80.2951 10.4933C81.3151 11.1533 82.1251 12.0383 82.7251 13.1483C83.3251 14.2583 83.6251 15.5934 83.6251 17.1534C83.6251 18.1134 83.4601 19.0134 83.1301 19.8534C82.8301 20.6934 82.3801 21.4434 81.7801 22.1034C81.2101 22.7334 80.5351 23.2584 79.7551 23.6784C80.9251 24.0084 81.8851 24.5484 82.6351 25.2984C83.3851 26.0484 83.9401 26.9334 84.3001 27.9534C84.6901 28.9734 84.8851 30.0684 84.8851 31.2384C84.8851 33.1584 84.5251 34.7634 83.8051 36.0534C83.1151 37.3134 82.1851 38.3184 81.0151 39.0684C79.8451 39.7884 78.5551 40.3135 77.1451 40.6435C75.7351 40.9435 74.3251 41.0935 72.9151 41.0935Z" fill="black"/>
</svg>
