<svg width="174" height="174" viewBox="0 0 174 174" fill="none" xmlns="http://www.w3.org/2000/svg">
<g clip-path="url(#clip0_4_5111)">
<g clip-path="url(#clip1_4_5111)">
<path d="M86.9981 22.1895C51.2091 22.189 22.1877 51.2114 22.1875 87.0014C22.1877 122.791 51.2091 151.811 86.9981 151.811C122.787 151.81 151.809 122.791 151.809 87.0014C151.809 51.2119 122.787 22.1896 86.9981 22.1895Z" fill="black"/>
<path d="M86.998 22.5723C51.4158 22.5718 22.5705 51.4174 22.5703 87.0006C22.5705 122.584 51.4158 151.429 86.998 151.429C122.58 151.429 151.424 122.583 151.424 87.0006C151.424 51.4179 122.58 22.5724 86.998 22.5723Z" fill="white"/>
<path d="M86.999 25.5225C103.303 25.5227 118.939 32.0001 130.468 43.5293C141.996 55.0585 148.474 70.6954 148.474 87C148.474 103.305 141.996 118.942 130.468 130.471C118.939 142 103.303 148.477 86.999 148.478C78.9261 148.478 70.9321 146.887 63.4736 143.798C56.0151 140.708 49.2378 136.179 43.5293 130.471C37.8208 124.762 33.2925 117.985 30.2031 110.526C27.1137 103.068 25.5234 95.0733 25.5234 87C25.5234 78.9267 27.1137 70.9324 30.2031 63.4736C33.2925 56.0148 37.8208 49.237 43.5293 43.5283C49.2378 37.8197 56.0152 33.2916 63.4736 30.2021C70.9321 27.1127 78.926 25.5224 86.999 25.5225Z" fill="#FFED00" stroke="black" stroke-width="2"/>
<circle cx="87" cy="63" r="20" fill="black"/>
<circle cx="61" cy="103" r="20" fill="black"/>
<circle cx="113" cy="103" r="20" fill="black"/>
</g>
</g>
<defs>
<clipPath id="clip0_4_5111">
<rect width="174" height="174" fill="white"/>
</clipPath>
<clipPath id="clip1_4_5111">
<rect width="130" height="130" fill="white" transform="translate(22 22)"/>
</clipPath>
</defs>
</svg>
