<svg width="310" height="160" viewBox="0 0 310 160" fill="none" xmlns="http://www.w3.org/2000/svg">
<g clip-path="url(#clip0_4_5266)">
<path d="M0 0H310V160H0V0Z" fill="white"/>
<rect x="81" y="15" width="148" height="130" rx="8" fill="black"/>
<rect x="87" y="21" width="136" height="56" rx="4" fill="#E67A11"/>
<path d="M139.89 67.357C138.156 67.357 136.49 67.153 134.892 66.745C133.294 66.337 131.832 65.691 130.506 64.807C129.18 63.923 128.075 62.801 127.191 61.441C126.307 60.047 125.763 58.381 125.559 56.443H132.801C133.039 57.395 133.498 58.194 134.178 58.84C134.892 59.452 135.742 59.894 136.728 60.166C137.748 60.438 138.819 60.574 139.941 60.574C140.689 60.574 141.42 60.506 142.134 60.37C142.882 60.234 143.545 59.996 144.123 59.656C144.735 59.316 145.211 58.857 145.551 58.279C145.891 57.701 146.061 56.97 146.061 56.086C146.061 55.27 145.908 54.59 145.602 54.046C145.296 53.502 144.888 53.06 144.378 52.72C143.868 52.38 143.256 52.142 142.542 52.006C141.862 51.87 141.131 51.802 140.349 51.802H136.167V45.58H138.972C139.856 45.58 140.655 45.495 141.369 45.325C142.083 45.121 142.678 44.849 143.154 44.509C143.664 44.135 144.055 43.693 144.327 43.183C144.599 42.639 144.735 42.027 144.735 41.347C144.735 40.327 144.514 39.528 144.072 38.95C143.63 38.338 143.018 37.896 142.236 37.624C141.454 37.352 140.553 37.216 139.533 37.216C138.581 37.216 137.68 37.369 136.83 37.675C136.014 37.947 135.334 38.355 134.79 38.899C134.246 39.443 133.889 40.106 133.719 40.888H126.63C126.834 39.052 127.327 37.488 128.109 36.196C128.891 34.87 129.894 33.782 131.118 32.932C132.342 32.082 133.702 31.47 135.198 31.096C136.728 30.688 138.309 30.484 139.941 30.484C141.505 30.484 143.001 30.654 144.429 30.994C145.857 31.334 147.132 31.895 148.254 32.677C149.41 33.425 150.328 34.428 151.008 35.686C151.688 36.944 152.028 38.457 152.028 40.225C152.028 41.313 151.841 42.333 151.467 43.285C151.127 44.237 150.617 45.087 149.937 45.835C149.291 46.549 148.526 47.144 147.642 47.62C148.968 47.994 150.056 48.606 150.906 49.456C151.756 50.306 152.385 51.309 152.793 52.465C153.235 53.621 153.456 54.862 153.456 56.188C153.456 58.364 153.048 60.183 152.232 61.645C151.45 63.073 150.396 64.212 149.07 65.062C147.744 65.878 146.282 66.473 144.684 66.847C143.086 67.187 141.488 67.357 139.89 67.357ZM169.637 67.357C167.903 67.357 166.237 67.153 164.639 66.745C163.041 66.337 161.579 65.691 160.253 64.807C158.927 63.923 157.822 62.801 156.938 61.441C156.054 60.047 155.51 58.381 155.306 56.443H162.548C162.786 57.395 163.245 58.194 163.925 58.84C164.639 59.452 165.489 59.894 166.475 60.166C167.495 60.438 168.566 60.574 169.688 60.574C170.436 60.574 171.167 60.506 171.881 60.37C172.629 60.234 173.292 59.996 173.87 59.656C174.482 59.316 174.958 58.857 175.298 58.279C175.638 57.701 175.808 56.97 175.808 56.086C175.808 55.27 175.655 54.59 175.349 54.046C175.043 53.502 174.635 53.06 174.125 52.72C173.615 52.38 173.003 52.142 172.289 52.006C171.609 51.87 170.878 51.802 170.096 51.802H165.914V45.58H168.719C169.603 45.58 170.402 45.495 171.116 45.325C171.83 45.121 172.425 44.849 172.901 44.509C173.411 44.135 173.802 43.693 174.074 43.183C174.346 42.639 174.482 42.027 174.482 41.347C174.482 40.327 174.261 39.528 173.819 38.95C173.377 38.338 172.765 37.896 171.983 37.624C171.201 37.352 170.3 37.216 169.28 37.216C168.328 37.216 167.427 37.369 166.577 37.675C165.761 37.947 165.081 38.355 164.537 38.899C163.993 39.443 163.636 40.106 163.466 40.888H156.377C156.581 39.052 157.074 37.488 157.856 36.196C158.638 34.87 159.641 33.782 160.865 32.932C162.089 32.082 163.449 31.47 164.945 31.096C166.475 30.688 168.056 30.484 169.688 30.484C171.252 30.484 172.748 30.654 174.176 30.994C175.604 31.334 176.879 31.895 178.001 32.677C179.157 33.425 180.075 34.428 180.755 35.686C181.435 36.944 181.775 38.457 181.775 40.225C181.775 41.313 181.588 42.333 181.214 43.285C180.874 44.237 180.364 45.087 179.684 45.835C179.038 46.549 178.273 47.144 177.389 47.62C178.715 47.994 179.803 48.606 180.653 49.456C181.503 50.306 182.132 51.309 182.54 52.465C182.982 53.621 183.203 54.862 183.203 56.188C183.203 58.364 182.795 60.183 181.979 61.645C181.197 63.073 180.143 64.212 178.817 65.062C177.491 65.878 176.029 66.473 174.431 66.847C172.833 67.187 171.235 67.357 169.637 67.357Z" fill="black"/>
<rect x="87" y="83" width="136" height="56" rx="4" fill="#E67A11"/>
<path d="M106.402 129V102.531H99.313V97.023C100.707 96.989 101.965 96.87 103.087 96.666C104.209 96.428 105.212 96.02 106.096 95.442C106.98 94.83 107.745 93.98 108.391 92.892H113.695V129H106.402ZM133.771 129.408C131.119 129.408 128.875 128.932 127.039 127.98C125.203 127.028 123.707 125.719 122.551 124.053C121.395 122.353 120.562 120.398 120.052 118.188C119.542 115.944 119.287 113.564 119.287 111.048C119.287 108.464 119.542 106.05 120.052 103.806C120.596 101.562 121.446 99.59 122.602 97.89C123.792 96.19 125.305 94.864 127.141 93.912C129.011 92.96 131.255 92.484 133.873 92.484C136.593 92.484 138.871 92.977 140.707 93.963C142.577 94.949 144.073 96.326 145.195 98.094C146.351 99.828 147.167 101.8 147.643 104.01C148.153 106.22 148.408 108.532 148.408 110.946C148.408 113.428 148.153 115.774 147.643 117.984C147.133 120.194 146.317 122.166 145.195 123.9C144.073 125.6 142.577 126.943 140.707 127.929C138.837 128.915 136.525 129.408 133.771 129.408ZM133.771 122.676C135.437 122.676 136.746 122.302 137.698 121.554C138.684 120.772 139.415 119.769 139.891 118.545C140.401 117.321 140.724 116.046 140.86 114.72C141.03 113.36 141.115 112.102 141.115 110.946C141.115 109.858 141.03 108.651 140.86 107.325C140.724 105.965 140.418 104.69 139.942 103.5C139.466 102.276 138.752 101.273 137.8 100.491C136.848 99.709 135.556 99.318 133.924 99.318C132.292 99.318 130.983 99.709 129.997 100.491C129.011 101.239 128.263 102.225 127.753 103.449C127.277 104.673 126.954 105.948 126.784 107.274C126.614 108.6 126.529 109.824 126.529 110.946C126.529 112.068 126.597 113.309 126.733 114.669C126.903 116.029 127.226 117.321 127.702 118.545C128.178 119.769 128.892 120.772 129.844 121.554C130.83 122.302 132.139 122.676 133.771 122.676ZM164.991 129.408C163.291 129.408 161.642 129.221 160.044 128.847C158.446 128.439 156.984 127.81 155.658 126.96C154.366 126.076 153.329 124.92 152.547 123.492C151.799 122.064 151.425 120.347 151.425 118.341C151.425 117.015 151.612 115.825 151.986 114.771C152.394 113.683 152.972 112.731 153.72 111.915C154.502 111.065 155.437 110.385 156.525 109.875C155.607 109.297 154.859 108.617 154.281 107.835C153.703 107.019 153.278 106.135 153.006 105.183C152.734 104.231 152.598 103.262 152.598 102.276C152.598 100.474 152.955 98.961 153.669 97.737C154.383 96.479 155.335 95.476 156.525 94.728C157.715 93.946 159.058 93.385 160.554 93.045C162.05 92.671 163.563 92.484 165.093 92.484C166.657 92.484 168.17 92.671 169.632 93.045C171.094 93.385 172.42 93.963 173.61 94.779C174.8 95.561 175.752 96.598 176.466 97.89C177.18 99.148 177.537 100.678 177.537 102.48C177.537 103.398 177.384 104.333 177.078 105.285C176.806 106.203 176.364 107.053 175.752 107.835C175.174 108.617 174.426 109.28 173.508 109.824C174.596 110.3 175.531 110.946 176.313 111.762C177.095 112.578 177.69 113.547 178.098 114.669C178.506 115.791 178.71 117.049 178.71 118.443C178.71 120.449 178.319 122.149 177.537 123.543C176.755 124.937 175.701 126.076 174.375 126.96C173.049 127.81 171.57 128.439 169.938 128.847C168.34 129.221 166.691 129.408 164.991 129.408ZM165.042 122.829C165.79 122.829 166.538 122.744 167.286 122.574C168.034 122.404 168.714 122.132 169.326 121.758C169.938 121.35 170.414 120.857 170.754 120.279C171.128 119.667 171.315 118.919 171.315 118.035C171.315 116.947 171.043 116.063 170.499 115.383C169.955 114.669 169.207 114.142 168.255 113.802C167.337 113.428 166.266 113.241 165.042 113.241C163.852 113.241 162.764 113.428 161.778 113.802C160.826 114.142 160.078 114.669 159.534 115.383C158.99 116.063 158.718 116.947 158.718 118.035C158.718 118.919 158.905 119.667 159.279 120.279C159.653 120.857 160.129 121.35 160.707 121.758C161.319 122.132 161.999 122.404 162.747 122.574C163.495 122.744 164.26 122.829 165.042 122.829ZM165.093 107.682C166.181 107.682 167.099 107.512 167.847 107.172C168.629 106.798 169.224 106.288 169.632 105.642C170.074 104.962 170.295 104.214 170.295 103.398C170.295 102.378 170.074 101.545 169.632 100.899C169.19 100.219 168.561 99.709 167.745 99.369C166.963 98.995 166.028 98.808 164.94 98.808C163.886 98.808 162.968 98.995 162.186 99.369C161.438 99.709 160.843 100.202 160.401 100.848C159.993 101.494 159.789 102.276 159.789 103.194C159.789 104.112 160.01 104.911 160.452 105.591C160.894 106.271 161.506 106.798 162.288 107.172C163.104 107.512 164.039 107.682 165.093 107.682ZM195.336 129.408C193.636 129.408 191.987 129.221 190.389 128.847C188.791 128.439 187.329 127.81 186.003 126.96C184.711 126.076 183.674 124.92 182.892 123.492C182.144 122.064 181.77 120.347 181.77 118.341C181.77 117.015 181.957 115.825 182.331 114.771C182.739 113.683 183.317 112.731 184.065 111.915C184.847 111.065 185.782 110.385 186.87 109.875C185.952 109.297 185.204 108.617 184.626 107.835C184.048 107.019 183.623 106.135 183.351 105.183C183.079 104.231 182.943 103.262 182.943 102.276C182.943 100.474 183.3 98.961 184.014 97.737C184.728 96.479 185.68 95.476 186.87 94.728C188.06 93.946 189.403 93.385 190.899 93.045C192.395 92.671 193.908 92.484 195.438 92.484C197.002 92.484 198.515 92.671 199.977 93.045C201.439 93.385 202.765 93.963 203.955 94.779C205.145 95.561 206.097 96.598 206.811 97.89C207.525 99.148 207.882 100.678 207.882 102.48C207.882 103.398 207.729 104.333 207.423 105.285C207.151 106.203 206.709 107.053 206.097 107.835C205.519 108.617 204.771 109.28 203.853 109.824C204.941 110.3 205.876 110.946 206.658 111.762C207.44 112.578 208.035 113.547 208.443 114.669C208.851 115.791 209.055 117.049 209.055 118.443C209.055 120.449 208.664 122.149 207.882 123.543C207.1 124.937 206.046 126.076 204.72 126.96C203.394 127.81 201.915 128.439 200.283 128.847C198.685 129.221 197.036 129.408 195.336 129.408ZM195.387 122.829C196.135 122.829 196.883 122.744 197.631 122.574C198.379 122.404 199.059 122.132 199.671 121.758C200.283 121.35 200.759 120.857 201.099 120.279C201.473 119.667 201.66 118.919 201.66 118.035C201.66 116.947 201.388 116.063 200.844 115.383C200.3 114.669 199.552 114.142 198.6 113.802C197.682 113.428 196.611 113.241 195.387 113.241C194.197 113.241 193.109 113.428 192.123 113.802C191.171 114.142 190.423 114.669 189.879 115.383C189.335 116.063 189.063 116.947 189.063 118.035C189.063 118.919 189.25 119.667 189.624 120.279C189.998 120.857 190.474 121.35 191.052 121.758C191.664 122.132 192.344 122.404 193.092 122.574C193.84 122.744 194.605 122.829 195.387 122.829ZM195.438 107.682C196.526 107.682 197.444 107.512 198.192 107.172C198.974 106.798 199.569 106.288 199.977 105.642C200.419 104.962 200.64 104.214 200.64 103.398C200.64 102.378 200.419 101.545 199.977 100.899C199.535 100.219 198.906 99.709 198.09 99.369C197.308 98.995 196.373 98.808 195.285 98.808C194.231 98.808 193.313 98.995 192.531 99.369C191.783 99.709 191.188 100.202 190.746 100.848C190.338 101.494 190.134 102.276 190.134 103.194C190.134 104.112 190.355 104.911 190.797 105.591C191.239 106.271 191.851 106.798 192.633 107.172C193.449 107.512 194.384 107.682 195.438 107.682Z" fill="black"/>
</g>
<defs>
<clipPath id="clip0_4_5266">
<path d="M0 0H310V160H0V0Z" fill="white"/>
</clipPath>
</defs>
</svg>
