<svg width="51" height="33" viewBox="0 0 51 33" fill="none" xmlns="http://www.w3.org/2000/svg">
<path d="M12.679 32.6234C11.1449 32.6234 9.67089 32.4429 8.25707 32.0819C6.84324 31.7209 5.54974 31.1494 4.37656 30.3672C3.20338 29.5851 2.22574 28.5924 1.44362 27.3892C0.661501 26.1558 0.180197 24.6818 -0.000291168 22.9672H6.40706C6.61763 23.8095 7.02373 24.5164 7.62536 25.0879C8.25707 25.6294 9.0091 26.0205 9.88146 26.2611C10.7839 26.5018 11.7315 26.6221 12.7242 26.6221C13.386 26.6221 14.0327 26.5619 14.6644 26.4416C15.3262 26.3213 15.9128 26.1107 16.4242 25.8099C16.9656 25.5091 17.3868 25.103 17.6876 24.5916C17.9884 24.0802 18.1388 23.4335 18.1388 22.6514C18.1388 21.9294 18.0035 21.3278 17.7327 20.8465C17.462 20.3652 17.101 19.9741 16.6498 19.6733C16.1986 19.3725 15.6571 19.1619 15.0254 19.0416C14.4238 18.9213 13.777 18.8611 13.0851 18.8611H9.38512V13.3562H11.8668C12.649 13.3562 13.3559 13.281 13.9876 13.1306C14.6193 12.9501 15.1457 12.7094 15.5669 12.4086C16.0181 12.0777 16.364 11.6867 16.6047 11.2354C16.8453 10.7541 16.9656 10.2127 16.9656 9.61105C16.9656 8.7086 16.7701 8.00169 16.3791 7.4903C15.988 6.94884 15.4465 6.55778 14.7547 6.31713C14.0628 6.07647 13.2656 5.95615 12.3632 5.95615C11.5209 5.95615 10.7237 6.09151 9.97171 6.36225C9.24975 6.6029 8.64812 6.96388 8.16682 7.44518C7.68552 7.92648 7.36966 8.51307 7.21926 9.20495H0.947274C1.12776 7.58055 1.56394 6.1968 2.25582 5.05371C2.94769 3.88053 3.83509 2.91792 4.91803 2.16589C6.00096 1.41385 7.20422 0.872385 8.5278 0.541488C9.88146 0.180512 11.2803 2.3712e-05 12.7242 2.3712e-05C14.1079 2.3712e-05 15.4315 0.150431 16.6949 0.451245C17.9583 0.752059 19.0864 1.2484 20.0791 1.94028C21.1018 2.60207 21.914 3.48947 22.5157 4.60248C23.1173 5.7155 23.4181 7.05412 23.4181 8.61836C23.4181 9.58096 23.2527 10.4834 22.9218 11.3257C22.621 12.168 22.1697 12.92 21.5681 13.5818C20.9966 14.2135 20.3197 14.7399 19.5376 15.1611C20.7108 15.492 21.6734 16.0334 22.4254 16.7855C23.1775 17.5375 23.734 18.4249 24.0949 19.4477C24.486 20.4704 24.6815 21.5684 24.6815 22.7416C24.6815 24.6668 24.3206 26.2762 23.5986 27.5697C22.9067 28.8331 21.9742 29.8408 20.801 30.5929C19.6279 31.3148 18.3344 31.8412 16.9205 32.1721C15.5067 32.4729 14.0929 32.6234 12.679 32.6234ZM38.998 32.6234C37.4638 32.6234 35.9898 32.4429 34.576 32.0819C33.1622 31.7209 31.8686 31.1494 30.6955 30.3672C29.5223 29.5851 28.5446 28.5924 27.7625 27.3892C26.9804 26.1558 26.4991 24.6818 26.3186 22.9672H32.726C32.9365 23.8095 33.3426 24.5164 33.9443 25.0879C34.576 25.6294 35.328 26.0205 36.2004 26.2611C37.1028 26.5018 38.0504 26.6221 39.0431 26.6221C39.7049 26.6221 40.3516 26.5619 40.9833 26.4416C41.6451 26.3213 42.2317 26.1107 42.7431 25.8099C43.2846 25.5091 43.7057 25.103 44.0065 24.5916C44.3073 24.0802 44.4577 23.4335 44.4577 22.6514C44.4577 21.9294 44.3224 21.3278 44.0516 20.8465C43.7809 20.3652 43.4199 19.9741 42.9687 19.6733C42.5175 19.3725 41.976 19.1619 41.3443 19.0416C40.7427 18.9213 40.0959 18.8611 39.4041 18.8611H35.704V13.3562H38.1858C38.9679 13.3562 39.6748 13.281 40.3065 13.1306C40.9382 12.9501 41.4646 12.7094 41.8858 12.4086C42.337 12.0777 42.6829 11.6867 42.9236 11.2354C43.1642 10.7541 43.2846 10.2127 43.2846 9.61105C43.2846 8.7086 43.089 8.00169 42.698 7.4903C42.3069 6.94884 41.7654 6.55778 41.0736 6.31713C40.3817 6.07647 39.5845 5.95615 38.6821 5.95615C37.8398 5.95615 37.0427 6.09151 36.2906 6.36225C35.5687 6.6029 34.967 6.96388 34.4857 7.44518C34.0044 7.92648 33.6886 8.51307 33.5382 9.20495H27.2662C27.4467 7.58055 27.8829 6.1968 28.5747 5.05371C29.2666 3.88053 30.154 2.91792 31.2369 2.16589C32.3199 1.41385 33.5231 0.872385 34.8467 0.541488C36.2004 0.180512 37.5992 2.3712e-05 39.0431 2.3712e-05C40.4268 2.3712e-05 41.7504 0.150431 43.0138 0.451245C44.2772 0.752059 45.4053 1.2484 46.398 1.94028C47.4208 2.60207 48.233 3.48947 48.8346 4.60248C49.4362 5.7155 49.737 7.05412 49.737 8.61836C49.737 9.58096 49.5716 10.4834 49.2407 11.3257C48.9399 12.168 48.4886 12.92 47.887 13.5818C47.3155 14.2135 46.6386 14.7399 45.8565 15.1611C47.0297 15.492 47.9923 16.0334 48.7443 16.7855C49.4964 17.5375 50.0529 18.4249 50.4139 19.4477C50.8049 20.4704 51.0004 21.5684 51.0004 22.7416C51.0004 24.6668 50.6395 26.2762 49.9175 27.5697C49.2256 28.8331 48.2931 29.8408 47.1199 30.5929C45.9468 31.3148 44.6533 31.8412 43.2394 32.1721C41.8256 32.4729 40.4118 32.6234 38.998 32.6234Z" fill="black"/>
</svg>
