<svg width="174" height="174" viewBox="0 0 174 174" fill="none" xmlns="http://www.w3.org/2000/svg">
<g clip-path="url(#clip0_4_4996)">
<g clip-path="url(#clip1_4_4996)">
<path d="M93.7314 25.9676C92.4123 23.6903 89.8315 22.2656 87.0001 22.2656C84.1172 22.2656 81.5354 23.7682 80.1913 26.0888L14.4198 139.654C13.0082 142.091 12.7992 145.161 14.3092 147.769C15.7507 150.257 18.3468 151.735 21.0351 151.735H152.965C155.653 151.735 158.249 150.257 159.691 147.769C161.201 145.162 160.992 142.091 159.58 139.654L93.7314 25.9676Z" fill="white" stroke="black" stroke-width="0.359678" stroke-miterlimit="2" stroke-linecap="round" stroke-linejoin="round"/>
<path d="M87.0039 24.7207C85.0488 24.7207 83.3507 25.743 82.4957 27.219L16.726 140.783C15.7414 142.483 15.6106 144.509 16.6151 146.244C17.5927 147.932 19.3248 148.88 21.0345 148.88H152.968C154.677 148.88 156.409 147.932 157.387 146.244C158.392 144.509 158.261 142.483 157.276 140.783L91.4288 27.0974C90.621 25.7028 88.9396 24.7207 87.0039 24.7207ZM137.381 134.73H36.6216L86.9983 47.7475L137.381 134.73Z" fill="#DD2414"/>
<path fill-rule="evenodd" clip-rule="evenodd" d="M66.0513 96.1204C65.5477 95.749 65.4896 95.4241 65.4896 94.9213C66.2838 92.9486 67.9488 92.4999 69.9625 92.2292C69.6526 92.6779 69.4782 92.9486 69.3814 93.5443C69.5363 93.5288 69.73 93.4282 70.0392 93.4128C69.981 93.6217 69.981 93.6217 69.981 93.7764C70.5428 93.7764 71.2788 93.4515 71.8204 93.2967C72.9051 93.2967 73.931 93.4283 74.2021 94.7279C75.7703 94.0703 77.8995 93.583 78.9067 95.4241C79.1004 96.4298 78.7905 97.5825 78.5968 98.6113C78.6356 99.2844 78.7324 99.9419 78.8292 100.677C79.2747 101.853 79.2747 101.853 79.3135 102.123C78.7324 102.185 77.2029 101.164 76.7574 100.832C75.8091 99.9265 75.441 99.6944 75.1892 98.4721C75.1892 98.0698 75.441 95.8264 74.3377 96.4298C74.3377 96.6 74.3183 96.7547 74.3183 96.9094C74.8405 98.24 74.9374 99.1296 73.6791 100.042C73.6597 100.236 73.6597 100.236 73.7179 100.429C73.931 100.483 74.0859 100.406 74.3377 100.352C74.705 100.661 75.0149 101.218 75.3055 101.698C76.119 101.775 76.3894 101.814 76.9318 102.51C77.1448 102.626 77.3385 102.766 77.571 102.882C78.2481 103.748 79.2166 104.212 79.9519 105.179C80.0875 105.202 80.2037 105.295 80.6686 105.45C80.843 105.798 80.843 105.798 81.2683 107.229C81.3265 107.245 81.3845 107.245 81.4426 107.268C81.9269 106.842 82.3523 106.301 81.9463 105.705C82.0624 105.024 82.6622 104.56 82.9721 103.941C83.6462 103.129 84.173 102.108 84.7309 101.203C85.6064 98.8976 85.4514 97.3504 84.8083 95.0373C84.8083 93.8151 84.8083 93.4283 85.893 92.732C86.2804 92.1131 85.8776 91.8269 85.8776 91.208C86.42 90.6665 86.8849 90.5118 86.4975 89.6841C86.0093 89.6609 85.6994 89.9161 85.374 89.9161C85.219 89.7614 85.219 89.7614 84.8859 89.1812C84.483 89.0033 84.483 89.0033 84.266 88.8099C84.2505 88.601 84.2119 88.3844 84.2119 88.1523C84.0957 88.1137 83.9794 88.075 83.8632 88.0363C83.84 87.8429 83.8244 87.6495 83.8244 87.4793C83.3751 87.3633 83.2434 87.3246 83.0109 87.108C83.0109 86.5355 83.3596 86.2261 83.3751 85.6614C82.7397 85.3132 82.8947 84.8723 82.7242 84.3076C82.6622 84.2689 82.5693 84.2534 82.5073 84.2302C82.4917 84.0755 82.4917 83.944 82.4531 83.8047C81.714 83.7119 83.011 81.8553 83.1504 81.7006C83.8632 81.0275 84.793 80.5788 85.6065 79.9832C87.3266 79.5732 89.1706 79.109 90.9294 79.7511C91.371 80.0992 91.371 80.0992 91.7584 80.5402C92.6494 80.8341 92.7657 81.9868 92.9439 82.8377C92.9439 84.0755 92.6727 85.1817 92.1846 86.3576C92.1846 86.8372 92.2854 87.1699 92.2233 87.4561C91.8592 87.634 91.6422 87.6495 91.5648 88.0595C91.6423 88.1137 92.0296 88.2142 92.1846 88.2916C92.5952 89.0652 92.9439 88.8718 93.7574 89.2354C93.7574 89.274 93.7574 89.2973 93.7574 89.3359C94.0054 89.4907 94.3773 89.3359 94.7259 89.6841C96.291 89.9935 96.8179 91.386 97.9413 92.2292C98.1738 92.8094 100.026 94.3798 100.591 95.9811C100.917 96.8475 101.482 96.6928 101.653 96.8707C101.947 97.6598 103.861 95.9656 104.752 96.2364C105.821 97.0409 106.185 99.7098 106.751 100.986C107.092 102.108 106.712 101.76 107.774 105.783C107.014 106.324 106.263 106.78 105.511 107.09C104.543 107.709 104.481 108.25 104.481 109.395C104.364 109.72 103.923 109.975 103.628 110.184C103.28 110.803 103.396 110.687 103.574 111.321C103.961 111.461 103.961 111.461 104.171 111.631C104.969 113.255 105.627 113.201 107.44 113.356C108.409 113.704 109.323 113.743 110.385 113.604C110.834 113.782 111.454 113.565 111.779 114.052C112.538 114.052 112.616 114.091 112.848 114.091C113.275 113.782 114.297 113.936 114.669 114.416C114.878 115.135 114.878 116.288 114.708 117.062C114.398 117.472 114.475 117.549 114.669 118.106C114.669 119.522 114.049 121.332 113.274 122.554C112.577 123.111 112.112 123.923 111.585 122.747C111.585 122.067 111.585 121.409 111.585 120.721C111.392 120.195 111.043 119.251 110.694 118.957C110.385 118.996 110.137 119.096 109.594 119.173C108.626 119.15 107.773 119.073 106.867 118.957C105.372 118.593 105.372 118.593 104.713 118.531C103.435 118.555 102.179 118.57 100.901 118.593C100.591 118.555 100.49 118.454 100.281 118.361C99.5451 117.394 97.1432 114.068 95.7098 114.749C95.0125 115.731 94.6251 116.52 94.5477 117.758C94.9196 119.715 94.8808 121.703 95.2837 123.753C95.2837 124.658 95.3845 125.161 95.0358 126.028C95.0358 126.824 95.3999 127.598 95.2062 128.426C94.6251 129.277 93.308 129.277 92.4402 129.277C91.8591 129.47 91.8591 129.47 91.5105 129.648C89.8834 129.996 88.0084 129.702 86.4588 129.277C86.3812 129.222 86.3038 129.184 86.2418 129.106C86.1877 127.907 86.8849 127.985 87.8921 127.575C88.0626 127.405 88.4345 127.25 88.8219 126.878C89.2248 126.453 89.341 126.283 89.8291 126.089C90.1158 124.991 89.0311 124.968 88.8374 124.155C88.8374 123.289 88.9149 122.554 89.1086 121.742C89.1318 120.024 89.1706 118.284 89.1861 116.582C88.8375 114.957 88.8375 114.957 88.7057 114.068C88.7057 112.815 89.1319 111.02 89.9454 110.146C90.2321 109.511 90.3871 108.699 90.604 108.08C90.542 107.152 90.0384 107.152 89.4573 106.664C89.1086 105.875 89.7905 104.158 89.2249 103.849C88.4346 103.849 88.3958 103.81 88.1014 104.599C87.3886 105.527 87.3886 105.527 85.9165 107.747C85.4516 107.964 84.793 107.825 84.3049 107.864C84.1344 108.235 84.1887 108.622 84.1887 109.086C84.0338 109.643 83.6851 110.223 83.6309 110.788C84.3437 111.925 84.7698 112.598 84.9248 113.99C84.9248 114.749 85.103 115.716 84.3437 116.195C83.1892 116.218 82.4144 116.35 81.3266 116.675C81.4428 116.946 81.4816 117.216 81.5978 117.487C81.8883 117.796 82.5074 118.377 82.12 118.903C81.6365 119.112 80.7076 119.367 80.4945 119.87C81.6946 120.179 82.9335 120.45 84.2662 120.45C85.103 120.117 86.7301 119.173 87.4274 120.233C87.8535 122.245 87.6986 124.001 87.0167 125.958C86.5751 126.205 86.4356 126.182 86.2032 125.78C85.9708 125.006 85.5679 124.333 85.3354 123.676C84.8086 122.98 84.4986 122.902 83.7238 122.902C81.7334 123.366 80.2621 123.885 78.3258 123.212C77.7649 122.864 77.7649 122.864 76.932 122.245C75.0151 122.245 76.3703 125.548 76.6995 126.438C77.1257 127.056 78.6939 129.083 77.8424 129.919C77.145 130.244 77.145 130.244 76.8545 130.344C75.48 131.419 74.0474 132.232 72.3049 132.232C71.1435 131.652 73.0216 129.973 73.3501 129.493C73.5244 129.083 73.6987 128.426 73.8731 128.039C74.2217 127.559 74.0668 127.211 73.9119 126.67C73.292 125.3 72.6923 123.908 71.9175 122.67C71.0273 122.067 70.1169 121.912 69.3041 121.355C68.8393 121.316 68.5293 121.177 68.2202 120.991C68.2202 119.522 69.033 118.222 68.6262 116.791C68.5874 116.791 68.568 116.791 68.5488 116.791C68.3752 116.466 68.2009 116.327 68.0459 116.102C67.8716 115.344 67.9878 115.306 67.3486 115.29C67.2518 115.638 67.1162 116.064 66.8644 116.365C66.4584 116.365 66.3034 116.141 65.9354 116.18C65.9354 116.853 66.6521 117.216 65.8966 117.951C65.3155 118.09 65.9354 118.632 65.9354 118.957C65.0839 119.808 64.0767 119.228 63.3801 118.671C63.0896 118.183 62.9733 118.067 62.5859 117.796C62.5859 117.255 63.6513 116.04 63.9798 115.561C64.3478 114.903 64.6965 114.106 65.0452 113.449C66.1678 111.925 67.5423 110.556 68.5682 108.947C69.0524 107.925 69.343 106.897 69.5948 105.837C69.8078 104.429 69.8078 104.429 69.9047 103.941C70.64 103.593 70.6206 103.152 69.9628 102.82C68.4326 102.974 68.6069 103.384 67.7748 102.123C67.5811 102.069 67.4068 102.007 67.2324 101.953C67.1163 101.683 67.1163 101.683 67.1357 101.543C67.0195 101.505 66.9032 101.489 66.7878 101.474C66.7102 100.893 66.691 100.893 66.2067 100.716C66.3035 100.29 66.3616 99.8878 66.3616 99.4391C65.1808 98.6113 65.6256 97.5051 66.1098 96.4298C66.1098 96.3292 66.1095 96.2132 66.0513 96.1204Z" fill="#131414" stroke="#131414" stroke-width="0.0733524" stroke-miterlimit="10" stroke-linejoin="round"/>
</g>
</g>
<defs>
<clipPath id="clip0_4_4996">
<rect width="174" height="174" fill="white"/>
</clipPath>
<clipPath id="clip1_4_4996">
<rect width="148" height="130" fill="white" transform="translate(13 22)"/>
</clipPath>
</defs>
</svg>
