<svg width="174" height="174" viewBox="0 0 174 174" fill="none" xmlns="http://www.w3.org/2000/svg">
<g clip-path="url(#clip0_4_5147)">
<path d="M79.0914 66.7571C80.639 66.7571 81.7682 67.0907 82.4791 67.7579C83.1901 68.4196 83.5455 69.3329 83.5455 70.4977C83.5455 71.0227 83.4662 71.5258 83.3076 72.0071C83.149 72.4829 82.8893 72.9067 82.5284 73.2786C82.1729 73.6504 81.6972 73.9458 81.1011 74.1645C80.505 74.3778 79.7695 74.4844 78.8946 74.4844H77.8036V78.75H75.2607V66.7571H79.0914ZM78.9602 68.8407H77.8036V72.4008H78.6403C79.116 72.4008 79.5289 72.3379 79.8789 72.2122C80.2289 72.0864 80.4996 71.8895 80.691 71.6215C80.8823 71.3536 80.978 71.009 80.978 70.5879C80.978 69.9973 80.814 69.5598 80.4859 69.2754C80.1578 68.9856 79.6492 68.8407 78.9602 68.8407Z" fill="black"/>
<path d="M72.7854 72.7369C72.7854 73.6611 72.6706 74.5033 72.4409 75.2634C72.2112 76.0181 71.8612 76.6689 71.3909 77.2158C70.9261 77.7626 70.3355 78.1837 69.6191 78.4791C68.9028 78.7689 68.0551 78.9138 67.0763 78.9138C66.0974 78.9138 65.2498 78.7689 64.5334 78.4791C63.8171 78.1837 63.2237 77.7626 62.7534 77.2158C62.2886 76.6689 61.9414 76.0154 61.7117 75.2552C61.482 74.4951 61.3672 73.6501 61.3672 72.7205C61.3672 71.4791 61.5695 70.399 61.9742 69.4802C62.3843 68.556 63.0132 67.8396 63.8608 67.331C64.7084 66.8224 65.7857 66.5681 67.0927 66.5681C68.3942 66.5681 69.4633 66.8224 70.3 67.331C71.1421 67.8396 71.7655 68.556 72.1702 69.4802C72.5803 70.4044 72.7854 71.49 72.7854 72.7369ZM64.0331 72.7369C64.0331 73.5736 64.137 74.2955 64.3448 74.9025C64.5581 75.5041 64.8889 75.9689 65.3373 76.297C65.7857 76.6197 66.3654 76.781 67.0763 76.781C67.7981 76.781 68.3833 76.6197 68.8317 76.297C69.2801 75.9689 69.6055 75.5041 69.8078 74.9025C70.0156 74.2955 70.1195 73.5736 70.1195 72.7369C70.1195 71.4791 69.8844 70.4892 69.4141 69.7673C68.9438 69.0455 68.17 68.6845 67.0927 68.6845C66.3763 68.6845 65.7912 68.8486 65.3373 69.1767C64.8889 69.4994 64.5581 69.9642 64.3448 70.5712C64.137 71.1728 64.0331 71.8947 64.0331 72.7369Z" fill="black"/>
<path d="M56.7837 78.75H54.2409V68.8735H50.9844V66.7571H60.0402V68.8735H56.7837V78.75Z" fill="black"/>
<path d="M49.9852 75.4191C49.9852 76.1301 49.8129 76.748 49.4684 77.273C49.1239 77.798 48.6208 78.2027 47.9591 78.4871C47.3029 78.7715 46.5045 78.9136 45.5639 78.9136C45.1483 78.9136 44.7409 78.8863 44.3417 78.8316C43.948 78.7769 43.5679 78.6976 43.2015 78.5937C42.8406 78.4844 42.4961 78.3504 42.168 78.1918V75.8293C42.7367 76.0808 43.3273 76.3078 43.9398 76.5101C44.5522 76.7125 45.1592 76.8136 45.7608 76.8136C46.1764 76.8136 46.5099 76.759 46.7615 76.6496C47.0185 76.5402 47.2044 76.3898 47.3193 76.1984C47.4341 76.007 47.4915 75.7883 47.4915 75.5422C47.4915 75.2414 47.3904 74.9844 47.188 74.7711C46.9857 74.5578 46.7068 74.3582 46.3514 74.1722C46.0014 73.9863 45.6049 73.7867 45.162 73.5734C44.8831 73.4422 44.5796 73.2836 44.2515 73.0976C43.9234 72.9062 43.6116 72.6738 43.3164 72.4004C43.0211 72.1269 42.7777 71.7961 42.5863 71.4078C42.4004 71.014 42.3074 70.5437 42.3074 69.9969C42.3074 69.2804 42.4715 68.6679 42.7996 68.1594C43.1277 67.6508 43.5952 67.2625 44.2022 66.9945C44.8147 66.7211 45.5366 66.5844 46.3678 66.5844C46.9912 66.5844 47.5845 66.6582 48.1478 66.8058C48.7165 66.948 49.3098 67.1558 49.9278 67.4293L49.1075 69.4062C48.5552 69.182 48.0603 69.0097 47.6228 68.8894C47.1853 68.7636 46.7396 68.7008 46.2857 68.7008C45.9686 68.7008 45.6979 68.7527 45.4737 68.8566C45.2495 68.9551 45.0799 69.0972 44.9651 69.2832C44.8503 69.4636 44.7928 69.6742 44.7928 69.9148C44.7928 70.1992 44.8749 70.4398 45.0389 70.6367C45.2084 70.8281 45.46 71.014 45.7936 71.1945C46.1326 71.375 46.5537 71.5855 47.0568 71.8261C47.6693 72.116 48.1915 72.4195 48.6235 72.7367C49.061 73.0484 49.3973 73.4176 49.6325 73.8441C49.8676 74.2652 49.9852 74.7902 49.9852 75.4191Z" fill="black"/>
<path d="M84.4357 106.95L83.5662 104.095H79.1942L78.3247 106.95H75.585L79.8176 94.9076H82.9264L87.1754 106.95H84.4357ZM82.9592 101.962L82.0897 99.1732C82.035 98.9873 81.9612 98.7494 81.8683 98.4595C81.7808 98.1642 81.6905 97.8662 81.5976 97.5654C81.5101 97.2592 81.439 96.9939 81.3843 96.7697C81.3296 96.9939 81.253 97.2728 81.1546 97.6064C81.0617 97.9345 80.9714 98.2463 80.8839 98.5416C80.7964 98.8369 80.7335 99.0474 80.6953 99.1732L79.834 101.962H82.9592Z" fill="black"/>
<path d="M75.2524 104.932V110.444H72.7998V106.95H63.9736V94.9568H66.5165V104.833H70.9296V94.9568H73.4642V104.932H75.2524Z" fill="black"/>
<path d="M61.4663 106.95H54.5596V94.9568H61.4663V97.0404H57.1024V99.6736H61.1628V101.757H57.1024V104.85H61.4663V106.95Z" fill="black"/>
<path d="M51.0987 94.9568V104.833H52.6982V110.444H50.2456V106.95H42.7319V110.444H40.2793V104.833H41.2062C41.5179 104.21 41.8187 103.551 42.1085 102.856C42.3983 102.162 42.669 101.415 42.9206 100.617C43.1721 99.8185 43.3991 98.9517 43.6014 98.0166C43.8037 97.0814 43.9733 96.0615 44.11 94.9568H51.0987ZM48.5641 97.0732H46.1278C46.0458 97.6529 45.9337 98.2708 45.7915 98.9271C45.6494 99.5833 45.4798 100.253 45.283 100.937C45.0916 101.615 44.8756 102.285 44.6349 102.947C44.3998 103.608 44.1483 104.237 43.8803 104.833H48.5641V97.0732Z" fill="black"/>
<path d="M156.9 120.6V53.5499C156.9 51.3131 155.087 49.4999 152.85 49.4999H84.4531V47.3999H152.85C156.246 47.3999 159 50.1534 159 53.5499V120.6C159 123.996 156.246 126.75 152.85 126.75H84.4531V124.65H152.85C155.087 124.65 156.9 122.837 156.9 120.6Z" fill="black"/>
<path d="M96.8961 86.9999C96.8961 67.3662 80.9806 51.4499 61.3478 51.4499C41.715 51.4499 25.7995 67.3662 25.7995 86.9999C25.7995 106.634 41.715 122.55 61.3478 122.55C80.9806 122.55 96.8961 106.634 96.8961 86.9999ZM107.696 86.9999C107.696 112.598 86.945 133.35 61.3478 133.35C35.7506 133.35 15 112.598 15 86.9999C15 61.4015 35.7506 40.6499 61.3478 40.6499C86.945 40.6499 107.696 61.4015 107.696 86.9999Z" fill="#D9251C"/>
<path d="M88.7939 82.6498C91.0305 82.6498 92.8437 84.463 92.8437 86.6998C92.8437 88.9365 91.0305 90.7498 88.7939 90.7498H33.8965C31.6598 90.7498 29.8467 88.9365 29.8467 86.6998C29.8467 84.463 31.6598 82.6498 33.8965 82.6498H88.7939Z" fill="black"/>
<path d="M151.195 87C151.195 79.5418 149.949 72.8876 148.014 68.1759C147.044 65.815 145.942 64.0429 144.826 62.8939C143.717 61.7515 142.727 61.35 141.896 61.35C141.064 61.35 140.074 61.7515 138.965 62.8939C137.849 64.0429 136.747 65.815 135.777 68.1759C133.842 72.8876 132.596 79.5418 132.596 87C132.596 94.4582 133.842 101.112 135.777 105.824C136.747 108.185 137.849 109.957 138.965 111.106C140.074 112.249 141.064 112.65 141.896 112.65V114.75C135.6 114.75 130.496 102.326 130.496 87C130.496 71.6741 135.6 59.25 141.896 59.25C148.191 59.25 153.295 71.6741 153.295 87C153.295 102.326 148.191 114.75 141.896 114.75V112.65C142.727 112.65 143.717 112.249 144.826 111.106C145.942 109.957 147.044 108.185 148.014 105.824C149.949 101.112 151.195 94.4582 151.195 87Z" fill="black"/>
</g>
<defs>
<clipPath id="clip0_4_5147">
<rect width="174" height="174" fill="white"/>
</clipPath>
</defs>
</svg>
