<svg width="310" height="160" viewBox="0 0 310 160" fill="none" xmlns="http://www.w3.org/2000/svg">
<g clip-path="url(#clip0_4_5273)">
<path d="M0 0H310V160H0V0Z" fill="white"/>
<g clip-path="url(#clip1_4_5273)">
<path d="M154.998 15.1895C119.209 15.189 90.1877 44.2114 90.1875 80.0014C90.1877 115.791 119.209 144.811 154.998 144.811C190.787 144.81 219.809 115.791 219.809 80.0014C219.809 44.2119 190.787 15.1896 154.998 15.1895Z" fill="black"/>
<path d="M154.998 15.5723C119.416 15.5718 90.5705 44.4174 90.5703 80.0006C90.5705 115.584 119.416 144.429 154.998 144.429C190.58 144.429 219.424 115.583 219.424 80.0006C219.424 44.4179 190.58 15.5724 154.998 15.5723Z" fill="white"/>
<path d="M154.999 17.5225C146.795 17.5224 138.67 19.1384 131.091 22.2782C123.511 25.4179 116.623 30.02 110.822 35.8216C105.021 41.6231 100.419 48.5106 97.279 56.0907C94.1393 63.6708 92.5234 71.7951 92.5234 79.9998C92.5234 88.2044 94.1393 96.3287 97.279 103.909C100.419 111.489 105.021 118.376 110.822 124.178C116.623 129.98 123.511 134.582 131.091 137.721C138.67 140.861 146.795 142.477 154.999 142.477C171.568 142.477 187.459 135.894 199.175 124.178C210.891 112.461 217.474 96.5696 217.473 79.9998C217.474 63.4299 210.891 47.5387 199.175 35.822C187.459 24.1052 171.568 17.5227 154.999 17.5225ZM154.961 30.4613C154.974 30.4612 154.986 30.4612 154.999 30.4613C168.137 30.4615 180.737 35.6808 190.026 44.9711C199.316 54.2614 204.535 66.8615 204.535 79.9998C204.535 93.138 199.316 105.738 190.026 115.028C180.737 124.319 168.137 129.538 154.999 129.538C148.494 129.538 142.052 128.257 136.042 125.767C130.032 123.278 124.571 119.629 119.971 115.029C115.371 110.429 111.722 104.968 109.233 98.9574C106.743 92.9471 105.462 86.5053 105.462 79.9998C105.462 66.8679 110.676 54.2732 119.958 44.984C129.239 35.6948 141.83 30.4712 154.961 30.4613Z" fill="#DC291B"/>
<path d="M139.656 51.4902C137.16 51.4902 135.086 53.5639 135.086 56.0606V92.7269H174.908V56.0606C174.908 53.5628 172.835 51.4902 170.338 51.4902H139.656ZM139.656 55.522H170.338C170.67 55.522 170.876 55.7295 170.876 56.0606L170.874 88.6926H139.12V56.0606C139.12 55.7284 139.324 55.522 139.656 55.522ZM135.086 94.7303V97.476H174.908V94.7303H135.086ZM135.622 99.0968C135.325 99.0968 135.086 99.336 135.086 99.6329V102.404V104.797V107.518C135.086 107.815 135.325 108.054 135.622 108.054H139.46C139.757 108.054 139.996 107.815 139.996 107.518V104.797H151.191C151.497 105.321 152.023 105.769 152.702 106.085C153.38 106.401 154.18 106.569 154.998 106.569C155.816 106.569 156.615 106.4 157.293 106.084C157.971 105.769 158.497 105.32 158.804 104.797H169.998V107.518C169.998 107.815 170.237 108.054 170.534 108.054H174.375C174.672 108.054 174.908 107.815 174.908 107.518V104.797V102.404V99.6329C174.908 99.336 174.672 99.0968 174.375 99.0968H170.534C170.237 99.0968 169.998 99.336 169.998 99.6329V102.404H158.62C158.27 101.951 157.748 101.572 157.11 101.308C156.472 101.044 155.742 100.904 154.998 100.904C154.977 100.904 154.955 100.904 154.933 100.904C154.2 100.912 153.483 101.055 152.857 101.319C152.231 101.583 151.719 101.957 151.374 102.404H139.996V99.6329C139.996 99.336 139.757 99.0968 139.46 99.0968H135.622Z" fill="black"/>
<path d="M139.655 53.5068C138.24 53.5068 137.102 54.6453 137.102 56.0597L137.102 90.7099H172.89L172.89 56.0597C172.89 54.6453 171.751 53.5068 170.336 53.5068H139.655Z" fill="#E67A11"/>
</g>
</g>
<defs>
<clipPath id="clip0_4_5273">
<path d="M0 0H310V160H0V0Z" fill="white"/>
</clipPath>
<clipPath id="clip1_4_5273">
<rect width="130" height="130" fill="white" transform="translate(90 15)"/>
</clipPath>
</defs>
</svg>
