<svg width="130" height="115" viewBox="0 0 130 115" fill="none" xmlns="http://www.w3.org/2000/svg">
<rect width="130" height="114.189" rx="7.02703" fill="black"/>
<rect x="5.27051" y="5.27026" width="119.459" height="49.1892" rx="3.51351" fill="#E67A11"/>
<path d="M51.7274 46.1784C50.2043 46.1784 48.7409 45.9993 47.3373 45.6409C45.9336 45.2825 44.6494 44.7151 43.4847 43.9386C42.32 43.1621 41.3494 42.1766 40.5729 40.982C39.7964 39.7575 39.3185 38.2941 39.1394 36.5918H45.5006C45.7096 37.428 46.1128 38.1299 46.7101 38.6973C47.3373 39.2349 48.0839 39.6231 48.95 39.862C49.8459 40.1009 50.7867 40.2204 51.7722 40.2204C52.4292 40.2204 53.0713 40.1607 53.6985 40.0412C54.3555 39.9218 54.9379 39.7127 55.4456 39.4141C55.9831 39.1154 56.4013 38.7122 56.6999 38.2045C56.9985 37.6968 57.1479 37.0547 57.1479 36.2782C57.1479 35.5615 57.0135 34.9642 56.7447 34.4864C56.4759 34.0085 56.1175 33.6203 55.6696 33.3216C55.2216 33.023 54.684 32.8139 54.0569 32.6945C53.4596 32.575 52.8175 32.5153 52.1306 32.5153H48.4572V27.05H50.921C51.6975 27.05 52.3994 26.9753 53.0265 26.826C53.6537 26.6468 54.1763 26.4079 54.5944 26.1093C55.0424 25.7807 55.3858 25.3925 55.6248 24.9445C55.8637 24.4667 55.9831 23.9291 55.9831 23.3318C55.9831 22.4359 55.789 21.7341 55.4008 21.2264C55.0125 20.6888 54.475 20.3005 53.7881 20.0616C53.1012 19.8227 52.3098 19.7032 51.4138 19.7032C50.5776 19.7032 49.7862 19.8376 49.0396 20.1064C48.3228 20.3453 47.7255 20.7037 47.2477 21.1816C46.7698 21.6594 46.4563 22.2418 46.3069 22.9287H40.0801C40.2593 21.3159 40.6923 19.9422 41.3792 18.8073C42.0661 17.6426 42.9471 16.6869 44.0223 15.9403C45.0974 15.1936 46.292 14.6561 47.606 14.3276C48.95 13.9692 50.3387 13.79 51.7722 13.79C53.146 13.79 54.46 13.9393 55.7144 14.238C56.9687 14.5366 58.0886 15.0294 59.0742 15.7163C60.0896 16.3733 60.8959 17.2543 61.4932 18.3593C62.0905 19.4643 62.3892 20.7933 62.3892 22.3463C62.3892 23.302 62.2249 24.1979 61.8964 25.0341C61.5977 25.8703 61.1498 26.617 60.5525 27.274C59.985 27.9012 59.3131 28.4238 58.5366 28.8419C59.7013 29.1704 60.657 29.708 61.4036 30.4546C62.1502 31.2012 62.7027 32.0822 63.0611 33.0976C63.4494 34.113 63.6435 35.2031 63.6435 36.3678C63.6435 38.2792 63.2851 39.877 62.5683 41.1612C61.8815 42.4155 60.9556 43.4159 59.7909 44.1626C58.6262 44.8793 57.342 45.402 55.9383 45.7305C54.5347 46.0291 53.131 46.1784 51.7274 46.1784ZM77.8568 46.1784C76.3337 46.1784 74.8703 45.9993 73.4667 45.6409C72.063 45.2825 70.7789 44.7151 69.6141 43.9386C68.4494 43.1621 67.4788 42.1766 66.7023 40.982C65.9258 39.7575 65.448 38.2941 65.2688 36.5918H71.63C71.8391 37.428 72.2422 38.1299 72.8395 38.6973C73.4667 39.2349 74.2133 39.6231 75.0794 39.862C75.9753 40.1009 76.9161 40.2204 77.9016 40.2204C78.5586 40.2204 79.2007 40.1607 79.8279 40.0412C80.4849 39.9218 81.0673 39.7127 81.575 39.4141C82.1126 39.1154 82.5307 38.7122 82.8293 38.2045C83.128 37.6968 83.2773 37.0547 83.2773 36.2782C83.2773 35.5615 83.1429 34.9642 82.8741 34.4864C82.6053 34.0085 82.247 33.6203 81.799 33.3216C81.351 33.023 80.8134 32.8139 80.1863 32.6945C79.589 32.575 78.9469 32.5153 78.26 32.5153H74.5866V27.05H77.0505C77.827 27.05 78.5288 26.9753 79.1559 26.826C79.7831 26.6468 80.3057 26.4079 80.7239 26.1093C81.1718 25.7807 81.5153 25.3925 81.7542 24.9445C81.9931 24.4667 82.1126 23.9291 82.1126 23.3318C82.1126 22.4359 81.9184 21.7341 81.5302 21.2264C81.142 20.6888 80.6044 20.3005 79.9175 20.0616C79.2306 19.8227 78.4392 19.7032 77.5432 19.7032C76.707 19.7032 75.9156 19.8376 75.169 20.1064C74.4522 20.3453 73.8549 20.7037 73.3771 21.1816C72.8993 21.6594 72.5857 22.2418 72.4364 22.9287H66.2095C66.3887 21.3159 66.8218 19.9422 67.5086 18.8073C68.1955 17.6426 69.0766 16.6869 70.1517 15.9403C71.2268 15.1936 72.4214 14.6561 73.7355 14.3276C75.0794 13.9692 76.4681 13.79 77.9016 13.79C79.2754 13.79 80.5895 13.9393 81.8438 14.238C83.0981 14.5366 84.218 15.0294 85.2036 15.7163C86.219 16.3733 87.0253 17.2543 87.6226 18.3593C88.2199 19.4643 88.5186 20.7933 88.5186 22.3463C88.5186 23.302 88.3543 24.1979 88.0258 25.0341C87.7272 25.8703 87.2792 26.617 86.6819 27.274C86.1145 27.9012 85.4425 28.4238 84.666 28.8419C85.8307 29.1704 86.7864 29.708 87.533 30.4546C88.2797 31.2012 88.8322 32.0822 89.1905 33.0976C89.5788 34.113 89.7729 35.2031 89.7729 36.3678C89.7729 38.2792 89.4145 39.877 88.6978 41.1612C88.0109 42.4155 87.0851 43.4159 85.9203 44.1626C84.7556 44.8793 83.4714 45.402 82.0678 45.7305C80.6641 46.0291 79.2605 46.1784 77.8568 46.1784Z" fill="black"/>
<rect x="5.27051" y="59.7297" width="119.459" height="49.1892" rx="3.51351" fill="#E67A11"/>
<path d="M22.3125 100.324V77.0745H16.0857V72.2364C17.3102 72.2066 18.4152 72.102 19.4007 71.9229C20.3863 71.7138 21.2673 71.3554 22.0438 70.8477C22.8202 70.3101 23.4922 69.5635 24.0596 68.6079H28.7186V100.324H22.3125ZM46.3529 100.683C44.0235 100.683 42.0524 100.265 40.4397 99.4284C38.827 98.5922 37.5129 97.4424 36.4975 95.979C35.4821 94.4858 34.7504 92.7685 34.3025 90.8273C33.8545 88.8562 33.6305 86.7657 33.6305 84.5557C33.6305 82.286 33.8545 80.1656 34.3025 78.1945C34.7803 76.2234 35.5269 74.4912 36.5423 72.998C37.5876 71.5047 38.9166 70.34 40.5293 69.5038C42.1719 68.6676 44.1429 68.2495 46.4425 68.2495C48.8317 68.2495 50.8327 68.6825 52.4454 69.5486C54.0879 70.4147 55.402 71.6242 56.3875 73.1772C57.4029 74.7003 58.1197 76.4324 58.5378 78.3737C58.9858 80.3149 59.2098 82.3457 59.2098 84.4661C59.2098 86.6462 58.9858 88.7069 58.5378 90.6481C58.0898 92.5893 57.3731 94.3215 56.3875 95.8446C55.402 97.3379 54.0879 98.5175 52.4454 99.3836C50.8028 100.25 48.772 100.683 46.3529 100.683ZM46.3529 94.7695C47.8163 94.7695 48.9661 94.441 49.8023 93.7839C50.6684 93.097 51.3105 92.216 51.7286 91.1409C52.1766 90.0658 52.4603 88.9458 52.5798 87.7811C52.7291 86.5865 52.8038 85.4815 52.8038 84.4661C52.8038 83.5104 52.7291 82.4502 52.5798 81.2855C52.4603 80.0909 52.1915 78.971 51.7734 77.9257C51.3553 76.8506 50.7282 75.9695 49.8919 75.2827C49.0557 74.5958 47.9209 74.2523 46.4873 74.2523C45.0538 74.2523 43.904 74.5958 43.0379 75.2827C42.1719 75.9397 41.5148 76.8058 41.0669 77.8809C40.6488 78.956 40.365 80.076 40.2157 81.2407C40.0664 82.4054 39.9917 83.4806 39.9917 84.4661C39.9917 85.4516 40.0515 86.5417 40.1709 87.7363C40.3202 88.9309 40.604 90.0658 41.0221 91.1409C41.4402 92.216 42.0673 93.097 42.9036 93.7839C43.7696 94.441 44.9194 94.7695 46.3529 94.7695ZM73.7759 100.683C72.2827 100.683 70.8342 100.518 69.4306 100.19C68.0269 99.8316 66.7427 99.2791 65.578 98.5324C64.4431 97.756 63.5322 96.7406 62.8454 95.4862C62.1883 94.2319 61.8598 92.7237 61.8598 90.9617C61.8598 89.797 62.0241 88.7517 62.3526 87.8259C62.711 86.8702 63.2187 86.034 63.8757 85.3172C64.5626 84.5706 65.3839 83.9733 66.3395 83.5254C65.5332 83.0177 64.8762 82.4204 64.3685 81.7335C63.8608 81.0167 63.4874 80.2402 63.2485 79.404C63.0096 78.5678 62.8901 77.7166 62.8901 76.8506C62.8901 75.2677 63.2037 73.9387 63.8309 72.8636C64.4581 71.7586 65.2943 70.8776 66.3395 70.2206C67.3848 69.5337 68.5645 69.0409 69.8785 68.7422C71.1926 68.4137 72.5216 68.2495 73.8655 68.2495C75.2393 68.2495 76.5683 68.4137 77.8524 68.7422C79.1366 69.0409 80.3014 69.5486 81.3466 70.2654C82.3919 70.9522 83.2281 71.8631 83.8553 72.998C84.4824 74.103 84.796 75.4469 84.796 77.0297C84.796 77.8361 84.6616 78.6574 84.3929 79.4936C84.1539 80.2999 83.7657 81.0466 83.2281 81.7335C82.7204 82.4204 82.0634 83.0027 81.257 83.4806C82.2127 83.8987 83.034 84.4661 83.7209 85.1829C84.4078 85.8996 84.9304 86.7508 85.2888 87.7363C85.6472 88.7218 85.8264 89.8268 85.8264 91.0513C85.8264 92.8133 85.4829 94.3066 84.796 95.531C84.1091 96.7555 83.1833 97.756 82.0186 98.5324C80.8539 99.2791 79.5547 99.8316 78.1212 100.19C76.7176 100.518 75.2691 100.683 73.7759 100.683ZM73.8207 94.9039C74.4777 94.9039 75.1347 94.8292 75.7918 94.6799C76.4488 94.5306 77.0461 94.2916 77.5837 93.9631C78.1212 93.6047 78.5393 93.1717 78.838 92.664C79.1665 92.1264 79.3308 91.4694 79.3308 90.6929C79.3308 89.7372 79.0918 88.9608 78.614 88.3635C78.1362 87.7363 77.4791 87.2734 76.6429 86.9747C75.8366 86.6462 74.8958 86.482 73.8207 86.482C72.7754 86.482 71.8197 86.6462 70.9537 86.9747C70.1174 87.2734 69.4604 87.7363 68.9826 88.3635C68.5047 88.9608 68.2658 89.7372 68.2658 90.6929C68.2658 91.4694 68.4301 92.1264 68.7586 92.664C69.0871 93.1717 69.5052 93.6047 70.0129 93.9631C70.5505 94.2916 71.1478 94.5306 71.8048 94.6799C72.4618 94.8292 73.1338 94.9039 73.8207 94.9039ZM73.8655 81.5991C74.8212 81.5991 75.6275 81.4497 76.2845 81.1511C76.9714 80.8226 77.4941 80.3746 77.8524 79.8072C78.2407 79.2099 78.4348 78.5529 78.4348 77.8361C78.4348 76.9402 78.2407 76.2085 77.8524 75.641C77.4642 75.0437 76.9117 74.5958 76.1949 74.2971C75.5081 73.9686 74.6868 73.8043 73.7311 73.8043C72.8053 73.8043 71.9989 73.9686 71.312 74.2971C70.655 74.5958 70.1324 75.0288 69.7441 75.5962C69.3858 76.1637 69.2066 76.8506 69.2066 77.6569C69.2066 78.4633 69.4007 79.1651 69.7889 79.7624C70.1772 80.3597 70.7147 80.8226 71.4016 81.1511C72.1184 81.4497 72.9397 81.5991 73.8655 81.5991ZM100.43 100.683C98.937 100.683 97.4886 100.518 96.085 100.19C94.6813 99.8316 93.3971 99.2791 92.2324 98.5324C91.0975 97.756 90.1866 96.7406 89.4997 95.4862C88.8427 94.2319 88.5142 92.7237 88.5142 90.9617C88.5142 89.797 88.6785 88.7517 89.007 87.8259C89.3654 86.8702 89.8731 86.034 90.5301 85.3172C91.217 84.5706 92.0383 83.9733 92.9939 83.5254C92.1876 83.0177 91.5306 82.4204 91.0229 81.7335C90.5152 81.0167 90.1418 80.2402 89.9029 79.404C89.664 78.5678 89.5445 77.7166 89.5445 76.8506C89.5445 75.2677 89.8581 73.9387 90.4853 72.8636C91.1125 71.7586 91.9487 70.8776 92.9939 70.2206C94.0392 69.5337 95.2189 69.0409 96.5329 68.7422C97.847 68.4137 99.176 68.2495 100.52 68.2495C101.894 68.2495 103.223 68.4137 104.507 68.7422C105.791 69.0409 106.956 69.5486 108.001 70.2654C109.046 70.9522 109.883 71.8631 110.51 72.998C111.137 74.103 111.45 75.4469 111.45 77.0297C111.45 77.8361 111.316 78.6574 111.047 79.4936C110.808 80.2999 110.42 81.0466 109.883 81.7335C109.375 82.4204 108.718 83.0027 107.911 83.4806C108.867 83.8987 109.688 84.4661 110.375 85.1829C111.062 85.8996 111.585 86.7508 111.943 87.7363C112.302 88.7218 112.481 89.8268 112.481 91.0513C112.481 92.8133 112.137 94.3066 111.45 95.531C110.764 96.7555 109.838 97.756 108.673 98.5324C107.508 99.2791 106.209 99.8316 104.776 100.19C103.372 100.518 101.924 100.683 100.43 100.683ZM100.475 94.9039C101.132 94.9039 101.789 94.8292 102.446 94.6799C103.103 94.5306 103.7 94.2916 104.238 93.9631C104.776 93.6047 105.194 93.1717 105.492 92.664C105.821 92.1264 105.985 91.4694 105.985 90.6929C105.985 89.7372 105.746 88.9608 105.268 88.3635C104.791 87.7363 104.134 87.2734 103.297 86.9747C102.491 86.6462 101.55 86.482 100.475 86.482C99.4298 86.482 98.4741 86.6462 97.6081 86.9747C96.7718 87.2734 96.1148 87.7363 95.637 88.3635C95.1591 88.9608 94.9202 89.7372 94.9202 90.6929C94.9202 91.4694 95.0845 92.1264 95.413 92.664C95.7415 93.1717 96.1596 93.6047 96.6673 93.9631C97.2049 94.2916 97.8022 94.5306 98.4592 94.6799C99.1162 94.8292 99.7882 94.9039 100.475 94.9039ZM100.52 81.5991C101.476 81.5991 102.282 81.4497 102.939 81.1511C103.626 80.8226 104.148 80.3746 104.507 79.8072C104.895 79.2099 105.089 78.5529 105.089 77.8361C105.089 76.9402 104.895 76.2085 104.507 75.641C104.119 75.0437 103.566 74.5958 102.849 74.2971C102.162 73.9686 101.341 73.8043 100.385 73.8043C99.4597 73.8043 98.6533 73.9686 97.9664 74.2971C97.3094 74.5958 96.7868 75.0288 96.3985 75.5962C96.0402 76.1637 95.861 76.8506 95.861 77.6569C95.861 78.4633 96.0551 79.1651 96.4433 79.7624C96.8316 80.3597 97.3691 80.8226 98.056 81.1511C98.7728 81.4497 99.5941 81.5991 100.52 81.5991Z" fill="black"/>
</svg>
