<svg width="310" height="160" viewBox="0 0 310 160" fill="none" xmlns="http://www.w3.org/2000/svg">
<g clip-path="url(#clip0_4_5340)">
<path d="M147.092 59.7573C148.639 59.7573 149.769 60.0909 150.48 60.7581C151.191 61.4198 151.546 62.3331 151.546 63.4979C151.546 64.0229 151.467 64.5261 151.308 65.0073C151.15 65.4831 150.89 65.9069 150.529 66.2788C150.173 66.6507 149.698 66.946 149.102 67.1647C148.506 67.378 147.77 67.4847 146.895 67.4847H145.804V71.7503H143.261V59.7573H147.092ZM146.961 61.8409H145.804V65.4011H146.641C147.117 65.4011 147.529 65.3382 147.879 65.2124C148.229 65.0866 148.5 64.8897 148.691 64.6218C148.883 64.3538 148.979 64.0093 148.979 63.5882C148.979 62.9976 148.814 62.5601 148.486 62.2757C148.158 61.9858 147.65 61.8409 146.961 61.8409Z" fill="black"/>
<path d="M140.785 65.7371C140.785 66.6613 140.671 67.5035 140.441 68.2637C140.211 69.0184 139.861 69.6691 139.391 70.216C138.926 70.7629 138.336 71.184 137.619 71.4793C136.903 71.7691 136.055 71.9141 135.076 71.9141C134.097 71.9141 133.25 71.7691 132.533 71.4793C131.817 71.184 131.224 70.7629 130.753 70.216C130.289 69.6691 129.941 69.0156 129.712 68.2555C129.482 67.4953 129.367 66.6504 129.367 65.7207C129.367 64.4793 129.57 63.3992 129.974 62.4805C130.384 61.5563 131.013 60.8398 131.861 60.3313C132.708 59.8227 133.786 59.5684 135.093 59.5684C136.394 59.5684 137.463 59.8227 138.3 60.3313C139.142 60.8398 139.766 61.5563 140.17 62.4805C140.58 63.4047 140.785 64.4902 140.785 65.7371ZM132.033 65.7371C132.033 66.5738 132.137 67.2957 132.345 67.9027C132.558 68.5043 132.889 68.9691 133.337 69.2973C133.786 69.6199 134.365 69.7812 135.076 69.7812C135.798 69.7812 136.383 69.6199 136.832 69.2973C137.28 68.9691 137.605 68.5043 137.808 67.9027C138.016 67.2957 138.12 66.5738 138.12 65.7371C138.12 64.4793 137.884 63.4895 137.414 62.7676C136.944 62.0457 136.17 61.6848 135.093 61.6848C134.376 61.6848 133.791 61.8488 133.337 62.177C132.889 62.4996 132.558 62.9645 132.345 63.5715C132.137 64.173 132.033 64.8949 132.033 65.7371Z" fill="black"/>
<path d="M124.784 71.7503H122.241V61.8737H118.984V59.7573H128.04V61.8737H124.784V71.7503Z" fill="black"/>
<path d="M117.985 68.4192C117.985 69.1302 117.813 69.7481 117.468 70.2731C117.124 70.7981 116.621 71.2028 115.959 71.4872C115.303 71.7716 114.504 71.9138 113.564 71.9138C113.148 71.9138 112.741 71.8864 112.342 71.8317C111.948 71.7771 111.568 71.6978 111.202 71.5938C110.841 71.4845 110.496 71.3505 110.168 71.1919V68.8294C110.737 69.081 111.327 69.3079 111.94 69.5103C112.552 69.7126 113.159 69.8138 113.761 69.8138C114.176 69.8138 114.51 69.7591 114.761 69.6497C115.019 69.5403 115.204 69.3899 115.319 69.1985C115.434 69.0071 115.492 68.7884 115.492 68.5423C115.492 68.2415 115.39 67.9845 115.188 67.7712C114.986 67.5579 114.707 67.3583 114.351 67.1724C114.001 66.9864 113.605 66.7868 113.162 66.5735C112.883 66.4423 112.58 66.2837 112.251 66.0978C111.923 65.9063 111.612 65.6739 111.316 65.4005C111.021 65.1271 110.778 64.7962 110.586 64.4079C110.4 64.0142 110.307 63.5438 110.307 62.997C110.307 62.2806 110.471 61.6681 110.8 61.1595C111.128 60.6509 111.595 60.2626 112.202 59.9946C112.815 59.7212 113.537 59.5845 114.368 59.5845C114.991 59.5845 115.585 59.6583 116.148 59.806C116.716 59.9481 117.31 60.156 117.928 60.4294L117.107 62.4063C116.555 62.1821 116.06 62.0099 115.623 61.8896C115.185 61.7638 114.74 61.7009 114.286 61.7009C113.969 61.7009 113.698 61.7528 113.474 61.8567C113.249 61.9552 113.08 62.0974 112.965 62.2833C112.85 62.4638 112.793 62.6743 112.793 62.9149C112.793 63.1993 112.875 63.4399 113.039 63.6368C113.208 63.8282 113.46 64.0142 113.794 64.1946C114.133 64.3751 114.554 64.5856 115.057 64.8263C115.669 65.1161 116.192 65.4196 116.624 65.7368C117.061 66.0485 117.397 66.4177 117.632 66.8442C117.868 67.2653 117.985 67.7903 117.985 68.4192Z" fill="black"/>
<path d="M152.436 99.9499L151.566 97.0952H147.194L146.325 99.9499H143.585L147.818 87.9077H150.926L155.175 99.9499H152.436ZM150.959 94.9624L150.09 92.1733C150.035 91.9874 149.961 91.7495 149.868 91.4597C149.781 91.1644 149.691 90.8663 149.598 90.5655C149.51 90.2593 149.439 89.994 149.384 89.7698C149.33 89.994 149.253 90.2729 149.155 90.6065C149.062 90.9347 148.971 91.2464 148.884 91.5417C148.796 91.837 148.734 92.0476 148.695 92.1733L147.834 94.9624H150.959Z" fill="black"/>
<path d="M143.252 97.932V103.445H140.8V99.95H131.974V87.957H134.516V97.8336H138.93V87.957H141.464V97.932H143.252Z" fill="black"/>
<path d="M129.466 99.95H122.559V87.957H129.466V90.0406H125.102V92.6738H129.162V94.7574H125.102V97.85H129.466V99.95Z" fill="black"/>
<path d="M119.099 87.957V97.8336H120.698V103.445H118.246V99.95H110.732V103.445H108.279V97.8336H109.206C109.518 97.2102 109.819 96.5512 110.109 95.8566C110.398 95.1621 110.669 94.4156 110.921 93.6172C111.172 92.8188 111.399 91.952 111.601 91.0168C111.804 90.0816 111.973 89.0617 112.11 87.957H119.099ZM116.564 90.0734H114.128C114.046 90.6531 113.934 91.2711 113.792 91.9273C113.649 92.5836 113.48 93.2535 113.283 93.9371C113.092 94.6152 112.876 95.2852 112.635 95.9469C112.4 96.6086 112.148 97.2375 111.88 97.8336H116.564V90.0734Z" fill="black"/>
<path d="M224.9 113.6V46.5499C224.9 44.3131 223.087 42.4999 220.85 42.4999H152.454V40.3999H220.85C224.247 40.3999 227 43.1534 227 46.5499V113.6C227 116.996 224.247 119.75 220.85 119.75H152.454V117.65H220.85C223.087 117.65 224.9 115.837 224.9 113.6Z" fill="black"/>
<path d="M164.896 79.9999C164.896 60.3662 148.981 44.4499 129.348 44.4499C109.715 44.4499 93.7995 60.3662 93.7995 79.9999C93.7995 99.6336 109.715 115.55 129.348 115.55C148.981 115.55 164.896 99.6336 164.896 79.9999ZM175.696 79.9999C175.696 105.598 154.945 126.35 129.348 126.35C103.751 126.35 83 105.598 83 79.9999C83 54.4015 103.751 33.6499 129.348 33.6499C154.945 33.6499 175.696 54.4015 175.696 79.9999Z" fill="#D9251C"/>
<path d="M156.793 75.6499C159.03 75.6499 160.843 77.4631 160.843 79.6999C160.843 81.9367 159.03 83.7499 156.793 83.7499H101.896C99.6594 83.7499 97.8462 81.9367 97.8462 79.6999C97.8462 77.4631 99.6594 75.6499 101.896 75.6499H156.793Z" fill="black"/>
<path d="M219.195 80C219.195 72.5418 217.949 65.8876 216.014 61.1759C215.044 58.815 213.942 57.0429 212.826 55.8939C211.717 54.7515 210.727 54.35 209.896 54.35C209.064 54.35 208.074 54.7515 206.965 55.8939C205.849 57.0429 204.747 58.815 203.777 61.1759C201.842 65.8876 200.596 72.5418 200.596 80C200.596 87.4582 201.842 94.1124 203.777 98.8241C204.747 101.185 205.849 102.957 206.965 104.106C208.074 105.249 209.064 105.65 209.896 105.65V107.75C203.6 107.75 198.496 95.3259 198.496 80C198.496 64.6741 203.6 52.25 209.896 52.25C216.191 52.25 221.295 64.6741 221.295 80C221.295 95.3259 216.191 107.75 209.896 107.75V105.65C210.727 105.65 211.717 105.249 212.826 104.106C213.942 102.957 215.044 101.185 216.014 98.8241C217.949 94.1124 219.195 87.4582 219.195 80Z" fill="black"/>
</g>
<defs>
<clipPath id="clip0_4_5340">
<path d="M0 0H310V160H0V0Z" fill="white"/>
</clipPath>
</defs>
</svg>
