<svg width="1266" height="124" viewBox="0 0 1266 124" fill="none" xmlns="http://www.w3.org/2000/svg">
<rect width="1266" height="124" rx="20" fill="#0D9059"/>
<path d="M54 82V46.384H40.224V42.8H71.92V46.384H58.144V82H54ZM87.1818 82.28C84.3444 82.28 81.7871 81.6453 79.5098 80.376C77.2697 79.0693 75.4964 77.296 74.1897 75.056C72.8831 72.7787 72.2297 70.184 72.2297 67.272C72.2297 64.3227 72.8831 61.728 74.1897 59.488C75.4964 57.248 77.2697 55.4933 79.5098 54.224C81.7498 52.9547 84.3071 52.32 87.1818 52.32C90.0938 52.32 92.6698 52.9547 94.9098 54.224C97.1871 55.4933 98.9604 57.248 100.23 59.488C101.536 61.728 102.19 64.3227 102.19 67.272C102.19 70.184 101.536 72.7787 100.23 75.056C98.9604 77.296 97.1871 79.0693 94.9098 80.376C92.6324 81.6453 90.0564 82.28 87.1818 82.28ZM87.1818 78.752C89.3098 78.752 91.1951 78.2853 92.8378 77.352C94.4804 76.3813 95.7684 75.0373 96.7018 73.32C97.6724 71.5653 98.1577 69.5493 98.1577 67.272C98.1577 64.9573 97.6724 62.9413 96.7018 61.224C95.7684 59.5067 94.4804 58.1813 92.8378 57.248C91.1951 56.2773 89.3284 55.792 87.2378 55.792C85.1471 55.792 83.2804 56.2773 81.6378 57.248C79.9951 58.1813 78.6884 59.5067 77.7177 61.224C76.7471 62.9413 76.2617 64.9573 76.2617 67.272C76.2617 69.5493 76.7471 71.5653 77.7177 73.32C78.6884 75.0373 79.9951 76.3813 81.6378 77.352C83.2804 78.2853 85.1284 78.752 87.1818 78.752ZM126.043 82.28C123.504 82.28 121.208 81.7013 119.155 80.544C117.102 79.3493 115.459 77.6507 114.227 75.448C113.032 73.208 112.435 70.4827 112.435 67.272C112.435 64.0613 113.032 61.3547 114.227 59.152C115.422 56.912 117.046 55.2133 119.099 54.056C121.152 52.8987 123.467 52.32 126.043 52.32C128.843 52.32 131.344 52.9547 133.547 54.224C135.787 55.456 137.542 57.2107 138.811 59.488C140.08 61.728 140.715 64.3227 140.715 67.272C140.715 70.2587 140.08 72.872 138.811 75.112C137.542 77.352 135.787 79.1067 133.547 80.376C131.344 81.6453 128.843 82.28 126.043 82.28ZM110.867 92.864V52.6H114.675V61.448L114.283 67.328L114.843 73.264V92.864H110.867ZM125.763 78.752C127.854 78.752 129.72 78.2853 131.363 77.352C133.006 76.3813 134.312 75.0373 135.283 73.32C136.254 71.5653 136.739 69.5493 136.739 67.272C136.739 64.9947 136.254 62.9973 135.283 61.28C134.312 59.5627 133.006 58.2187 131.363 57.248C129.72 56.2773 127.854 55.792 125.763 55.792C123.672 55.792 121.787 56.2773 120.107 57.248C118.464 58.2187 117.158 59.5627 116.187 61.28C115.254 62.9973 114.787 64.9947 114.787 67.272C114.787 69.5493 115.254 71.5653 116.187 73.32C117.158 75.0373 118.464 76.3813 120.107 77.352C121.787 78.2853 123.672 78.752 125.763 78.752ZM149.38 82V52.6H153.356V82H149.38ZM151.396 46.104C150.575 46.104 149.884 45.824 149.324 45.264C148.764 44.704 148.484 44.032 148.484 43.248C148.484 42.464 148.764 41.8107 149.324 41.288C149.884 40.728 150.575 40.448 151.396 40.448C152.218 40.448 152.908 40.7093 153.468 41.232C154.028 41.7547 154.308 42.408 154.308 43.192C154.308 44.0133 154.028 44.704 153.468 45.264C152.946 45.824 152.255 46.104 151.396 46.104ZM177.187 82.28C174.275 82.28 171.662 81.6453 169.347 80.376C167.07 79.0693 165.278 77.296 163.971 75.056C162.665 72.7787 162.011 70.184 162.011 67.272C162.011 64.3227 162.665 61.728 163.971 59.488C165.278 57.248 167.07 55.4933 169.347 54.224C171.662 52.9547 174.275 52.32 177.187 52.32C179.689 52.32 181.947 52.8053 183.963 53.776C185.979 54.7467 187.566 56.2027 188.723 58.144L185.755 60.16C184.747 58.6667 183.497 57.5653 182.003 56.856C180.51 56.1467 178.886 55.792 177.131 55.792C175.041 55.792 173.155 56.2773 171.475 57.248C169.795 58.1813 168.47 59.5067 167.499 61.224C166.529 62.9413 166.043 64.9573 166.043 67.272C166.043 69.5867 166.529 71.6027 167.499 73.32C168.47 75.0373 169.795 76.3813 171.475 77.352C173.155 78.2853 175.041 78.752 177.131 78.752C178.886 78.752 180.51 78.3973 182.003 77.688C183.497 76.9787 184.747 75.896 185.755 74.44L188.723 76.456C187.566 78.36 185.979 79.816 183.963 80.824C181.947 81.7947 179.689 82.28 177.187 82.28ZM210.126 68.56V65.088H224.798V68.56H210.126ZM246.109 82V79.144L262.405 63.184C263.899 61.728 265.019 60.4587 265.765 59.376C266.512 58.256 267.016 57.2107 267.277 56.24C267.539 55.2693 267.669 54.3547 267.669 53.496C267.669 51.2187 266.885 49.4267 265.317 48.12C263.787 46.8133 261.509 46.16 258.485 46.16C256.171 46.16 254.117 46.5147 252.325 47.224C250.571 47.9333 249.059 49.0347 247.789 50.528L244.933 48.064C246.464 46.272 248.424 44.8907 250.813 43.92C253.203 42.9493 255.872 42.464 258.821 42.464C261.472 42.464 263.768 42.8933 265.709 43.752C267.651 44.5733 269.144 45.7867 270.189 47.392C271.272 48.9973 271.813 50.8827 271.813 53.048C271.813 54.3173 271.627 55.568 271.253 56.8C270.917 58.032 270.283 59.3387 269.349 60.72C268.453 62.064 267.128 63.5947 265.373 65.312L250.421 79.984L249.301 78.416H273.605V82H246.109Z" fill="white"/>
</svg>
