<svg width="310" height="160" viewBox="0 0 310 160" fill="none" xmlns="http://www.w3.org/2000/svg">
<g clip-path="url(#clip0_4_3179)">
<path d="M0 0H310V160H0V0Z" fill="white"/>
<path d="M152.969 22.7847L153.181 22.7783C159.622 22.5899 164.42 23.0654 170.612 24.9934C182.273 28.6243 192.211 36.0433 199.176 46.0263C205.894 55.5642 209.591 66.9006 209.788 78.5655C210.333 93.9573 204.658 108.92 194.044 120.08C184.43 130.197 171.118 136.819 157.06 137.193C143.003 137.659 129.327 132.578 118.983 123.046C110.743 115.573 104.88 105.844 102.121 95.068C101.155 91.4359 100.414 87.2877 100.25 83.5182C100.039 79.0527 100.275 74.5774 100.957 70.1592C102.715 59.3206 107.817 48.4715 115.272 40.3766C124.953 29.6714 138.546 23.3282 152.969 22.7847Z" fill="#EDECEA"/>
<path d="M152.948 15.542C160.225 15.3293 165.621 15.8663 172.597 18.0361C185.743 22.1253 196.948 30.4807 204.803 41.7285L204.804 41.7305C212.382 52.4791 216.552 65.2547 216.775 78.4004L216.776 78.4102C217.39 95.7536 210.989 112.615 199.018 125.189C188.17 136.593 173.159 144.046 157.329 144.467H157.326C141.479 144.991 126.061 139.269 114.4 128.534L114.397 128.532L113.534 127.735C104.695 119.426 98.3949 108.77 95.3804 97.0078L95.3794 97.0029L95.1772 96.2275C94.1861 92.3215 93.4421 87.9653 93.269 83.9941V83.9922L93.23 83.0479C93.0653 78.3243 93.3446 73.5944 94.0659 68.9219C96.0504 56.7078 101.809 44.4818 110.211 35.3662L110.214 35.3623C121.127 23.3073 136.449 16.1632 152.706 15.5498L152.707 15.5508L152.949 15.543L152.948 15.542Z" fill="#DFD51A" stroke="black"/>
<path d="M153.072 25.1066C166.365 24.588 179.333 29.2896 189.205 38.2066C200.144 48.141 206.686 62.0166 207.39 76.7776C208.315 91.6153 203.277 106.208 193.396 117.315C186.287 125.2 176.935 131.031 166.565 133.502C163.356 134.267 160.176 134.607 156.888 134.779C143.797 135.228 131.034 130.627 121.24 121.927C109.806 111.882 103.528 98.3241 102.556 83.2145C101.651 68.4658 106.564 53.9503 116.241 42.784C123.272 34.738 132.612 29.0546 142.989 26.5077C146.414 25.6964 149.575 25.3303 153.072 25.1066Z" fill="#CB0E0C"/>
<path d="M153.173 36.0088C163.727 35.4331 174.198 39.4571 182.047 46.4671C190.948 54.4163 196.142 66.084 196.769 77.9512C197.359 89.6885 193.252 101.178 185.355 109.88C178.945 117.094 170.217 121.843 160.679 123.31C159.373 123.498 158.208 123.564 156.888 123.633C146.196 124.133 135.745 120.355 127.843 113.134C119.093 105.347 113.807 94.3939 113.152 82.6984C112.465 70.5607 116.644 58.6498 124.763 49.6028C132.072 41.5053 142.282 36.6201 153.173 36.0088Z" fill="#EDECEA"/>
<path d="M168.631 54.3876C179.279 53.7088 181.635 64.7015 182.403 73.0879C183.135 81.0826 182.835 90.3322 180.353 97.986C178.893 102.488 175.6 105.8 170.753 106.251C168.211 106.503 165.38 105.773 163.353 104.207C162.354 103.434 161.43 102.475 160.733 101.42C158.624 98.2266 157.718 93.6102 157.253 89.8794C156.219 81.5889 156.138 65.1565 161.471 58.3705C163.315 56.0222 165.67 54.7337 168.631 54.3876Z" fill="#080B0A"/>
<path d="M169.279 62.3822C169.963 62.337 170.583 62.4115 171.183 62.7682C172.491 63.5461 172.996 65.2923 173.326 66.6746C174.638 72.1667 175.306 91.9603 172.386 96.6554C171.828 97.552 171.131 98.0474 170.103 98.2893C169.441 98.3712 168.777 98.2473 168.207 97.8926C166.809 97.0225 166.247 95.0932 165.924 93.5851C164.742 88.0663 164.097 68.3726 167.105 63.7998C167.637 62.9919 168.342 62.5698 169.279 62.3822Z" fill="#EDECEA"/>
<path d="M139.349 55.364L151.231 55.3174C151.174 58.0732 151.214 60.9246 151.203 63.6898C146.563 63.7799 141.825 63.636 137.196 63.7563C136.762 66.4966 136.568 69.3288 136.262 72.0867C136.202 72.6321 136.168 73.1586 136.076 73.7017C137.563 72.8297 138.613 72.2381 140.375 72.0269C142.941 71.7196 145.544 72.5203 147.547 74.125C150.716 76.6652 152.283 80.9414 152.704 84.8825C153.337 90.8012 152.626 97.2934 148.798 102.092C146.916 104.451 144.162 105.88 141.192 106.165C137.833 106.488 134.599 105.777 131.956 103.633C131.908 103.593 131.861 103.553 131.815 103.511C128.628 100.674 127.162 96.698 126.912 92.5196C129.429 92.0603 132.166 91.5675 134.685 91.1611C134.74 91.5985 134.808 92.0345 134.886 92.468C135.248 94.4017 135.819 96.5909 137.56 97.7616C138.413 98.3267 139.454 98.5318 140.458 98.3331C145.237 97.3411 145.064 88.256 144.291 84.5264C143.704 81.6929 141.636 78.978 138.433 79.7765C136.41 80.2809 135.496 81.4942 134.473 83.1571C132.257 82.7855 129.869 82.2392 127.647 81.7883C127.814 81.0807 127.929 79.7552 128.011 79.0134C128.174 77.5356 128.345 76.0585 128.525 74.5824L130.692 55.4001L139.349 55.364Z" fill="#080B0A"/>
</g>
<defs>
<clipPath id="clip0_4_3179">
<path d="M0 0H310V160H0V0Z" fill="white"/>
</clipPath>
</defs>
</svg>
