<svg width="310" height="160" viewBox="0 0 310 160" fill="none" xmlns="http://www.w3.org/2000/svg">
<g clip-path="url(#clip0_4_2911)">
<path d="M0 0H310V160H0V0Z" fill="white"/>
<g clip-path="url(#clip1_4_2911)">
<path d="M91.9868 84.0239L151.058 143.095C153.283 145.32 156.889 145.32 159.114 143.095L218.185 84.0239C220.409 81.7995 220.409 78.193 218.185 75.9687L159.114 16.8971C156.889 14.6727 153.283 14.6727 151.058 16.8971L91.9868 75.9687C89.7624 78.193 89.7624 81.7995 91.9868 84.0239Z" fill="white" fill-opacity="0.969697" stroke="black" stroke-width="0.548021" stroke-miterlimit="10" stroke-linecap="square"/>
<path d="M93.3293 82.6809L152.401 141.752C153.884 143.235 156.288 143.235 157.771 141.752L216.843 82.6809C218.325 81.1979 218.325 78.7937 216.843 77.3107L157.771 18.2392C156.288 16.7562 153.884 16.7562 152.401 18.2392L93.3293 77.3107C91.8464 78.7937 91.8464 81.1979 93.3293 82.6809Z" fill="black" fill-opacity="0.89899"/>
<path d="M94.75 79.9965C94.75 80.3201 94.874 80.6436 95.1219 80.8915L154.193 139.963C154.689 140.459 155.488 140.459 155.983 139.963L215.055 80.8915C215.551 80.3957 215.551 79.5973 215.055 79.1015L155.983 20.0299C155.488 19.5341 154.689 19.5341 154.193 20.0299L95.1219 79.1015C94.874 79.3494 94.75 79.673 94.75 79.9965Z" fill="white"/>
<path d="M154.721 38.246L112.891 80.0766L154.721 121.907L196.552 80.0766L154.721 38.246Z" fill="black"/>
<path d="M154.718 41.8271L116.469 80.0766L154.718 118.326L192.968 80.0767L154.718 41.8271Z" fill="#FFF500"/>
</g>
</g>
<defs>
<clipPath id="clip0_4_2911">
<path d="M0 0H310V160H0V0Z" fill="white"/>
</clipPath>
<clipPath id="clip1_4_2911">
<rect width="130" height="130" fill="white" transform="translate(90 15)"/>
</clipPath>
</defs>
</svg>
