<svg width="310" height="160" viewBox="0 0 310 160" fill="none" xmlns="http://www.w3.org/2000/svg">
<g clip-path="url(#clip0_4_3210)">
<path d="M0 0H310V160H0V0Z" fill="white"/>
<g clip-path="url(#clip1_4_3210)">
<path d="M161.731 18.9673C160.412 16.69 157.831 15.2654 155 15.2654C152.117 15.2654 149.535 16.7679 148.191 19.0885L82.4198 132.654C81.0082 135.091 80.7992 138.161 82.3092 140.768C83.7507 143.257 86.3468 144.735 89.0351 144.735H220.965C223.653 144.735 226.249 143.257 227.691 140.768C229.201 138.161 228.992 135.091 227.58 132.654L161.731 18.9673Z" fill="#FFE51A" stroke="black" stroke-width="0.359678" stroke-miterlimit="2" stroke-linecap="round" stroke-linejoin="round"/>
<path d="M155.004 17.7202C153.049 17.7202 151.351 18.7425 150.496 20.2186L84.726 133.782C83.7414 135.482 83.6106 137.509 84.6151 139.243C85.5927 140.931 87.3248 141.88 89.0345 141.88H220.968C222.677 141.88 224.409 140.931 225.387 139.243C226.392 137.509 226.261 135.482 225.276 133.782L159.429 20.097C158.621 18.7024 156.94 17.7202 155.004 17.7202ZM205.381 127.73H104.622L154.998 40.747L205.381 127.73Z" fill="#DD2414"/>
<path d="M155.013 120.979C167.201 120.979 177.081 111.13 177.081 98.9816C177.081 86.8329 167.201 76.9844 155.013 76.9844C142.825 76.9844 132.945 86.8329 132.945 98.9816C132.945 111.13 142.825 120.979 155.013 120.979Z" fill="black"/>
</g>
</g>
<defs>
<clipPath id="clip0_4_3210">
<path d="M0 0H310V160H0V0Z" fill="white"/>
</clipPath>
<clipPath id="clip1_4_3210">
<rect width="148" height="130" fill="white" transform="translate(81 15)"/>
</clipPath>
</defs>
</svg>
