<svg width="310" height="160" viewBox="0 0 310 160" fill="none" xmlns="http://www.w3.org/2000/svg">
<g clip-path="url(#clip0_4_3154)">
<path d="M0 0H310V160H0V0Z" fill="white"/>
<g clip-path="url(#clip1_4_3154)">
<path d="M161.723 19.0016C160.404 16.7256 157.825 15.3018 154.995 15.3018C152.113 15.3018 149.533 16.8034 148.189 19.1228L82.4504 132.624C81.0396 135.06 80.8307 138.128 82.34 140.734C83.7807 143.221 86.3756 144.698 89.0625 144.698H220.927C223.614 144.698 226.209 143.221 227.649 140.734C229.159 138.128 228.95 135.06 227.539 132.624L161.723 19.0016Z" fill="white" stroke="black" stroke-width="0.719" stroke-miterlimit="2" stroke-linecap="round" stroke-linejoin="round"/>
<path d="M155 17.7559C153.046 17.7559 151.348 18.7776 150.494 20.2528L84.7568 133.752C83.7727 135.451 83.642 137.477 84.646 139.21C85.6231 140.897 87.3544 141.845 89.0632 141.845H220.931C222.64 141.845 224.371 140.897 225.348 139.21C226.352 137.477 226.221 135.451 225.237 133.752L159.423 20.1313C158.615 18.7374 156.935 17.7559 155 17.7559ZM205.351 127.703H104.643L154.994 40.7696L205.351 127.703Z" fill="#DD2414"/>
<path fill-rule="evenodd" clip-rule="evenodd" d="M156.858 77.5137C156.844 77.5139 156.83 77.5198 156.82 77.53C156.81 77.5403 156.805 77.5541 156.805 77.5684V89.5668C156.805 89.5775 156.808 89.5881 156.813 89.5971L161.368 96.5373V121.112C161.368 121.126 161.374 121.139 161.385 121.149C161.395 121.159 161.409 121.165 161.423 121.165H169.094C169.108 121.165 169.121 121.159 169.131 121.149C169.141 121.139 169.147 121.126 169.147 121.112V96.5214C169.147 96.5107 169.144 96.5002 169.139 96.4912L164.536 89.551V77.5684C164.536 77.5612 164.535 77.554 164.532 77.5474C164.529 77.5407 164.525 77.5346 164.52 77.5295C164.515 77.5244 164.509 77.5204 164.502 77.5177C164.496 77.515 164.489 77.5136 164.481 77.5137H156.858Z" fill="black"/>
<path fill-rule="evenodd" clip-rule="evenodd" d="M143.132 77.5107C143.117 77.511 143.104 77.5168 143.094 77.5271C143.083 77.5374 143.078 77.5511 143.078 77.5655V121.111C143.078 121.126 143.084 121.139 143.094 121.149C143.104 121.159 143.117 121.165 143.132 121.165H150.719C150.733 121.165 150.747 121.159 150.757 121.149C150.767 121.139 150.773 121.126 150.773 121.111V77.5655C150.774 77.5583 150.772 77.5511 150.769 77.5444C150.767 77.5378 150.763 77.5317 150.758 77.5266C150.752 77.5215 150.746 77.5175 150.74 77.5147C150.733 77.512 150.726 77.5107 150.719 77.5107H143.132Z" fill="black"/>
</g>
</g>
<defs>
<clipPath id="clip0_4_3154">
<path d="M0 0H310V160H0V0Z" fill="white"/>
</clipPath>
<clipPath id="clip1_4_3154">
<rect width="148" height="130" fill="white" transform="translate(81 15)"/>
</clipPath>
</defs>
</svg>
