<svg width="310" height="160" viewBox="0 0 310 160" fill="none" xmlns="http://www.w3.org/2000/svg">
<g clip-path="url(#clip0_4_3204)">
<path d="M0 0H310V160H0V0Z" fill="white"/>
<g clip-path="url(#clip1_4_3204)">
<path d="M161.73 19.0016C160.412 16.7256 157.832 15.3018 155.002 15.3018C152.121 15.3018 149.541 16.8034 148.197 19.1228L82.4583 132.624C81.0474 135.06 80.8385 138.128 82.3478 140.734C83.7885 143.221 86.3834 144.698 89.0703 144.698H220.935C223.622 144.698 226.216 143.221 227.657 140.734C229.167 138.128 228.958 135.06 227.547 132.624L161.73 19.0016Z" fill="white" stroke="black" stroke-width="0.719" stroke-miterlimit="2" stroke-linecap="round" stroke-linejoin="round"/>
<path d="M155 17.7559C153.046 17.7559 151.348 18.7776 150.494 20.2528L84.7568 133.752C83.7727 135.451 83.642 137.477 84.646 139.21C85.6231 140.897 87.3544 141.845 89.0632 141.845H220.931C222.64 141.845 224.371 140.897 225.348 139.21C226.352 137.477 226.221 135.451 225.237 133.752L159.423 20.1313C158.615 18.7374 156.935 17.7559 155 17.7559ZM205.351 127.703H104.643L154.994 40.7696L205.351 127.703Z" fill="#DD2414"/>
<path fill-rule="evenodd" clip-rule="evenodd" d="M154.994 67.2144C154.986 67.2142 154.978 67.2158 154.971 67.219C154.964 67.2221 154.957 67.2268 154.952 67.2327L146.718 77.0783C146.709 77.0881 146.705 77.1007 146.705 77.1137V101.772H135.389C135.375 101.772 135.361 101.778 135.351 101.788C135.342 101.798 135.336 101.811 135.336 101.825V109.698C135.336 109.712 135.341 109.726 135.351 109.736C135.361 109.747 135.374 109.753 135.389 109.753H146.705V122.788C146.705 122.795 146.706 122.802 146.709 122.808C146.712 122.815 146.716 122.821 146.721 122.826C146.726 122.831 146.732 122.835 146.739 122.838C146.745 122.84 146.753 122.841 146.76 122.841H146.779C146.787 122.841 146.795 122.839 146.801 122.835L154.995 119.077L163.164 122.835C163.171 122.839 163.178 122.841 163.186 122.841H163.203C163.217 122.841 163.231 122.836 163.241 122.826C163.251 122.815 163.257 122.802 163.257 122.788V77.1138C163.257 77.1009 163.253 77.0883 163.245 77.0783L155.035 67.2327C155.03 67.2269 155.024 67.2222 155.017 67.219C155.009 67.2159 155.002 67.2142 154.994 67.2144Z" fill="black"/>
</g>
</g>
<defs>
<clipPath id="clip0_4_3204">
<path d="M0 0H310V160H0V0Z" fill="white"/>
</clipPath>
<clipPath id="clip1_4_3204">
<rect width="148" height="130" fill="white" transform="translate(81 15)"/>
</clipPath>
</defs>
</svg>
