<svg width="310" height="160" viewBox="0 0 310 160" fill="none" xmlns="http://www.w3.org/2000/svg">
<g clip-path="url(#clip0_4_3216)">
<path d="M0 0H310V160H0V0Z" fill="white"/>
<g clip-path="url(#clip1_4_3216)">
<path d="M161.731 18.9671C160.412 16.6898 157.831 15.2651 155 15.2651C152.117 15.2651 149.535 16.7677 148.191 19.0883L82.4198 132.654C81.0082 135.091 80.7992 138.161 82.3092 140.768C83.7507 143.257 86.3468 144.735 89.0351 144.735H220.965C223.653 144.735 226.249 143.257 227.691 140.768C229.201 138.161 228.992 135.091 227.58 132.654L161.731 18.9671Z" fill="white" stroke="black" stroke-width="0.359678" stroke-miterlimit="2" stroke-linecap="round" stroke-linejoin="round"/>
<path d="M155.004 17.7202C153.049 17.7202 151.351 18.7425 150.496 20.2186L84.726 133.782C83.7414 135.482 83.6106 137.509 84.6151 139.243C85.5927 140.931 87.3248 141.88 89.0345 141.88H220.968C222.677 141.88 224.409 140.931 225.387 139.243C226.392 137.509 226.261 135.482 225.276 133.782L159.429 20.097C158.621 18.7024 156.94 17.7202 155.004 17.7202ZM205.381 127.73H104.622L154.998 40.747L205.381 127.73Z" fill="#DD2414"/>
<path fill-rule="evenodd" clip-rule="evenodd" d="M134.21 91.7129L131.345 96.961V100.582H128.922V104.842H131.345V114.401H128.922V118.637H131.345V121.999H136.999V118.637H141.92V121.999H147.576V118.637H152.489V121.999H158.147V118.637H163.048V121.999H168.72V118.637H173.627V121.922V121.999H179.276V118.637H181.1V114.401H179.276V104.842H181.1V100.582H179.276V96.961L176.511 91.7129L173.627 96.961V100.582H168.72V96.961L165.941 91.7129L163.048 96.961V100.582H158.147V96.961L155.358 91.7129L152.489 96.961V100.582H147.576V96.961L144.785 91.7129L141.92 96.961V100.582H136.999V96.961L134.21 91.7129ZM136.999 104.842H141.92V114.401H136.999V104.842ZM147.576 104.842H152.489V114.401H147.576V104.842ZM158.147 104.842H163.048V114.401H158.147V104.842ZM168.72 104.842H173.627V114.401H168.72V104.842Z" fill="black"/>
</g>
</g>
<defs>
<clipPath id="clip0_4_3216">
<path d="M0 0H310V160H0V0Z" fill="white"/>
</clipPath>
<clipPath id="clip1_4_3216">
<rect width="148" height="130" fill="white" transform="translate(81 15)"/>
</clipPath>
</defs>
</svg>
