<svg width="310" height="160" viewBox="0 0 310 160" fill="none" xmlns="http://www.w3.org/2000/svg">
<g clip-path="url(#clip0_4_3362)">
<path d="M0 0H310V160H0V0Z" fill="white"/>
<g clip-path="url(#clip1_4_3362)">
<path d="M161.73 19.0016C160.412 16.7256 157.832 15.3018 155.002 15.3018C152.121 15.3018 149.541 16.8034 148.197 19.1228L82.4583 132.624C81.0474 135.06 80.8385 138.128 82.3478 140.734C83.7885 143.221 86.3834 144.698 89.0703 144.698H220.935C223.622 144.698 226.216 143.221 227.657 140.734C229.167 138.128 228.958 135.06 227.547 132.624L161.73 19.0016Z" fill="white" stroke="black" stroke-width="0.719" stroke-miterlimit="2" stroke-linecap="round" stroke-linejoin="round"/>
<path d="M155 17.7559C153.046 17.7559 151.348 18.7776 150.494 20.2528L84.7568 133.752C83.7727 135.451 83.642 137.477 84.646 139.21C85.6231 140.897 87.3544 141.845 89.0632 141.845H220.931C222.64 141.845 224.371 140.897 225.348 139.21C226.352 137.477 226.221 135.451 225.237 133.752L159.423 20.1313C158.615 18.7374 156.935 17.7559 155 17.7559ZM205.351 127.703H104.643L154.994 40.7696L205.351 127.703Z" fill="#DD2414"/>
<path fill-rule="evenodd" clip-rule="evenodd" d="M155.022 67.272C155.014 67.272 155.006 67.2737 154.999 67.2769C154.992 67.2801 154.986 67.2848 154.981 67.2906L146.741 77.1183C146.733 77.1281 146.729 77.1404 146.729 77.1531V101.804H135.405C135.391 101.804 135.377 101.81 135.367 101.82C135.357 101.83 135.352 101.843 135.352 101.857V109.704C135.351 109.719 135.357 109.733 135.367 109.743C135.377 109.753 135.391 109.759 135.405 109.759H146.729V122.798C146.729 122.812 146.735 122.825 146.746 122.835C146.756 122.845 146.77 122.85 146.784 122.85H146.8C146.808 122.851 146.816 122.85 146.823 122.847L155.022 119.09L163.194 122.847C163.201 122.849 163.208 122.85 163.216 122.85H163.233C163.247 122.85 163.261 122.844 163.271 122.834C163.281 122.825 163.286 122.812 163.287 122.798V109.759H174.611C174.618 109.759 174.625 109.758 174.632 109.755C174.638 109.752 174.644 109.748 174.65 109.743C174.655 109.738 174.659 109.732 174.661 109.725C174.664 109.719 174.666 109.712 174.665 109.704V101.857C174.665 101.843 174.659 101.829 174.649 101.819C174.639 101.809 174.625 101.804 174.611 101.804H163.287V77.1531C163.287 77.1406 163.283 77.1283 163.276 77.1183L155.064 67.2906C155.059 67.2846 155.052 67.2798 155.045 67.2766C155.038 67.2734 155.03 67.2718 155.022 67.272Z" fill="black"/>
</g>
</g>
<defs>
<clipPath id="clip0_4_3362">
<path d="M0 0H310V160H0V0Z" fill="white"/>
</clipPath>
<clipPath id="clip1_4_3362">
<rect width="148" height="130" fill="white" transform="translate(81 15)"/>
</clipPath>
</defs>
</svg>
