<svg width="310" height="160" viewBox="0 0 310 160" fill="none" xmlns="http://www.w3.org/2000/svg">
<g clip-path="url(#clip0_4_3222)">
<path d="M0 0H310V160H0V0Z" fill="white"/>
<g clip-path="url(#clip1_4_3222)">
<path d="M161.73 19.0016C160.412 16.7256 157.832 15.3018 155.002 15.3018C152.121 15.3018 149.541 16.8034 148.197 19.1228L82.4583 132.624C81.0474 135.06 80.8385 138.128 82.3478 140.734C83.7885 143.221 86.3834 144.698 89.0703 144.698H220.935C223.622 144.698 226.216 143.221 227.657 140.734C229.167 138.128 228.958 135.06 227.547 132.624L161.73 19.0016Z" fill="white" stroke="black" stroke-width="0.719" stroke-miterlimit="2" stroke-linecap="round" stroke-linejoin="round"/>
<path d="M155 17.7559C153.046 17.7559 151.348 18.7776 150.494 20.2528L84.7568 133.752C83.7727 135.451 83.642 137.477 84.646 139.21C85.6231 140.897 87.3544 141.845 89.0632 141.845H220.931C222.64 141.845 224.371 140.897 225.348 139.21C226.352 137.477 226.221 135.451 225.237 133.752L159.423 20.1313C158.615 18.7374 156.935 17.7559 155 17.7559ZM205.351 127.703H104.643L154.994 40.7696L205.351 127.703Z" fill="#DD2414"/>
<path fill-rule="evenodd" clip-rule="evenodd" d="M142.554 81.5303L134.672 89.3838L147.115 101.818L134.727 114.183L134.672 114.237L142.554 122.091L155.018 109.691L167.459 122.091L175.34 114.237L162.875 101.818L175.34 89.3838L167.459 81.5303L155.018 93.9456L142.554 81.5303Z" fill="black"/>
</g>
</g>
<defs>
<clipPath id="clip0_4_3222">
<path d="M0 0H310V160H0V0Z" fill="white"/>
</clipPath>
<clipPath id="clip1_4_3222">
<rect width="148" height="130" fill="white" transform="translate(81 15)"/>
</clipPath>
</defs>
</svg>
