<svg width="310" height="160" viewBox="0 0 310 160" fill="none" xmlns="http://www.w3.org/2000/svg">
<g clip-path="url(#clip0_4_3068)">
<path d="M0 0H310V160H0V0Z" fill="white"/>
<g clip-path="url(#clip1_4_3068)">
<path d="M161.731 18.9676C160.412 16.6903 157.831 15.2656 155 15.2656C152.117 15.2656 149.535 16.7682 148.191 19.0888L82.4198 132.654C81.0082 135.091 80.7992 138.161 82.3092 140.769C83.7507 143.257 86.3468 144.735 89.0351 144.735H220.965C223.653 144.735 226.249 143.257 227.691 140.769C229.201 138.162 228.992 135.091 227.58 132.654L161.731 18.9676Z" fill="#FFE51A" stroke="black" stroke-width="0.359678" stroke-miterlimit="2" stroke-linecap="round" stroke-linejoin="round"/>
<path d="M155.004 17.7207C153.049 17.7207 151.351 18.743 150.496 20.219L84.726 133.783C83.7414 135.483 83.6106 137.509 84.6151 139.244C85.5927 140.932 87.3248 141.88 89.0345 141.88H220.968C222.677 141.88 224.409 140.932 225.387 139.244C226.392 137.509 226.261 135.483 225.276 133.783L159.429 20.0974C158.621 18.7028 156.94 17.7207 155.004 17.7207ZM205.381 127.73H104.622L154.998 40.7475L205.381 127.73Z" fill="#DD2414"/>
<path fill-rule="evenodd" clip-rule="evenodd" d="M154.287 79.6035C153.683 79.6035 153.158 79.9169 152.715 80.3562C152.354 80.7139 152.049 81.1553 151.798 81.5776L147.46 88.8466C147.46 88.8466 147.328 89.0419 147.141 89.3836H153.224H156.441C157.413 89.3836 158.201 89.8883 158.762 90.445C159.218 90.8974 159.566 91.4065 159.844 91.876L163.6 98.1741H170.5H170.872L170.872 98.1853L171.208 101.309C171.208 101.356 171.245 101.393 171.292 101.393H175.519C175.566 101.393 175.601 101.356 175.604 101.309L175.833 97.75C175.833 97.75 176.247 96.9637 176.585 96.4753C177.269 95.4867 178.134 94.2462 178.134 92.9412C178.134 91.4902 177.708 90.4002 177.359 89.7035C177.086 89.1598 176.87 88.8467 176.87 88.8467L172.533 81.5776C172.283 81.1553 171.976 80.7139 171.615 80.3562C171.172 79.917 170.647 79.6035 170.043 79.6035H166.826H157.504L154.287 79.6035ZM154.627 81.5776H159.607H160.903H169.704C170.411 81.5776 170.691 82.2069 170.981 82.8499L173.103 87.5682C173.392 88.2112 173.129 88.8404 172.422 88.8404H160.903H159.607H151.909C151.202 88.8404 150.938 88.2112 151.227 87.5682L153.351 82.8499C153.64 82.2069 153.92 81.5776 154.627 81.5776Z" fill="black"/>
<path fill-rule="evenodd" clip-rule="evenodd" d="M140.685 90.4424C140.081 90.4424 139.556 90.7558 139.113 91.1951C138.752 91.5528 138.447 91.9941 138.196 92.4165L133.858 99.6855C133.858 99.6855 133.68 99.9504 133.445 100.399H139.537H142.755C143.728 100.399 144.514 100.902 145.075 101.459C145.532 101.911 145.878 102.42 146.157 102.89L149.81 109.013H156.898H157.27V109.025L157.606 112.149C157.606 112.196 157.644 112.233 157.691 112.233H161.918C161.965 112.233 161.999 112.196 162.003 112.149L162.232 108.59C162.232 108.59 162.645 107.803 162.983 107.315C163.667 106.326 164.532 105.086 164.532 103.781C164.532 102.33 164.106 101.24 163.757 100.543C163.484 99.9992 163.268 99.6861 163.268 99.6861L158.931 92.4171C158.681 91.9947 158.374 91.5534 158.013 91.1957C157.57 90.7564 157.045 90.443 156.441 90.443H153.224H143.902L140.685 90.4424ZM141.025 92.4165H146.005H147.301H156.102C156.809 92.4165 157.089 93.0458 157.379 93.6888L159.501 98.407C159.79 99.05 159.527 99.6793 158.82 99.6793H147.301H146.005H138.307C137.6 99.6793 137.336 99.05 137.625 98.407L139.749 93.6888C140.038 93.0458 140.318 92.4165 141.025 92.4165Z" fill="black"/>
<path fill-rule="evenodd" clip-rule="evenodd" d="M126.997 101.456C126.393 101.456 125.868 101.769 125.425 102.209C125.064 102.566 124.759 103.008 124.508 103.43L120.17 110.699C120.17 110.699 119.954 111.012 119.681 111.556C119.332 112.253 118.906 113.343 118.906 114.794C118.906 116.099 119.771 117.339 120.455 118.328C120.793 118.816 121.206 119.603 121.206 119.603L121.457 123.162C121.46 123.209 121.495 123.246 121.542 123.246H125.769C125.816 123.246 125.853 123.209 125.853 123.162L126.189 120.038L126.189 120.026H127.813H143.21H143.582L143.582 120.038L143.918 123.162C143.918 123.209 143.955 123.246 144.002 123.246H148.229C148.276 123.246 148.31 123.209 148.313 123.162L148.542 119.603C148.542 119.603 148.956 118.816 149.294 118.328C149.978 117.339 150.843 116.099 150.843 114.794C150.843 113.343 150.418 112.253 150.068 111.556C149.795 111.012 149.579 110.699 149.579 110.699L145.243 103.43C144.992 103.008 144.685 102.566 144.325 102.209C143.882 101.769 143.357 101.456 142.752 101.456H139.535H130.214H126.997ZM127.337 103.43H132.317H133.613H142.414C143.121 103.43 143.401 104.059 143.691 104.702L145.813 109.421C146.102 110.064 145.839 110.693 145.132 110.693H133.613H132.317H124.619C123.912 110.693 123.648 110.064 123.937 109.421L126.061 104.702C126.35 104.059 126.63 103.43 127.337 103.43Z" fill="black"/>
</g>
</g>
<defs>
<clipPath id="clip0_4_3068">
<path d="M0 0H310V160H0V0Z" fill="white"/>
</clipPath>
<clipPath id="clip1_4_3068">
<rect width="148" height="130" fill="white" transform="translate(81 15)"/>
</clipPath>
</defs>
</svg>
