<svg width="310" height="160" viewBox="0 0 310 160" fill="none" xmlns="http://www.w3.org/2000/svg">
<g clip-path="url(#clip0_4_3055)">
<path d="M0 0H310V160H0V0Z" fill="white"/>
<g clip-path="url(#clip1_4_3055)">
<path d="M161.731 18.9676C160.412 16.6903 157.831 15.2656 155 15.2656C152.117 15.2656 149.535 16.7682 148.191 19.0888L82.4198 132.654C81.0082 135.091 80.7992 138.161 82.3092 140.769C83.7507 143.257 86.3468 144.735 89.0351 144.735H220.965C223.653 144.735 226.249 143.257 227.691 140.769C229.201 138.162 228.992 135.091 227.58 132.654L161.731 18.9676Z" fill="#FFE51A" stroke="black" stroke-width="0.359678" stroke-miterlimit="2" stroke-linecap="round" stroke-linejoin="round"/>
<path d="M155.004 17.7207C153.049 17.7207 151.351 18.743 150.496 20.219L84.726 133.783C83.7414 135.483 83.6106 137.509 84.6151 139.244C85.5927 140.932 87.3248 141.88 89.0345 141.88H220.968C222.677 141.88 224.409 140.932 225.387 139.244C226.392 137.509 226.261 135.483 225.276 133.783L159.429 20.0974C158.621 18.7028 156.94 17.7207 155.004 17.7207ZM205.381 127.73H104.622L154.998 40.7475L205.381 127.73Z" fill="#DD2414"/>
<path fill-rule="evenodd" clip-rule="evenodd" d="M149.268 96.7598L136.136 96.7606C134.847 96.7714 132.763 98.1386 131.275 99.2766C129.484 100.646 127.243 102.287 126.01 104.359C125.522 105.181 125.301 106.171 125.037 107.152H123.694C123.444 107.152 123.242 108.109 123.242 109.297C123.242 110.486 123.444 111.442 123.694 111.442H124.344H126.728V112.689L129.776 113.359L129.922 113.36C130.504 115.231 132.238 116.509 134.203 116.512C136.15 116.509 137.874 115.255 138.47 113.407L139.396 113.413L149.268 113.336V103.379H145.816C145.682 103.381 145.573 103.253 145.572 103.093V98.4836C145.573 98.3235 145.682 98.1946 145.816 98.1959H149.268L149.268 96.7598ZM136.475 98.1969L142.637 98.1978C142.723 98.1986 142.793 98.2814 142.794 98.3838V103.195C142.793 103.297 142.723 103.38 142.637 103.381H129.609C129.459 103.38 129.395 103.152 129.513 103.043C129.513 103.043 131.669 101.12 132.83 100.265C133.491 99.7776 134.18 99.3424 134.882 98.9492C135.395 98.6626 136.421 98.2065 136.421 98.2065C136.438 98.1997 136.457 98.1962 136.475 98.1969ZM134.223 110.219C135.219 110.219 136.027 111.024 136.027 112.017C136.027 113.01 135.219 113.815 134.223 113.815C133.227 113.815 132.419 113.01 132.419 112.017C132.419 111.024 133.227 110.219 134.223 110.219Z" fill="black"/>
<path fill-rule="evenodd" clip-rule="evenodd" d="M141.945 81.2764V84.8067H170.37V81.2764H141.945ZM141.945 88.745V92.2766H174.709V88.745H141.945ZM151.453 96.2236V99.7551H179.881V96.2236H151.453ZM152.756 103.692V107.223H183.043V103.692H152.756ZM152.756 111.181V114.711H186.955V111.181H152.756ZM152.756 118.638V122.17H181.181V118.638H152.756Z" fill="black"/>
</g>
</g>
<defs>
<clipPath id="clip0_4_3055">
<path d="M0 0H310V160H0V0Z" fill="white"/>
</clipPath>
<clipPath id="clip1_4_3055">
<rect width="148" height="130" fill="white" transform="translate(81 15)"/>
</clipPath>
</defs>
</svg>
