<svg width="310" height="160" viewBox="0 0 310 160" fill="none" xmlns="http://www.w3.org/2000/svg">
<g clip-path="url(#clip0_4_3097)">
<path d="M0 0H310V160H0V0Z" fill="white"/>
<g clip-path="url(#clip1_4_3097)">
<path d="M148.27 19.0016C149.588 16.7256 152.168 15.3018 154.998 15.3018C157.879 15.3018 160.459 16.8034 161.803 19.1228L227.542 132.624C228.953 135.06 229.162 138.128 227.652 140.734C226.211 143.221 223.617 144.698 220.93 144.698H89.0653C86.3784 144.698 83.7835 143.221 82.3428 140.734C80.8335 138.128 81.0423 135.06 82.4533 132.624L148.27 19.0016Z" fill="white" stroke="black" stroke-width="0.719" stroke-miterlimit="2" stroke-linecap="round" stroke-linejoin="round"/>
<path d="M154.992 17.7559C156.946 17.7559 158.644 18.7776 159.498 20.2528L225.235 133.752C226.219 135.451 226.35 137.477 225.346 139.21C224.369 140.897 222.638 141.845 220.929 141.845H89.0614C87.3525 141.845 85.6213 140.897 84.6441 139.21C83.6401 137.477 83.7709 135.451 84.755 133.752L150.57 20.1313C151.377 18.7374 153.058 17.7559 154.992 17.7559ZM104.641 127.703H205.35L154.998 40.7696L104.641 127.703Z" fill="#DD2414"/>
<path fill-rule="evenodd" clip-rule="evenodd" d="M163.865 71.2559C163.873 71.2557 163.881 71.2574 163.888 71.2606C163.895 71.2638 163.901 71.2686 163.907 71.2746L170.081 78.7576C170.089 78.7672 170.094 78.7795 170.094 78.7921L170.133 101.531C170.133 110.429 160.511 115.255 154.317 111.695L143.039 105.171C141.769 104.438 140.5 105.347 140.425 106.407V123.025C140.425 123.035 140.422 123.045 140.417 123.053C140.411 123.062 140.404 123.069 140.395 123.073C140.386 123.078 140.376 123.08 140.366 123.079C140.356 123.078 140.346 123.074 140.338 123.068L134.223 118.406L128.076 123.068C128.068 123.075 128.059 123.079 128.048 123.08C128.038 123.081 128.028 123.079 128.019 123.074C128.009 123.07 128.002 123.063 127.996 123.054C127.991 123.045 127.988 123.035 127.988 123.025V101.277C127.988 96.3269 130.317 92.8855 133.455 91.152C136.592 89.4185 140.537 89.3904 143.768 91.247L155.532 98.036C155.532 98.0365 155.532 98.037 155.532 98.0375C156.098 98.3781 156.633 98.3476 157.027 98.0836C157.421 97.8196 157.676 97.3157 157.657 96.6912C157.657 96.6907 157.657 96.6902 157.657 96.6898V78.831C157.657 78.8185 157.661 78.8063 157.669 78.7965L163.823 71.276C163.828 71.2698 163.834 71.2647 163.841 71.2612C163.849 71.2578 163.857 71.2559 163.865 71.2559Z" fill="black"/>
</g>
</g>
<defs>
<clipPath id="clip0_4_3097">
<path d="M0 0H310V160H0V0Z" fill="white"/>
</clipPath>
<clipPath id="clip1_4_3097">
<rect width="148" height="130" fill="white" transform="translate(81 15)"/>
</clipPath>
</defs>
</svg>
